<svg id="kapyushony_s_golovoy" data-name="kapyushony s golovoy" xmlns="http://www.w3.org/2000/svg"
    viewBox="0 0 672 960">
    <g id="img_55_img" data-name="img 55 img">
        <path class="outline"
            d="M328.28,90.7a10.67,10.67,0,0,0,.54-2c.6-6.83,3.25-12.91,6.38-18.92a48.34,48.34,0,0,1,23.9-22.6,3.78,3.78,0,0,0,.43-.28l-7.11-1.49.06-.45c3.68.57,7.19-.41,10.74-1.06L373.74,42l0-.53-11.54-1c5.83-2.65,18.32-1.68,24.17,1.64.47-1.2-3-4.82-5.84-6.14,4.37.33,7.39,2.86,9.75,6.17,1.15-1.36,2.13-2.71,3.31-3.86a10.93,10.93,0,0,1,3.75-2.58l-4.05,6.81.18.31c5.73-2.32,11-1,16.1,1.79-3.66-.4-7.41-1.58-10.81,1.62A25.61,25.61,0,0,1,411.62,50a60.09,60.09,0,0,1,10.49,8.23,21.47,21.47,0,0,0-9.35-2.4c1.94,1.73,3.87,3.26,5.58,5a49.15,49.15,0,0,1,10,15.92c1.73,4.15,3.27,8.37,4.87,12.57a14.71,14.71,0,0,1,.42,1.77l-.35.08a8.44,8.44,0,0,0-.2-.87c-1.38-4.34-2.88-8.62-5.78-12.23A5.08,5.08,0,0,0,425.88,77,42.09,42.09,0,0,1,430,90.81c.56,4.75,1.39,9.51.7,14.34q-.36-3.8-.71-7.58l-.37,0c0,1.15.07,2.32,0,3.47-.25,3.33-.67,6.64-.81,10a33.1,33.1,0,0,0,.49,5.42c.23,1.73.56,3.44.83,5.16,0,.18,0,.37-.35.67l-2.05-3.89a41.6,41.6,0,0,0-1.56,6.76v-7l-.35-.08c-1.24,2.17-2.46,4.34-3.71,6.5a23,23,0,0,1-1.78,2.84,22,22,0,0,1-2.42,2.18l-.22,3.53c1.26-.31,2.46-.53,3.61-.89,6.8-2.15,13.8-2.48,20.84-2.27a8,8,0,0,1,5.25,2.62,4.35,4.35,0,0,0,1.58.93c3.19,1,5.64,2.86,6.72,6.17a11.83,11.83,0,0,0,3.24,4.68,7.39,7.39,0,0,1,2.38,7.14c-.21,1-.31,2-.43,3.06a14.15,14.15,0,0,0,3.68,11.88,71.2,71.2,0,0,1,6.28,8.6,4.4,4.4,0,0,1-2.23,6.43,24.72,24.72,0,0,1-3.21.95c-4.37,1.06-8.21,3.23-12,5.49s-7.54,4.14-11.29,6.25a10.88,10.88,0,0,0-2,1.69A58,58,0,0,1,421.75,208a33.35,33.35,0,0,1-6.84,1.58c-3.93.65-7.88,1.19-11.84,1.67a53,53,0,0,1-14.56-.52,69.88,69.88,0,0,1-15.71-4.09c-6.93-2.81-13.19-6.61-18.11-12.4-2.38-2.79-5.13-5.28-6.88-8.58a4,4,0,0,1-.49-1c-.31-1.34-1.15-1.22-2.15-.87a18.18,18.18,0,0,1-3.19.94,1.5,1.5,0,0,1-1.66-2.38c2.19-3.86,4.54-7.62,6.68-11.49,2.74-5,3.76-10.49,4.85-16,.67-3.36,1.14-6.76,1.86-10.12.39-1.82,1.12-3.57,1.66-5.36a1.9,1.9,0,0,0,0-1.2c-1.71-3.74-3.41-7.48-5.22-11.18a6.57,6.57,0,0,0-1.69-1.85c-.72-.63-1.54-1.15-2.31-1.71l-.78-.58-.23.19,1.8,3.5-.37.21-4.66-6.06a28.32,28.32,0,0,0-7.1,9.8l-.47-.2a8,8,0,0,1,.58-2.14c1.4-2.22,2.9-4.38,4.37-6.56a3.07,3.07,0,0,1,.35-.43c-1.62-3-3.28-5.92-4.69-8.9a17.69,17.69,0,0,1-1.65-7.79c0-3.7.21-7.39.3-11.09a34.07,34.07,0,0,0-.22-5.14c-2.55,5.33-2.25,11-2.61,16.68a39.59,39.59,0,0,1-.85-16.08A13.47,13.47,0,0,0,329,95.4l-.72-.38Zm17,31.83-.17.32.11,0,0-.34-.41-.11,0,.26Zm8.36,4.86-.39-.57c-1-1.71-2.05-3.42-3.1-5.11a3.94,3.94,0,0,0-.84-.72l-.3.31a19.7,19.7,0,0,0,3.89,5.8l.37.61,1.18,1.89a5.62,5.62,0,0,1,.23,1.49,2.64,2.64,0,0,0,1.17,2.46l1.51,1.23c.28-.83-.57-2.58-2.61-5.47Zm85,68.11c-4.92,1.2-9.84,2.37-14.75,3.6-4.06,1-7.59,3.17-11.06,5.37a41.58,41.58,0,0,0-4.9,4.24l.19.3a8.81,8.81,0,0,0,.89,0,44.87,44.87,0,0,0,4.5-.5c3.07-.62,6.31-.93,9.1-2.19a95.23,95.23,0,0,0,11.69-6.75,36,36,0,0,0,4.46-3.95l.13-.15Zm-77-38.06a6.24,6.24,0,0,0,.73,1.23c2.72,2.88,5.47,5.74,8.21,8.6.41.36.85.71,1.25,1.1,5.35,5.21,10.83,10.3,16,15.69a68.25,68.25,0,0,1,13.15,19.48c.24.55.5,1.08.75,1.62l.4-.13a30,30,0,0,0-.9-4.57c-2.83-7.74-7.8-14.2-12.87-20.53-2.93-3.66-6.46-6.84-9.69-10.27s-6.34-6.67-9.34-10.14a25.75,25.75,0,0,1-6.45-14.92c-.06-.68-.2-1.34-.3-2a1.17,1.17,0,0,0-.43.76c-.57,3.26-1,6.56-1.74,9.78A4.39,4.39,0,0,0,361.58,157.44Zm82.69,2,.52-.78,5-7.18c.89-1.63,1.81-3.26,2.67-4.91a1.1,1.1,0,0,0,0-.92c-1.1-1.72-2.24-3.41-3.5-5.31-.43,1.23-.73,2.14-1.07,3a26.8,26.8,0,0,1-1.16,2.76,177,177,0,0,1-17.21,27.07A107.14,107.14,0,0,1,415,188.23c-3.95,3.41-7.61,7.17-11.4,10.78-.21.21-.52.55-.48.78.24,1.41.57,2.81.93,4.5.63-.67,1-1,1.34-1.41,1.86-2.08,3.7-4.19,5.6-6.25,3.25-3.52,6.61-6.95,9.78-10.53s6-7.28,9.15-10.79c3.85-4.28,7.89-8.38,11.8-12.6C442.65,161.7,443.42,160.52,444.27,159.41Zm-55.06,50,11.19.66c.72,0,.79-.29.7-1a23.8,23.8,0,0,0-3.76-9.27,102.43,102.43,0,0,0-8.54-12.26,169.08,169.08,0,0,0-11.94-12.46c-4.81-4.67-10-9-14.7-13.75A22.49,22.49,0,0,1,355.65,147c-.06-.76,0-1.54,0-2.3-1.68,6.54-2.65,13.24-4.71,19.59s-5.21,12.42-7.85,18.55l5-1c.06.17.07.41.19.49,1.72,1.16,3.41,2.37,5.19,3.42a27.27,27.27,0,0,0,4.82,2.37c6.46,2.16,12.92,4.29,19.45,6.24,5.41,1.61,9.71,4.87,13.75,8.6a5.85,5.85,0,0,1,.84,1.34l-1.07-.95c-3.27-2.9-6.69-5.66-10.8-7.22-4.8-1.81-9.74-3.28-14.66-4.76-4.12-1.24-8.29-2.28-12.44-3.44-.83-.24-1.62-.61-2.43-.92l-.18.29c1.55,1.76,3.17,3.47,4.64,5.3a37.71,37.71,0,0,0,9.6,8.56,48.72,48.72,0,0,0,13.9,6Zm25.93-77.9c-.59.76-1.19,1.5-1.75,2.27a78.39,78.39,0,0,1-19.21,18.77c-2.17,1.48-4.31,3-6.53,4.45a3.13,3.13,0,0,1-2.21.49,30.93,30.93,0,0,1-5.61-2.07c-3.24-1.63-6.38-3.49-9.56-5.25l-1.12-.61c.39,2.48.68,4.72,1.13,6.93a5.71,5.71,0,0,0,1.14,2.65c2,2.25,4.24,4.33,6.34,6.52,2.81,2.94,5.66,5.86,8.36,8.9,2.2,2.48,4.32,5,6.28,7.71,2.29,3.12,4.43,6.34,6.51,9.61,1.12,1.76,2,3.7,2.95,5.6a211,211,0,0,0,29-29.51c-.65-.29-1.15-.54-1.67-.74a11.88,11.88,0,0,1-5.29-3.48c-1.09-1.38-2.29-2.67-3.45-4a8,8,0,0,0-.82-.7l-.21.22,3.6,12.47a9.86,9.86,0,0,1-1.27-2.45c-2.23-5.73-4.52-11.48-5.09-17.65-.62-6.66-.8-13.36-1.17-20l.18-1.23-.37,0ZM402.41,80.17l.22.15,0-.3q-1.69-4.35-3.37-8.7a38.14,38.14,0,0,1,8,23.7l20.33-.91c-.12-1.91-.27-4-.39-6.19a11.4,11.4,0,0,0,0-2.19c-.63-2.39-1.32-4.76-2.09-7.1-.51-1.53-1.2-3-1.9-4.71,1.75.32,2.55,1.76,3.86,2.47-3.76-8-8.38-15.33-15.95-20.56,1.66-1.12,3.36-.47,5-.73a59.2,59.2,0,0,0-16.64-7.41c-.77-.21-1.51-.53-2.51-.88l2.6-2.1c-2.62.09-5.12.21-7.15,2.06-1.35,1.24-1.63,1.07-3.05-.11-3.58-3-7.47-4.73-12.33-3.35-4.06,1.16-8.2,2.07-12.34,3A15.37,15.37,0,0,0,359.44,48a95.51,95.51,0,0,0-14.58,10.7,24.26,24.26,0,0,0-5.57,6.69c-.72,1.42-1.41,2.86-2.1,4.3q-2.61,5.38-5.2,10.79l.31.25a5.09,5.09,0,0,0,.88-.61c.8-.84,1.55-1.72,2.37-2.54a5.3,5.3,0,0,1,1.11-.65l.28.32A15.73,15.73,0,0,0,332,88.87l1.89-2.81.45.16c.25,3,.55,6,.72,9.09.2,3.46.16,6.93.46,10.38a55.82,55.82,0,0,0,1.22,6.21l.52-.07-.4-6.44,6,12.5c1.57-1.18,2.92-2.17,4.23-3.22a1,1,0,0,0,.29-.89c-1.17-2.69-2.4-5.36-3.76-8.34a19.74,19.74,0,0,0-2.5,6.62,4.68,4.68,0,0,1-.59-1.49,20.6,20.6,0,0,1,.58-9c1.91-7.34,5.62-13.79,9.8-20,.25-.39.46-.81.7-1.22l.44.42c-.73,1.42-1.5,2.84-2.2,4.28a72.77,72.77,0,0,0-6.37,17.12,7.71,7.71,0,0,0,0,1.52c2.31-2.36,4.41-4.72,6.74-6.81a98.5,98.5,0,0,0,12.5-13.72,1.85,1.85,0,0,0,.41-1.16c-.35-3.45-.85-6.88-1.13-10.33-.17-2,0-4.09,0-6.14l.28,0,1.95,15.26.44.11,4.62-6.31.29.17a13.54,13.54,0,0,1-.64,1.45c-1.19,2-2.42,4-3.6,6.07a2.35,2.35,0,0,0-.47,1.3c.14,1.12.44,2.22.74,3.63,2.21-2.31,4.34-4.4,6.3-6.64a23.9,23.9,0,0,0,4.52-7.65,3,3,0,0,1,0,1.36A19.89,19.89,0,0,1,373,81.67c-2.09,2.9-4.71,5.41-6.21,8.74a3,3,0,0,0,.16,2.79c10.4-11.43,19.82-23.26,23.92-38.45a7.52,7.52,0,0,1-.07,2.6c-.94,3.45-1.95,6.89-3,10.31a1,1,0,0,0,.3,1.32c1.22,1,2.32,2.22,3.59,3.19C395.22,74.88,398.83,77.51,402.41,80.17Zm-32.63,25.26c.66,2.15,1.24,4.27,1.94,6.34,3.12,9.34,6.28,18.67,9.4,28a7.71,7.71,0,0,1,.22,1.44l-.31.06c-2.32-5.82-4.76-11.59-6.93-17.47s-4-11.83-6.07-17.87c-1.86.75-3.8,1.39-5.61,2.29-4.16,2-8.25,4.2-12.35,6.36-.32.17-.74.75-.66,1,.54,1.91.87,4,1.87,5.64,4.16,6.9,8.47,13.71,12.85,20.47a18.5,18.5,0,0,0,4.43,5.14,82,82,0,0,0,16.31,9.06,2.34,2.34,0,0,0,2.62-.36c5.19-4.13,10.55-8.06,15.53-12.43a62.44,62.44,0,0,0,10.75-11.73,2.71,2.71,0,0,0,.39-1.07,20.82,20.82,0,0,1,.23-2.86c.81-3.23,1.67-6.46,2.65-9.65a24.61,24.61,0,0,1,1.62-2.77c.73-1.55,1.06-3-.5-4.49a4.16,4.16,0,0,1-1.46-2.75,11.74,11.74,0,0,1,2.73-6.85,1.1,1.1,0,0,1,.91-.34c.27.08.45.5.74.87H420l.42.8,2,3.59-.29.16L419.25,103l-.58.35a5.26,5.26,0,0,0,.42,1.27c2.25,3.49,4.08,7,2.7,11.42-.65,2.06-1.72,3.45-4,3.78a.84.84,0,0,0-.56.57c-.36,1.63-.64,3.27-1,4.91-.17.85.31,1.18,1,1.53a1,1,0,0,0,1.49-.39c1.93-2.79,3.82-5.61,5.84-8.33a6.49,6.49,0,0,0,1.24-5.63c-.12-.54-.27-1.08-.43-1.61-1.23-4.17-2.39-8.35-5.34-11.74-1-1.2-2.1-1.45-3.06-.23a31.26,31.26,0,0,0-3.59,5.47,63.81,63.81,0,0,0-2.22,6.18c-.11.28-.54.43-.83.65-.12-.32-.39-.66-.34-1,.19-1.25.49-2.49.71-3.74.15-.89.25-1.78.37-2.67a18.88,18.88,0,0,0-1.8,2.9c-.57,1-1.21,2-1.8,3-1.36,2.24-1.35,2.24-1.69,2.29.19-1.27.49-2.6.56-3.93.09-2.07.05-4.14,0-6.2,0-1.68-.16-3.36-.24-5C399.11,97.08,375.57,102.71,369.78,105.43Zm68.05,27.21c-1.82.09-3.59,0-5.32.29-4.85.73-9.67,1.58-14.5,2.44a1.08,1.08,0,0,0-.65.78,34.12,34.12,0,0,0-.24,4.28c.08,2.82.29,5.63.43,8.45a17.22,17.22,0,0,0,1.87,6.84c1.66,3.39,4.4,5.94,6.53,9a3.88,3.88,0,0,0,1.32,1c.88.46,1.83.79,2.71,1.26s1.48.27,2.06-.59c4.15-6.16,8.35-12.28,12.49-18.45a15.14,15.14,0,0,0,2.87-8.24c.07-3.74-1.88-6.35-5.56-6.79C440.49,132.71,439.13,132.71,437.83,132.64Zm-68.57-28.92a170.06,170.06,0,0,1,36.59-8.34c-.82-4.23-1.63-8.45-2.49-12.66-.06-.31-.46-.63-.78-.78A43.42,43.42,0,0,1,387,70c-1.45,2.41-2.81,4.85-4.35,7.17A111.34,111.34,0,0,1,368,94.72c-.33.32-.71.9-.63,1.27C368,98.55,368.61,101.09,369.26,103.72Zm86.37,40.79c-1.16,2.32-2.15,4.68-3.44,6.85-4.13,7-9.49,13.07-14.82,19.1-8.28,9.38-16.91,18.45-25.39,27.64-2.3,2.5-4.7,4.91-6.9,7.5a10.62,10.62,0,0,0-1.36,3.23.74.74,0,0,0,.32.67,3,3,0,0,0,2.89-.83c2.63-4.32,6.57-7.12,10.92-9.45s9.17-3,13.91-3.75c6.39-1.06,12.58-2.58,18-6.28,2.88-1.95,5.73-4,8.73-5.7,2.62-1.52,5.44-2.7,8.17-4a3,3,0,0,0,1.46-4.24q-2.75-4.65-5.63-9.2a13.81,13.81,0,0,1-2.5-6,56.7,56.7,0,0,1-.54-8.21C459.67,148.38,457.57,146.5,455.63,144.51ZM365,91l-.49-.16-.37.28a81.79,81.79,0,0,1-12.74,9.11c-2.38,1.43-4.65,3-6.9,4.5l4.28,8.78a90.43,90.43,0,0,1,18.25-9c.26-.1.62-.6.56-.82-.53-2.27-1.13-4.53-1.71-6.77l-7.11,5.67-.45-.41a15.22,15.22,0,0,1,.82-1.41c.7-1,1.49-1.87,2.16-2.86,1-1.52,2-3.06,2.93-4.65A12.48,12.48,0,0,0,365,91Zm62.49,3.72c-6.82-.26-13.49.71-20.34,1.77.19,3.36.39,6.65.58,9.93a3.23,3.23,0,0,0,.62-1.06c1-2.36,1.92-4.72,2.93-7.06.13-.29.55-.45.84-.66a2.6,2.6,0,0,1,.35.92c0,1.36-.14,2.72-.23,4.08.06,0,.17,0,.2,0s.19-.34.29-.51c.82-1.52,1.09-3.25,2.9-4.3s3.5-1.16,4.91.35a19.5,19.5,0,0,1,4.24,7.65c.45,1.46.94,2.9,1.48,4.53A47.11,47.11,0,0,0,427.5,94.75Zm-66.3,45.5c-2.53-.54-3.41-.13-3.94,2.08a8.78,8.78,0,0,0,.09,3.06,19.12,19.12,0,0,0,2,7.27C359.94,148.55,360.57,144.43,361.2,140.25Zm57-35.32a4.26,4.26,0,0,0,.52,5.24,4.52,4.52,0,0,1,.5,5.4c-.44.89-.92,1.78-1.41,2.7,2.24.06,2.49-.13,3.35-2C422.56,113.22,420.81,107.81,418.24,104.93ZM363.58,84.75A61.45,61.45,0,0,1,352.25,98c.55-.08.82,0,1-.15q5.3-4.45,10.55-9a1.21,1.21,0,0,0,.43-.91C364.07,87,363.83,86,363.58,84.75Zm-16.47,37.18c.41-1.94.56-2.13,2-2.54l-1-3.62-4,3Zm-6.91-1.46c1.13-.93,1.12-.92.55-2-.35-.67-.68-1.35-1-2-.58-1.42-1.13-2.85-1.76-4.45A12.69,12.69,0,0,0,340.2,120.47Zm27.36,32.91c-.4-2.88-.09-6-3.05-8.11A17.94,17.94,0,0,0,367.56,153.38Zm-8.29-16.22c-1.72-1.07-2.93-2.56-4.91-3.48l2,4.2ZM453,142.24c.39-2.4-1.33-5-3.55-5.06Zm-102.1-15.48,2.73,5.6C353.89,129.74,352.43,126.89,350.86,126.76Zm12.89-31.1c1.36-.16,1.8-.89,1.37-2.21Z" />
        <polygon class="outline" points="347.94 127.71 347.93 127.63 348 127.66 347.94 127.71" />
        <path class="transparent"
            d="M402.41,80.17c-3.58-2.66-7.19-5.29-10.74-8-1.27-1-2.37-2.14-3.59-3.19a1,1,0,0,1-.3-1.32c1.05-3.42,2.06-6.86,3-10.31a7.52,7.52,0,0,0,.07-2.6c-4.1,15.19-13.52,27-23.92,38.45a3,3,0,0,1-.16-2.79c1.5-3.33,4.12-5.84,6.21-8.74a19.89,19.89,0,0,0,3.46-7.44,3,3,0,0,0,0-1.36,23.9,23.9,0,0,1-4.52,7.65c-2,2.24-4.09,4.33-6.3,6.64-.3-1.41-.6-2.51-.74-3.63a2.35,2.35,0,0,1,.47-1.3c1.18-2,2.41-4,3.6-6.07a13.54,13.54,0,0,0,.64-1.45l-.29-.17-4.62,6.31-.44-.11-1.95-15.26-.28,0c0,2-.14,4.11,0,6.14.28,3.45.78,6.88,1.13,10.33a1.85,1.85,0,0,1-.41,1.16,98.5,98.5,0,0,1-12.5,13.72c-2.33,2.09-4.43,4.45-6.74,6.81a7.71,7.71,0,0,1,0-1.52A72.77,72.77,0,0,1,349.87,85c.7-1.44,1.47-2.86,2.2-4.28l-.44-.42c-.24.41-.45.83-.7,1.22-4.18,6.23-7.89,12.68-9.8,20a20.6,20.6,0,0,0-.58,9,4.68,4.68,0,0,0,.59,1.49,19.74,19.74,0,0,1,2.5-6.62c1.36,3,2.59,5.65,3.76,8.34a1,1,0,0,1-.29.89c-1.31,1-2.66,2-4.23,3.22l-6-12.5.4,6.44-.52.07a55.82,55.82,0,0,1-1.22-6.21c-.3-3.45-.26-6.92-.46-10.38-.17-3-.47-6.06-.72-9.09l-.45-.16L332,88.87a15.73,15.73,0,0,1,4.92-11.63l-.28-.32a5.3,5.3,0,0,0-1.11.65c-.82.82-1.57,1.7-2.37,2.54a5.09,5.09,0,0,1-.88.61l-.31-.25q2.6-5.4,5.2-10.79c.69-1.44,1.38-2.88,2.1-4.3a24.26,24.26,0,0,1,5.57-6.69A95.51,95.51,0,0,1,359.44,48a15.37,15.37,0,0,1,5.17-1.71c4.14-.9,8.28-1.81,12.34-3,4.86-1.38,8.75.37,12.33,3.35,1.42,1.18,1.7,1.35,3.05.11,2-1.85,4.53-2,7.15-2.06l-2.6,2.1c1,.35,1.74.67,2.51.88A59.2,59.2,0,0,1,416,55.1c-1.62.26-3.32-.39-5,.73,7.57,5.23,12.19,12.56,15.95,20.56-1.31-.71-2.11-2.15-3.86-2.47.7,1.71,1.39,3.18,1.9,4.71.77,2.34,1.46,4.71,2.09,7.1a11.4,11.4,0,0,1,0,2.19c.12,2.14.27,4.28.39,6.19L407.22,95a38.14,38.14,0,0,0-8-23.7q1.68,4.35,3.37,8.7Z" />
        <path class="transparent"
            d="M369.78,105.43c5.79-2.72,29.33-8.35,36.39-8.66.08,1.68.2,3.36.24,5,0,2.06.08,4.13,0,6.2-.07,1.33-.37,2.66-.56,3.93.34,0,.33,0,1.69-2.29.59-1,1.23-2,1.8-3a18.88,18.88,0,0,1,1.8-2.9c-.12.89-.22,1.78-.37,2.67-.22,1.25-.52,2.49-.71,3.74-.05.3.22.64.34,1,.29-.22.72-.37.83-.65a63.81,63.81,0,0,1,2.22-6.18A31.26,31.26,0,0,1,417,98.85c1-1.22,2-1,3.06.23,3,3.39,4.11,7.57,5.34,11.74.16.53.31,1.07.43,1.61a6.49,6.49,0,0,1-1.24,5.63c-2,2.72-3.91,5.54-5.84,8.33a1,1,0,0,1-1.49.39c-.67-.35-1.15-.68-1-1.53.33-1.64.61-3.28,1-4.91a.84.84,0,0,1,.56-.57c2.23-.33,3.3-1.72,4-3.78,1.38-4.38-.45-7.93-2.7-11.42a5.26,5.26,0,0,1-.42-1.27l.58-.35,2.87,3.07.29-.16-2-3.59-.42-.8h1.13c-.29-.37-.47-.79-.74-.87a1.1,1.1,0,0,0-.91.34,11.74,11.74,0,0,0-2.73,6.85,4.16,4.16,0,0,0,1.46,2.75c1.56,1.44,1.23,2.94.5,4.49A24.61,24.61,0,0,0,417,117.8c-1,3.19-1.84,6.42-2.65,9.65a20.82,20.82,0,0,0-.23,2.86,2.71,2.71,0,0,1-.39,1.07A62.44,62.44,0,0,1,403,143.11c-5,4.37-10.34,8.3-15.53,12.43a2.34,2.34,0,0,1-2.62.36,82,82,0,0,1-16.31-9.06,18.5,18.5,0,0,1-4.43-5.14c-4.38-6.76-8.69-13.57-12.85-20.47-1-1.66-1.33-3.73-1.87-5.64-.08-.26.34-.84.66-1,4.1-2.16,8.19-4.31,12.35-6.36,1.81-.9,3.75-1.54,5.61-2.29,2,6,3.92,12,6.07,17.87s4.61,11.65,6.93,17.47l.31-.06a7.71,7.71,0,0,0-.22-1.44c-3.12-9.33-6.28-18.66-9.4-28C371,109.7,370.44,107.58,369.78,105.43Z" />
        <path class="transparent"
            d="M415.53,131.55c.37,6.69.55,13.39,1.17,20,.57,6.17,2.86,11.92,5.09,17.65a9.86,9.86,0,0,0,1.27,2.45l-3.6-12.47.21-.22a8,8,0,0,1,.82.7c1.16,1.32,2.36,2.61,3.45,4a11.88,11.88,0,0,0,5.29,3.48c.52.2,1,.45,1.67.74a211,211,0,0,1-29,29.51c-1-1.9-1.83-3.84-2.95-5.6-2.08-3.27-4.22-6.49-6.51-9.61-2-2.67-4.08-5.23-6.28-7.71-2.7-3-5.55-6-8.36-8.9-2.1-2.19-4.31-4.27-6.34-6.52a5.71,5.71,0,0,1-1.14-2.65c-.45-2.21-.74-4.45-1.13-6.93l1.12.61c3.18,1.76,6.32,3.62,9.56,5.25a30.93,30.93,0,0,0,5.61,2.07,3.13,3.13,0,0,0,2.21-.49c2.22-1.41,4.36-3,6.53-4.45a78.39,78.39,0,0,0,19.21-18.77c.56-.77,1.16-1.51,1.75-2.27ZM398,169.5c.1-.2.18-.28.19-.37.14-3,.26-6.11.42-9.16a1.92,1.92,0,0,1,.27-1.1,4.67,4.67,0,0,0,.32-5C397.49,159,397.45,164.13,398,169.5Zm-20.6-13.78-.32.14c.77,3.72,2.78,6.84,4.75,10l.3-.14Z" />
        <path class="color-shadow"
            d="M437.83,132.64c1.3.07,2.66.07,4,.23,3.68.44,5.63,3,5.56,6.79a15.14,15.14,0,0,1-2.87,8.24c-4.14,6.17-8.34,12.29-12.49,18.45-.58.86-1.14,1.08-2.06.59s-1.83-.8-2.71-1.26a3.88,3.88,0,0,1-1.32-1c-2.13-3-4.87-5.57-6.53-9a17.22,17.22,0,0,1-1.87-6.84c-.14-2.82-.35-5.63-.43-8.45a34.12,34.12,0,0,1,.24-4.28,1.08,1.08,0,0,1,.65-.78c4.83-.86,9.65-1.71,14.5-2.44C434.24,132.67,436,132.73,437.83,132.64Z" />
        <path class="color-base"
            d="M392.37,204.23a5.85,5.85,0,0,0-.84-1.34c-4-3.73-8.34-7-13.75-8.6-6.53-1.95-13-4.08-19.45-6.24a27.27,27.27,0,0,1-4.82-2.37c-1.78-1.05-3.47-2.26-5.19-3.42-.12-.08-.13-.32-.19-.49q4-13.19,8.08-26.42a5.45,5.45,0,0,1,.26.62c1.82,5.95,5.42,10.77,9.66,15.17a97.14,97.14,0,0,0,14,11.53,23.24,23.24,0,0,1,5.38,4.88,58.19,58.19,0,0,1,8.36,16.57,5.74,5.74,0,0,1,0,1.66l-1.53-1.57Z" />
        <path class="transparent"
            d="M369.26,103.72c-.65-2.63-1.31-5.17-1.85-7.73-.08-.37.3-.95.63-1.27a111.34,111.34,0,0,0,14.6-17.6c1.54-2.32,2.9-4.76,4.35-7.17a43.42,43.42,0,0,0,15.59,12c.32.15.72.47.78.78.86,4.21,1.67,8.43,2.49,12.66A170.06,170.06,0,0,0,369.26,103.72Z" />
        <path class="color-shadow"
            d="M455.63,144.51c1.94,2,4,3.87,3.85,7.28A56.7,56.7,0,0,0,460,160a13.81,13.81,0,0,0,2.5,6q2.88,4.56,5.63,9.2a3,3,0,0,1-1.46,4.24c-2.73,1.32-5.55,2.5-8.17,4-3,1.74-5.85,3.75-8.73,5.7-5.45,3.7-11.64,5.22-18,6.28-4.74.79-9.56,1.42-13.91,3.75s-8.29,5.13-10.92,9.45a3,3,0,0,1-2.89.83.74.74,0,0,1-.32-.67,10.62,10.62,0,0,1,1.36-3.23c2.2-2.59,4.6-5,6.9-7.5,8.48-9.19,17.11-18.26,25.39-27.64,5.33-6,10.69-12.11,14.82-19.1C453.48,149.19,454.47,146.83,455.63,144.51Zm-7.43,40.91a14.56,14.56,0,0,0,1.93-1c4.4-3.17,8.79-6.34,13.78-8.56.31-.14.71-.69.65-1a14.71,14.71,0,0,0-1.15-3.84,39.1,39.1,0,0,0-3-4.3,22.61,22.61,0,0,1-4.25-8.74c-.35-1.73-.56-3.47-.85-5.33-.16.23-.27.38-.36.54a86.18,86.18,0,0,1-12.6,17.65q-6,6.4-12.2,12.68c-2,2.08-4.14,4.11-6.3,6.06-2,1.79-4.09,3.42-6.1,5.17-1.74,1.52-3.43,3.09-5.13,4.66-.7.66-1.36,1.37-2,2.05l.2.24a4.1,4.1,0,0,0,.48-.21c3.65-2.32,7.35-4.58,10.95-7a36.39,36.39,0,0,1,14-5.54,97.58,97.58,0,0,0,10.22-2.85,1.54,1.54,0,0,0,.83-.76c.34-.72.55-1.5.83-2.24.47-1.25.95-2.5,1.42-3.74l.27.09Z" />
        <path class="color-shadow"
            d="M393.89,205.78a5.74,5.74,0,0,0,0-1.66,58.19,58.19,0,0,0-8.36-16.57,23.24,23.24,0,0,0-5.38-4.88,97.14,97.14,0,0,1-14-11.53c-4.24-4.4-7.84-9.22-9.66-15.17a5.45,5.45,0,0,0-.26-.62q-4.05,13.26-8.08,26.42l-5,1c2.64-6.13,5.79-12.17,7.85-18.55s3-13,4.71-19.59c0,.76-.06,1.54,0,2.3a22.49,22.49,0,0,0,6.51,14.33c4.71,4.77,9.89,9.08,14.7,13.75a169.08,169.08,0,0,1,11.94,12.46,102.43,102.43,0,0,1,8.54,12.26A23.8,23.8,0,0,1,401.1,209c.09.69,0,1-.7,1l-11.19-.66c.16-.11.32-.3.48-.3,1.59,0,3.18.1,4.77.15.22,0,.44,0,.75-.05l-.3-1-.25.31a7.35,7.35,0,0,1-1.92-1.23,18.48,18.48,0,0,0-6.25-5.11,51.67,51.67,0,0,0-13.73-4.72c-3.51-.57-6.95-1.56-10.77-2.44a13.62,13.62,0,0,0,.95,1,70.27,70.27,0,0,0,15.41,10.38c.25.12.39.44.58.67a48.72,48.72,0,0,1-13.9-6,37.71,37.71,0,0,1-9.6-8.56c-1.47-1.83-3.09-3.54-4.64-5.3l.18-.29c.81.31,1.6.68,2.43.92,4.15,1.16,8.32,2.2,12.44,3.44,4.92,1.48,9.86,2.95,14.66,4.76,4.11,1.56,7.53,4.32,10.8,7.22l1.07.95v0l1.35,2.07.21-.09Z" />
        <path class="color-shadow"
            d="M444.27,159.41c-.85,1.11-1.62,2.29-2.56,3.3-3.91,4.22-7.95,8.32-11.8,12.6-3.15,3.51-6,7.26-9.15,10.79s-6.53,7-9.78,10.53c-1.9,2.06-3.74,4.17-5.6,6.25-.35.38-.71.74-1.34,1.41-.36-1.69-.69-3.09-.93-4.5,0-.23.27-.57.48-.78,3.79-3.61,7.45-7.37,11.4-10.78a107.14,107.14,0,0,0,14.52-15.06,177,177,0,0,0,17.21-27.07,26.8,26.8,0,0,0,1.16-2.76c.34-.89.64-1.8,1.07-3,1.26,1.9,2.4,3.59,3.5,5.31a1.1,1.1,0,0,1,0,.92c-.86,1.65-1.78,3.28-2.67,4.91-.18-.6-.35-1.2-.53-1.81-.09,0-.19.05-.22.1-1.58,2.88-3.16,5.75-4.71,8.65A2.62,2.62,0,0,0,444.27,159.41Z" />
        <path class="transparent"
            d="M365,91a12.48,12.48,0,0,1-.77,2.28c-.91,1.59-1.91,3.13-2.93,4.65-.67,1-1.46,1.89-2.16,2.86a15.22,15.22,0,0,0-.82,1.41l.45.41L365.89,97c.58,2.24,1.18,4.5,1.71,6.77.06.22-.3.72-.56.82a90.43,90.43,0,0,0-18.25,9l-4.28-8.78c2.25-1.47,4.52-3.07,6.9-4.5a81.79,81.79,0,0,0,12.74-9.11l.37-.28Z" />
        <path class="color-shadow"
            d="M361.58,157.44a4.39,4.39,0,0,1-1.24-4.31c.75-3.22,1.17-6.52,1.74-9.78a1.17,1.17,0,0,1,.43-.76c.1.67.24,1.33.3,2a25.75,25.75,0,0,0,6.45,14.92c3,3.47,6.19,6.79,9.34,10.14s6.76,6.61,9.69,10.27c5.07,6.33,10,12.79,12.87,20.53a30,30,0,0,1,.9,4.57l-.4.13c-.25-.54-.51-1.07-.75-1.62a68.25,68.25,0,0,0-13.15-19.48c-5.16-5.39-10.64-10.48-16-15.69-.4-.39-.84-.74-1.25-1.1a3.69,3.69,0,0,0-.38-1.19A37.73,37.73,0,0,1,364,154.54c-.26-.85-.54-1.69-.81-2.53a4,4,0,0,0-.59,1.46C362.27,154.79,361.92,156.12,361.58,157.44Z" />
        <path class="color-base"
            d="M378.93,207.08c-.19-.23-.33-.55-.58-.67A70.27,70.27,0,0,1,362.94,196a13.62,13.62,0,0,1-.95-1c3.82.88,7.26,1.87,10.77,2.44a51.67,51.67,0,0,1,13.73,4.72,18.48,18.48,0,0,1,6.25,5.11,7.35,7.35,0,0,0,1.92,1.23l.25-.31.3,1c-.31,0-.53.05-.75.05-1.59-.05-3.18-.12-4.77-.15-.16,0-.32.19-.48.3Z" />
        <path class="color-shadow"
            d="M438.72,195.62a36,36,0,0,1-4.46,3.95,95.23,95.23,0,0,1-11.69,6.75c-2.79,1.26-6,1.57-9.1,2.19a44.87,44.87,0,0,1-4.5.5,8.81,8.81,0,0,1-.89,0l-.19-.3a41.58,41.58,0,0,1,4.9-4.24c3.47-2.2,7-4.36,11.06-5.37,4.91-1.23,9.83-2.4,14.75-3.6Z" />
        <path class="transparent"
            d="M427.5,94.75a47.11,47.11,0,0,1-1.23,15.59c-.54-1.63-1-3.07-1.48-4.53a19.5,19.5,0,0,0-4.24-7.65c-1.41-1.51-3.24-1.34-4.91-.35s-2.08,2.78-2.9,4.3c-.1.17-.18.35-.29.51s-.14,0-.2,0c.09-1.36.2-2.72.23-4.08a2.6,2.6,0,0,0-.35-.92c-.29.21-.71.37-.84.66-1,2.34-2,4.7-2.93,7.06a3.23,3.23,0,0,1-.62,1.06c-.19-3.28-.39-6.57-.58-9.93C414,95.46,420.68,94.49,427.5,94.75Z" />
        <path class="color-shadow"
            d="M361.2,140.25c-.63,4.18-1.26,8.3-1.89,12.41a19.12,19.12,0,0,1-2-7.27,8.78,8.78,0,0,1-.09-3.06C357.79,140.12,358.67,139.71,361.2,140.25Z" />
        <path class="color-base"
            d="M361.58,157.44c.34-1.32.69-2.65,1-4a4,4,0,0,1,.59-1.46c.27.84.55,1.68.81,2.53a37.73,37.73,0,0,0,6.14,11.54,3.69,3.69,0,0,1,.38,1.19c-2.74-2.86-5.49-5.72-8.21-8.6A6.24,6.24,0,0,1,361.58,157.44Z" />
        <path class="transparent"
            d="M418.24,104.93c2.57,2.88,4.32,8.29,3,11.3-.86,1.91-1.11,2.1-3.35,2,.49-.92,1-1.81,1.41-2.7a4.52,4.52,0,0,0-.5-5.4A4.26,4.26,0,0,1,418.24,104.93Z" />
        <path class="transparent"
            d="M363.58,84.75c.25,1.26.49,2.22.61,3.19a1.21,1.21,0,0,1-.43.91q-5.25,4.5-10.55,9c-.14.12-.41.07-1,.15A61.45,61.45,0,0,0,363.58,84.75Z" />
        <path class="transparent" d="M347.11,121.93l-3-3.19,4-3,1,3.62C347.67,119.8,347.52,120,347.11,121.93Z" />
        <path class="transparent"
            d="M340.2,120.47a12.69,12.69,0,0,1-2.18-8.53c.63,1.6,1.18,3,1.76,4.45.29.7.62,1.38,1,2C341.32,119.55,341.33,119.54,340.2,120.47Z" />
        <path class="color-base"
            d="M444.27,159.41a2.62,2.62,0,0,1,.08-1c1.55-2.9,3.13-5.77,4.71-8.65,0-.05.13-.06.22-.1.18.61.35,1.21.53,1.81l-5,7.18Z" />
        <path class="color-shadow"
            d="M367.56,153.38a17.94,17.94,0,0,1-3.05-8.11C367.47,147.34,367.16,150.5,367.56,153.38Z" />
        <path class="transparent" d="M359.27,137.16l-2.9.72-2-4.2C356.34,134.6,357.55,136.09,359.27,137.16Z" />
        <path class="color-shadow" d="M453,142.24l-3.55-5.06C451.63,137.22,453.35,139.84,453,142.24Z" />
        <path class="transparent"
            d="M354.7,129.31c2,2.89,2.89,4.64,2.61,5.47l-1.51-1.23a2.64,2.64,0,0,1-1.17-2.46,5.62,5.62,0,0,0-.23-1.49Z" />
        <path class="transparent"
            d="M352.85,127.1a19.7,19.7,0,0,1-3.89-5.8l.3-.31a3.94,3.94,0,0,1,.84.72c1,1.69,2.07,3.4,3.1,5.11Z" />
        <path class="transparent" d="M350.86,126.76c1.57.13,3,3,2.73,5.6Z" />
        <path class="transparent" d="M363.75,95.66l1.37-2.21C365.55,94.77,365.11,95.5,363.75,95.66Z" />
        <path class="color-base" d="M354.7,129.31l-.3.29-1.18-1.89.37-.32Z" />
        <path class="color-base" d="M415.53,131.55l-.39-.09c.06-.39.13-.79.2-1.19l.37,0Z" />
        <path class="transparent" d="M353.59,127.39l-.37.32-.37-.61.35-.28Z" />
        <path class="transparent" d="M345.23,122.53l-.41.16,0-.26.41.11Z" />
        <path class="transparent" d="M402.6,80l0,.3-.22-.15Z" />
        <path class="transparent" d="M345.21,122.54l0,.34-.11,0c.05-.11.11-.21.17-.32Z" />
        <path class="color-shadow" d="M438.6,195.5l.25,0-.13.15Z" />
        <path class="outline"
            d="M398,169.5c-.56-5.37-.52-10.55,1.2-15.6a4.67,4.67,0,0,1-.32,5,1.92,1.92,0,0,0-.27,1.1c-.16,3.05-.28,6.11-.42,9.16C398.19,169.22,398.11,169.3,398,169.5Z" />
        <path class="outline" d="M377.41,155.72l4.73,10-.3.14c-2-3.15-4-6.27-4.75-10Z" />
        <path class="outline" d="M393.89,205.78l0,.41-.21.09-1.35-2.07Z" />
        <path class="color-base"
            d="M448.2,185.42l1.53-5.9-.27-.09c-.47,1.24-.95,2.49-1.42,3.74-.28.74-.49,1.52-.83,2.24a1.54,1.54,0,0,1-.83.76A97.58,97.58,0,0,1,436.16,189a36.39,36.39,0,0,0-14,5.54c-3.6,2.41-7.3,4.67-10.95,7a4.1,4.1,0,0,1-.48.21l-.2-.24c.68-.68,1.34-1.39,2-2.05,1.7-1.57,3.39-3.14,5.13-4.66,2-1.75,4.13-3.38,6.1-5.17,2.16-1.95,4.26-4,6.3-6.06q6.15-6.29,12.2-12.68a86.18,86.18,0,0,0,12.6-17.65c.09-.16.2-.31.36-.54.29,1.86.5,3.6.85,5.33a22.61,22.61,0,0,0,4.25,8.74,39.1,39.1,0,0,1,3,4.3,14.71,14.71,0,0,1,1.15,3.84c.06.26-.34.81-.65,1-5,2.22-9.38,5.39-13.78,8.56A14.56,14.56,0,0,1,448.2,185.42Z" />
    </g>
</svg>
