<svg id="kapyushony_s_golovoy" data-name="kapyushony s golovoy" xmlns="http://www.w3.org/2000/svg"
    viewBox="0 0 672 960">
    <g id="img_58_img" data-name="img 58 img">
        <path class="outline"
            d="M338.6,119.26c-.73-1.32-1.48-2.63-2.21-4a23,23,0,0,1-3-11.06c0-3.61.26-7.22.33-10.82,0-1.63-.13-3.26-.21-4.88l-.31-1.42.87-1.08a3.1,3.1,0,0,1,.25.64c.26,3.29.55,6.57.75,9.85.19,3.1.17,6.21.47,9.3a60.85,60.85,0,0,0,1.23,6.21l.42-.06v-5.41l5.77,11.29c1.41-1.07,2.66-2.06,4-3a1,1,0,0,0,.43-1.47c-1.12-2.34-2.18-4.72-3.27-7.07a5,5,0,0,0-.59-.8,19.11,19.11,0,0,0-2.31,6.41,1.67,1.67,0,0,1-.41-.9,34.89,34.89,0,0,1-.13-6.29c1.19-8.26,5.33-15.29,9.66-22.22.09-.14.33-.18.82-.44-1.19,2.57-2.26,4.81-3.24,7.08a61.93,61.93,0,0,0-4.39,12.9,8.7,8.7,0,0,0,0,1.75c2.19-2.28,4.07-4.46,6.2-6.37A105.62,105.62,0,0,0,362.24,84a4,4,0,0,0,.77-3.26c-.48-4.51-.83-9-1.19-13.56a9.38,9.38,0,0,1,.14-1.66l.3,0q1,7.67,2,15.33l.44.09,4.16-5.57c0,.4.05.54,0,.62-1.16,2-2.34,4.06-3.48,6.11a2.45,2.45,0,0,0-.5,1.29c.14,1.2.45,2.37.7,3.59,2.8-1.76,7.66-7.82,10.72-13.2a4.48,4.48,0,0,1-.12,1.42A25.88,25.88,0,0,1,370.29,85c-.68.77-1.27,1.62-1.9,2.43-.6.41-1.23.79-1.78,1.25a1.25,1.25,0,0,0-.09,2.11l.13,2.35.43,0C377.4,81.84,386.81,70,390.86,54.75a8.25,8.25,0,0,1-.13,2.73c-.9,3.26-1.84,6.51-2.88,9.72a1.61,1.61,0,0,0,.5,2.13c4.56,3.57,9.09,7.17,13.64,10.75a6.54,6.54,0,0,0,.92.45c-.4-1.13-.72-2-1-2.91l-1.3-3.72H401c.09.17.17.35.27.51,1.75,3,3.52,5.92,4.28,9.34l.13.52q.94,5.44,1.88,10.84c3.15-.2,6.48-.34,9.79-.63s6.55-.14,9.8-.13l-19.95,1.9c.15,3.85.29,7.4.43,11l4.06-9.75.51.13c.74,1.9-.1,3.85-.1,6.07.68-1.52,1.27-2.77,1.79-4,.62-1.52,2.08-2,3.32-2.69.33-.19.93,0,1.38.1,2.09.54,3.25,2.22,4.07,4,1.46,3.12,2.62,6.38,3.81,9.35.07-2.7,1.37-5.52,1.21-8.6-.15-2.75,0-5.51-.06-8.27-.05-1.79-.29-3.57-.4-5.36a11.52,11.52,0,0,0,0-2.19c-.63-2.47-1.33-4.93-2.13-7.35-.51-1.54-1.25-3-1.89-4.48l.22-.32A18.54,18.54,0,0,1,427,76.45a52.62,52.62,0,0,0-6.47-11.34,38,38,0,0,0-9.38-9.22l.17-.52,4.63-.31A62.46,62.46,0,0,0,397.07,47l.06-.42,2.36-1.83-.18-.29c-2.36.35-4.8.41-6.77,2.16-1.61,1.41-1.76,1.28-3.33,0-3.56-2.94-7.43-4.65-12.24-3.28-4.1,1.16-8.28,2.07-12.46,3A15.12,15.12,0,0,0,359.46,48a95,95,0,0,0-14.58,10.69,24.44,24.44,0,0,0-5.58,6.69c-1.94,3.86-3.87,7.71-5.74,11.6-.63,1.31-1.05,2.72-1.56,4.08l.27.15c1.1-1.19,2.2-2.4,3.32-3.57a5.57,5.57,0,0,1,1-.67l.17.26a23.16,23.16,0,0,0-2.36,3.11,21.56,21.56,0,0,0-1.94,4.85c-.38,1.55-1.05,3.22,0,4.82-1.27,3-1,6.15-1.4,9.24-.2,1.61-.14,3.26-.19,4.89h-.36c-.33-3.07-.83-6.14-.93-9.23a47.24,47.24,0,0,1,.69-6.45.94.94,0,0,0-.18-.59A15.27,15.27,0,0,0,329,95.14l-.67-.12V90.47c.15-.2.41-.38.42-.59.51-7.2,3.14-13.65,6.45-20A48.82,48.82,0,0,1,359,47.23a6.47,6.47,0,0,0,.7-.41c-2.63-.38-5-.55-7.23-1.71,4.68.52,9.08-1,13.58-1.74,2.79-.46,5.56-1,8.34-1.48.21,0,.42-.14,1-.32l-13.22-1.06c7-2.68,19.26-1.68,24.14,1.68.66-1.15-3.2-5.17-5.81-6,2.24-.6,5.6,1.45,10,6.17,1.46-3.16,4-5.08,6.91-6.73l-4.13,7,.22.25c5.65-2.11,10.93-1.16,16,1.82,0,0,0,.06.17.32a15.54,15.54,0,0,0-8.44-.43A6,6,0,0,0,399,46.13,27.27,27.27,0,0,1,411.63,50a61.82,61.82,0,0,1,10.48,8.22A19.8,19.8,0,0,0,412.8,56c7.67,5.4,12.28,13,15.82,21.38,1.24,2.91,2.39,5.85,3.57,8.78l-.35.15c-.7-1.55-1.33-3.15-2.14-4.64A33.08,33.08,0,0,0,427.24,78a4.35,4.35,0,0,0-1-.75l-.44-.16.23.35a78.7,78.7,0,0,1,2.9,8.58,96.5,96.5,0,0,1,1.36,10.06c.25,2.1.38,4.21.56,6.32l-.3.09-.66-5.16h-.26a5.46,5.46,0,0,0-.08.68,84,84,0,0,1-.88,13.45,17.23,17.23,0,0,0,.53,4.85c.33,2,.76,4,1.13,6,0,.14,0,.3-.28.55-.82-1.58-1.63-3.16-2.56-5l-1.21,7.21-.14,0v-6.8l-.35-.11-3.13,5.38c-.71,1.2-1.41,2.41-2.12,3.62-.6,1-1.33,1.9-2.63,1.87l-.4,7.6c3.4-.75,6.66-1.59,10-2.18a82.58,82.58,0,0,1,8.73-1.08c3.34-.22,6.7-.19,10.05-.23a9.35,9.35,0,0,1,7.94,3.9,9,9,0,0,1,1.35,2.41,12.66,12.66,0,0,0,3.28,4.8,7.53,7.53,0,0,1,2.46,7.12,33.62,33.62,0,0,0-.58,5.57,13.28,13.28,0,0,0,3.52,9.12,91.36,91.36,0,0,1,6.52,8.86,4.41,4.41,0,0,1-2.34,6.56c-1.2.43-2.44.76-3.67,1.07a33.34,33.34,0,0,0-8.89,3.81c-3.19,1.89-6.36,3.83-9.56,5.72a13.37,13.37,0,0,1-2.88,1.44,8.27,8.27,0,0,0-3.25,2.12A58.81,58.81,0,0,1,422.6,207.6a31.18,31.18,0,0,1-4.81,1.37c-.58.14-.91.28-.91,1,0,8.64-.05,17.27.09,25.91.15,9.79.74,19.58.68,29.37,0,7.62-.8,15.23-1.24,22.84a11.39,11.39,0,0,1-.21,1.26c1.41,0,1.29.84,1.08,1.77-.29,1.28-.52,2.58-.87,3.84-.09.35-.51.86-.8.87a50.43,50.43,0,0,1-5.07,0c-.23,0-.63-.68-.59-1,.19-1.44.55-2.86.78-4.3.25-1.65.48-3.3.62-5,1.23-14.81.37-29.65.5-44.48.1-10.19.4-20.39.61-30.58,0-.15,0-.3,0-.45l-15.73,1.73c0,.65,0,1.6,0,2.54.14,11,.31,21.9.41,32.86.07,8.55,0,17.11.1,25.67,0,3.26.38,6.53.73,9.78a28.53,28.53,0,0,0,1,4c.45,1.81.27,2.09-1.53,2.41a9.87,9.87,0,0,1-1.42.19c-3,.09-3.43-.29-3.9-3.25a8.24,8.24,0,0,0-.32-1.39c-.33-1-.31-1.74.8-1.71-.33-4.7-.8-9.35-.94-14-.2-6.75-.28-13.51-.19-20.26.14-12,.45-24,.68-36,0-.47,0-1,0-1.41-23.55-2.61-36.88-12.74-45.46-27.79l-4.37,1.24c-.76.22-1.51.39-2.08-.35s-.24-1.43.16-2.2c2.57-5,6-9.44,8.14-14.64,1.69-4.06,2.37-8.35,3.29-12.59.73-3.31,1.15-6.68,1.86-10,.4-1.86,1.13-3.65,1.68-5.48a1.69,1.69,0,0,0,0-1.09c-1.75-3.85-3.52-7.7-5.36-11.5a5.9,5.9,0,0,0-1.64-1.78,18.15,18.15,0,0,0-3.44-2.27l1.71,3.53-.25.16L342,120.65a28.73,28.73,0,0,0-7.16,9.88l-.47-.22a7.68,7.68,0,0,1,.6-2.14c1.37-2.2,2.86-4.32,4.28-6.49a7.1,7.1,0,0,0,.52-1.23c1.39-.24,1.68-.8,1.09-2-.38-.75-.74-1.51-1.05-2.28-.61-1.49-1.17-3-1.75-4.48.08,2.12-.38,4.28.75,6.24a2.62,2.62,0,0,1,.28,1C339.07,119,338.77,119.16,338.6,119.26Zm58,78,.21.15-.09-.27-.23-.13A2.72,2.72,0,0,0,396.65,197.3Zm-42.32-67.86.18.37a6.15,6.15,0,0,1,.17,1,3.67,3.67,0,0,0,3.08,3.6l-2.85-4.62-.24-.58-1.59-2.57-.49-.37.17.67C353.28,127.79,353.81,128.61,354.33,129.44Zm58.92,69c-.9,1.23-1.12,2.69-.68,3.35.19-1,.43-2.18.66-3.36l.11-.15Zm-17.76-.73.09.16.07-.12-.18,0a11.37,11.37,0,0,0-1.49-1.53,1.45,1.45,0,0,0-2.14.07,1.71,1.71,0,0,0,0,2.14c.21-.57.27-1.31.67-1.66.66-.57,1.41-.19,2,.31A11.18,11.18,0,0,0,395.49,197.74Zm-2.17,88.81c0,.7-.11,1.56.9,1.64a24.68,24.68,0,0,0,3.33,0c.54,0,.94-.25.68-1a19.3,19.3,0,0,1-.51-2.67h-4.85Zm22.38,6.75.42-2.42-2.86.28-2.07.16c0,.42,0,.65-.05.89-.05.9-.46,2.24,0,2.58.59.5,1.79.34,2.74.35C415.54,295.16,415.62,295.05,415.7,293.3Zm22.9-97.79c-3.68.88-7.38,1.67-11,2.68-2.95.81-5.82,1.9-8.74,2.84a2.39,2.39,0,0,0-1.91,2.81c.13,1.31,0,2.65,0,4.31a30.75,30.75,0,0,0,5.43-1.67q6-3.18,11.79-6.83a37.5,37.5,0,0,0,4.55-4l.13-.14Zm-43.17,12.57c0-2.63.07-5.25,0-7.88,0-1.58-.82-2.37-2.59-2.89a4.23,4.23,0,0,0,0,3.09c.07,5.79.27,11.59.19,17.38-.15,11.11-.57,22.21-.65,33.32-.05,7.71.27,15.42.46,23.13,0,1.31.28,2.61.43,3.91l.44,4.9,3.51.57c-.13-1.49-.27-2.9-.37-4.31-.33-4.52-.84-9-.9-13.55-.1-7.14.16-14.29.16-21.43,0-8.14-.12-16.28-.22-24.43,0-2.11-.18-4.21-.28-6.32,0-1.43,0-2.86,0-4.29l-.12-.74Zm18.11,1.68-.1,2.62a3.29,3.29,0,0,0-.14.68c-.16,7.78-.38,15.57-.45,23.35-.05,5,.15,9.9.18,14.85,0,7.43.08,14.86,0,22.29,0,3.22-.4,6.44-.64,9.66-.18,2.29-.4,4.57-.61,6.91l3.49-.58c.14-1.69.27-3.42.41-5.14a4,4,0,0,0,.2-.81c.26-5.42.75-10.84.72-16.26,0-9.81-.47-19.63-.6-29.45-.12-8.66-.08-17.33-.07-26,0-3.67.13-7.34.19-11a4.41,4.41,0,0,0,.08-3.1c-1.78.53-2.49,1.32-2.53,3C413.58,203.77,413.58,206.77,413.54,209.76Zm-21.47-3.6c.5-1.72-.53-2.72-1.66-3.76-6.22-5.7-14-8.08-21.83-10.43-5.71-1.72-11.75-2.3-17.19-5-.12-.06-.33,0-.73.08,1.69,1.92,3.31,3.63,4.77,5.45a37.92,37.92,0,0,0,9.61,8.56,48,48,0,0,0,13.89,6A54.16,54.16,0,0,0,392,209.63a5,5,0,0,0,.12-.72C392.11,208,392.09,207.08,392.07,206.16Zm25.26-10.59,1,1.43-.14,1.71c2.56-.73,5-1.57,7.46-2.1,4.08-.88,8.21-1.54,12.31-2.35,5.58-1.09,10.32-4,15-7.06,3.67-2.41,7.19-5.07,11.34-6.66a26.79,26.79,0,0,0,2.62-1.2,3,3,0,0,0,1.28-4c-1.86-3.12-3.75-6.22-5.7-9.3A13.91,13.91,0,0,1,460,160.1c-.27-2.57-.81-5.19-.54-7.72.45-4.13-2.48-6.17-4.42-8.69-1.18,2.37-2.16,4.84-3.55,7.06a171.52,171.52,0,0,1-22.73,29.3q-7.49,7.63-14.93,15.27c-.34.35-.62.74-.93,1.11l.18.29C414.44,196,415.65,194.74,417.33,195.57Zm-26.6.79c2.08-2.77,3.82-.58,5.71.39a5,5,0,0,0-.74-1.33c-1.59-2-3.16-4.12-4.8-6.13a106.09,106.09,0,0,0-13-13.6c-5.32-4.6-10.54-9.31-15.61-14.18A23,23,0,0,1,355.9,149a41,41,0,0,1-.39-4.16c-1.57,6.52-2.55,13.19-4.6,19.5s-5.19,12.36-7.82,18.45l5-1c.13.2.22.48.4.61,1.48,1,2.94,2.09,4.5,3a33.35,33.35,0,0,0,5.56,2.74c6,2,12.06,3.94,18.12,5.83a29.67,29.67,0,0,1,9.84,4.81c1.83,1.45,3.64,2.93,5.75,4.64a12,12,0,0,0-.61-3.41A6.81,6.81,0,0,1,390.73,196.36Zm24.8-64.81.18-1.23-.37-.06-.2,1.2c-.59.76-1.19,1.5-1.75,2.27a78.21,78.21,0,0,1-19.21,18.77c-2.17,1.48-4.31,3-6.53,4.45a3.13,3.13,0,0,1-2.21.49,31.67,31.67,0,0,1-5.61-2.06c-3.27-1.67-6.44-3.54-9.66-5.32-.26-.15-.53-.27-.89-.45.34,3,.74,5.89,1,8.77.2,2.6.2,5.22.33,7.83a1.87,1.87,0,0,0,.46,1.14c2.95,3,5.94,5.91,8.93,8.85,2.39,2.35,4.92,4.58,7.17,7.06a144.24,144.24,0,0,1,12.31,15.14c1.11,1.62,2,3.41,3,5.12.12.23.19.49.33.84a3.75,3.75,0,0,0,.86-.58c2.27-2.63,4.47-5.32,6.78-7.92,2.66-3,5.3-6,8.13-8.8,4.46-4.41,9.11-8.62,13.59-13a40,40,0,0,0,3.46-4.46c-1.77-.65-3.39-1.17-4.95-1.85a20.24,20.24,0,0,1-5.11-2.57,56.59,56.59,0,0,1-5.16-5.64,6.81,6.81,0,0,0-1-.7c1.32,4.55,2.52,8.71,3.72,12.87a9.86,9.86,0,0,1-1.27-2.45c-2.23-5.73-4.52-11.48-5.09-17.64C416.08,144.94,415.9,138.24,415.53,131.55Zm-47.3-25.64a96.88,96.88,0,0,0-18.5,8.84c-.71.44-.37.93-.27,1.44a25.07,25.07,0,0,0,4,8.88c3.51,5.38,6.85,10.88,10.41,16.23a20.69,20.69,0,0,0,4.71,5.53,79.88,79.88,0,0,0,16.3,9.07,2.32,2.32,0,0,0,2.61-.36c5.19-4.13,10.56-8.06,15.53-12.43a61.77,61.77,0,0,0,10.75-11.73,2.9,2.9,0,0,0,.4-1.19c.28-2,.42-4,.8-5.92a20.92,20.92,0,0,1,2.48-7.19,40.13,40.13,0,0,0,1.81-3.73l.33-.71.34.14c0,2-1.15,3.69-2.1,5.45,2.12.09,2.4-.08,3.25-1.87a6.43,6.43,0,0,0,.56-4.17,18.4,18.4,0,0,0-3.31-7.4c-1.28,2.16-.81,4,.62,5.68a8.08,8.08,0,0,1,.91,1.92A7.94,7.94,0,0,1,418,110.3c-.51-.84-1.34-1.79-1.26-2.62a12.57,12.57,0,0,1,2.57-6.56,1.39,1.39,0,0,1,1-.51c.25,0,.49.45.78.76l-1.48.17c1.29,1.26,2.18,2.39,2.34,3.89l-2.44-2.73-.46.38-.45.91a16,16,0,0,1,3.72,8.43c.32,3.38-.93,7.07-4.83,7.54-.38,1.78-.75,3.56-1.13,5.34-.19.87.39,1.14,1,1.5s1,.06,1.36-.43c2.27-3.29,4.58-6.54,6.74-9.9a4.24,4.24,0,0,0,.49-2.74c-.85-5.27-2.3-10.33-5.76-14.59-1.14-1.4-2.21-1.59-3.31-.17a35.42,35.42,0,0,0-3.61,5.68,55.69,55.69,0,0,0-1.94,5.4c-.15.4-.59.69-.9,1a10.62,10.62,0,0,1-.24-1.35,3,3,0,0,1,.17-.69c.37-2.05.73-4.11,1.09-6.16-1,1.43-1.71,2.91-2.53,4.35s-1.66,2.72-2.5,4.07l-.29-.2c.65-2.29.46-12.94-.27-14.36a185.37,185.37,0,0,0-36.2,8.66c3.76,11.38,7.48,22.64,11.21,33.9l-.45.15A255.69,255.69,0,0,1,368.23,105.91Zm49.16,33a7.33,7.33,0,0,0-.07.82c.14,3.38.24,6.76.46,10.14a17,17,0,0,0,3.56,8.73c1.52,2.13,3.16,4.18,4.78,6.24a2.26,2.26,0,0,0,.85.61c2,.86,3.87,1.83,5.89,2.49,3,1,2.54,1.74,4.67-1,4.06-5.19,8.14-10.38,12.15-15.61,1.9-2.48,3.5-5.07,3.52-8.45,0-2.36-.53-4.17-2.55-5.51a8.67,8.67,0,0,0-4.75-1.4A97.89,97.89,0,0,0,426,137.26Zm-48.12-35.16a166.06,166.06,0,0,1,36.66-8.35c-.84-4.26-1.63-8.44-2.5-12.61-.07-.37-.55-.72-.92-1-2.85-1.76-5.87-3.28-8.54-5.28a94.51,94.51,0,0,1-7.2-6.52c-.84,1.49-1.73,3.18-2.74,4.8a110.08,110.08,0,0,1-16,19.8c-.32.32-.7.91-.62,1.27C368,98.51,368.61,101.08,369.27,103.75Zm-4.67-13a1.46,1.46,0,0,0-.36.19,91.62,91.62,0,0,1-15.81,11,37.86,37.86,0,0,0-3.9,2.94l4.2,8.6c1.82-1,3.54-2.23,5.4-3.11,4.22-2,8.51-3.83,12.75-5.78.32-.14.75-.68.7-.94-.52-2.28-1.13-4.53-1.71-6.77l-7.07,5.67-.42-.39c.27-.43.51-.88.81-1.3.73-1,1.53-1.94,2.22-3,1-1.44,1.82-3,2.83-4.39A2.47,2.47,0,0,0,364.6,90.79ZM358,140.67c-.26.45-.39.65-.5.86-.78,1.52-.44,3.11-.2,4.68a22.34,22.34,0,0,0,3.08,9.34,46.9,46.9,0,0,0,8,8.67c.08.06.21.05.45.11-.07-1.17-.05-2.28-.21-3.36-.64-4.17-1.33-8.34-2-12.5a2.5,2.5,0,0,0-.46-1c-.86-1.2-1.76-2.37-2.65-3.54-.29-.38-.54-.86-.93-1.06C361.16,142.07,359.63,141.41,358,140.67Zm55,56.15-.22-.18c-.29.27-.61.53-.88.83-2.76,3.09-5.58,6.14-8.19,9.36-.4.49-.06,1.9.38,2.64.32.54,2.3-.18,2.81-.81,1.39-1.7,2.82-3.36,4.19-5.07a2.16,2.16,0,0,0,.46-1.34,6.73,6.73,0,0,1,1.18-4.85A2.8,2.8,0,0,0,413,196.82Zm-11.95,13.1A19,19,0,0,0,397.22,198a4.49,4.49,0,0,0,0,.85,4.25,4.25,0,0,1-.53,4.18,1,1,0,0,0-.22.54c0,2.14.08,4.27.12,6.38ZM363.6,84.85c-1.9,2.47-3.61,4.89-5.52,7.13s-4,4.21-6,6.3a1.35,1.35,0,0,0,1-.26q5.31-4.48,10.57-9a1.43,1.43,0,0,0,.49-1C364.08,87,363.82,86,363.6,84.85Zm-2.3,55.79c-1.26-3.34-4-5-6.83-7,.47,1.09.83,1.88,1.17,2.68.7,1.68,1.43,3.31,3.49,3.73C359.82,140.24,360.5,140.44,361.3,140.64Zm-12.09-21.27-1.09-3.61-4.18,3.12,3.51,3.31C347.28,120.29,347.53,119.93,349.21,119.37Zm63.32,85.49-.3-.15-4.34,4.06.19.32c1.31-.17,2.63-.32,3.93-.54a.85.85,0,0,0,.5-.63C412.56,206.9,412.53,205.88,412.53,204.86Zm-63.68-83.94a13.37,13.37,0,0,0,3.68,5.56c.1-.28.17-.37.15-.41-.91-1.58-1.81-3.18-2.76-4.73C349.8,121.14,349.38,121.12,348.85,120.92Zm2,5.72,2.77,5.69C353.92,130.2,352.6,127.42,350.88,126.64Zm63.94,70.26c2.68.21,2.15.55,2.28,2.13.62-1.2.56-2.28-.23-2.71A1.48,1.48,0,0,0,414.82,196.9ZM363.25,96.31c2.14-1.16,2.33-1.51,1.82-3Zm-18.49,26.11-.1.19.39,0c0-.06,0-.17,0-.18A1.4,1.4,0,0,0,344.76,122.42Zm52.31,75.35s-.07.06-.07.09,0,.06.07.1.07-.06.07-.09S397.1,197.81,397.07,197.77Z" />
        <path class="transparent"
            d="M332.44,90c-1.06-1.6-.39-3.27,0-4.82a21.56,21.56,0,0,1,1.94-4.85,23.16,23.16,0,0,1,2.36-3.11l-.17-.26a5.57,5.57,0,0,0-1,.67c-1.12,1.17-2.22,2.38-3.32,3.57L332,81c.51-1.36.93-2.77,1.56-4.08,1.87-3.89,3.8-7.74,5.74-11.6a24.44,24.44,0,0,1,5.58-6.69A95,95,0,0,1,359.46,48a15.12,15.12,0,0,1,5.05-1.68c4.18-.92,8.36-1.83,12.46-3,4.81-1.37,8.68.34,12.24,3.28,1.57,1.3,1.72,1.43,3.33,0,2-1.75,4.41-1.81,6.77-2.16l.18.29-2.36,1.83-.06.42a62.46,62.46,0,0,1,18.84,8.07l-4.63.31-.17.52a38,38,0,0,1,9.38,9.22A52.62,52.62,0,0,1,427,76.45a18.54,18.54,0,0,0-3.52-2.61l-.22.32c.64,1.49,1.38,2.94,1.89,4.48.8,2.42,1.5,4.88,2.13,7.35a11.52,11.52,0,0,1,0,2.19c.11,1.79.35,3.57.4,5.36.07,2.76-.09,5.52.06,8.27.16,3.08-1.14,5.9-1.21,8.6-1.19-3-2.35-6.23-3.81-9.35-.82-1.73-2-3.41-4.07-4-.45-.11-1.05-.29-1.38-.1-1.24.71-2.7,1.17-3.32,2.69-.52,1.28-1.11,2.53-1.79,4,0-2.22.84-4.17.1-6.07l-.51-.13-4.06,9.75c-.14-3.64-.28-7.19-.43-11l19.95-1.9c-3.25,0-6.51-.17-9.8.13s-6.64.43-9.79.63q-.93-5.39-1.88-10.84l-.13-.52c-.76-3.42-2.53-6.38-4.28-9.34-.1-.16-.18-.34-.27-.51-.39-.75-.77-1.5-1.15-2.25l-.41.25,1.15,2,1.3,3.72c.32.89.64,1.78,1,2.91a6.54,6.54,0,0,1-.92-.45c-4.55-3.58-9.08-7.18-13.64-10.75a1.61,1.61,0,0,1-.5-2.13c1-3.21,2-6.46,2.88-9.72a8.25,8.25,0,0,0,.13-2.73C386.81,70,377.4,81.84,367.08,93.13l-.43,0c0-.78-.08-1.57-.13-2.35l1.87-3.36c.63-.81,1.22-1.66,1.9-2.43a25.88,25.88,0,0,0,5.85-9.79,4.48,4.48,0,0,0,.12-1.42c-3.06,5.38-7.92,11.44-10.72,13.2-.25-1.22-.56-2.39-.7-3.59a2.45,2.45,0,0,1,.5-1.29c1.14-2,2.32-4.07,3.48-6.11.05-.08,0-.22,0-.62l-4.16,5.57-.44-.09q-1-7.66-2-15.33l-.3,0a9.38,9.38,0,0,0-.14,1.66c.36,4.52.71,9.05,1.19,13.56a4,4,0,0,1-.77,3.26,105.62,105.62,0,0,1-12.55,13.51c-2.13,1.91-4,4.09-6.2,6.37a8.7,8.7,0,0,1,0-1.75,61.93,61.93,0,0,1,4.39-12.9c1-2.27,2.05-4.51,3.24-7.08-.49.26-.73.3-.82.44-4.33,6.93-8.47,14-9.66,22.22a34.89,34.89,0,0,0,.13,6.29,1.67,1.67,0,0,0,.41.9,19.11,19.11,0,0,1,2.31-6.41,5,5,0,0,1,.59.8c1.09,2.35,2.15,4.73,3.27,7.07a1,1,0,0,1-.43,1.47c-1.3.93-2.55,1.92-4,3l-5.77-11.29V112l-.42.06a60.85,60.85,0,0,1-1.23-6.21c-.3-3.09-.28-6.2-.47-9.3-.2-3.28-.49-6.56-.75-9.85a3.1,3.1,0,0,0-.25-.64l-.87,1.08.31,1.42Zm66.89-18.83a.83.83,0,0,0-.09.16s.06.07.07.06a1.19,1.19,0,0,0,.15-.09A.8.8,0,0,0,399.33,71.16Z" />
        <path class="transparent"
            d="M338.6,119.26c.17-.1.47-.22.46-.3a2.62,2.62,0,0,0-.28-1c-1.13-2-.67-4.12-.75-6.24.58,1.5,1.14,3,1.75,4.48.31.77.67,1.53,1.05,2.28.59,1.17.3,1.73-1.09,2Z" />
        <path class="color-base" d="M430.54,102.47l.3-.09v2.81h-.5Z" />
        <path class="color-shadow" d="M330.49,104.12h.36l.28.78-.32.13Z" />
        <path class="transparent"
            d="M368.23,105.91a255.69,255.69,0,0,0,12.17,33.54l.45-.15c-3.73-11.26-7.45-22.52-11.21-33.9a185.37,185.37,0,0,1,36.2-8.66c.73,1.42.92,12.07.27,14.36l.29.2c.84-1.35,1.71-2.68,2.5-4.07s1.56-2.92,2.53-4.35c-.36,2.05-.72,4.11-1.09,6.16a3,3,0,0,0-.17.69,10.62,10.62,0,0,0,.24,1.35c.31-.34.75-.63.9-1a55.69,55.69,0,0,1,1.94-5.4A35.42,35.42,0,0,1,416.86,99c1.1-1.42,2.17-1.23,3.31.17,3.46,4.26,4.91,9.32,5.76,14.59a4.24,4.24,0,0,1-.49,2.74c-2.16,3.36-4.47,6.61-6.74,9.9-.33.49-.67.81-1.36.43s-1.22-.63-1-1.5c.38-1.78.75-3.56,1.13-5.34,3.9-.47,5.15-4.16,4.83-7.54a16,16,0,0,0-3.72-8.43l.45-.91.46-.38,2.44,2.73c-.16-1.5-1-2.63-2.34-3.89l1.48-.17c-.29-.31-.53-.75-.78-.76a1.39,1.39,0,0,0-1,.51,12.57,12.57,0,0,0-2.57,6.56c-.08.83.75,1.78,1.26,2.62a7.94,7.94,0,0,0,1.87,2.09,8.08,8.08,0,0,0-.91-1.92c-1.43-1.72-1.9-3.52-.62-5.68a18.4,18.4,0,0,1,3.31,7.4,6.43,6.43,0,0,1-.56,4.17c-.85,1.79-1.13,2-3.25,1.87.95-1.76,2.13-3.41,2.1-5.45l-.34-.14-.33.71a40.13,40.13,0,0,1-1.81,3.73,20.92,20.92,0,0,0-2.48,7.19c-.38,2-.52,4-.8,5.92a2.9,2.9,0,0,1-.4,1.19A61.77,61.77,0,0,1,403,143.11c-5,4.37-10.34,8.3-15.53,12.43a2.32,2.32,0,0,1-2.61.36,79.88,79.88,0,0,1-16.3-9.07,20.69,20.69,0,0,1-4.71-5.53c-3.56-5.35-6.9-10.85-10.41-16.23a25.07,25.07,0,0,1-4-8.88c-.1-.51-.44-1,.27-1.44A96.88,96.88,0,0,1,368.23,105.91Z" />
        <path class="transparent"
            d="M415.53,131.55c.37,6.69.55,13.39,1.17,20.06.57,6.16,2.86,11.91,5.09,17.64a9.86,9.86,0,0,0,1.27,2.45c-1.2-4.16-2.4-8.32-3.72-12.87a6.81,6.81,0,0,1,1,.7,56.59,56.59,0,0,0,5.16,5.64,20.24,20.24,0,0,0,5.11,2.57c1.56.68,3.18,1.2,4.95,1.85a40,40,0,0,1-3.46,4.46c-4.48,4.39-9.13,8.6-13.59,13-2.83,2.81-5.47,5.82-8.13,8.8-2.31,2.6-4.51,5.29-6.78,7.92a3.75,3.75,0,0,1-.86.58c-.14-.35-.21-.61-.33-.84-1-1.71-1.86-3.5-3-5.12a144.24,144.24,0,0,0-12.31-15.14c-2.25-2.48-4.78-4.71-7.17-7.06-3-2.94-6-5.88-8.93-8.85a1.87,1.87,0,0,1-.46-1.14c-.13-2.61-.13-5.23-.33-7.83-.23-2.88-.63-5.75-1-8.77.36.18.63.3.89.45,3.22,1.78,6.39,3.65,9.66,5.32a31.67,31.67,0,0,0,5.61,2.06,3.13,3.13,0,0,0,2.21-.49c2.22-1.41,4.36-3,6.53-4.45a78.21,78.21,0,0,0,19.21-18.77c.56-.77,1.16-1.51,1.75-2.27Zm-17.34,37.82c.14-3.11.27-6.22.43-9.33a2.25,2.25,0,0,1,.4-1.27,4.69,4.69,0,0,0,.2-4.78C397.39,159,397.51,164.16,398.19,169.37Zm-16.37-3.52.32-.15-4.74-10-.31.14C377.84,159.57,379.88,162.69,381.82,165.85Z" />
        <path class="color-shadow"
            d="M417.39,138.91l8.57-1.65A97.89,97.89,0,0,1,445.9,136a8.67,8.67,0,0,1,4.75,1.4c2,1.34,2.57,3.15,2.55,5.51,0,3.38-1.62,6-3.52,8.45-4,5.23-8.09,10.42-12.15,15.61-2.13,2.72-1.69,2-4.67,1-2-.66-3.93-1.63-5.89-2.49a2.26,2.26,0,0,1-.85-.61c-1.62-2.06-3.26-4.11-4.78-6.24a17,17,0,0,1-3.56-8.73c-.22-3.38-.32-6.76-.46-10.14A7.33,7.33,0,0,1,417.39,138.91Z" />
        <path class="color-base"
            d="M390.73,196.36a6.81,6.81,0,0,0,1,3.6,12,12,0,0,1,.61,3.41c-2.11-1.71-3.92-3.19-5.75-4.64a29.67,29.67,0,0,0-9.84-4.81c-6.06-1.89-12.11-3.78-18.12-5.83a33.35,33.35,0,0,1-5.56-2.74c-1.56-.88-3-2-4.5-3-.18-.13-.27-.41-.4-.61q4-13.19,8.08-26.35c.65,1.63,1.23,3.37,2,5,3.5,7,9,12.27,15,17.16,2.72,2.24,5.73,4.15,8.48,6.37a21.42,21.42,0,0,1,4.27,4.29C387.74,190.81,389.16,193.64,390.73,196.36Z" />
        <path class="transparent"
            d="M369.27,103.75c-.66-2.67-1.32-5.24-1.88-7.84-.08-.36.3-1,.62-1.27a110.08,110.08,0,0,0,16-19.8c1-1.62,1.9-3.31,2.74-4.8a94.51,94.51,0,0,0,7.2,6.52c2.67,2,5.69,3.52,8.54,5.28.37.23.85.58.92,1,.87,4.17,1.66,8.35,2.5,12.61A166.06,166.06,0,0,0,369.27,103.75Z" />
        <path class="color-base"
            d="M418.37,197l-1-1.43a20.67,20.67,0,0,1,1.86-2.1c2.53-2.23,5.24-4.29,7.66-6.64,3.09-3,5.95-6.22,8.93-9.33,2.51-2.63,5-5.27,7.59-7.82,3.75-3.71,6.39-8.23,9.34-12.52,1-1.39,1.72-2.91,2.71-4.62a10,10,0,0,0,.08,1.43,56.68,56.68,0,0,0,1.31,6.27c1.19,3.74,3.64,6.8,6,9.86a8.52,8.52,0,0,1,1.75,4.61,1.56,1.56,0,0,1-.68,1.17c-.84.53-1.82.83-2.65,1.36-3.69,2.36-7.34,4.77-11,7.14a21.07,21.07,0,0,1-2,1l1.5-5.87-.29-.08c-.69,1.86-1.35,3.72-2.08,5.55-.18.44-.51,1-.89,1.14-3.5,1-7,2.21-10.56,2.93a34.44,34.44,0,0,0-11.58,4.21Q421.34,195.12,418.37,197Z" />
        <path class="color-shadow"
            d="M418.37,197q3-1.87,5.95-3.74a34.44,34.44,0,0,1,11.58-4.21c3.57-.72,7.06-1.88,10.56-2.93.38-.11.71-.7.89-1.14.73-1.83,1.39-3.69,2.08-5.55l.29.08-1.5,5.87a21.07,21.07,0,0,0,2-1c3.68-2.37,7.33-4.78,11-7.14.83-.53,1.81-.83,2.65-1.36a1.56,1.56,0,0,0,.68-1.17,8.52,8.52,0,0,0-1.75-4.61c-2.35-3.06-4.8-6.12-6-9.86A56.68,56.68,0,0,1,455.5,154a10,10,0,0,1-.08-1.43c-1,1.71-1.76,3.23-2.71,4.62-2.95,4.29-5.59,8.81-9.34,12.52-2.58,2.55-5.08,5.19-7.59,7.82-3,3.11-5.84,6.33-8.93,9.33-2.42,2.35-5.13,4.41-7.66,6.64a20.67,20.67,0,0,0-1.86,2.1c-1.68-.83-2.89.44-4.22,1.15l-.18-.29c.31-.37.59-.76.93-1.11q7.45-7.63,14.93-15.27a171.52,171.52,0,0,0,22.73-29.3c1.39-2.22,2.37-4.69,3.55-7.06,1.94,2.52,4.87,4.56,4.42,8.69-.27,2.53.27,5.15.54,7.72A13.91,13.91,0,0,0,462.5,166c1.95,3.08,3.84,6.18,5.7,9.3a3,3,0,0,1-1.28,4,26.79,26.79,0,0,1-2.62,1.2c-4.15,1.59-7.67,4.25-11.34,6.66-4.64,3.05-9.38,6-15,7.06-4.1.81-8.23,1.47-12.31,2.35-2.48.53-4.9,1.37-7.46,2.1Z" />
        <path class="color-shadow"
            d="M390.73,196.36c-1.57-2.72-3-5.55-4.78-8.13a21.42,21.42,0,0,0-4.27-4.29c-2.75-2.22-5.76-4.13-8.48-6.37-5.93-4.89-11.46-10.16-15-17.16-.8-1.62-1.38-3.36-2-5q-4,13.17-8.08,26.35l-5,1c2.63-6.09,5.76-12.1,7.82-18.45s3-13,4.6-19.5a41,41,0,0,0,.39,4.16,23,23,0,0,0,6.43,12.49c5.07,4.87,10.29,9.58,15.61,14.18a106.09,106.09,0,0,1,13,13.6c1.64,2,3.21,4.08,4.8,6.13a5,5,0,0,1,.74,1.33C394.55,195.78,392.81,193.59,390.73,196.36Z" />
        <path class="transparent"
            d="M364.6,90.79a2.47,2.47,0,0,1-.36,2.73c-1,1.42-1.86,3-2.83,4.39-.69,1-1.49,2-2.22,3-.3.42-.54.87-.81,1.3l.42.39,7.07-5.67c.58,2.24,1.19,4.49,1.71,6.77.05.26-.38.8-.7.94-4.24,2-8.53,3.78-12.75,5.78-1.86.88-3.58,2.06-5.4,3.11l-4.2-8.6a37.86,37.86,0,0,1,3.9-2.94,91.62,91.62,0,0,0,15.81-11A1.46,1.46,0,0,1,364.6,90.79Z" />
        <path class="color-shadow"
            d="M378.93,207.07a48,48,0,0,1-13.89-6,37.92,37.92,0,0,1-9.61-8.56c-1.46-1.82-3.08-3.53-4.77-5.45.4-.05.61-.14.73-.08,5.44,2.67,11.48,3.25,17.19,5,7.79,2.35,15.61,4.73,21.83,10.43,1.13,1,2.16,2,1.66,3.76a2.38,2.38,0,0,1-.61-.33c-4-4.16-9.38-5.8-14.64-7.49-2.93-1-6-1.39-9.06-2.05l-5.43-1.18a32.69,32.69,0,0,0,5.34,4.75c3.44,2.3,7,4.35,10.57,6.51A4.57,4.57,0,0,1,378.93,207.07Z" />
        <path class="color-base"
            d="M378.93,207.07a4.57,4.57,0,0,0-.69-.7c-3.53-2.16-7.13-4.21-10.57-6.51a32.69,32.69,0,0,1-5.34-4.75l5.43,1.18c3,.66,6.13,1.1,9.06,2.05,5.26,1.69,10.61,3.33,14.64,7.49a2.38,2.38,0,0,0,.61.33c0,.92,0,1.83,0,2.75a5,5,0,0,1-.12.72A54.16,54.16,0,0,1,378.93,207.07Z" />
        <path class="color-base"
            d="M413.44,212.38c0-.88.07-1.75.1-2.62A2.77,2.77,0,0,0,414,209c.42-2.33.78-4.69,1.25-7,.09-.42.6-.76.91-1.13-.06,3.67-.18,7.34-.19,11,0,8.67-.05,17.34.07,26,.13,9.82.56,19.64.6,29.45,0,5.42-.46,10.84-.72,16.26a4,4,0,0,1-.2.81l-1.23.64v-1.26q0-6.12,0-12.24c0-.36,0-.72,0-1.08.14-3,.44-6,.38-9.06-.1-5.21-.49-10.42-.64-15.64-.07-2.34.23-4.7.19-7-.1-5.7-.3-11.4-.46-17.1q-.12-4.25-.25-8.49A2.46,2.46,0,0,0,413.44,212.38Z" />
        <path class="color-shadow"
            d="M358,140.67c1.59.74,3.12,1.4,4.6,2.16.39.2.64.68.93,1.06.89,1.17,1.79,2.34,2.65,3.54a2.5,2.5,0,0,1,.46,1c.69,4.16,1.38,8.33,2,12.5.16,1.08.14,2.19.21,3.36-.24-.06-.37-.05-.45-.11a46.9,46.9,0,0,1-8-8.67,22.34,22.34,0,0,1-3.08-9.34c-.24-1.57-.58-3.16.2-4.68C357.65,141.32,357.78,141.12,358,140.67Z" />
        <path class="color-base"
            d="M393.32,278.14c-.15-1.3-.4-2.6-.43-3.91-.19-7.71-.51-15.42-.46-23.13.08-11.11.5-22.21.65-33.32.08-5.79-.12-11.59-.19-17.38.66-.26.82.14.92.67q.58,3.19,1.21,6.39c.05.23.27.41.41.62l.07.46.12.74c0,1.43,0,2.86,0,4.29-.14.21-.37.41-.4.63-.11,1.06-.2,2.13-.24,3.21-.18,4.81-.37,9.62-.47,14.44-.05,2.06.23,4.14.19,6.2-.1,5.06-.4,10.11-.43,15.16,0,6.1.14,12.21.22,18.31,0,.24.06.47.06.71,0,2.15,0,4.3,0,6.55Z" />
        <path class="color-shadow"
            d="M413.44,212.38a2.46,2.46,0,0,1,.27.74q.14,4.24.25,8.49c.16,5.7.36,11.4.46,17.1,0,2.35-.26,4.71-.19,7,.15,5.22.54,10.43.64,15.64.06,3-.24,6-.38,9.06,0,.36,0,.72,0,1.08q0,6.12,0,12.24V285l1.23-.64c-.14,1.72-.27,3.45-.41,5.14l-3.49.58c.21-2.34.43-4.62.61-6.91.24-3.22.6-6.44.64-9.66.09-7.43.05-14.86,0-22.29,0-4.95-.23-9.9-.18-14.85.07-7.78.29-15.57.45-23.35A3.29,3.29,0,0,1,413.44,212.38Z" />
        <path class="color-shadow"
            d="M393.32,278.14l1.27.64c0-2.25,0-4.4,0-6.55,0-.24-.06-.47-.06-.71-.08-6.1-.25-12.21-.22-18.31,0-5.05.33-10.1.43-15.16,0-2.06-.24-4.14-.19-6.2.1-4.82.29-9.63.47-14.44,0-1.08.13-2.15.24-3.21,0-.22.26-.42.4-.63.1,2.11.26,4.21.28,6.32.1,8.15.22,16.29.22,24.43,0,7.14-.26,14.29-.16,21.43.06,4.52.57,9,.9,13.55.1,1.41.24,2.82.37,4.31l-3.51-.57Z" />
        <path class="color-shadow"
            d="M438.72,195.62a37.5,37.5,0,0,1-4.55,4q-5.76,3.65-11.79,6.83a30.75,30.75,0,0,1-5.43,1.67c0-1.66.1-3,0-4.31a2.39,2.39,0,0,1,1.91-2.81c2.92-.94,5.79-2,8.74-2.84,3.65-1,7.35-1.8,11-2.68Z" />
        <path class="color-shadow"
            d="M413,196.82a2.8,2.8,0,0,1-.27.58,6.73,6.73,0,0,0-1.18,4.85,2.16,2.16,0,0,1-.46,1.34c-1.37,1.71-2.8,3.37-4.19,5.07-.51.63-2.49,1.35-2.81.81-.44-.74-.78-2.15-.38-2.64,2.61-3.22,5.43-6.27,8.19-9.36.27-.3.59-.56.88-.83Z" />
        <path class="color-shadow"
            d="M401.06,209.92h-4.47c0-2.11-.09-4.24-.12-6.38a1,1,0,0,1,.22-.54,4.25,4.25,0,0,0,.53-4.18,4.49,4.49,0,0,1,0-.85A19,19,0,0,1,401.06,209.92Z" />
        <path class="transparent"
            d="M363.6,84.85c.22,1.12.48,2.12.6,3.14a1.43,1.43,0,0,1-.49,1q-5.26,4.55-10.57,9a1.35,1.35,0,0,1-1,.26c2-2.09,4.09-4.1,6-6.3S361.7,87.32,363.6,84.85Z" />
        <path class="transparent"
            d="M361.3,140.64c-.8-.2-1.48-.4-2.17-.55-2.06-.42-2.79-2.05-3.49-3.73-.34-.8-.7-1.59-1.17-2.68C357.3,135.62,360,137.3,361.3,140.64Z" />
        <path class="color-shadow"
            d="M416.11,200.87c-.31.37-.82.71-.91,1.13-.47,2.32-.83,4.68-1.25,7a2.77,2.77,0,0,1-.41.75c0-3,0-6,.12-9,0-1.69.75-2.48,2.53-3A4.41,4.41,0,0,1,416.11,200.87Z" />
        <path class="transparent" d="M349.21,119.37c-1.68.56-1.93.92-1.76,2.82l-3.51-3.31,4.18-3.12Z" />
        <path class="color-shadow"
            d="M395.43,208.08c-.14-.21-.36-.39-.41-.62q-.63-3.19-1.21-6.39c-.1-.53-.26-.93-.92-.67a4.23,4.23,0,0,1,0-3.09c1.77.52,2.55,1.31,2.59,2.89C395.5,202.83,395.44,205.45,395.43,208.08Z" />
        <path class="color-shadow"
            d="M415.7,293.3c-.08,1.75-.16,1.86-1.86,1.84-.95,0-2.15.15-2.74-.35-.42-.34,0-1.68,0-2.58,0-.24,0-.47.05-.89l2.07-.16a5,5,0,0,0-.37,1c-.07.37-.18.86,0,1.12s.68.14,1.05.14C414.53,293.38,415.11,293.33,415.7,293.3Z" />
        <path class="color-shadow"
            d="M395.22,284.49h2.5a19.3,19.3,0,0,0,.51,2.67c.26.77-.14,1-.68,1a24.68,24.68,0,0,1-3.33,0c-1-.08-.89-.94-.9-1.64.58,0,1.17.06,1.75.05a8.14,8.14,0,0,0,1.1-.18,12,12,0,0,0-.47-1.31A2.79,2.79,0,0,0,395.22,284.49Z" />
        <path class="color-shadow"
            d="M412.53,204.86c0,1,0,2,0,3.06a.85.85,0,0,1-.5.63c-1.3.22-2.62.37-3.93.54l-.19-.32,4.34-4.06Z" />
        <path class="color-base"
            d="M415.7,293.3c-.59,0-1.17.08-1.76.09-.37,0-.92.06-1.05-.14s-.07-.75,0-1.12a5,5,0,0,1,.37-1l2.86-.28Z" />
        <path class="color-base"
            d="M395.22,284.49a2.79,2.79,0,0,1,.48.62,12,12,0,0,1,.47,1.31,8.14,8.14,0,0,1-1.1.18c-.58,0-1.17,0-1.75-.05l-.45-2.06Z" />
        <path class="transparent" d="M354.91,129.82l2.85,4.62a3.67,3.67,0,0,1-3.08-3.6,6.15,6.15,0,0,0-.17-1Z" />
        <path class="transparent"
            d="M348.85,120.92c.53.2.95.22,1.07.42.95,1.55,1.85,3.15,2.76,4.73,0,0-.05.13-.15.41A13.37,13.37,0,0,1,348.85,120.92Z" />
        <path class="transparent" d="M350.88,126.64c1.72.78,3,3.56,2.77,5.69Z" />
        <path class="color-shadow"
            d="M368.39,87.39l-1.87,3.36a1.25,1.25,0,0,1,.09-2.11C367.16,88.18,367.79,87.8,368.39,87.39Z" />
        <path class="color-shadow"
            d="M395.49,197.74a11.18,11.18,0,0,1-1-.66c-.63-.5-1.38-.88-2-.31-.4.35-.46,1.09-.67,1.66a1.71,1.71,0,0,1,0-2.14,1.45,1.45,0,0,1,2.14-.07,11.37,11.37,0,0,1,1.49,1.53Z" />
        <path class="color-shadow"
            d="M414.82,196.9a1.48,1.48,0,0,1,2.05-.58c.79.43.85,1.51.23,2.71C417,197.45,417.5,197.11,414.82,196.9Z" />
        <path class="transparent" d="M363.25,96.31l1.82-3C365.58,94.8,365.39,95.15,363.25,96.31Z" />
        <path class="color-shadow" d="M400.57,73.9l-1.15-2,.41-.25c.38.75.76,1.5,1.15,2.25Z" />
        <path class="color-shadow" d="M413.23,198.46l-.66,3.36c-.44-.66-.22-2.12.68-3.35Z" />
        <path class="color-base" d="M353.08,126.67l1.59,2.57-.34.2c-.52-.83-1.05-1.65-1.57-2.47Z" />
        <path class="color-base" d="M415.53,131.55l-.39-.09c.06-.4.13-.8.2-1.2l.37.06Z" />
        <path class="color-shadow" d="M395.62,209.28l-.12-.74Z" />
        <path class="color-base" d="M354.91,129.82h-.4l-.18-.37.34-.2Z" />
        <path class="transparent" d="M353.08,126.67l-.32.3c-.06-.22-.11-.45-.17-.67Z" />
        <path class="color-shadow" d="M405.53,83.76l.13.52Z" />
        <path class="transparent" d="M344.76,122.42a1.4,1.4,0,0,1,.28.06s0,.12,0,.18l-.39,0Z" />
        <path class="transparent" d="M426,77.42l-.23-.35.44.16Z" />
        <path class="color-shadow" d="M438.6,195.51l.25,0a.86.86,0,0,0-.13.14Z" />
        <path class="color-shadow" d="M396.65,197.3l-.11-.25.23.13Z" />
        <path class="color-shadow" d="M396.77,197.18l.09.27-.21-.15Z" />
        <path class="color-shadow" d="M395.47,197.75l.18,0-.07.12-.09-.16Z" />
        <path class="color-shadow" d="M413.25,198.47l.09-.16-.11.15Z" />
        <path class="color-shadow"
            d="M397.07,197.77s.07.07.07.1,0,.06-.07.09-.07-.07-.07-.1S397.05,197.8,397.07,197.77Z" />
        <path class="color-shadow"
            d="M399.33,71.16a.8.8,0,0,1,.13.13,1.19,1.19,0,0,1-.15.09s-.07,0-.07-.06A.83.83,0,0,1,399.33,71.16Z" />
        <path class="outline"
            d="M398.19,169.37c-.68-5.21-.8-10.4,1-15.38a4.69,4.69,0,0,1-.2,4.78,2.25,2.25,0,0,0-.4,1.27C398.46,163.15,398.33,166.26,398.19,169.37Z" />
        <path class="outline" d="M381.82,165.85c-1.94-3.16-4-6.28-4.73-10l.31-.14,4.74,10Z" />
    </g>
</svg>
