<svg id="kapyushony_s_golovoy" data-name="kapyushony s golovoy" xmlns="http://www.w3.org/2000/svg"
    viewBox="0 0 672 960">
    <g id="Vnakhlest_bez_verovok_img" data-name="Vnakhlest bez verovok img">
        <path class="outline"
            d="M339.09,119.28c-.17-.07-.42-.08-.49-.2-3-4.59-5.29-9.43-5.27-15,0-3.49.27-7,.33-10.48,0-1.67-.12-3.34-.19-5l-.31-1.42.87-1.08a3.1,3.1,0,0,1,.25.64c.26,3.29.55,6.57.75,9.85.19,3.1.17,6.21.47,9.3a60.85,60.85,0,0,0,1.23,6.21l.48-.06v-4.76h.22l5.51,10.63c1.35-1,2.55-2,3.83-2.9.68-.46.88-.87.5-1.65-1-2.09-1.93-4.21-2.9-6.32-.21-.44-.46-.87-.83-1.57a19.33,19.33,0,0,0-2.41,6.52,2.12,2.12,0,0,1-.43-1,35.53,35.53,0,0,1-.11-6.18c1.2-8.26,5.34-15.29,9.66-22.22.09-.14.33-.19.5-.29-.85,2.41-1.93,4.65-2.91,6.93a61.85,61.85,0,0,0-4.39,12.89,8.59,8.59,0,0,0,0,1.74c2.2-2.27,4.08-4.45,6.2-6.36A105.57,105.57,0,0,0,362.24,84a4,4,0,0,0,.77-3.26c-.48-4.51-.83-9-1.19-13.57a8.44,8.44,0,0,1,.15-1.65l.29,0,2,15.33.45.09,4.15-5.57a2.7,2.7,0,0,1,0,.62c-1.16,2-2.34,4.07-3.48,6.11a2.45,2.45,0,0,0-.5,1.29c.15,1.2.45,2.38.7,3.59,2.8-1.77,7.63-7.8,10.72-13.2a4.54,4.54,0,0,1-.12,1.43A25.92,25.92,0,0,1,370.29,85c-.68.77-1.27,1.62-1.9,2.43-.6.41-1.23.79-1.78,1.25a1.25,1.25,0,0,0-.09,2.11v2.32l.51.1C377.38,81.88,386.8,70,390.86,54.75a8.25,8.25,0,0,1-.13,2.73c-.9,3.26-1.84,6.51-2.88,9.72a1.61,1.61,0,0,0,.5,2.13c4.56,3.57,9.09,7.17,13.64,10.75a6.54,6.54,0,0,0,.92.45c-.4-1.13-.72-2-1-2.91l-1.3-3.72H401c.09.17.17.35.27.51,1.75,3,3.52,5.92,4.28,9.34l.13.52,1.9,10.92a119.13,119.13,0,0,1,19.59-.66,127.36,127.36,0,0,0-20,2l.37,10c1.79-2.87,2.6-6.12,4.42-8.91.94,2,.11,3.89.13,5.89,1.35-1.84,1.26-4.28,3.49-5.62,1.73-1,3.59-1.38,4.87.26a24.47,24.47,0,0,1,3.16,4.87c1.12,2.45,1.87,5.07,2.68,7.36a38.38,38.38,0,0,0,1.25-5.29,63.12,63.12,0,0,0,.21-7.9c-.08-2.91-.38-5.81-.54-8.72a11.69,11.69,0,0,0,0-2.43c-1-3.4-2.13-6.77-3.25-10.13a18.25,18.25,0,0,0-1-2.05c1.9.37,2.7,1.78,4,2.5-3.76-8-8.37-15.33-16-20.57,1.69-1.07,3.39-.47,5-.72a59.3,59.3,0,0,0-16.63-7.41c-.77-.2-1.51-.52-2.49-.88l2.75-2.23a10.79,10.79,0,0,0-7.3,2.22c-1.43,1.14-1.64,1.05-3.07-.14-3.58-3-7.47-4.7-12.32-3.33-4.3,1.21-8.67,2.22-13.05,3.07a12.86,12.86,0,0,0-5,1.93c-4,2.74-8,5.42-11.78,8.44a30,30,0,0,0-6.81,7,96.91,96.91,0,0,0-8.51,17.54,9.09,9.09,0,0,0,.88-.65c1-1,1.9-2,2.88-3.06a6,6,0,0,1,1-.66l.17.26a22.63,22.63,0,0,0-2.36,3.12,21.3,21.3,0,0,0-1.94,4.84c-.38,1.55-1.05,3.22,0,4.82-1.27,3-1,6.15-1.4,9.24-.2,1.61-.14,3.26-.19,4.89h-.36c-.33-2.91-.85-5.81-.93-8.73a53.88,53.88,0,0,1,.68-6.91.74.74,0,0,0-.33-.65c-.21.77-.46,1.53-.62,2.31-.21,1.06-.32,2.14-.53,3.2-.05.27-.31.49-.48.73V90.7a11.16,11.16,0,0,0,.5-1.84c.64-6.9,3.29-13.07,6.46-19.15a48.41,48.41,0,0,1,23.85-22.5,4.86,4.86,0,0,0,.44-.28l-7.11-1.48.05-.46c3.69.56,7.2-.41,10.74-1.06L373.74,42l0-.53-11.54-1c5.71-2.66,18.41-1.67,24.17,1.64.47-1.19-3-4.84-5.84-6.13,4.39.29,7.37,2.89,9.93,6.37a15.12,15.12,0,0,1,6.94-6.74l-4.11,6.9.19.31c5.72-2.32,11-1,16.1,1.79-3.67-.41-7.42-1.58-10.82,1.62A25.62,25.62,0,0,1,411.63,50a59.66,59.66,0,0,1,10.48,8.23A19.66,19.66,0,0,0,412.8,56c10.61,7.45,15,18.77,19.33,30.14l-.31.18c-.33-.76-.65-1.52-1-2.27a21.58,21.58,0,0,0-1.12-2.38c-.76-1.26-1.6-2.48-2.47-3.67a4.35,4.35,0,0,0-1-.75l-.44-.16.23.35a97.37,97.37,0,0,1,3.06,9.26,79.36,79.36,0,0,1,1.2,9.27c.24,2.14.38,4.28.56,6.43l-.3.09-.65-5h-.29c0,.32-.07.65-.06,1a85.4,85.4,0,0,1-.87,13,19.67,19.67,0,0,0,.53,5c.26,1.84.57,3.68.88,5.51a8.65,8.65,0,0,0,.41,1.21l-2.77-4.33-.34-.07-1.12,6.45h-.15v-6.8l-.34-.09q-1.56,2.7-3.13,5.39c-.75,1.27-1.52,2.54-2.25,3.82a2.78,2.78,0,0,1-2.49,1.63c-.13,2.53-.26,5-.4,7.62,3.38-.75,6.61-1.56,9.88-2.14a82,82,0,0,1,8.85-1.11c3.33-.23,6.69-.21,10-.24a9.33,9.33,0,0,1,7.93,3.91,9.6,9.6,0,0,1,1.35,2.42,12.63,12.63,0,0,0,3.28,4.8,7.55,7.55,0,0,1,2.45,7.12,34,34,0,0,0-.58,5.68,13.15,13.15,0,0,0,3.45,8.91,98.25,98.25,0,0,1,6.6,9,4.41,4.41,0,0,1-2.36,6.55,31.58,31.58,0,0,1-3.44,1,33.08,33.08,0,0,0-9.12,3.86c-3.19,1.9-6.36,3.84-9.55,5.72a14.36,14.36,0,0,1-2.88,1.44,8.42,8.42,0,0,0-3.25,2.12,57.34,57.34,0,0,1-17.78,12,32.84,32.84,0,0,1-7,1.8c-4,.68-8,1.18-12,1.68a53.23,53.23,0,0,1-14.91-.49,70.36,70.36,0,0,1-15.7-4.1c-6.93-2.82-13.19-6.62-18.1-12.41-2.35-2.77-5.08-5.22-6.81-8.49-.37-.7-.72-1.41-1.15-2.27l-4.41,1.26c-.76.22-1.51.37-2.07-.38s-.21-1.44.18-2.2c2.56-5,6.24-9.34,8.06-14.67,1.39-4.09,2.38-8.34,3.36-12.56.77-3.34,1.16-6.76,1.88-10.11.38-1.78,1.09-3.5,1.62-5.25a1.67,1.67,0,0,0,.08-1.09q-2.76-6-5.61-12a3,3,0,0,0-.91-1.05c-1.23-.92-2.5-1.78-3.91-2.77l1.07,3.17h0l-3.31-4.07c-.25-.3-.46-.63-.73-1a28.5,28.5,0,0,0-7.18,9.87l-.45-.16a6.91,6.91,0,0,1,.52-2.08c1.38-2.23,2.89-4.38,4.32-6.58a7.1,7.1,0,0,0,.52-1.23c1.38-.24,1.68-.8,1.09-2-.38-.74-.73-1.5-1.05-2.27-.61-1.49-1.17-3-1.76-4.5.05,2.15-.36,4.34.79,6.33A4.41,4.41,0,0,1,339.09,119.28Zm14,7.39h-.37l.05.29,1.58,2.47.17.37a3.76,3.76,0,0,1,.17,1,2.83,2.83,0,0,0,1.38,2.83c.43.33.81.74,1.21,1.11l.35-.17c-.51-1.79-1.82-3.19-2.71-4.79l-.24-.58Zm85.52,68.84c-4.91,1.19-9.84,2.36-14.75,3.59-4.05,1-7.58,3.17-11.05,5.37a41.76,41.76,0,0,0-4.91,4.25A1.59,1.59,0,0,0,409,209c1.51-.15,3-.25,4.5-.48,3.18-.5,6.47-.66,9.35-2.23,3.85-2.1,7.66-4.28,11.35-6.64a38.26,38.26,0,0,0,4.55-4l.13-.14Zm-59.67,11.56,10.28,2.28a9.46,9.46,0,0,0,1.17.18c3.34.17,6.68.35,10,.47.25,0,.76-.44.74-.61-.34-2.68-.52-5.35-1.82-7.87a68,68,0,0,0-8.39-12.23,116.33,116.33,0,0,0-13.07-13.66c-5.32-4.6-10.54-9.31-15.6-14.2A22.91,22.91,0,0,1,355.9,149a41.15,41.15,0,0,1-.39-4.17c-1.57,6.52-2.55,13.18-4.6,19.5s-5.19,12.35-7.82,18.45l5-1c.06.17.07.41.19.49,1.75,1.18,3.48,2.41,5.3,3.47a26.54,26.54,0,0,0,4.83,2.34c5.82,2,11.64,3.88,17.53,5.57a36.76,36.76,0,0,1,15.39,9.08,8.42,8.42,0,0,1,1,1.51l-1.07-.94c-3.27-2.91-6.7-5.67-10.8-7.22-4.8-1.82-9.74-3.28-14.66-4.77-4.12-1.24-8.29-2.28-12.43-3.44-.83-.23-1.63-.61-2.44-.91l-.17.28c1.55,1.76,3.16,3.47,4.63,5.3a38.07,38.07,0,0,0,9.6,8.56A48.14,48.14,0,0,0,378.93,207.07Zm36.6-75.52.18-1.23-.37,0-.2,1.19c-.4.5-.83,1-1.21,1.48-3.81,5.21-7.84,10.24-12.92,14.27-4.22,3.34-8.67,6.41-13,9.58a3.63,3.63,0,0,1-3.48.48c-4.11-1.24-7.7-3.49-11.41-5.52-1.25-.68-2.47-1.41-3.81-2.19.34,3.06.74,5.93,1,8.81.21,2.6.21,5.21.34,7.82a1.87,1.87,0,0,0,.45,1.15q4.43,4.46,8.93,8.84c1.86,1.82,3.84,3.51,5.61,5.39,2.36,2.5,4.6,5.11,6.81,7.74,1.7,2,3.31,4.1,4.91,6.19,1.32,1.73,2.57,3.51,3.94,5.39,5.09-4.07,10.1-8,15-12.06a150,150,0,0,0,15.77-14.69c1.25-1.37,2.29-2.94,3.53-4.55-1.79-.66-3.42-1.18-5-1.85a20.1,20.1,0,0,1-5.11-2.58,57.72,57.72,0,0,1-5.16-5.64,6.58,6.58,0,0,0-1-.67c1.31,4.55,2.52,8.72,3.73,12.88a10.17,10.17,0,0,1-1.29-2.49c-2.23-5.72-4.52-11.48-5.09-17.64C416.08,144.94,415.9,138.23,415.53,131.55ZM368.27,106c-.26,0-.35,0-.41,0a96.63,96.63,0,0,0-17.92,8.56c-.74.46-.64.91-.5,1.57a25.89,25.89,0,0,0,4,8.89c3.51,5.38,6.85,10.88,10.41,16.23a20.37,20.37,0,0,0,4.61,5.46,81.44,81.44,0,0,0,16.29,9.1,2.56,2.56,0,0,0,2.83-.39c6-4.39,12-8.67,17.18-14,3.13-3.23,6-6.7,9-10.09a2.47,2.47,0,0,0,.39-1.19c.28-2,.35-4,.82-5.91a58.57,58.57,0,0,1,2.23-6.79c.57-1.5,1.36-2.93,2.07-4.38.09-.18.34-.28.51-.42l.41.26-2.31,5.57c.9-.31,2-.36,2.35-.89a8.56,8.56,0,0,0,1.47-4.05,14.56,14.56,0,0,0-3.33-8.65s-.15,0-.18,0a4.34,4.34,0,0,0,.5,5.21,2.54,2.54,0,0,1,.85,2.11,18.28,18.28,0,0,1-1.42-1.71c-.55-.88-1.47-1.83-1.41-2.7a11.84,11.84,0,0,1,2.71-6.86c.62-.75,1-.59,1.42.43l-1,.11c.16.27.3.54.48.79a5.88,5.88,0,0,1,1.53,3.15l-2.42-2.74-.48.36-.43.94a15.13,15.13,0,0,1,3.71,8.75c.29,3.8-1.38,6.8-4.83,7.18q-.56,2.67-1.13,5.33c-.19.87.35,1.17,1,1.52s1,.11,1.37-.41c2.26-3.28,4.58-6.54,6.74-9.89a4.24,4.24,0,0,0,.5-2.74c-.84-5.28-2.3-10.33-5.75-14.6C419,97.74,418,97.54,416.87,99a34,34,0,0,0-3.61,5.67,53.91,53.91,0,0,0-2,5.52c-.14.37-.57.63-.87.94a9,9,0,0,1-.27-1.23c0-.22.13-.45.17-.69l1.11-6.3-.28-.09a38.6,38.6,0,0,1-4.9,8.41c.5-2.41.32-13-.39-14.41-7.19.39-32.31,6.45-36.06,8.71.64,2.09,1.22,4.2,1.92,6.28,3.12,9.34,6.28,18.67,9.4,28a7.69,7.69,0,0,1,.22,1.45A238.7,238.7,0,0,1,368.27,106Zm73,29.84c-3.09.16-6.11.11-9.07.51-4.62.61-9.21,1.53-13.81,2.3-.82.13-1.13.46-1.08,1.33.19,3.29.32,6.6.47,9.9.15,3.06,1.57,5.69,3.14,8.16s3.47,4.54,5.23,6.8a1.45,1.45,0,0,0,.53.46q4,1.68,8,3.3a1.56,1.56,0,0,0,2-.61c2.15-2.74,4.38-5.4,6.48-8.17Q447.6,154,451.88,148c1.38-1.91,1.42-4.25,1.35-6.45-.07-2.52-2.46-4.91-5.13-5.27C445.81,136,443.48,136,441.26,135.88Zm13.83,7.86c-1.25,2.44-2.34,5-3.82,7.37a175.75,175.75,0,0,1-16.06,21.94,110.67,110.67,0,0,1-17.31,16.34c-5.09,3.79-10,7.85-15,11.77a1.72,1.72,0,0,0-.66,2.07c.51,1.88.92,3.78,1.41,5.66a1,1,0,0,0,.44.63,2.9,2.9,0,0,0,2.92-1c4.56-6.6,11-10.31,18.71-11.9,4.09-.85,8.22-1.52,12.32-2.35,6-1.2,11-4.4,15.94-7.74a57,57,0,0,1,10.69-6.13,24.84,24.84,0,0,0,2.29-1.05,3,3,0,0,0,1.25-4q-2.78-4.7-5.69-9.3a19,19,0,0,1-2.56-6,39.93,39.93,0,0,1-.55-9.06,5.68,5.68,0,0,0-1.43-4Zm-85.82-40a165.72,165.72,0,0,1,36.66-8.35c-.84-4.26-1.65-8.48-2.51-12.69a1.31,1.31,0,0,0-.66-.75A43.78,43.78,0,0,1,387,69.83c-1.47,2.43-2.82,4.87-4.36,7.19A110.78,110.78,0,0,1,368,94.7a1.69,1.69,0,0,0-.55,1.29C368,98.55,368.61,101.08,369.27,103.75Zm-4.67-13a1.91,1.91,0,0,0-.36.19,91.62,91.62,0,0,1-15.81,11,37.86,37.86,0,0,0-3.9,2.94l4.2,8.6c1.81-1,3.54-2.23,5.4-3.11,4.22-2,8.5-3.83,12.74-5.78.33-.14.76-.68.71-.93-.52-2.28-1.13-4.54-1.71-6.78l-7.07,5.67-.42-.39c.27-.43.51-.88.81-1.29.75-1,1.56-2,2.27-3.07,1-1.41,1.79-2.91,2.78-4.29A2.45,2.45,0,0,0,364.6,90.79Zm4.27,73.49a6.59,6.59,0,0,0,0-.77c-.53-3.82-1.13-7.64-1.56-11.47-.3-2.63-.93-5-2.93-6.92a.52.52,0,0,1-.14-.19c-1.24-2.68-3.81-3.26-6.25-4.11-1.22,1.64-.82,3.36-.7,5.11.58,8.08,5.52,13.43,11.24,18.33C368.58,164.29,368.68,164.27,368.87,164.28ZM352,98.2l.28.27a3.42,3.42,0,0,0,.81-.41q5.36-4.53,10.66-9.11a1.2,1.2,0,0,0,.45-.9c-.13-1-.38-2.09-.64-3.4A65.62,65.62,0,0,1,352,98.2Zm9.3,42.44c-1.26-3.34-4-5-6.83-7,.48,1.09.83,1.88,1.17,2.69.7,1.68,1.44,3.31,3.49,3.73C359.82,140.24,360.5,140.44,361.3,140.64ZM347.23,122c0-1.66.3-2,2-2.62l-1.07-3.6-4.2,3.12Zm5.07,4.52.46-.34c-.95-1.64-1.89-3.28-2.89-4.9-.1-.17-.55-.13-.83-.18l-.32.38Zm1.15,5.45c.31-2.09-1-4.63-2.53-5.26Zm10-35.85c1.85-.72,2.16-1.3,1.52-2.52Zm-18.31,26.41a1.39,1.39,0,0,0-.31-.1s-.07.1-.1.15l.3.16Z" />
        <path class="transparent"
            d="M400.57,73.9l1.3,3.72c.32.89.64,1.78,1,2.91a6.54,6.54,0,0,1-.92-.45c-4.55-3.58-9.08-7.18-13.64-10.75a1.61,1.61,0,0,1-.5-2.13c1-3.21,2-6.46,2.88-9.72a8.25,8.25,0,0,0,.13-2.73C386.8,70,377.38,81.88,367,93.17l-.51-.1V90.75l1.87-3.36c.63-.81,1.22-1.66,1.9-2.43a25.92,25.92,0,0,0,5.85-9.78,4.54,4.54,0,0,0,.12-1.43c-3.09,5.4-7.92,11.43-10.72,13.2-.25-1.21-.55-2.39-.7-3.59a2.45,2.45,0,0,1,.5-1.29c1.14-2,2.32-4.07,3.48-6.11a2.7,2.7,0,0,0,0-.62l-4.15,5.57-.45-.09-2-15.33-.29,0a8.44,8.44,0,0,0-.15,1.65c.36,4.53.71,9.06,1.19,13.57a4,4,0,0,1-.77,3.26,105.57,105.57,0,0,1-12.55,13.51c-2.12,1.91-4,4.09-6.2,6.36a8.59,8.59,0,0,1,0-1.74,61.85,61.85,0,0,1,4.39-12.89c1-2.28,2.06-4.52,2.91-6.93-.17.1-.41.15-.5.29-4.32,6.93-8.46,14-9.66,22.22a35.53,35.53,0,0,0,.11,6.18,2.12,2.12,0,0,0,.43,1,19.33,19.33,0,0,1,2.41-6.52c.37.7.62,1.13.83,1.57,1,2.11,1.89,4.23,2.9,6.32.38.78.18,1.19-.5,1.65-1.28.88-2.48,1.87-3.83,2.9l-5.51-10.63h-.22V112l-.48.06a60.85,60.85,0,0,1-1.23-6.21c-.3-3.09-.28-6.2-.47-9.3-.2-3.28-.49-6.56-.75-9.85a3.1,3.1,0,0,0-.25-.64l-.87,1.08.31,1.42-1,1.44c-1.06-1.6-.39-3.27,0-4.82a21.3,21.3,0,0,1,1.94-4.84,22.63,22.63,0,0,1,2.36-3.12l-.17-.26a6,6,0,0,0-1,.66c-1,1-1.91,2-2.88,3.06a9.09,9.09,0,0,1-.88.65,96.91,96.91,0,0,1,8.51-17.54,30,30,0,0,1,6.81-7c3.76-3,7.8-5.7,11.78-8.44a12.86,12.86,0,0,1,5-1.93c4.38-.85,8.75-1.86,13.05-3.07,4.85-1.37,8.74.35,12.32,3.33,1.43,1.19,1.64,1.28,3.07.14a10.79,10.79,0,0,1,7.3-2.22l-2.75,2.23c1,.36,1.72.68,2.49.88A59.3,59.3,0,0,1,416,55.09c-1.6.25-3.3-.35-5,.72,7.6,5.24,12.21,12.58,16,20.57-1.3-.72-2.1-2.13-4-2.5a18.25,18.25,0,0,1,1,2.05c1.12,3.36,2.24,6.73,3.25,10.13a11.69,11.69,0,0,1,0,2.43c.16,2.91.46,5.81.54,8.72a63.12,63.12,0,0,1-.21,7.9,38.38,38.38,0,0,1-1.25,5.29c-.81-2.29-1.56-4.91-2.68-7.36a24.47,24.47,0,0,0-3.16-4.87c-1.28-1.64-3.14-1.31-4.87-.26-2.23,1.34-2.14,3.78-3.49,5.62,0-2,.81-3.94-.13-5.89-1.82,2.79-2.63,6-4.42,8.91l-.37-10a127.36,127.36,0,0,1,20-2,119.13,119.13,0,0,0-19.59.66l-1.9-10.92-.13-.52c-.76-3.42-2.53-6.38-4.28-9.34-.1-.16-.18-.34-.27-.51-.39-.75-.77-1.5-1.15-2.25l-.33.18a7.6,7.6,0,0,0,.4,1.07A9.06,9.06,0,0,0,400.57,73.9Zm-1.18-2.5a1.15,1.15,0,0,0,.06-.17s-.06-.06-.07-.06a1.49,1.49,0,0,0-.14.12Z" />
        <path class="transparent"
            d="M339.09,119.28a4.41,4.41,0,0,0-.28-1.24c-1.15-2-.74-4.18-.79-6.33.59,1.5,1.15,3,1.76,4.5.32.77.67,1.53,1.05,2.27.59,1.17.29,1.73-1.09,2Z" />
        <path class="color-base" d="M430.54,102.47l.3-.09v2.81h-.49Z" />
        <path class="color-shadow" d="M330.49,104.12h.36l.28.78-.32.13Z" />
        <path class="outline" d="M346.05,125.72l.36.3,0,0-.38-.27Z" />
        <path class="transparent"
            d="M368.27,106a238.7,238.7,0,0,0,13.07,35.18,7.69,7.69,0,0,0-.22-1.45c-3.12-9.33-6.28-18.66-9.4-28-.7-2.08-1.28-4.19-1.92-6.28,3.75-2.26,28.87-8.32,36.06-8.71.71,1.4.89,12,.39,14.41a38.6,38.6,0,0,0,4.9-8.41l.28.09-1.11,6.3c0,.24-.2.47-.17.69a9,9,0,0,0,.27,1.23c.3-.31.73-.57.87-.94a53.91,53.91,0,0,1,2-5.52A34,34,0,0,1,416.87,99c1.09-1.42,2.16-1.22,3.31.19,3.45,4.27,4.91,9.32,5.75,14.6a4.24,4.24,0,0,1-.5,2.74c-2.16,3.35-4.48,6.61-6.74,9.89-.35.52-.69.77-1.37.41s-1.2-.65-1-1.52q.57-2.65,1.13-5.33c3.45-.38,5.12-3.38,4.83-7.18a15.13,15.13,0,0,0-3.71-8.75l.43-.94.48-.36,2.42,2.74a5.88,5.88,0,0,0-1.53-3.15c-.18-.25-.32-.52-.48-.79l1-.11c-.38-1-.8-1.18-1.42-.43a11.84,11.84,0,0,0-2.71,6.86c-.06.87.86,1.82,1.41,2.7a18.28,18.28,0,0,0,1.42,1.71,2.54,2.54,0,0,0-.85-2.11,4.34,4.34,0,0,1-.5-5.21s.15,0,.18,0a14.56,14.56,0,0,1,3.33,8.65,8.56,8.56,0,0,1-1.47,4.05c-.32.53-1.45.58-2.35.89l2.31-5.57-.41-.26c-.17.14-.42.24-.51.42-.71,1.45-1.5,2.88-2.07,4.38a58.57,58.57,0,0,0-2.23,6.79c-.47,1.92-.54,3.94-.82,5.91a2.47,2.47,0,0,1-.39,1.19c-3,3.39-5.87,6.86-9,10.09-5.17,5.34-11.23,9.62-17.18,14a2.56,2.56,0,0,1-2.83.39,81.44,81.44,0,0,1-16.29-9.1,20.37,20.37,0,0,1-4.61-5.46c-3.56-5.35-6.9-10.85-10.41-16.23a25.89,25.89,0,0,1-4-8.89c-.14-.66-.24-1.11.5-1.57a96.63,96.63,0,0,1,17.92-8.56C367.92,106,368,106,368.27,106Z" />
        <path class="transparent"
            d="M415.53,131.55c.37,6.68.55,13.39,1.17,20,.57,6.16,2.86,11.92,5.09,17.64a10.17,10.17,0,0,0,1.29,2.49c-1.21-4.16-2.42-8.33-3.73-12.88a6.58,6.58,0,0,1,1,.67,57.72,57.72,0,0,0,5.16,5.64,20.1,20.1,0,0,0,5.11,2.58c1.55.67,3.18,1.19,5,1.85-1.24,1.61-2.28,3.18-3.53,4.55a150,150,0,0,1-15.77,14.69c-4.95,4-10,8-15,12.06-1.37-1.88-2.62-3.66-3.94-5.39-1.6-2.09-3.21-4.18-4.91-6.19-2.21-2.63-4.45-5.24-6.81-7.74-1.77-1.88-3.75-3.57-5.61-5.39q-4.5-4.38-8.93-8.84a1.87,1.87,0,0,1-.45-1.15c-.13-2.61-.13-5.22-.34-7.82-.22-2.88-.62-5.75-1-8.81,1.34.78,2.56,1.51,3.81,2.19,3.71,2,7.3,4.28,11.41,5.52a3.63,3.63,0,0,0,3.48-.48c4.36-3.17,8.81-6.24,13-9.58,5.08-4,9.11-9.06,12.92-14.27.38-.51.81-1,1.21-1.48Zm-17.51,38a1.84,1.84,0,0,0,.18-.39c.14-3.1.26-6.19.42-9.28a1.8,1.8,0,0,1,.37-1.05,4.71,4.71,0,0,0,.22-4.88C397.51,159,397.43,164.14,398,169.51Zm-16.2-3.66.32-.15-4.74-10-.3.14C377.84,159.58,379.88,162.69,381.82,165.85Z" />
        <path class="color-shadow"
            d="M441.26,135.88c2.22.11,4.55.09,6.84.4,2.67.36,5.06,2.75,5.13,5.27.07,2.2,0,4.54-1.35,6.45q-4.29,6-8.74,11.86c-2.1,2.77-4.33,5.43-6.48,8.17a1.56,1.56,0,0,1-2,.61q-4-1.62-8-3.3a1.45,1.45,0,0,1-.53-.46c-1.76-2.26-3.69-4.4-5.23-6.8s-3-5.1-3.14-8.16c-.15-3.3-.28-6.61-.47-9.9-.05-.87.26-1.2,1.08-1.33,4.6-.77,9.19-1.69,13.81-2.3C435.15,136,438.17,136,441.26,135.88Z" />
        <path class="color-base"
            d="M392.37,204.23a8.42,8.42,0,0,0-1-1.51A36.76,36.76,0,0,0,376,193.64c-5.89-1.69-11.71-3.62-17.53-5.57a26.54,26.54,0,0,1-4.83-2.34c-1.82-1.06-3.55-2.29-5.3-3.47-.12-.08-.13-.32-.19-.49q4-13.19,8.08-26.42a5.45,5.45,0,0,1,.26.62c1.82,5.95,5.42,10.77,9.66,15.17a97.14,97.14,0,0,0,14,11.53,22.82,22.82,0,0,1,5.38,4.88,58.45,58.45,0,0,1,8.36,16.57,5.73,5.73,0,0,1,0,1.66l-1.53-1.57Z" />
        <path class="color-shadow"
            d="M455.09,143.74,458,147a5.68,5.68,0,0,1,1.43,4A39.93,39.93,0,0,0,460,160a19,19,0,0,0,2.56,6q2.93,4.6,5.69,9.3a3,3,0,0,1-1.25,4,24.84,24.84,0,0,1-2.29,1.05A57,57,0,0,0,454,186.5c-4.92,3.34-10,6.54-15.94,7.74-4.1.83-8.23,1.5-12.32,2.35-7.73,1.59-14.15,5.3-18.71,11.9a2.9,2.9,0,0,1-2.92,1,1,1,0,0,1-.44-.63c-.49-1.88-.9-3.78-1.41-5.66a1.72,1.72,0,0,1,.66-2.07c5-3.92,9.9-8,15-11.77a110.67,110.67,0,0,0,17.31-16.34,175.75,175.75,0,0,0,16.06-21.94C452.75,148.77,453.84,146.18,455.09,143.74Zm.21,9c-.14.19-.26.33-.35.48a85.82,85.82,0,0,1-12.59,17.66q-6,6.41-12.2,12.68-3.18,3.25-6.55,6.31c-2.12,1.93-4.37,3.72-6.53,5.59-1.53,1.33-3,2.7-4.53,4.08-.69.63-1.33,1.32-2,2l.27.26c3.85-2.44,7.73-4.83,11.55-7.33a34.45,34.45,0,0,1,12.46-5.18c3.2-.61,6.32-1.59,9.5-2.31a4.57,4.57,0,0,0,3.77-4,21.22,21.22,0,0,1,1.37-3.56l.25.08-1.51,5.95c.9-.49,1.53-.76,2.08-1.13,1.64-1.13,3.19-2.4,4.88-3.43,2.79-1.7,5.67-3.23,8.48-4.89.4-.24.95-.85.88-1.15a15.8,15.8,0,0,0-1.32-4,39.33,39.33,0,0,0-2.88-4.1,22.73,22.73,0,0,1-4.18-8.65C455.81,156.34,455.59,154.58,455.3,152.74Z" />
        <path class="transparent"
            d="M369.27,103.75c-.66-2.67-1.31-5.2-1.86-7.76A1.69,1.69,0,0,1,368,94.7,110.78,110.78,0,0,0,382.62,77c1.54-2.32,2.89-4.76,4.36-7.19A43.78,43.78,0,0,0,402.76,82a1.31,1.31,0,0,1,.66.75c.86,4.21,1.67,8.43,2.51,12.69A165.72,165.72,0,0,0,369.27,103.75Z" />
        <path class="color-shadow"
            d="M393.89,205.78a5.73,5.73,0,0,0,0-1.66,58.45,58.45,0,0,0-8.36-16.57,22.82,22.82,0,0,0-5.38-4.88,97.14,97.14,0,0,1-14-11.53c-4.24-4.4-7.84-9.22-9.66-15.17a5.45,5.45,0,0,0-.26-.62q-4.05,13.26-8.08,26.42l-5,1c2.63-6.1,5.76-12.1,7.82-18.45s3-13,4.6-19.5a41.15,41.15,0,0,0,.39,4.17,22.91,22.91,0,0,0,6.36,12.4c5.06,4.89,10.28,9.6,15.6,14.2a116.33,116.33,0,0,1,13.07,13.66,68,68,0,0,1,8.39,12.23c1.3,2.52,1.48,5.19,1.82,7.87,0,.17-.49.61-.74.61-3.34-.12-6.68-.3-10-.47a9.46,9.46,0,0,1-1.17-.18c.16-.1.32-.29.48-.29,1.59,0,3.18.1,4.77.15.22,0,.44,0,.75-.06l-.32-1c-1.15.44-1.78-.28-2.35-1a17,17,0,0,0-6.26-5.06,51.71,51.71,0,0,0-13.52-4.62c-3.51-.57-6.95-1.56-10.57-2.39a3.27,3.27,0,0,0,.24.48,4.91,4.91,0,0,0,.51.51,70.63,70.63,0,0,0,15.41,10.38c.25.12.39.44.58.66a48.14,48.14,0,0,1-13.9-6,38.07,38.07,0,0,1-9.6-8.56c-1.47-1.83-3.08-3.54-4.63-5.3L351,187c.81.3,1.61.68,2.44.91,4.14,1.16,8.31,2.2,12.43,3.44,4.92,1.49,9.86,2.95,14.66,4.77,4.1,1.55,7.53,4.31,10.8,7.22l1.07.94v0l1.35,2.07.2-.09Z" />
        <path class="transparent"
            d="M364.6,90.79a2.45,2.45,0,0,1-.36,2.73c-1,1.38-1.82,2.88-2.78,4.29-.71,1.06-1.52,2-2.27,3.07-.3.41-.54.86-.81,1.29l.42.39,7.07-5.67c.58,2.24,1.19,4.5,1.71,6.78.05.25-.38.79-.71.93-4.24,2-8.52,3.78-12.74,5.78-1.86.88-3.59,2.06-5.4,3.11l-4.2-8.6a37.86,37.86,0,0,1,3.9-2.94,91.62,91.62,0,0,0,15.81-11A1.91,1.91,0,0,1,364.6,90.79Z" />
        <path class="color-base"
            d="M378.93,207.07c-.19-.22-.33-.54-.58-.66A70.63,70.63,0,0,1,362.94,196a4.91,4.91,0,0,1-.51-.51,3.27,3.27,0,0,1-.24-.48c3.62.83,7.06,1.82,10.57,2.39a51.71,51.71,0,0,1,13.52,4.62,17,17,0,0,1,6.26,5.06c.57.73,1.2,1.45,2.35,1l.32,1c-.31,0-.53.06-.75.06-1.59-.05-3.18-.12-4.77-.15-.16,0-.32.19-.48.29Z" />
        <path class="color-shadow"
            d="M368.87,164.28c-.19,0-.29,0-.34,0-5.72-4.9-10.66-10.25-11.24-18.33-.12-1.75-.52-3.47.7-5.11,2.44.85,5,1.43,6.25,4.11a.52.52,0,0,0,.14.19c2,1.87,2.63,4.29,2.93,6.92.43,3.83,1,7.65,1.56,11.47A6.59,6.59,0,0,1,368.87,164.28Z" />
        <path class="color-shadow"
            d="M438.72,195.62a38.26,38.26,0,0,1-4.55,4c-3.69,2.36-7.5,4.54-11.35,6.64-2.88,1.57-6.17,1.73-9.35,2.23-1.48.23-3,.33-4.5.48a1.59,1.59,0,0,1-1.08-.28,41.76,41.76,0,0,1,4.91-4.25c3.47-2.2,7-4.36,11.05-5.37,4.91-1.23,9.84-2.4,14.75-3.59Z" />
        <path class="transparent"
            d="M352,98.2a65.62,65.62,0,0,0,11.56-13.55c.26,1.31.51,2.35.64,3.4a1.2,1.2,0,0,1-.45.9q-5.29,4.59-10.66,9.11a3.42,3.42,0,0,1-.81.41Z" />
        <path class="transparent"
            d="M361.3,140.64c-.8-.2-1.48-.4-2.17-.54-2.05-.42-2.79-2-3.49-3.73-.34-.81-.69-1.6-1.17-2.69C357.3,135.62,360,137.3,361.3,140.64Z" />
        <path class="transparent" d="M347.23,122l-3.3-3.1,4.2-3.12,1.07,3.6C347.53,120,347.28,120.32,347.23,122Z" />
        <path class="transparent"
            d="M354.91,129.82c.89,1.6,2.2,3,2.71,4.79l-.35.17c-.4-.37-.78-.78-1.21-1.11a2.83,2.83,0,0,1-1.38-2.83,3.76,3.76,0,0,0-.17-1Z" />
        <path class="transparent" d="M352.3,126.5l-3.58-5,.32-.38c.28,0,.73,0,.83.18,1,1.62,1.94,3.26,2.89,4.9Z" />
        <path class="transparent" d="M353.45,132l-2.53-5.26C352.48,127.32,353.76,129.86,353.45,132Z" />
        <path class="color-shadow"
            d="M368.39,87.39l-1.87,3.36a1.25,1.25,0,0,1,.09-2.11C367.16,88.18,367.79,87.8,368.39,87.39Z" />
        <path class="color-shadow"
            d="M400.57,73.9a9.06,9.06,0,0,1-.67-1,7.6,7.6,0,0,1-.4-1.07l.33-.18c.38.75.76,1.5,1.15,2.25Z" />
        <path class="transparent" d="M363.42,96.1l1.52-2.52C365.58,94.8,365.27,95.38,363.42,96.1Z" />
        <path class="color-base" d="M354.34,129.44,352.76,127l.32-.3,1.59,2.57Z" />
        <path class="color-base" d="M415.53,131.55l-.39-.09c.06-.39.13-.79.2-1.19l.37,0Z" />
        <path class="color-shadow" d="M405.53,83.76l.13.52Z" />
        <path class="color-base" d="M354.91,129.82h-.4l-.17-.37.33-.2Z" />
        <path class="transparent" d="M426,77.42l-.23-.35.44.16Z" />
        <path class="transparent" d="M345.11,122.51l-.11.21-.3-.16s.07-.15.1-.15A1.39,1.39,0,0,1,345.11,122.51Z" />
        <path class="transparent" d="M353.08,126.67l-.32.3-.05-.29Z" />
        <path class="color-shadow" d="M438.6,195.51l.25,0a.86.86,0,0,0-.13.14Z" />
        <path class="color-shadow"
            d="M399.39,71.4l-.15-.11a1.49,1.49,0,0,1,.14-.12s.07,0,.07.06A1.15,1.15,0,0,1,399.39,71.4Z" />
        <path class="outline"
            d="M398,169.51c-.59-5.37-.51-10.55,1.18-15.6a4.69,4.69,0,0,1-.21,4.88,1.8,1.8,0,0,0-.37,1.05c-.16,3.09-.28,6.18-.42,9.28A1.84,1.84,0,0,1,398,169.51Z" />
        <path class="outline" d="M381.82,165.85c-1.94-3.16-4-6.27-4.72-10l.3-.14,4.74,10Z" />
        <path class="outline" d="M393.89,205.78l0,.41-.2.09-1.35-2.07Z" />
        <path class="color-base"
            d="M455.3,152.74c.29,1.84.51,3.6.86,5.33a22.73,22.73,0,0,0,4.18,8.65,39.33,39.33,0,0,1,2.88,4.1,15.8,15.8,0,0,1,1.32,4c.07.3-.48.91-.88,1.15-2.81,1.66-5.69,3.19-8.48,4.89-1.69,1-3.24,2.3-4.88,3.43-.55.37-1.18.64-2.08,1.13l1.51-5.95-.25-.08a21.22,21.22,0,0,0-1.37,3.56,4.57,4.57,0,0,1-3.77,4c-3.18.72-6.3,1.7-9.5,2.31a34.45,34.45,0,0,0-12.46,5.18c-3.82,2.5-7.7,4.89-11.55,7.33l-.27-.26c.66-.66,1.3-1.35,2-2,1.49-1.38,3-2.75,4.53-4.08,2.16-1.87,4.41-3.66,6.53-5.59s4.43-4.14,6.55-6.31q6.15-6.28,12.2-12.68A85.82,85.82,0,0,0,455,153.22C455,153.07,455.16,152.93,455.3,152.74Z" />
    </g>
</svg>
