<svg id="Nizy_bochonki" data-name="Nizy bochonki" xmlns="http://www.w3.org/2000/svg" viewBox="0 0 672 960">
    <g id="img_35" data-name="img 35">
        <g id="img_34_img" data-name="img 34 img">
            <path class="outline"
                d="M395.35,440.58c-1-.15-1.36.38-1.48,1.33-.36,2.93-.73,5.87-1.23,8.78-1.12,6.53-2.32,13-3.48,19.56-.15.84-.26,1.69-.43,2.81a12.46,12.46,0,0,1-1.77-.19c-1.16-.28-2.3-.65-3.45-1-1.51-.42-1.84-.9-1.4-2.39a28.42,28.42,0,0,1,1.12-2.9,164.31,164.31,0,0,0,6.43-18.75c-.71.19-1.24.19-1.53.45a13.58,13.58,0,0,0-1.15,1.53c-1.39,1.64-2.73,3.35-4.26,4.85a9.75,9.75,0,0,1-3.19,2.05c-3.3,1.29-5.72-.5-5.27-4a12.53,12.53,0,0,1,1.64-4.68,54.69,54.69,0,0,1,3.85-5.18l1.6-2.09c-1.33,0-2.16,0-3,0l-22.53.46c-1.59,0-3.19.08-4.78.19-9.72.69-19.44,1.53-29.17,2a72.25,72.25,0,0,1-22.76-2.42,4.15,4.15,0,0,1-3.44-3.54,14.07,14.07,0,0,0-1.31-3.55c-.81-1.65-1.81-3.2-2.61-4.86a10.68,10.68,0,0,1-.54-2.36l3.35.45.13,0,1.37.43h.06l-1,.5-1.73-.29-.25.41a6.5,6.5,0,0,0,1.42,1.32,11.38,11.38,0,0,0,3,.9,87,87,0,0,0,8.78,1.09c4.46.21,8.93.32,13.39.14,5.33-.21,10.65-1.07,16-1.13,9.74-.1,19.49.27,29.23.3,7.58,0,15.17,0,22.75-.33,9.33-.35,18.65-1,28-1.45a160.42,160.42,0,0,1,17-.22c8.84.52,17.7.58,26.52,1.56,9.3,1,18.52,2.32,27.35,5.65a15.31,15.31,0,0,0,4.46.61c.9.06,1.22-.58,1-1.46l-2.64-1.07a3.82,3.82,0,0,0,.27-.32l1.35,0,.1,0c.72.17,1.44.32,2.16.5.56.15,1.12.32,1.68.49l-2.39,4.66a27.27,27.27,0,0,0-1.76,3.39,4.16,4.16,0,0,1-4.35,3,138.32,138.32,0,0,1-16-.79c-7.67-1.05-15.38-1.83-23.08-2.68C442.2,442,437.12,441.51,432,441a202.5,202.5,0,0,0-27-.49c.27.6.48,1.07.7,1.53.93,1.94,1.93,3.85,2.78,5.82a9.4,9.4,0,0,1,.6,2.79c.16,1.71.16,3.48-1.68,4.37s-3.27-.05-4.6-1.13a12.63,12.63,0,0,1-3.9-5.36l-.51-1.51-.41.1v1.48l.24,1.57h-.7c-.2-2.07-.41-4.14-.61-6.22,0-1.89.08-3.79.11-5.68l1.19,3.36a44.94,44.94,0,0,0,2.2,6,22.53,22.53,0,0,0,3.59,4.7c.63.67,1.67,1.41,2.76.68s1.1-1.85,1-3a2.35,2.35,0,0,0-.28-.91q-2.14-4-4.33-7.9c-.7-1.17-1.43-2.34-2.07-3.54a3.38,3.38,0,0,1-.17-1.17c.28-.12.77-.2.79-.36a2.84,2.84,0,0,0-1.45-2.86l.93-.42c1.08.13,1.56.87,1.94,1.79.29.7.71,1.35,1.07,2a5.6,5.6,0,0,0,5.35,2.83c2.84-.07,5.69,0,8.53-.05a12.82,12.82,0,0,0,1.37-.17c-.32-1.09-.6-2.06-.88-3,.2-1.4-.57-3,1-4.46l1.08,4.58c.24,1.05.14,2.5,1.39,2.75a21.92,21.92,0,0,0,7.67.29c-.54-1.22-1-2.2-1.41-3.19l-.24-1h.51l1.37,1.5c1,1.08,1.82,2.67,3.06,3.11,1.76.63,3.83.42,5.86.57.35-1.18.64-2.16.92-3.13.68-1,.36-2.44,1.82-3.45v3.31c-.23,1.11-.47,2.23-.76,3.61h3.83l.82-3,.74,0c.25,1.07.51,2.15.82,3.44l13.25,1.38c-.41-1.52-.73-2.72-1.06-3.93.19-1.7-.57-3.56.89-5.39.5,2.19.94,4.09,1.37,6,.24.92.43,1.85.74,2.74a1.13,1.13,0,0,0,1.84.68l.18-2c1.33,1,2.46,2.16,3.85,2.69a18,18,0,0,0,4.56.58c-.09-1.42-.16-2.58-.23-3.75l.66,0c.44,1.35.89,2.69,1.36,4.09h2.71c.37-1.52.72-3,1.06-4.44l1-2.88c.25,1.15.43,2,.6,2.81-.17,1.49-.35,3-.52,4.47,2.67.39,2.74.36,3.44-1.71l2.4,1.62c1-1.67,1.86-3.15,2.87-4.88.11.89.19,1.47.32,2.5l2-3.11L482.1,436a64.14,64.14,0,0,0-15.37-3.61A387.44,387.44,0,0,0,424.61,430c-2.95,0-5.91.24-8.86.4-3.43.19-6.86.41-10.29.61l-13.59.47c-4.69.17-9.38.43-14.07.45-4.21,0-8.42-.29-12.63-.37-3.66-.07-7.33,0-11,0l-11.94.13c-4.69.18-9.39.29-14.09.55-5.49.31-11,.93-16.46,1.08a82.19,82.19,0,0,1-10-.73c-2.1-.2-4.18-.57-6.34-.87,1,2.05,2,3.94,2.94,5.87.56,1.19,1.41,1.33,2.58,1.09-.08-1.77-2-3.2-.66-5.41,2.35,3.59,4.24,7.46,9.09,7.88v-2.63c1.52,1,1.78,3.14,3.83,3.24,1.73.09,3.46.28,5.2.43-.6-2.2-1.15-4.17-1.64-6.15,0-.16.29-.41.44-.62l.56,1.91c.23.5.45,1,.7,1.5,1.21,2.41,2.92,3.66,5.86,3.36,1.83-.19,3.22-.47,4-2.25.15-.34.52-.58,1.08-1.16l-.35,2.73c1.57,0,3.24.4,4.54-.11s2.54-2,4-3.19c-.26,1.08-.45,1.89-.71,3l8.9-.61-.29-3.27c-.12-1.4-.23-2.8-.34-4.2l.47-.27c.31.3.79.55.9.91a30.75,30.75,0,0,1,.64,3,18.87,18.87,0,0,0,.9,2.45c.83,1.6,1.24,1.67,3.15.7-.12-.32-.23-.63-.39-1.08,1.16.54,2.06,1.3,3,1.35,3.07.15,6.15.06,9.49.06-.52-1.39-.91-2.41-1.29-3.44,0-.59.17-.81.67-.29a6.42,6.42,0,0,0,.48.43c2.27,3.14,2.89,3.81,7,2.72-.28-.81-.56-1.6-.83-2.4.17-.86-.59-1.87.63-2.79l1.12,2.8c1.14,3,1.14,2.93,4.09,2.67a31.1,31.1,0,0,1,5-.18,5.7,5.7,0,0,0,5.33-2.48l1.48-1.43,1.37.9-.59.89a62.48,62.48,0,0,0-5.56,5.21,63.93,63.93,0,0,0-5.07,7.21,6.39,6.39,0,0,0-.79,2.95c-.12,1.71.62,2.33,2.16,1.65a11,11,0,0,0,3.73-2.47c2.36-2.59,4.48-5.39,6.7-8.11l3.86-5.24-3,14.25-5.42,17,3.32,1.09c.19-.26.34-.38.36-.52q1.16-7.75,2.29-15.52l.23-.62,0-.86,1-4.89q1-5,2-10c.15-.5.29-1,.44-1.5l.61-.06,1.33,0,.39.56c0,1,0,1.92,0,2.88Zm8.57-1,.54-.3-1.3-1.79-.44.31Z" />
            <path class="outline"
                d="M295.12,428.17l1-.5c2.48.57,4.95,1.15,7.43,1.68a6.85,6.85,0,0,0,1.5,0c.36-1.25-.57-1.6-1.06-2.12a26.56,26.56,0,0,1-6.53-10.12l.52-.47c1.69,3.34,3.55,6.57,6.44,9,1.63,1.39,3.39,2.62,5.1,3.92l.55.39h0a4.7,4.7,0,0,0,1.5.49c2.88-.11,5.81.52,8.64-.49,3.82-.29,7.64-.64,11.46-.87,5.74-.34,11.48-.59,17.23-.89.36,0,.72-.08,1.13-.12l-5.93-8.19a.3.3,0,0,0,0-.39c.62.59,1.24,1.18,1.84,1.78,2,2,4,4.09,6.12,6a4,4,0,0,0,2.35.95c6.37.25,12.74.39,19.34.57q1.07-2.72,2.15-5.45l.53,0c-.29,1.76-.57,3.51-.91,5.65l21.32-.52c2.46,0,4.94.5,7.37-.34l2.24-.14c.37-2.35.75-4.59,1-6.84.21-1.65.28-3.32.48-5a13.29,13.29,0,0,1,.54-2l.22,0,.2-.11c0,2.72,0,5.44-.16,8.15-.1,1.81-.48,3.6-.75,5.54l26-.44c.14-1.39.27-2.71.4-4.08.9.78.9.78.45,4h3.66c.41-2.75,1-5.47,1.17-8.22s0-5.4.14-8.1c1.42,5.29,2.21,10.62.78,16.38l4.18.27a12.18,12.18,0,0,1-2.06.36c-9.19.16-18.37.25-27.56.44-3.75.07-7.49.34-11.24.48-5.83.2-11.66.51-17.49.53-15.12.06-30.24-.14-45.35,0-6.14.07-12.26.88-18.39,1.27-4.15.26-8.3.53-12.45.5C305,431.32,300.08,429.68,295.12,428.17Zm10.37.93c-.06,0-.16.11-.15.15a1.23,1.23,0,0,0,.14.31c0-.05.16-.11.15-.15A1.41,1.41,0,0,0,305.49,429.1Z" />
            <path class="color-shadow"
                d="M295.12,428.17c5,1.51,9.91,3.15,15.15,3.19,4.15,0,8.3-.24,12.45-.5,6.13-.39,12.25-1.2,18.39-1.27,15.11-.18,30.23,0,45.35,0,5.83,0,11.66-.33,17.49-.53,3.75-.14,7.49-.41,11.24-.48,9.19-.19,18.37-.28,27.56-.44a12.18,12.18,0,0,0,2.06-.36c4.05.2,8.1.39,12.14.6,1.51.07,3,.1,4.52.3,1,.13,1.2-.53,1.62-1.05l.36,1,1.09-.9c-.14,1.14.58,1.29,1.47,1.35,2.55.16,5.1.3,7.64.55s5.22.61,7.83.92l-3.56-.24c-.71,0-1.43-.13-2.14-.16s-1.36,0-2.38,0l13.31,3.27,2.6.83,2.64,1.07c.21.88-.11,1.52-1,1.46a15.31,15.31,0,0,1-4.46-.61c-8.83-3.33-18.05-4.61-27.35-5.65-8.82-1-17.68-1-26.52-1.56a160.42,160.42,0,0,0-17,.22c-9.32.45-18.64,1.1-28,1.45-7.58.29-15.17.35-22.75.33-9.74,0-19.49-.4-29.23-.3-5.33.06-10.65.92-16,1.13-4.46.18-8.93.07-13.39-.14a87,87,0,0,1-8.78-1.09,11.38,11.38,0,0,1-3-.9,6.5,6.5,0,0,1-1.42-1.32l.25-.41Z" />
            <path class="outline"
                d="M395.35,440.58l1,0,.2,3.33.26,6.27a107.25,107.25,0,0,0,2.61,17.92,46.87,46.87,0,0,0,4.51,12.55c.87,1.57,1,1.58,2.7.69a100.09,100.09,0,0,1-9.28-31.16l.09.07.1-.07h.7c1.81,11.14,4.71,22,10.1,32.21l-3.48,1.46a25.9,25.9,0,0,1-4.57-8.38,67.26,67.26,0,0,1-3.85-17.24C395.92,452.38,395.7,446.48,395.35,440.58Z" />
            <path class="outline" d="M486.71,433.37,473.4,430.1c1,0,1.7,0,2.38,0s1.43.11,2.14.16l3.56.24,6.13,2.08Z" />
            <path class="color-shadow"
                d="M320.22,430c-2.83,1-5.76.38-8.64.49a4.7,4.7,0,0,1-1.5-.49h8.46l.21-.43c-.84-.61-1.69-1.22-2.52-1.86a2.85,2.85,0,0,1-1.48-2.89Z" />
            <path class="outline"
                d="M486.71,433.37l.9-.78c.29-.71.58-1.41.86-2.11.35-1,.69-2,1-2.93a.28.28,0,0,1,.11-.37c.47-1.27.93-2.53,1.4-3.79v0l.6.76-.48,2.16-.13.47-.39,1.47a.39.39,0,0,0-.1.42l-.56,2.41-.39,2.83a3.82,3.82,0,0,1-.27.32Z" />
            <path class="outline"
                d="M464.54,427.69l-1.09.9-.36-1,.72-2.28.22-.62.69-3.23.35-1.48a1.18,1.18,0,0,1,.07-.45l.8,0c0,.31-.07.63-.1.94l-.15.61-.18,2.33-.17,1.1c-.14.74-.29,1.48-.43,2.21-.08.18-.15.37-.22.55Z" />
            <path class="color-shadow" d="M298,416.66l-.52.47a14.59,14.59,0,0,1-2.1-6.9Q296.7,413.44,298,416.66Z" />
            <path class="color-shadow" d="M465.94,419.49l-.8,0,1.05-5.64.62.11Z" />
            <path class="outline"
                d="M491.63,424.12l-.6-.76,1.05-3.77.38.8C492.19,421.63,491.91,422.88,491.63,424.12Z" />
            <path class="color-shadow"
                d="M492.46,420.39l-.38-.8.81-2.76.55.17C493.11,418.13,492.79,419.26,492.46,420.39Z" />
            <path class="color-base" d="M404.23,428.24c-2.43.84-4.91.37-7.37.34Z" />
            <path class="color-base"
                d="M344.12,419.54a.3.3,0,0,1,0,.39l-2.2-2.64C343.46,417.91,343.46,417.91,344.12,419.54Z" />
            <path class="outline" d="M491,423.39c-.47,1.26-.93,2.52-1.4,3.79C490.09,425.91,490.55,424.65,491,423.39Z" />
            <path class="outline" d="M489.58,433.88l.39-2.83-.23,2.12,1.19.74Z" />
            <path class="outline" d="M489.51,427.55c-.35,1-.69,1.95-1,2.93C488.82,429.5,489.16,428.52,489.51,427.55Z" />
            <path class="outline" d="M294.58,427.2l-3.35-.45Z" />
            <path class="outline"
                d="M494.87,434.93c-.56-.17-1.12-.34-1.68-.49-.72-.18-1.44-.33-2.16-.5,1.14,0,2.28,0,3.41.1C495,434.07,495.27,434.37,494.87,434.93Z" />
            <path class="color-shadow" d="M376.45,423.45l-.53,0,.43-1.55.49.08Z" />
            <path class="color-base"
                d="M409,414.21l-.2.11-.22,0,.15-2.16.7.1C409.25,412.88,409.11,413.55,409,414.21Z" />
            <path class="outline" d="M398,448.64v-1.48l.41-.1.51,1.51Z" />
            <path class="color-shadow" d="M465.34,424.47l.17-1.1C465.46,423.74,465.4,424.11,465.34,424.47Z" />
            <path class="color-shadow" d="M465.07,420l-.35,1.48Z" />
            <path class="outline" d="M296.08,427.66l-1.37-.43Z" />
            <path class="color-shadow" d="M464.69,427.23l.22-.55Z" />
            <path class="outline" d="M491,426.75l.13-.47Z" />
            <path class="color-shadow" d="M464,424.69c-.08.21-.15.42-.22.62Z" />
            <path class="color-shadow" d="M465.69,421l.15-.61Z" />
            <path class="color-shadow" d="M310.09,430l-.55-.39Z" />
            <path class="outline" d="M490.53,428.64a.39.39,0,0,1,.1-.42Z" />
            <path class="color-base"
                d="M428.1,435.34l.24,1-7.65.15-1.08-4.58c-1.58,1.43-.81,3.06-1,4.46l-14.36.42c-.36-.68-.78-1.33-1.07-2-.38-.92-.86-1.66-1.94-1.79-1.2-.85-3,.29-4.2-1.32l8.44-.63c3.43-.2,6.86-.42,10.29-.61,2.95-.16,5.91-.42,8.86-.4a387.44,387.44,0,0,1,42.12,2.45A64.14,64.14,0,0,1,482.1,436c-.12.62-.18,1.26-.36,1.87-.28,1-.75,1.77-1.91,1.84-.17-.83-.35-1.66-.6-2.81l-1,2.88-5.07-.13c-.3-.23-.59-1.21-.92,0-.86,0-1.72,0-2.58,0l-8.16-.35-1.37-6c-1.46,1.83-.7,3.69-.89,5.39-1.43,0-2.87,0-4.29-.07-2.91-.23-5.82-.54-8.72-.82l-.74,0-3.89-.58v-3.31c-1.46,1-1.14,2.48-1.82,3.45l-9.84-.55-1.37-1.5-.64-.7Z" />
            <path class="color-base"
                d="M317.67,437.29l-.56-1.91c3.3-.43,6.6-.89,9.9-1.3,4.49-.56,9-1.09,13.46-1.63.69-.08,1.5.18,1.76-.8l11.94-.13a5.08,5.08,0,0,0,.92.21c4.7.15,9.39.4,14.09.38,6.92,0,13.85-.22,20.77-.34.82,0,1.64,0,2.77,0-.66,1.05-1.19,1.21-2,1.14-2.71-.25-3.14.12-3.81,2.94l-1.48,1.43H371l-1.12-2.8c-1.22.92-.46,1.93-.63,2.79l-6.15-.32a6.42,6.42,0,0,1-.48-.43c-.5-.52-.66-.3-.67.29l-14.87,0a30.75,30.75,0,0,0-.64-3c-.11-.36-.59-.61-.9-.91l-.47.27c.11,1.4.22,2.8.34,4.2-6.33.21-12.68-.5-19,.45a6.84,6.84,0,0,1-1.43,0Z" />
            <path class="color-shadow"
                d="M342.23,431.65c-.26,1-1.07.72-1.76.8-4.48.54-9,1.07-13.46,1.63-3.3.41-6.6.87-9.9,1.3-.15.21-.48.46-.44.62.49,2,1,3.95,1.64,6.15-1.74-.15-3.47-.34-5.2-.43-2.05-.1-2.31-2.26-3.83-3.24v2.63c-4.85-.42-6.74-4.29-9.09-7.88-1.36,2.21.58,3.64.66,5.41-1.17.24-2,.1-2.58-1.09-.9-1.93-1.91-3.82-2.94-5.87,2.16.3,4.24.67,6.34.87a82.19,82.19,0,0,0,10,.73c5.49-.15,11-.77,16.46-1.08C332.84,431.94,337.54,431.83,342.23,431.65Z" />
            <path class="color-shadow"
                d="M317.67,437.29l7.32.44a6.84,6.84,0,0,0,1.43,0c6.31-.95,12.66-.24,19-.45l.29,3.27-8.9.61c.26-1.11.45-1.92.71-3-1.46,1.21-2.56,2.62-4,3.19s-3,.11-4.54.11l.35-2.73c-.56.58-.93.82-1.08,1.16-.79,1.78-2.18,2.06-4,2.25-2.94.3-4.65-.95-5.86-3.36C318.12,438.3,317.9,437.79,317.67,437.29Z" />
            <path class="color-shadow"
                d="M479.83,439.74c1.16-.07,1.63-.89,1.91-1.84.18-.61.24-1.25.36-1.87l8.27,2.6-2,3.11c-.13-1-.21-1.61-.32-2.5-1,1.73-1.88,3.21-2.87,4.88l-2.4-1.62c-.7,2.07-.77,2.1-3.44,1.71C479.48,442.72,479.66,441.23,479.83,439.74Z" />
            <path class="color-shadow"
                d="M347.08,436.76l14.87,0c.38,1,.77,2.05,1.29,3.44-3.34,0-6.42.09-9.49-.06-.95-.05-1.85-.81-3-1.35.16.45.27.76.39,1.08-1.91,1-2.32.9-3.15-.7A18.87,18.87,0,0,1,347.08,436.76Z" />
            <path class="outline"
                d="M386.91,435.85c.67-2.82,1.1-3.19,3.81-2.94.81.07,1.34-.09,2-1.14-1.13,0-2,0-2.77,0-6.92.12-13.85.33-20.77.34-4.7,0-9.39-.23-14.09-.38a5.08,5.08,0,0,1-.92-.21c3.67,0,7.34-.06,11,0,4.21.08,8.42.39,12.63.37,4.69,0,9.38-.28,14.07-.45l13.59-.47-8.44.63c1.17,1.61,3,.47,4.2,1.32l-.93.42c-.55-.2-1.05-.33-1,.55-.5-.09-.64-1.52-1.47-.39-.31-.07-.72,0-.91-.22-1.3-1.3-2.64-.79-3.85,0-1.66,1.07-3.21,2.3-4.8,3.47Zm2.15-1.09c.68-.41,1.41-.8.83-2.23l-1.22,1.76-.85,1.34.33.19Z" />
            <path class="color-shadow"
                d="M446.27,437.8c2.9.28,5.81.59,8.72.82,1.42.11,2.86.05,4.29.07.33,1.21.65,2.41,1.06,3.93l-13.25-1.38C446.78,440,446.52,438.87,446.27,437.8Z" />
            <path class="transparent"
                d="M388.86,444.08c-2.22,2.72-4.34,5.52-6.7,8.11a11,11,0,0,1-3.73,2.47c-1.54.68-2.28.06-2.16-1.65a6.39,6.39,0,0,1,.79-2.95,63.93,63.93,0,0,1,5.07-7.21,62.48,62.48,0,0,1,5.56-5.21l.5.48c-.79.79-1.56,1.59-2.38,2.35a39,39,0,0,0-7.12,8.62c-.49.83-1.45,1.87-.46,2.78s2-.09,2.68-.76c2.66-2.63,5.21-5.37,7.8-8.08Z" />
            <path class="color-shadow"
                d="M404.23,436.75l14.36-.42c.29,1,.57,1.94.89,3a12.82,12.82,0,0,1-1.37.17c-2.84,0-5.69,0-8.53.05A5.6,5.6,0,0,1,404.23,436.75Z" />
            <path class="transparent"
                d="M390.59,453.62c0,.29,0,.57,0,.86l-.23.62q-1.14,7.75-2.29,15.52c0,.14-.17.26-.36.52l-3.32-1.09,5.42-17Z" />
            <path class="transparent"
                d="M403.19,441.28q2.18,3.95,4.33,7.9a2.35,2.35,0,0,1,.28.91c.06,1.14,0,2.29-1,3s-2.13,0-2.76-.68a22.53,22.53,0,0,1-3.59-4.7,44.94,44.94,0,0,1-2.2-6l.6-.6c1.3,3.37,2.43,6.85,5.55,9,1.7-.59,1.38-1.81,1-2.81-.64-1.77-1.5-3.47-2.26-5.2Z" />
            <path class="color-shadow"
                d="M461.54,439.29l8.16.35c.86,0,1.72,0,2.58,0l.2.52c.07,1.17.14,2.33.23,3.75a18,18,0,0,1-4.56-.58c-1.39-.53-2.52-1.72-3.85-2.69l-.18,2a1.13,1.13,0,0,1-1.84-.68C462,441.14,461.78,440.21,461.54,439.29Z" />
            <path class="transparent"
                d="M388.28,436.75c1.59-1.17,3.14-2.4,4.8-3.47,1.21-.78,2.55-1.29,3.85,0,.19.18.6.15.91.22l.55,1c0,.32,0,.63-.05.94-1.19.54-.31,1.54-.51,2.3l-.81.59c0,1.89-.07,3.79-.11,5.68a2.65,2.65,0,0,0-.38-.05l-.2-3.33c0-1,0-1.92,0-2.88.09-.74.08-.75-.39-.56l-1.33,0-.45-.29-.16.35c-.15.5-.29,1-.44,1.5l-1-1.86,1-2.29-.32-.25-5.05,3.81-.5-.48Z" />
            <path class="color-shadow"
                d="M371,437.27h14.43a5.7,5.7,0,0,1-5.33,2.48,31.1,31.1,0,0,0-5,.18C372.14,440.2,372.14,440.24,371,437.27Z" />
            <path class="color-shadow"
                d="M430,436.83l9.84.55c-.28,1-.57,1.95-.92,3.13-2-.15-4.1.06-5.86-.57C431.8,439.5,431,437.91,430,436.83Z" />
            <path class="color-shadow"
                d="M420.69,436.45l7.65-.15c.43,1,.87,2,1.41,3.19a21.92,21.92,0,0,1-7.67-.29C420.83,439,420.93,437.5,420.69,436.45Z" />
            <path class="color-shadow"
                d="M473.2,439.68l5.07.13c-.34,1.46-.69,2.92-1.06,4.44H474.5c-.47-1.4-.92-2.74-1.36-4.09Z" />
            <path class="transparent"
                d="M392.56,436.85l1,1.86q-1,5-2,10l-1,4.89-.83-.53,3-14.25-3.86,5.24-.15-1.05Q390.63,439.94,392.56,436.85Z" />
            <path class="color-shadow"
                d="M363.1,436.94l6.15.32c.27.8.55,1.59.83,2.4C366,440.75,365.37,440.08,363.1,436.94Z" />
            <path class="color-shadow"
                d="M441.64,437.24l3.89.58c-.27,1-.53,2-.82,3h-3.83C441.17,439.47,441.41,438.35,441.64,437.24Z" />
            <path class="transparent"
                d="M398.34,435.43c0-.31,0-.62.05-.94l2.48,2.23.08-.15a3.38,3.38,0,0,0,.17,1.17c.64,1.2,1.37,2.37,2.07,3.54,0,.27-.05.55-.07.82C401.52,439.88,399.93,437.65,398.34,435.43Z" />
            <path class="transparent"
                d="M399.31,433.9c-.07-.88.43-.75,1-.55a2.84,2.84,0,0,1,1.45,2.86c0,.16-.51.24-.79.36l-.08.15Z" />
            <path class="transparent"
                d="M396.53,444a2.65,2.65,0,0,1,.38.05c.2,2.08.41,4.15.61,6.22l-.1.07-.09-.07h-.54Z" />
            <path class="transparent" d="M397,438.32l.81-.59c.32,1.12.65,2.24,1,3.35l-.6.6Z" />
            <path class="outline" d="M403.92,439.54l-1.2-1.78.44-.31,1.3,1.79Z" />
            <path class="outline"
                d="M473.2,439.68l-.06.48-.66,0c-.07-.17-.13-.34-.2-.52C472.61,438.47,472.9,439.45,473.2,439.68Z" />
            <path class="color-shadow" d="M428.1,435.34l-.13-.71.64.7Z" />
            <path class="outline" d="M395.93,437.18c.47-.19.48-.18.39.56Z" />
            <path class="color-base" d="M394,437.21l.16-.35.45.29Z" />
            <path class="color-base"
                d="M390.31,455.1c.08-.21.15-.42.23-.62C390.46,454.68,390.39,454.89,390.31,455.1Z" />
            <path class="transparent"
                d="M305.49,429.1a1.41,1.41,0,0,1,.14.31s-.1.1-.15.15a1.23,1.23,0,0,1-.14-.31S305.43,429.15,305.49,429.1Z" />
            <path class="transparent"
                d="M396.79,450.22h.54a100.09,100.09,0,0,0,9.28,31.16c-1.74.89-1.83.88-2.7-.69a46.87,46.87,0,0,1-4.51-12.55A107.25,107.25,0,0,1,396.79,450.22Z" />
            <path class="outline"
                d="M399.31,433.9l1.56,2.82-2.48-2.23-.55-1C398.67,432.38,398.81,433.81,399.31,433.9Z" />
            <path class="transparent" d="M388.67,434.29l1.22-1.76c.58,1.43-.15,1.82-.83,2.23Z" />
            <path class="transparent" d="M389.06,434.76l-.91,1.06-.33-.19.85-1.34Z" />
            <path class="outline"
                d="M392.56,436.85q-1.94,3.09-3.85,6.18c-2.59,2.71-5.14,5.45-7.8,8.08-.67.67-1.65,1.71-2.68.76s0-1.95.46-2.78a39,39,0,0,1,7.12-8.62c.82-.76,1.59-1.56,2.38-2.35l5.05-3.81.32.25Zm-11.15,11-1.29,1.68.45.36,1.53-1.53a43.64,43.64,0,0,0,6.49-7.66C386.79,441.1,384.61,443.33,381.41,447.83Z" />
            <path class="outline"
                d="M398.81,441.08c-.33-1.11-.66-2.23-1-3.35.2-.76-.68-1.76.51-2.3,1.59,2.22,3.18,4.45,4.78,6.67.76,1.73,1.62,3.43,2.26,5.2.36,1,.68,2.22-1,2.81C401.24,447.93,400.11,444.45,398.81,441.08Zm1.24-.69c1,3.56,2.22,5.75,3.86,7.19C402.56,443.69,401.57,441.77,400.05,440.39Z" />
            <path class="transparent" d="M381.41,447.83c3.2-4.5,5.38-6.73,7.18-7.15a43.64,43.64,0,0,1-6.49,7.66Z" />
            <path class="transparent" d="M381.41,447.83l.69.51-1.53,1.53-.45-.36Z" />
            <path class="transparent"
                d="M400.05,440.39c1.52,1.38,2.51,3.3,3.86,7.19C402.27,446.14,401.06,444,400.05,440.39Z" />
        </g>
    </g>
</svg>
