<svg id="kapyushony_s_golovoy" data-name="kapyushony s golovoy" xmlns="http://www.w3.org/2000/svg"
    viewBox="0 0 672 960">
    <g id="img_56_img" data-name="img 56 img">
        <path class="outline"
            d="M328.28,90.7a10.67,10.67,0,0,0,.54-2C329.43,82,332,76,335.08,70a48.46,48.46,0,0,1,24-22.81,3.78,3.78,0,0,0,.43-.28l-7.11-1.48.07-.33c7.29.28,14.12-2.3,21.25-3l0-.66-13-1v-.15c1.13-.17,2.28-.27,3.4-.5a42.55,42.55,0,0,1,13.08-.58,23.44,23.44,0,0,1,9.13,2.94c.6-1.13-3.21-5.09-5.84-6,1.22-.26,3.84.44,5.55,1.8s3,2.75,4.56,4.24c1.35-3,4-4.91,6.83-6.61l-4.14,7,.23.26c5.66-2.14,10.94-1.15,16,1.82,0,0,0,0,.13.3a15.39,15.39,0,0,0-8.43-.41c-.82.19-1.51,1-2.55,1.7,10,.26,16.79,6,23.48,12a22.64,22.64,0,0,0-9.53-2.41c1.4,1.15,2.61,2.08,3.75,3.09a41.85,41.85,0,0,1,10.3,14.14c2.18,4.73,4.09,9.59,6.06,14.42a29.31,29.31,0,0,1,1,3.62l-.3.08c-.57-1.69-1.07-3.41-1.74-5.06a44.44,44.44,0,0,0-2.35-5.1,9.33,9.33,0,0,0-3.57-4.18c4.53,9.11,5.06,18.66,5.27,28.27l-.33.06-.75-7.64-.34,0c0,1.07.07,2.15,0,3.22-.25,3.41-.65,6.81-.8,10.22a32.78,32.78,0,0,0,.43,5.31c.23,1.89.57,3.76.89,5.63a7,7,0,0,0,.46,1.2c-1-1.52-1.89-2.93-3-4.58a44.37,44.37,0,0,0-1.47,6.61v-7l-.34-.07-3.15,5.42c-.71,1.21-1.4,2.42-2.12,3.62-.61,1-1.27,2-2.67,1.85-.23,4.58-.46,9-.69,13.5a56,56,0,0,1,6.13-.4c2.82.1,5.62.51,8.43.74,2.27.18,4.55.34,6.82.42a14.71,14.71,0,0,1,8.26,2.4c.73.51,1.33,1.2,2,1.71a46.08,46.08,0,0,0,4.39,2.82c1.52.81,3.3,1.34,4,3a14.09,14.09,0,0,1,.72,3.92,13.23,13.23,0,0,0,5.15,9.35,32.24,32.24,0,0,1,7.71,8.46,4.48,4.48,0,0,1-2.34,6.67c-1.73.6-3.58.89-5.27,1.57a66.35,66.35,0,0,0-7.28,3.32c-3.26,1.78-6.38,3.8-9.58,5.68-1,.56-2,1-3,1.52a16.64,16.64,0,0,0-3.14,2.05,56.66,56.66,0,0,1-18,12c-2.69,1.06-5.69,1.39-8.57,1.95-2.22.42-4.49.63-6.72,1a56.06,56.06,0,0,1-18.46,0,67.12,67.12,0,0,1-18.54-5.32c-5.45-2.59-10.55-5.69-14.51-10.38-2.31-2.75-4.67-5.46-6.93-8.25a22.66,22.66,0,0,1-1.79-3.16l-4.41,1.2c-.81.22-1.59.3-2.14-.52s-.19-1.5.31-2.19c3.37-4.65,6.93-9.18,10-14,3.37-5.22,6.3-10.71,9.43-16.08.52-.89,1.1-1.76,1.7-2.6a4.74,4.74,0,0,1,4.27-2.29c-1.62-2.35-2.79-4.84-5.67-5.56a8.14,8.14,0,0,1-5.88-5.54c-1.18-3.12-2.74-6.12-4.22-9.12a5.74,5.74,0,0,0-1.55-1.68c-.76-.64-1.61-1.18-2.41-1.77l-.78-.57-.22.2,1.8,3.5-.37.2-4.66-6.07a32.35,32.35,0,0,0-7.3,9.69c.34-3.92,3-6.53,5-9.24a94,94,0,0,1-4.67-9,24.82,24.82,0,0,1-1.6-7.67c-.19-3.68.16-7.39.24-11.09a34.06,34.06,0,0,0-.21-5.14c-2.55,5.33-2.24,11-2.61,16.69a39.46,39.46,0,0,1-.85-16.09A13.47,13.47,0,0,0,329,95.4l-.72-.38Zm17,31.83-.17.32.11,0,0-.34-.41-.11,0,.26Zm8.36,4.86-.39-.57c-1-1.72-2.06-3.45-3.13-5.15-.17-.28-.55-.43-.84-.64l-.24.31a19.48,19.48,0,0,0,3.86,5.76l.37.61,1.18,1.89a4.47,4.47,0,0,1,.23,1.37,2.8,2.8,0,0,0,1.36,2.72c.45.34.87.72,1.31,1.1.29-.84-.56-2.58-2.6-5.48Zm-2.47,59.52-.15-.14.06.23a8,8,0,0,0,.69,1.22c1.24,1.47,2.56,2.85,3.75,4.35a37.18,37.18,0,0,0,9.69,8.6,47.85,47.85,0,0,0,13.77,5.9l10.3,2.29c.74.11,1.47.29,2.21.34,2.35.16,4.69.36,7,.38,3.1,0,6.21,0,9.3-.24a54.38,54.38,0,0,0,5.94-1.3c3.1-.64,6.38-.71,9.21-2.29,3.87-2.16,7.71-4.36,11.43-6.75a36.14,36.14,0,0,0,4.36-3.88l.13-.14-.25,0L432,197.05l-.12-.29c1.29-.69,2.5-1.76,3.86-2a38.07,38.07,0,0,0,14.25-5.66c3.22-2.08,6.38-4.27,9.69-6.2,2.3-1.35,4.81-2.32,7.22-3.48a2.83,2.83,0,0,0,1.31-4.07,48.73,48.73,0,0,0-5-6.73c-3.42-3.53-6.18-7.37-7.13-12.23-.72-3.68-3.82-4.3-6.51-5.71-.5,3.78-2.48,6.71-4.54,9.56-2.2,3-4.57,6-6.89,8.89a51.19,51.19,0,0,1-4.37,5.24c-2.75,2.65-5.83,5-8.57,7.64a26.47,26.47,0,0,1-14.91,7.75,32.31,32.31,0,0,1-15.72-1.15,25.48,25.48,0,0,1-8.32-5.36c-2.38-2.12-4.79-4.22-7.18-6.34-4.95-4.41-10-8.75-14.81-13.27a9,9,0,0,1-2.79-5.72,50.53,50.53,0,0,1,0-5.22l.09-.38-.22.27c-.24.36-.5.71-.72,1.08-2.93,4.94-5.8,9.92-8.81,14.81-2.85,4.61-6.33,8.84-8.58,13.83-.1.22-.18.46-.24.62l5.17-1a4.52,4.52,0,0,0,.59.64c1.13.75,2.3,1.45,3.42,2.21a27.42,27.42,0,0,0,7.47,3.7,31.64,31.64,0,0,1,4.36,2.09,3,3,0,0,1-1,.1C359,189.63,354.88,188.84,351.12,186.91Zm64-55.45c-.4.5-.83,1-1.21,1.48-3.81,5.21-7.84,10.24-12.92,14.26-4.22,3.35-8.67,6.42-13,9.59a3.63,3.63,0,0,1-3.48.48c-4.11-1.24-7.7-3.49-11.41-5.52-1.25-.68-2.47-1.41-3.81-2.19.34,3.06.74,5.92,1,8.8.21,2.6.21,5.22.34,7.83a1.88,1.88,0,0,0,.44,1.15c3,3,5.86,6,9,8.81,2.71,2.47,5.64,4.7,8.48,7a29.35,29.35,0,0,0,10.15,5.51,22.59,22.59,0,0,0,12.7.24,23.64,23.64,0,0,0,5.81-2.14,51.32,51.32,0,0,0,14-12.14c1.35-1.7,2.69-3.42,4.08-5.19-1.63-.6-3.2-1.08-4.69-1.74-2.15-1-4.52-1.55-6.13-3.5-1.29-1.57-2.66-3.09-4-4.61a5,5,0,0,0-.77-.58l-.18.2q1.8,6.26,3.61,12.5a10.49,10.49,0,0,1-1.28-2.49c-2.23-5.73-4.52-11.48-5.09-17.64-.62-6.66-.8-13.37-1.17-20l.18-1.23-.37-.06ZM402.41,80.17l.22.14,0-.29q-1.69-4.35-3.37-8.7a38.2,38.2,0,0,1,8,23.7l20.33-.92c-.12-1.9-.27-4-.39-6.18a11.4,11.4,0,0,0,0-2.19c-.63-2.39-1.32-4.76-2.1-7.1-.5-1.53-1.19-3-1.8-4.49l.2-.3c.56.38,1.15.73,1.68,1.14s1.17,1,1.75,1.52l.26-.21c-3.88-7.9-8.5-15.23-16.07-20.46,1.65-1.13,3.36-.47,5-.73a59.2,59.2,0,0,0-16.64-7.41c-.77-.21-1.5-.53-2.5-.88l2.6-2.1c-2.63.09-5.13.21-7.15,2.06-1.35,1.24-1.64,1.06-3.06-.12-3.58-3-7.47-4.71-12.32-3.33-4,1.15-8.13,2-12.23,2.93a16.23,16.23,0,0,0-5.49,1.86,93.86,93.86,0,0,0-14.54,10.75,23.87,23.87,0,0,0-5.4,6.52c-.72,1.43-1.41,2.87-2.1,4.31q-2.61,5.39-5.2,10.78l.32.25a5.47,5.47,0,0,0,.87-.62c.81-.83,1.56-1.72,2.38-2.54a4.81,4.81,0,0,1,1.11-.64l.27.32A15.75,15.75,0,0,0,332,88.87l1.89-2.81.47.16c.24,3.07.59,6.14.69,9.21.13,3.9-.15,7.82.64,11.68.34,1.6.74,3.19,1.11,4.79l.46-.08-.39-6.42,6,12.49c1.58-1.19,2.93-2.18,4.24-3.22a.92.92,0,0,0,.31-.78c-1.18-2.73-2.42-5.44-3.78-8.47a19.81,19.81,0,0,0-2.51,6.64,4.83,4.83,0,0,1-.59-1.5,20.6,20.6,0,0,1,.58-9c1.91-7.34,5.62-13.79,9.8-20,.26-.38.46-.81.69-1.22l.47.42a3.09,3.09,0,0,1-.18.51c-.8,1.51-1.67,3-2.41,4.54a70.75,70.75,0,0,0-6,16.36,7.71,7.71,0,0,0,0,1.52c2.32-2.36,4.41-4.72,6.74-6.81a98.65,98.65,0,0,0,12.51-13.73,1.77,1.77,0,0,0,.44-1c-.35-3.41-.85-6.8-1.12-10.21-.17-2.11,0-4.25,0-6.37l.23,0,1.95,15.26.44.11,4.62-6.31.29.17a14.48,14.48,0,0,1-.64,1.45c-1.19,2-2.42,4-3.6,6.07a2.35,2.35,0,0,0-.47,1.3c.14,1.12.44,2.22.74,3.63,2.21-2.31,4.34-4.4,6.3-6.64a23.9,23.9,0,0,0,4.52-7.65,3,3,0,0,1,0,1.37A19.76,19.76,0,0,1,373,81.67c-2.09,2.9-4.71,5.41-6.21,8.74a3,3,0,0,0,.16,2.79c10.4-11.44,19.82-23.26,23.92-38.45a7.78,7.78,0,0,1-.06,2.6q-1.43,5.17-3,10.31a1,1,0,0,0,.3,1.32c1.22,1,2.32,2.22,3.59,3.19C395.22,74.88,398.83,77.51,402.41,80.17Zm-34.18,25.74a93.25,93.25,0,0,0-18.49,8.88,1,1,0,0,0-.34.84c.56,1.86.86,3.9,1.84,5.53q5.92,9.9,12.23,19.59c1.86,2.86,3.82,5.69,6.95,7.47,4.8,2.71,9.42,5.73,14.59,7.74a2.32,2.32,0,0,0,2.5-.44c6-4.38,12-8.66,17.19-14,3.16-3.27,6.08-6.77,9.09-10.18a1.79,1.79,0,0,0,.36-1,22.21,22.21,0,0,1,.23-2.85c.81-3.24,1.65-6.47,2.63-9.66a22.33,22.33,0,0,1,1.61-2.77c.77-1.59,1.13-3.12-.48-4.59a4,4,0,0,1-1.44-2.65,11.7,11.7,0,0,1,2.75-7,1.06,1.06,0,0,1,.92-.31c.27.09.42.51.65.82l-1.09.06a3.77,3.77,0,0,0,.38.72,8.53,8.53,0,0,1,1.95,4l-3-3.24c-.71.7-.63,1.06-.2,1.68,2.43,3.55,4.17,7.27,2.62,11.75a4.61,4.61,0,0,1-3.76,3.4,1,1,0,0,0-.65.6c-.36,1.59-.62,3.2-1,4.79-.19.9.27,1.26,1,1.63s1.1.13,1.48-.43c1.94-2.79,3.82-5.61,5.84-8.33a6.54,6.54,0,0,0,1.22-5.64c-.12-.54-.27-1.08-.43-1.61-1.25-4.16-2.41-8.34-5.37-11.73-1-1.17-2.09-1.41-3.06-.17a33.36,33.36,0,0,0-3.63,5.58,64.18,64.18,0,0,0-2.17,6.07c-.1.27-.55.41-.84.61-.11-.33-.35-.68-.3-1,.2-1.29.51-2.57.74-3.86.14-.83.21-1.68.31-2.52a19.62,19.62,0,0,0-1.8,2.93c-.57,1-1.2,2-1.8,3-1.34,2.24-1.34,2.25-2,2.27.88-1.77,1.15-12.74.34-15.21a184.71,184.71,0,0,0-36.12,8.61c.64,2.13,1.2,4.2,1.88,6.23q4.73,14.13,9.48,28.23a8.66,8.66,0,0,1,.24,1.44A237.72,237.72,0,0,1,368.23,105.91Zm37.62-10.5c-.83-4.26-1.61-8.45-2.49-12.62-.07-.38-.63-.75-1-1a45.55,45.55,0,0,1-13.45-9.68c-.66-.72-1.29-1.47-1.89-2.16-1.48,2.44-2.85,4.88-4.39,7.2A110.26,110.26,0,0,1,368,94.77c-.3.3-.66.84-.58,1.18.56,2.59,1.22,5.16,1.87,7.79A166.67,166.67,0,0,1,405.85,95.41Zm18.08,48.5-5.45.32c-.92.05-1.44.34-1.05,1.41a3.6,3.6,0,0,1,.05,1.19,19.14,19.14,0,0,0,4.26,12.4c1.43,1.81,2.83,3.63,4.31,5.4a3.72,3.72,0,0,0,1.38,1c2.15.91,4.39,1.62,6.47,2.67a1.71,1.71,0,0,0,2.58-.63c2.3-3.21,4.67-6.38,7-9.6a26.64,26.64,0,0,0,3-4.72c1.13-2.65.48-5.56-2.16-6.76a15.38,15.38,0,0,0-4.59-1.19c-3.21-.38-6.45-.51-9.67-.8C427.83,144.4,425.62,144.1,423.93,143.91Zm-56.2-39.62L365.9,97l-7.12,5.68-.45-.41a15.22,15.22,0,0,1,.82-1.41c.65-.9,1.4-1.73,2-2.66,1.11-1.65,2.12-3.38,3.25-5a2.26,2.26,0,0,0,.2-2.34c-.22.16-.35.25-.47.35a81.79,81.79,0,0,1-12.74,9.11c-2.38,1.43-4.65,3-6.9,4.5l4.28,8.78A93.33,93.33,0,0,1,367.73,104.29Zm39.66-7.81c0,1.79-.06,3.42,0,5s.27,3.27.42,5.14c.22-.53.37-.87.51-1.22,1-2.36,1.92-4.72,2.93-7.07.13-.3.53-.49.8-.74.15.33.43.67.42,1,0,1.34-.14,2.69-.22,4a9.7,9.7,0,0,0,1.39-2.69c.49-1.69,2-2.11,3.27-2.89a2.38,2.38,0,0,1,1.61,0c2.14.52,3.28,2.27,4.16,4,1.14,2.26,1.92,4.69,2.84,7.06.26.65.46,1.33.78,2.26,1.22-4.84,1.71-12,1.1-15.65C420.67,94.49,414,95.46,407.39,96.48ZM369,165.17a5.63,5.63,0,0,0,.08-1.06c-.66-4.7-1.32-9.39-2-14.09-.16-1.07-.83-1.49-1.71-.88a4.45,4.45,0,0,0-1.86,2.3,16.85,16.85,0,0,0-.28,4.76C363.39,160.14,366.05,162.56,369,165.17Zm49.29-60.24a4.27,4.27,0,0,0,.52,5.24,4.51,4.51,0,0,1,.5,5.39c-.44.9-.92,1.79-1.4,2.71,2.23.06,2.47-.13,3.34-2C422.56,113.22,420.81,107.81,418.24,104.93ZM363.58,84.76a66.45,66.45,0,0,1-11,13.08c.27.06.5.09.62,0q5.25-4.41,10.46-8.86c.26-.22.58-.6.55-.86C364.08,87.05,363.82,86,363.58,84.76Zm-2.28,55.88c-1.27-3.34-4-5-6.69-6.79.45,1.28,1.08,2.42,1.54,3.63a4,4,0,0,0,2.89,2.57C359.75,140.25,360.48,140.43,361.3,140.64Zm-12.14-21.22-1-3.64-4,2.92,3,3.25C347.45,120.05,347.65,119.8,349.16,119.42Zm-9,1,.41.08c.14-.53.53-1.15.37-1.56-.79-2.13-1.73-4.2-2.62-6.29a2.91,2.91,0,0,0-.36-.53C337.91,116.65,338.67,118,340.18,120.43Zm10.64,6.28,2.68,5.44C353.79,129.61,352.44,127,350.82,126.71Zm14.31-33.28-1.36,2.19C365,95.59,365.53,94.8,365.13,93.43Z" />
        <polygon class="outline" points="347.94 127.71 347.93 127.63 348 127.66 347.94 127.71" />
        <path class="transparent"
            d="M402.41,80.17c-3.58-2.66-7.19-5.29-10.74-8-1.27-1-2.37-2.14-3.59-3.19a1,1,0,0,1-.3-1.32q1.58-5.13,3-10.31a7.78,7.78,0,0,0,.06-2.6c-4.1,15.19-13.52,27-23.92,38.45a3,3,0,0,1-.16-2.79c1.5-3.33,4.12-5.84,6.21-8.74a19.76,19.76,0,0,0,3.46-7.43,3,3,0,0,0,0-1.37,23.9,23.9,0,0,1-4.52,7.65c-2,2.24-4.09,4.33-6.3,6.64-.3-1.41-.6-2.51-.74-3.63a2.35,2.35,0,0,1,.47-1.3c1.18-2,2.41-4,3.6-6.07a14.48,14.48,0,0,0,.64-1.45l-.29-.17-4.62,6.31-.44-.11-1.95-15.26-.23,0c0,2.12-.14,4.26,0,6.37.27,3.41.77,6.8,1.12,10.21a1.77,1.77,0,0,1-.44,1,98.65,98.65,0,0,1-12.51,13.73c-2.33,2.09-4.42,4.45-6.74,6.81a7.71,7.71,0,0,1,0-1.52,70.75,70.75,0,0,1,6-16.36c.74-1.54,1.61-3,2.41-4.54a3.09,3.09,0,0,0,.18-.51l-.47-.42c-.23.41-.43.84-.69,1.22-4.18,6.23-7.89,12.68-9.8,20a20.6,20.6,0,0,0-.58,9,4.83,4.83,0,0,0,.59,1.5,19.81,19.81,0,0,1,2.51-6.64c1.36,3,2.6,5.74,3.78,8.47a.92.92,0,0,1-.31.78c-1.31,1-2.66,2-4.24,3.22l-6-12.49.39,6.42-.46.08c-.37-1.6-.77-3.19-1.11-4.79-.79-3.86-.51-7.78-.64-11.68-.1-3.07-.45-6.14-.69-9.21l-.47-.16L332,88.87a15.75,15.75,0,0,1,4.92-11.63l-.27-.32a4.81,4.81,0,0,0-1.11.64c-.82.82-1.57,1.71-2.38,2.54a5.47,5.47,0,0,1-.87.62l-.32-.25q2.6-5.4,5.2-10.78c.69-1.44,1.38-2.88,2.1-4.31a23.87,23.87,0,0,1,5.4-6.52,93.86,93.86,0,0,1,14.54-10.75,16.23,16.23,0,0,1,5.49-1.86c4.1-.88,8.2-1.78,12.23-2.93,4.85-1.38,8.74.35,12.32,3.33,1.42,1.18,1.71,1.36,3.06.12,2-1.85,4.52-2,7.15-2.06l-2.6,2.1c1,.35,1.73.67,2.5.88A59.2,59.2,0,0,1,416,55.1c-1.61.26-3.32-.4-5,.73,7.57,5.23,12.19,12.56,16.07,20.46l-.26.21c-.58-.51-1.14-1-1.75-1.52s-1.12-.76-1.68-1.14l-.2.3c.61,1.49,1.3,3,1.8,4.49.78,2.34,1.47,4.71,2.1,7.1a11.4,11.4,0,0,1,0,2.19c.12,2.14.27,4.28.39,6.18L407.22,95a38.2,38.2,0,0,0-8-23.7q1.68,4.35,3.37,8.7Z" />
        <path class="transparent"
            d="M368.23,105.91a237.72,237.72,0,0,0,13.14,35.34,8.66,8.66,0,0,0-.24-1.44q-4.72-14.11-9.48-28.23c-.68-2-1.24-4.1-1.88-6.23a184.71,184.71,0,0,1,36.12-8.61c.81,2.47.54,13.44-.34,15.21.62,0,.62,0,2-2.27.6-1,1.23-2,1.8-3a19.62,19.62,0,0,1,1.8-2.93c-.1.84-.17,1.69-.31,2.52-.23,1.29-.54,2.57-.74,3.86-.05.3.19.65.3,1,.29-.2.74-.34.84-.61a64.18,64.18,0,0,1,2.17-6.07A33.36,33.36,0,0,1,417,98.88c1-1.24,2-1,3.06.17,3,3.39,4.12,7.57,5.37,11.73.16.53.31,1.07.43,1.61a6.54,6.54,0,0,1-1.22,5.64c-2,2.72-3.9,5.54-5.84,8.33-.38.56-.76.8-1.48.43s-1.19-.73-1-1.63c.34-1.59.6-3.2,1-4.79a1,1,0,0,1,.65-.6,4.61,4.61,0,0,0,3.76-3.4c1.55-4.48-.19-8.2-2.62-11.75-.43-.62-.51-1,.2-1.68l3,3.24a8.53,8.53,0,0,0-1.95-4,3.77,3.77,0,0,1-.38-.72l1.09-.06c-.23-.31-.38-.73-.65-.82a1.06,1.06,0,0,0-.92.31,11.7,11.7,0,0,0-2.75,7,4,4,0,0,0,1.44,2.65c1.61,1.47,1.25,3,.48,4.59a22.33,22.33,0,0,0-1.61,2.77c-1,3.19-1.82,6.42-2.63,9.66a22.21,22.21,0,0,0-.23,2.85,1.79,1.79,0,0,1-.36,1c-3,3.41-5.93,6.91-9.09,10.18-5.17,5.33-11.22,9.61-17.19,14a2.32,2.32,0,0,1-2.5.44c-5.17-2-9.79-5-14.59-7.74-3.13-1.78-5.09-4.61-6.95-7.47q-6.29-9.69-12.23-19.59c-1-1.63-1.28-3.67-1.84-5.53a1,1,0,0,1,.34-.84A93.25,93.25,0,0,1,368.23,105.91Z" />
        <path class="color-base"
            d="M364,190.56a31.64,31.64,0,0,0-4.36-2.09,27.42,27.42,0,0,1-7.47-3.7c-1.12-.76-2.29-1.46-3.42-2.21a4.52,4.52,0,0,1-.59-.64c1.27-2.92,2.38-5.91,3.83-8.73,1.88-3.65,4-7.16,6.05-10.72.56-1,1.21-1.9,1.95-3a33.4,33.4,0,0,0,.88,3.6c1.84,5.06,5.5,8.75,9.46,12.14,2.65,2.27,5.58,4.21,8.33,6.38,3.4,2.68,6.6,5.61,10.51,7.62,4.4,2.27,8.88,4.2,14,4,1.63-.05,3.27-.05,4.89-.26a24.19,24.19,0,0,0,9.43-2.78c2.09-1.23,4.28-2.31,6.47-3.38,3.22-1.58,6.41-3.21,8.92-5.87s5.1-5.39,7.61-8.12a36.22,36.22,0,0,0,3.9-4.52c2.37-3.58,4.52-7.3,6.76-11,.09-.15.27-.24.41-.37.15.13.26.18.32.28a3.83,3.83,0,0,1,.34.63,23.63,23.63,0,0,0,5.3,7.74c1.9,1.94,3.88,3.82,5.59,5.91a10,10,0,0,1,1.45,3.59c.08.26-.46.85-.85,1.07-2.26,1.25-4.6,2.4-6.84,3.68a13.42,13.42,0,0,0-2.51,2c-1.48,1.43-2.78,3.09-4.38,4.35-3.39,2.66-7.36,4.29-11.37,5.8a47.81,47.81,0,0,0-10.54,5.07q-5.64,3.9-11.38,7.68A24.19,24.19,0,0,1,401.88,209c-1.4-.07-2.8,0-4.2,0-2.42,0-4.84,0-7.26,0a4.65,4.65,0,0,0-1.19.31l-10.3-2.29c-.25-.27-.46-.64-.77-.8a58,58,0,0,1-12.62-8.14c-1.09-1-2.23-1.86-3.35-2.79l.14-.24,14.39,3.19a1.19,1.19,0,0,0-.63-.64c-3-1.61-6-3.19-8.94-4.86A35.76,35.76,0,0,1,364,190.56Zm39.47,7.76c-1.36-.23-2.74-.35-4.07-.69a49.59,49.59,0,0,1-25-15.13q-3.27-3.58-6.56-7.15a5.87,5.87,0,0,0-1-.7c1.48,2.1,3.12,4,4.69,5.88a49.25,49.25,0,0,0,21.23,15.66A28.38,28.38,0,0,0,403.48,198.32ZM453,164.11c-.34,5.36-3.75,8.79-7,12.35a3,3,0,0,0,1-.53,44,44,0,0,0,3.51-3.59,13.4,13.4,0,0,0,3.15-6.37C453.79,165.27,453.85,164.56,453,164.11Z" />
        <path class="transparent"
            d="M415.53,131.55c.37,6.68.55,13.39,1.17,20,.57,6.16,2.86,11.91,5.09,17.64a10.49,10.49,0,0,0,1.28,2.49q-1.8-6.24-3.61-12.5l.18-.2a5,5,0,0,1,.77.58c1.35,1.52,2.72,3,4,4.61,1.61,1.95,4,2.54,6.13,3.5,1.49.66,3.06,1.14,4.69,1.74-1.39,1.77-2.73,3.49-4.08,5.19a51.32,51.32,0,0,1-14,12.14,23.64,23.64,0,0,1-5.81,2.14,22.59,22.59,0,0,1-12.7-.24,29.35,29.35,0,0,1-10.15-5.51c-2.84-2.33-5.77-4.56-8.48-7-3.1-2.82-6-5.84-9-8.81a1.88,1.88,0,0,1-.44-1.15c-.13-2.61-.13-5.23-.34-7.83-.22-2.88-.62-5.74-1-8.8,1.34.78,2.56,1.51,3.81,2.19,3.71,2,7.3,4.28,11.41,5.52a3.63,3.63,0,0,0,3.48-.48c4.36-3.17,8.81-6.24,13-9.59,5.08-4,9.11-9,12.92-14.26.38-.51.81-1,1.21-1.48Zm-17.34,37.81c.14-3.07.25-6.15.44-9.22a2.81,2.81,0,0,1,.62-1.51c.7-.84.7-3.82,0-4.6C397.36,159,397.53,164.16,398.19,169.36Zm-16.37-3.51.32-.15-4.74-10-.31.15C377.85,159.57,379.87,162.69,381.82,165.85Z" />
        <path class="color-shadow"
            d="M389.23,209.36a4.65,4.65,0,0,1,1.19-.31c2.42,0,4.84,0,7.26,0,1.4,0,2.8-.05,4.2,0a24.19,24.19,0,0,0,14.79-4.31q5.74-3.76,11.38-7.68A47.81,47.81,0,0,1,438.59,192c4-1.51,8-3.14,11.37-5.8,1.6-1.26,2.9-2.92,4.38-4.35a13.42,13.42,0,0,1,2.51-2c2.24-1.28,4.58-2.43,6.84-3.68.39-.22.93-.81.85-1.07a10,10,0,0,0-1.45-3.59c-1.71-2.09-3.69-4-5.59-5.91a23.63,23.63,0,0,1-5.3-7.74,3.83,3.83,0,0,0-.34-.63c-.06-.1-.17-.15-.32-.28-.14.13-.32.22-.41.37-2.24,3.66-4.39,7.38-6.76,11a36.22,36.22,0,0,1-3.9,4.52c-2.51,2.73-5.07,5.41-7.61,8.12s-5.7,4.29-8.92,5.87c-2.19,1.07-4.38,2.15-6.47,3.38a24.19,24.19,0,0,1-9.43,2.78c-1.62.21-3.26.21-4.89.26-5.09.19-9.57-1.74-14-4-3.91-2-7.11-4.94-10.51-7.62-2.75-2.17-5.68-4.11-8.33-6.38-4-3.39-7.62-7.08-9.46-12.14a33.4,33.4,0,0,1-.88-3.6c-.74,1.14-1.39,2.06-1.95,3-2.05,3.56-4.17,7.07-6.05,10.72-1.45,2.82-2.56,5.81-3.83,8.73l-5.17,1c.06-.16.14-.4.24-.62,2.25-5,5.73-9.22,8.58-13.83,3-4.89,5.88-9.87,8.81-14.81.22-.37.48-.72.72-1.08l.13.11a50.53,50.53,0,0,0,0,5.22,9,9,0,0,0,2.79,5.72c4.85,4.52,9.86,8.86,14.81,13.27,2.39,2.12,4.8,4.22,7.18,6.34a25.48,25.48,0,0,0,8.32,5.36,32.31,32.31,0,0,0,15.72,1.15A26.47,26.47,0,0,0,425.18,182c2.74-2.67,5.82-5,8.57-7.64a51.19,51.19,0,0,0,4.37-5.24c2.32-2.94,4.69-5.86,6.89-8.89,2.06-2.85,4-5.78,4.54-9.56,2.69,1.41,5.79,2,6.51,5.71.95,4.86,3.71,8.7,7.13,12.23a48.73,48.73,0,0,1,5,6.73,2.83,2.83,0,0,1-1.31,4.07c-2.41,1.16-4.92,2.13-7.22,3.48-3.31,1.93-6.47,4.12-9.69,6.2a38.07,38.07,0,0,1-14.25,5.66c-1.36.25-2.57,1.32-3.86,2l.12.29,6.65-1.54.12.11a36.14,36.14,0,0,1-4.36,3.88c-3.72,2.39-7.56,4.59-11.43,6.75-2.83,1.58-6.11,1.65-9.21,2.29a54.38,54.38,0,0,1-5.94,1.3c-3.09.26-6.2.26-9.3.24-2.35,0-4.69-.22-7-.38C390.7,209.65,390,209.47,389.23,209.36Z" />
        <path class="transparent"
            d="M405.85,95.41a166.67,166.67,0,0,0-36.58,8.33c-.65-2.63-1.31-5.2-1.87-7.79-.08-.34.28-.88.58-1.18a110.26,110.26,0,0,0,14.61-17.58c1.54-2.32,2.91-4.76,4.39-7.2.6.69,1.23,1.44,1.89,2.16a45.55,45.55,0,0,0,13.45,9.68c.41.21,1,.58,1,1C404.24,87,405,91.15,405.85,95.41Z" />
        <path class="color-shadow"
            d="M423.93,143.91c1.69.19,3.9.49,6.12.69,3.22.29,6.46.42,9.67.8a15.38,15.38,0,0,1,4.59,1.19c2.64,1.2,3.29,4.11,2.16,6.76a26.64,26.64,0,0,1-3,4.72c-2.29,3.22-4.66,6.39-7,9.6a1.71,1.71,0,0,1-2.58.63c-2.08-1.05-4.32-1.76-6.47-2.67a3.72,3.72,0,0,1-1.38-1c-1.48-1.77-2.88-3.59-4.31-5.4a19.14,19.14,0,0,1-4.26-12.4,3.6,3.6,0,0,0-.05-1.19c-.39-1.07.13-1.36,1.05-1.41Z" />
        <path class="transparent"
            d="M367.73,104.29a93.33,93.33,0,0,0-18.94,9.25l-4.28-8.78c2.25-1.47,4.52-3.07,6.9-4.5a81.79,81.79,0,0,0,12.74-9.11c.12-.1.25-.19.47-.35a2.26,2.26,0,0,1-.2,2.34c-1.13,1.64-2.14,3.37-3.25,5-.62.93-1.37,1.76-2,2.66a15.22,15.22,0,0,0-.82,1.41l.45.41L365.9,97Z" />
        <path class="color-shadow"
            d="M364,190.56a35.76,35.76,0,0,0,3.14,2.23c3,1.67,6,3.25,8.94,4.86a1.19,1.19,0,0,1,.63.64l-14.39-3.19-.14.24c1.12.93,2.26,1.82,3.35,2.79a58,58,0,0,0,12.62,8.14c.31.16.52.53.77.8a47.85,47.85,0,0,1-13.77-5.9,37.18,37.18,0,0,1-9.69-8.6c-1.19-1.5-2.51-2.88-3.75-4.35A8,8,0,0,1,351,187l.09-.09c3.76,1.93,7.88,2.72,11.92,3.75A3,3,0,0,0,364,190.56Z" />
        <path class="transparent"
            d="M407.39,96.48c6.63-1,13.28-2,20-1.74.61,3.7.12,10.81-1.1,15.65-.32-.93-.52-1.61-.78-2.26-.92-2.37-1.7-4.8-2.84-7.06-.88-1.74-2-3.49-4.16-4a2.38,2.38,0,0,0-1.61,0c-1.23.78-2.78,1.2-3.27,2.89a9.7,9.7,0,0,1-1.39,2.69c.08-1.34.19-2.69.22-4,0-.33-.27-.67-.42-1-.27.25-.67.44-.8.74-1,2.35-2,4.71-2.93,7.07-.14.35-.29.69-.51,1.22-.15-1.87-.35-3.5-.42-5.14S407.39,98.27,407.39,96.48Z" />
        <path class="color-shadow"
            d="M369,165.17c-2.9-2.61-5.56-5-5.79-9a16.85,16.85,0,0,1,.28-4.76,4.45,4.45,0,0,1,1.86-2.3c.88-.61,1.55-.19,1.71.88.7,4.7,1.36,9.39,2,14.09A5.63,5.63,0,0,1,369,165.17Z" />
        <path class="transparent"
            d="M418.24,104.93c2.57,2.88,4.32,8.29,3,11.29-.87,1.92-1.11,2.11-3.34,2,.48-.92,1-1.81,1.4-2.71a4.51,4.51,0,0,0-.5-5.39A4.27,4.27,0,0,1,418.24,104.93Z" />
        <path class="transparent"
            d="M363.58,84.76c.24,1.25.5,2.29.62,3.34,0,.26-.29.64-.55.86q-5.2,4.46-10.46,8.86c-.12.11-.35.08-.62,0A66.45,66.45,0,0,0,363.58,84.76Z" />
        <path class="transparent"
            d="M361.3,140.64c-.82-.21-1.55-.39-2.26-.59a4,4,0,0,1-2.89-2.57c-.46-1.21-1.09-2.35-1.54-3.63C357.3,135.6,360,137.3,361.3,140.64Z" />
        <path class="transparent" d="M349.16,119.42c-1.51.38-1.71.63-2,2.53l-3-3.25,4-2.92Z" />
        <path class="transparent"
            d="M340.18,120.43c-1.51-2.44-2.27-3.78-2.2-8.3a2.91,2.91,0,0,1,.36.53c.89,2.09,1.83,4.16,2.62,6.29.16.41-.23,1-.37,1.56Z" />
        <path class="transparent"
            d="M354.7,129.31c2,2.9,2.89,4.64,2.6,5.48-.44-.38-.86-.76-1.31-1.1a2.8,2.8,0,0,1-1.36-2.72,4.47,4.47,0,0,0-.23-1.37Z" />
        <path class="transparent"
            d="M352.85,127.1a19.48,19.48,0,0,1-3.86-5.76l.24-.31c.29.21.67.36.84.64,1.07,1.7,2.09,3.43,3.13,5.15Z" />
        <path class="transparent" d="M350.82,126.71c1.62.28,3,2.9,2.68,5.44Z" />
        <path class="transparent" d="M365.13,93.43c.4,1.37-.1,2.16-1.36,2.19Z" />
        <path class="color-base" d="M354.7,129.31l-.3.29-1.18-1.89.37-.32Z" />
        <path class="color-base" d="M415.53,131.55l-.39-.09c.06-.4.13-.8.2-1.2l.37.06Z" />
        <path class="transparent" d="M353.59,127.39l-.37.32-.37-.61.35-.28Z" />
        <path class="transparent" d="M345.23,122.53l-.41.16,0-.26.41.11Z" />
        <path class="color-shadow" d="M361.35,152.58l.22-.27-.09.38Z" />
        <path class="transparent" d="M345.21,122.54l0,.34-.11,0c.05-.11.11-.21.17-.32Z" />
        <path class="color-shadow" d="M351,187l-.06-.23.15.14Z" />
        <path class="transparent" d="M402.6,80l0,.29-.22-.14Z" />
        <path class="color-shadow" d="M438.6,195.51l.25,0-.13.14Z" />
        <path class="outline"
            d="M403.48,198.32a28.38,28.38,0,0,1-10.68-2.13,49.25,49.25,0,0,1-21.23-15.66c-1.57-1.92-3.21-3.78-4.69-5.88a5.87,5.87,0,0,1,1,.7q3.3,3.56,6.56,7.15a49.59,49.59,0,0,0,25,15.13C400.74,198,402.12,198.09,403.48,198.32Z" />
        <path class="outline"
            d="M453,164.11c.81.45.75,1.16.64,1.86a13.4,13.4,0,0,1-3.15,6.37,44,44,0,0,1-3.51,3.59,3,3,0,0,1-1,.53C449.29,172.9,452.7,169.47,453,164.11Z" />
        <path class="outline"
            d="M398.19,169.36c-.66-5.2-.83-10.38,1-15.33.72.78.72,3.76,0,4.6a2.81,2.81,0,0,0-.62,1.51C398.44,163.21,398.33,166.29,398.19,169.36Z" />
        <path class="outline" d="M381.82,165.85c-1.95-3.16-4-6.28-4.73-10l.31-.15,4.74,10Z" />
    </g>
</svg>
