<svg id="kapyushony_s_golovoy" data-name="kapyushony s golovoy" xmlns="http://www.w3.org/2000/svg"
    viewBox="0 0 672 960">
    <g id="img_53_img" data-name="img 53 img">
        <path class="outline"
            d="M328.28,90.71a11,11,0,0,0,.54-2c.6-6.83,3.25-12.91,6.38-18.92a48.36,48.36,0,0,1,23.89-22.6,3.09,3.09,0,0,0,.44-.28l-7.11-1.49.06-.45c3.68.57,7.19-.41,10.74-1.06L373.74,42l0-.53-11.54-1c5.76-2.67,18.45-1.67,24.17,1.64.49-1.19-3.11-4.92-5.84-6.13,4.39.29,7.36,2.88,9.76,6.14,1.13-1.34,2.12-2.67,3.28-3.84a15.2,15.2,0,0,1,3.86-2.73l-4.13,7,.22.33a14.61,14.61,0,0,1,8.28-1.06,21,21,0,0,1,7.79,2.83c-3.68-.4-7.43-1.57-10.8,1.59,9.86.26,16.66,6,23.34,12a22.24,22.24,0,0,0-9.56-2.43c1.39,1.12,2.55,2,3.64,3a45.76,45.76,0,0,1,11.64,16.81c1.94,4.52,3.63,9.16,5.41,13.76a11.88,11.88,0,0,1,.38,1.59c0,.06-.05.14-.23.57-.14-.59-.19-.88-.28-1.16-1.37-4.34-2.88-8.62-5.78-12.23A5.59,5.59,0,0,0,425.9,77c4.35,9,4.88,18.52,5.08,28.13l-.33.06c-.24-2.52-.47-5.05-.71-7.58l-.37,0c0,1.16.07,2.31,0,3.46-.25,3.33-.66,6.65-.81,10a32.81,32.81,0,0,0,.45,5.31c.23,1.89.53,3.76.89,5.63a5.23,5.23,0,0,0,.7,1.42l-3.11-4.61-.31-.08c-.37,2.13-.73,4.27-1.1,6.41l-.11,0v-7l-.37-.09c-1,1.8-2.09,3.59-3.14,5.39l-2.25,3.82a2.79,2.79,0,0,1-2.52,1.73c-.16,2.55-.31,5-.47,7.69,2.06-.45,4-.82,5.89-1.3a63.46,63.46,0,0,1,13.06-2c3.47-.12,6.94-.23,10.41-.19a9.08,9.08,0,0,1,7.31,3.71c.7.91,1,2.09,1.67,3.06a31.92,31.92,0,0,0,3.13,4.32,8.12,8.12,0,0,1,2.54,6.34c-.11,1.31-.43,2.59-.59,3.88a14.09,14.09,0,0,0,3.65,11.89,72,72,0,0,1,6.29,8.59,4.4,4.4,0,0,1-2.3,6.49c-1.5.54-3.11.78-4.58,1.37a85.79,85.79,0,0,0-8.07,3.6c-3.27,1.76-6.38,3.8-9.58,5.69a14.05,14.05,0,0,1-2.88,1.43,8.5,8.5,0,0,0-3.24,2.14A55.32,55.32,0,0,1,423,207.38a51,51,0,0,1-9,2.27c-2.29.48-4.63.71-7,1v3.22a126.88,126.88,0,0,1-1.78,20.41c-.89,5.44-1.51,10.93-2.25,16.39q-.87,6.42-1.72,12.83a1.13,1.13,0,0,1-1.29,1.11c-.4,0-.8,0-1.2-.08-3.23-.35-3.59-.79-3.17-4,1.69-13.07,3.44-26.13,5.08-39.21.4-3.24.47-6.52.7-9.92h-2.94a69.58,69.58,0,0,1-28.68-6.18,42.1,42.1,0,0,1-15.05-11.06c-2.33-2.77-5.08-5.22-6.8-8.48-.37-.71-.72-1.42-1.16-2.29l-4.4,1.24c-.75.22-1.51.39-2.07-.35s-.25-1.43.15-2.2c2.57-5,6-9.44,8.14-14.64,1.69-4.06,2.37-8.35,3.29-12.59.73-3.35,1.16-6.76,1.88-10.11.39-1.82,1.12-3.57,1.66-5.37a1.9,1.9,0,0,0,0-1.2c-1.71-3.74-3.41-7.48-5.22-11.18a6.57,6.57,0,0,0-1.69-1.85c-.72-.63-1.54-1.14-2.31-1.71a1.63,1.63,0,0,0-1-.4l1.71,3.67,0,0a13.38,13.38,0,0,1-1.34-1.26c-1.21-1.54-2.38-3.11-3.72-4.88-1.34,1.54-2.78,3-4,4.62s-2.15,3.45-3.36,5.1c.43-3.85,3.13-6.46,5.1-9.17-1.61-3-3.26-5.9-4.67-8.88a17.55,17.55,0,0,1-1.65-7.79c0-3.7.21-7.39.3-11.08a35.43,35.43,0,0,0-.22-5.14c-2.56,5.33-2.22,11-2.61,16.69a39.63,39.63,0,0,1-.85-16.09A13.47,13.47,0,0,0,329,95.4l-.72-.37Zm17,31.82-.17.32.11,0,0-.34-.41-.11,0,.26Zm8.36,4.86-.36,0v.36l1,1.6a.18.18,0,0,0,.15.12,6,6,0,0,1,.27,1.6,2.77,2.77,0,0,0,1.31,2.63c.46.35.89.74,1.34,1.11l.41-.2a36.7,36.7,0,0,0-3.09-5.4l-.15-.33Zm50.28,97.52c-1.82.3-1.82.3-1.75,1.38h1.76c.59.14,1,.07,1-.7S404.43,224.79,403.87,224.91ZM403.62,197l.06.7.23,1.52-.42.45,2.14.39.05-.26-1.2-.64,1.62.13-.05-1.21-2.09-.38,1.61,0c.18-.18.5-.35.51-.53.05-1,0-2,0-3.06l-.2,0-.36,1.68-.95.06-1.52-.31Zm-.24,31.34c1.26.1,1.43-.16,1.12-1.89l-.86.23-1.7.1-.24,1.56Zm-1.64,4.43,1.17-.07c1.64.22.93-1,1.29-1.89l-1.3.12c-.65.1-1.74-.64-1.66.87l-.06.49,0,.47L401,233.9c2.07.38,2.64.19,2.57-.73ZM401.69,245l.52-1.41c-1.89-.46-2.57-.11-2.66,1.23l.26.21,1.64,0a8.39,8.39,0,0,0-1.34.29,4.67,4.67,0,0,0-.9.65l.19.39c.55,0,1.1,0,1.64,0,.32,0,.87-.12.9-.27A2.59,2.59,0,0,0,401.69,245Zm0,3.64.29-1.82c-2.86-.28-3.05-.16-2.76,1.88h2l-2.34.45-.14.86C401.38,250.34,401.5,250.29,401.65,248.61Zm-1.38-9.1.23.29.73.13c-1.3.54-1.56,1.15-1.35,3.07,3,.2,2.6.5,2.91-3h-1.52c1.18-.17,2.15-.51,1.72-2.07h-2.72Zm3.18-32.18v2.12H406c.21-.89,0-1.44-.94-1.53-.24,0-.46-.23-.69-.35h1.44L406,205h-2.31v1.3l1.33.26Zm-50.57-80.19.34.12,0-.44c-1-1.71-2.05-3.43-3.12-5.12-.18-.29-.59-.43-.9-.64l-.46.51Zm47,132.37.24-1h-3c-.63.06-.57.32-.19.67v.49l.19.21-.22,1.68h3.13l-.29-1.88A.26.26,0,0,0,399.92,259.51ZM402,193.16l.41-2.33,2.13.53v-4.68l-1,.93-.83-1s-.09,0-.11.14c-.44,2-.89,4-1.26,6,0,.21.41.52.63.78l1.73,1C403.63,193.16,402.77,193.21,402,193.16Zm2.55,26.27.31.41h-2.16v1.92h1.92a2.72,2.72,0,0,1-.54.15c-1.68.14-1.68.14-1.81,1.82a8.58,8.58,0,0,0,0,.9,17.56,17.56,0,0,0,2.19,0,.92.92,0,0,0,.59-.66c.25-1.72.39-3.47.65-5.19.33-2.24.29-2.3-2-2.34-1,0-1.15.39-.9,1l2.29.48h-2.28v1.61Zm34.07-23.92-3.54.56,3.36-2A5.4,5.4,0,0,0,439,194c5.19-1.11,9.57-4,13.92-6.77,3.69-2.38,7.18-5.07,11.34-6.66a27.87,27.87,0,0,0,2.61-1.19,3,3,0,0,0,1.3-4.12q-2.76-4.63-5.63-9.19a18.75,18.75,0,0,1-2.57-6c-.67-3-.46-6-.59-8.94a7,7,0,0,0-.91-3.39,34.68,34.68,0,0,0-3.36-4,74.44,74.44,0,0,1-4.22,7.94c-3.27,4.72-6.93,9.16-10.29,13.81a39.55,39.55,0,0,1-14.47,11.94c-4.82,2.48-9.55,5.19-14.82,6.68l-4.64.94c.35,4.16.8,8.2,1,12.25s.45,8.1-.47,12.49l5.32-1.33a23.12,23.12,0,0,0,9.86-2,133.39,133.39,0,0,0,11.81-6.82,37.4,37.4,0,0,0,4.55-4l.13-.14Zm-87.45-8.63-.24-.09.09.24a8.64,8.64,0,0,0,.73,1.21c1.24,1.46,2.56,2.85,3.75,4.34a37.36,37.36,0,0,0,9.69,8.6,48,48,0,0,0,13.76,5.89c.23.09.45.18.68.25A66.63,66.63,0,0,0,398.07,210c1,0,2.37.38,3-.12s.55-1.89.69-2.9a39.83,39.83,0,0,0,.29-11,1.6,1.6,0,0,0-1.18-1.54c-.92-.31-1.14-.84-.81-1.84.64-1.92,1.12-3.89,1.62-5.85a7.33,7.33,0,0,0,.08-1.45h-2.16c-.51-.1-1-.19-1.52-.3-3.82-.83-7.7-1.53-11-3.72-3.5-2.3-7.08-4.53-10.34-7.14-4.26-3.42-8.19-7.24-12.35-10.79A24.46,24.46,0,0,1,356.38,151a56.68,56.68,0,0,1-1-6.28,3,3,0,0,0-.17.41c-1,4.72-2,9.43-2.91,14.15a57.17,57.17,0,0,1-5.54,15.36c-1.4,2.68-2.56,5.49-3.83,8.24l-.08.14.12-.11,5.06-1.24c.13.22.2.53.39.66,1.61,1.1,3.2,2.24,4.89,3.22a30.12,30.12,0,0,0,5,2.5c2.77,1,5.65,1.66,8.46,2.55a13.23,13.23,0,0,1,2.16,1.15,15.76,15.76,0,0,1-2.08-.24C361.54,190.21,356.09,189.38,351.15,186.88Zm64-55.42c-.59.76-1.19,1.5-1.75,2.27a78.21,78.21,0,0,1-19.21,18.77c-2.18,1.49-4.31,3-6.54,4.45a3.11,3.11,0,0,1-2.2.49,30.66,30.66,0,0,1-5.61-2.07c-3.28-1.66-6.45-3.53-9.66-5.32-.26-.14-.53-.26-.9-.44,0,.38,0,.62,0,.85.49,4.54,1.18,9.07,1.36,13.62a4.62,4.62,0,0,0,2,4c.7.52,1.25,1.24,1.9,1.83,2.67,2.45,5.29,5,8.07,7.3A24.06,24.06,0,0,0,393.24,182a29.45,29.45,0,0,0,6.06.67q6.07,0,12.13-.4c3.86-.24,7.15-2.21,10.46-3.92,3.47-1.79,6.8-3.87,10.12-5.94a31.82,31.82,0,0,0,3.43-2.87l-2.49-.89c-3.67-1.36-7.42-2.57-10-5.85-.83-1.07-1.7-2.12-2.57-3.15a4.59,4.59,0,0,0-.77-.61l-.19.2,3.6,12.48a9.86,9.86,0,0,1-1.27-2.45c-2.23-5.72-4.52-11.48-5.09-17.64-.62-6.67-.8-13.37-1.17-20.06l.18-1.23-.37,0ZM402.41,80.17l.22.14,0-.29-3.39-8.8.29-.15c.84,1.45,1.67,2.92,2.54,4.37A38.82,38.82,0,0,1,407.25,95l20.28-.92c0-.23,0-.74,0-1.25-.12-1.74-.27-3.49-.37-5.23a10.79,10.79,0,0,0,.06-1.49,45.55,45.55,0,0,0-3.78-11.3,2.62,2.62,0,0,1-.14-.75c.28,0,.63,0,.83.13.94.72,1.84,1.5,2.75,2.26l.24-.17c-3.87-7.91-8.51-15.25-16-20.43l.16-.49,4.65-.32A63.13,63.13,0,0,0,397.09,47l0-.39,2.46-1.93c-.32-.1-.43-.18-.52-.17-2.51.29-5,.61-7,2.45-1.22,1.11-1.4.92-2.68-.16-3.61-3.08-7.55-4.87-12.51-3.45-4.25,1.23-8.59,2.18-12.93,3.06a13.88,13.88,0,0,0-4.67,1.71,91.27,91.27,0,0,0-14.56,10.71,23.86,23.86,0,0,0-5.41,6.51c-2,3.93-3.91,7.87-5.81,11.83-.53,1.12-.88,2.33-1.32,3.5l.36.24c.66-.72,1.31-1.46,2-2.18,1.58-1.69,1.58-1.69,2.09-1.55-1.08,1.72-2.31,3.43-3.28,5.27a12,12,0,0,0-1.13,6.19l1.69-2.57.48.18c.24,3.07.59,6.14.69,9.22.12,3.9-.15,7.82.64,11.67.33,1.6.74,3.19,1.11,4.78l.46-.08-.38-6.39,6,12.49c1.16-.91,2.06-1.63,3-2.33,1.74-1.33,1.78-1.35.88-3.38s-2-4.31-3-6.46h-.38a21.77,21.77,0,0,0-2.19,6.28,3.7,3.7,0,0,1-.61-1.38,20.75,20.75,0,0,1,.54-9c1.91-7.37,5.63-13.87,9.84-20.12.25-.38.49-.78.73-1.17l.37.37c-1,2-2.07,4-3,6a68,68,0,0,0-5.52,15.39,7.61,7.61,0,0,0,0,1.51c2.33-2.37,4.43-4.73,6.76-6.82a98.5,98.5,0,0,0,12.5-13.72,1.76,1.76,0,0,0,.44-1c-.35-3.41-.85-6.8-1.12-10.21-.17-2.11,0-4.24,0-6.36l.24,0,1.95,15.26.45.11,4.61-6.31.29.18a13.39,13.39,0,0,1-.65,1.45c-1.19,2-2.41,4-3.6,6.07a2.39,2.39,0,0,0-.46,1.3c.14,1.12.44,2.22.74,3.62,2.21-2.32,4.34-4.4,6.31-6.64a24.57,24.57,0,0,0,4.52-7.65,3.34,3.34,0,0,1,0,1.37A19.89,19.89,0,0,1,373,81.68c-2.1,2.89-4.71,5.4-6.21,8.74a3,3,0,0,0,.16,2.78c10.41-11.44,19.82-23.26,23.92-38.45a7.52,7.52,0,0,1-.07,2.6c-.94,3.45-1.95,6.89-3,10.31a1,1,0,0,0,.3,1.32c1.22,1,2.32,2.22,3.59,3.19C395.22,74.88,398.83,77.51,402.41,80.17ZM368.23,105.9a92.14,92.14,0,0,0-18.48,8.9c-.25.16-.35.8-.29,1.18a23.32,23.32,0,0,0,3.53,8.43c3.6,5.66,7.16,11.35,10.89,16.93a20.77,20.77,0,0,0,4.81,5.58A78.8,78.8,0,0,0,385,156a2,2,0,0,0,2.2-.23c2.87-2.18,5.78-4.29,8.63-6.49a92.74,92.74,0,0,0,17.95-17.89,1.93,1.93,0,0,0,.35-1,24.51,24.51,0,0,1,.23-2.86c.79-3.2,1.59-6.4,2.58-9.55a36.21,36.21,0,0,1,2.06-4,2.73,2.73,0,0,0-.64-3.15c-.73-.86-1.71-2-1.67-2.94a11.38,11.38,0,0,1,2.74-7,1.09,1.09,0,0,1,.92-.31c.27.09.42.51.65.82l-1.09.06c.16.27.29.55.47.8a8.61,8.61,0,0,1,1.84,3.87l-3-3.27c-.64,1.07-.62,1-.12,1.72a15.26,15.26,0,0,1,3.22,9,5.92,5.92,0,0,1-4.57,6.09.72.72,0,0,0-.45.45q-.54,2.63-1,5.27c-.17.93.58,1.2,1.21,1.34a1.46,1.46,0,0,0,1.23-.43c2-2.75,3.86-5.59,5.88-8.31a6.48,6.48,0,0,0,1.24-5.63c-.12-.54-.27-1.08-.43-1.61-1.22-4.17-2.39-8.35-5.34-11.74-1-1.21-2.09-1.46-3.06-.24a32.36,32.36,0,0,0-3.59,5.46,60.42,60.42,0,0,0-2.1,5.84c-.15.4-.62.67-.94,1a3.67,3.67,0,0,1-.28-1.3c.25-1.57.62-3.11.9-4.67a12.36,12.36,0,0,0,0-1.76c-.67,1.3-1.16,2.29-1.7,3.26s-1.2,2-1.8,3c-1.36,2.24-1.35,2.24-1.69,2.29a37.56,37.56,0,0,0,.55-3.93c.1-2.06.06-4.13,0-6.2,0-1.68-.16-3.36-.24-5-7.2.32-32.87,6.52-36.36,8.73.63,2.09,1.22,4.2,1.91,6.28,3.12,9.34,6.28,18.67,9.41,28a7.26,7.26,0,0,1,.2,1.41A239.74,239.74,0,0,1,368.23,105.9Zm72.84,30c-8.94,0-14.58,1.33-22.92,2.86a.93.93,0,0,0-.88,1.14c.1,2.27.21,4.55.2,6.82a19.73,19.73,0,0,0,4.7,13.1c1.29,1.56,2.5,3.19,3.81,4.73a4.62,4.62,0,0,0,1.59,1.18c2.15.92,4.38,1.66,6.49,2.67a1.87,1.87,0,0,0,2.68-.53c2.48-3.13,5.06-6.2,7.49-9.38q4-5.19,7.7-10.54c1.35-1.92,1.42-4.27,1.28-6.47a5.93,5.93,0,0,0-5.1-5.17C445.79,136,443.42,136,441.07,135.87Zm-71.8-32.12a165.89,165.89,0,0,1,36.58-8.34c-.82-4.25-1.62-8.43-2.48-12.6-.07-.37-.55-.71-.92-.94-2.83-1.73-5.82-3.23-8.46-5.2a96.07,96.07,0,0,1-7.15-6.45c-1.33,2.2-2.7,4.64-4.24,7A110.26,110.26,0,0,1,368,94.76c-.3.3-.67.83-.6,1.17C368,98.52,368.62,101.1,369.27,103.75Zm-20.5,9.76c1.3-.78,2.47-1.63,3.76-2.25,4.76-2.25,9.55-4.41,14.32-6.64.33-.15.81-.6.76-.81-.52-2.3-1.14-4.58-1.77-7a32.43,32.43,0,0,1-7.34,5.54,3.62,3.62,0,0,1,.68-1.57c.68-.93,1.44-1.8,2.08-2.76,1.07-1.59,2-3.25,3.12-4.83a2.12,2.12,0,0,0,.23-2.35c-.15.1-.29.17-.4.26A92,92,0,0,1,348.48,102a38.91,38.91,0,0,0-3.89,3Zm9.15,27a9.51,9.51,0,0,0-.83,2.66,24.78,24.78,0,0,0,2.42,10.75c2.17,4.23,5.64,7.39,9.19,10.45,0,0,.14,0,.24,0A.8.8,0,0,0,369,164c-.66-4.65-1.33-9.3-2-14a5.78,5.78,0,0,0-1.82-4,10,10,0,0,1-1.4-1.93c-.33-.45-.58-1-1-1.28C361.3,142.06,359.74,141.38,357.92,140.51Zm49.81-34.07.18,0,.39-1c.95-2.32,1.87-4.66,2.86-7,.16-.36.63-.6.95-.89a3.62,3.62,0,0,1,.37,1.14c0,1.29-.14,2.58-.24,4.08,1.3-1.73,1.33-3.9,3.38-5.06,1.74-1,3.58-1.16,5,.41a19.43,19.43,0,0,1,4.18,7.68c.43,1.42.93,2.82,1.47,4.42a47,47,0,0,0,1.23-15.59c-6.87-.23-13.51.71-20.34,1.78C407.35,99.87,407.54,103.15,407.73,106.44Zm10.21,11.84c2.15,0,2.31-.16,3.27-2,1.54-3-.76-8.94-2.95-11.31-1.08,2.59-1,3.21.65,5.41a4,4,0,0,1,.79,4C419.23,115.66,418.56,116.92,417.94,118.28ZM352.65,97.93c.18,0,.41,0,.53-.1q5.25-4.41,10.47-8.87a1.44,1.44,0,0,0,.54-1c-.11-1-.37-2-.62-3.22A72.16,72.16,0,0,1,352.65,97.93Zm2.1,35.81-.24.23c.55,1.18,1.19,2.34,1.65,3.56A4,4,0,0,0,359,140c.75.23,1.52.41,2.33.62C360.06,137.31,357.3,135.63,354.75,133.74Zm-10.49-15.12,3.21,3.68c-.26-2,0-2.34,1.67-3l-1-3.55Zm-4.07,1.84c1-.49,1.2-1.08.58-2a12.56,12.56,0,0,1-1-2.16c-.57-1.37-1.1-2.75-1.68-4.2A11.78,11.78,0,0,0,340.19,120.46ZM402.77,210c-.35,2.55.45,3,3.16,1.93.2-1.93.2-1.93-1.67-1.93Zm.61,25.75-1.82-.15c.41-.14.83-.05,1.19-.17s.47-.45.7-.69c-.3-.17-.64-.52-.91-.48-1.53.27-2.22,1.48-1.83,3.13l2.45.24Zm.37-32.61,2.2.3c.4-2.5.06-2.91-2.2-2.69Zm-4.89,53.18h.64c.95,0,1.24-.65,1.13-1.39,0-.23-.75-.38-1.17-.52a1.93,1.93,0,0,0-.59,0c-.91,0-1.53.23-1.49,1.33S398.22,256.36,398.86,256.3ZM353.63,132.45c.21-2.84-1.26-5.63-2.76-5.67Zm44.68,119.72c2.42.23,3.11-.17,3.06-1.71C399.16,249.82,398.38,250.24,398.31,252.17Zm-.43,1.91c3.12.17,3.12.17,3.19-1.74C398.79,252.28,398,252.72,397.88,254.08Zm2.71,2.33c-1.26.21-2.12.3-2.95.51-.62.15-1,.82-.35,1.07a5.18,5.18,0,0,0,2.66.14C400.18,258.1,400.3,257.24,400.59,256.41Zm5.19-43.25h-3.12l.1,1.33h3ZM404.27,229c-2.54-.67-3.13-.61-2.65,1.51C404.05,230.23,404.05,230.23,404.27,229Zm1.32-12.76.31-.3c-.21-.33-.36-.88-.62-.94a6.44,6.44,0,0,0-2,0c-.17,0-.44.43-.43.65a.81.81,0,0,0,.51.59C404.09,216.31,404.84,216.27,405.59,216.27ZM363.77,95.65c1.34-.12,1.83-1,1.28-2.1Zm39.76,108.69H406l.05-.44c-.69-.11-1.38-.25-2.08-.3C403.87,203.6,403.72,204,403.53,204.34Zm.69-11.29L402.88,191C402.49,192.31,402.74,192.91,404.22,193.05ZM332.31,81l-.08-.09s-.07,0-.08.08.05.06.07.09Z" />
        <path class="outline" d="M346.9,126.73c.09.06.18.12,0,0,.16,0,.07,0,0,0Z" />
        <polygon class="outline" points="347.92 127.64 347.99 127.63 347.96 127.7 347.92 127.64" />
        <path class="transparent"
            d="M402.41,80.17c-3.58-2.66-7.19-5.29-10.74-8-1.27-1-2.37-2.14-3.59-3.19a1,1,0,0,1-.3-1.32c1.05-3.42,2.06-6.86,3-10.31a7.52,7.52,0,0,0,.07-2.6c-4.1,15.19-13.51,27-23.92,38.45a3,3,0,0,1-.16-2.78c1.5-3.34,4.11-5.85,6.21-8.74a19.89,19.89,0,0,0,3.46-7.44,3.34,3.34,0,0,0,0-1.37,24.57,24.57,0,0,1-4.52,7.65c-2,2.24-4.1,4.32-6.31,6.64-.3-1.4-.6-2.5-.74-3.62a2.39,2.39,0,0,1,.46-1.3c1.19-2,2.41-4,3.6-6.07a13.39,13.39,0,0,0,.65-1.45l-.29-.18-4.61,6.31-.45-.11-1.95-15.26-.24,0c0,2.12-.13,4.25,0,6.36.27,3.41.77,6.8,1.12,10.21a1.76,1.76,0,0,1-.44,1,98.5,98.5,0,0,1-12.5,13.72c-2.33,2.09-4.43,4.45-6.76,6.82a7.61,7.61,0,0,1,0-1.51A68,68,0,0,1,349,86.77c1-2,2-4,3-6l-.37-.37c-.24.39-.48.79-.73,1.17-4.21,6.25-7.93,12.75-9.84,20.12a20.75,20.75,0,0,0-.54,9,3.7,3.7,0,0,0,.61,1.38,21.77,21.77,0,0,1,2.19-6.28h.38c1,2.15,2.05,4.29,3,6.46s.86,2.05-.88,3.38c-.92.7-1.82,1.42-3,2.33l-6-12.49.38,6.39-.46.08c-.37-1.59-.78-3.18-1.11-4.78-.79-3.85-.52-7.77-.64-11.67-.1-3.08-.45-6.15-.69-9.22l-.48-.18-1.69,2.57a12,12,0,0,1,1.13-6.19c1-1.84,2.2-3.55,3.28-5.27-.51-.14-.51-.14-2.09,1.55-.67.72-1.32,1.46-2,2.18l-.36-.24c.44-1.17.79-2.38,1.32-3.5,1.9-4,3.85-7.9,5.81-11.83a23.86,23.86,0,0,1,5.41-6.51A91.27,91.27,0,0,1,359.29,48.1,13.88,13.88,0,0,1,364,46.39c4.34-.88,8.68-1.83,12.93-3.06,5-1.42,8.9.37,12.51,3.45,1.28,1.08,1.46,1.27,2.68.16,2-1.84,4.48-2.16,7-2.45.09,0,.2.07.52.17l-2.46,1.93,0,.39a63.13,63.13,0,0,1,18.82,8.08l-4.65.32-.16.49c7.51,5.18,12.15,12.52,16,20.43l-.24.17c-.91-.76-1.81-1.54-2.75-2.26-.2-.15-.55-.09-.83-.13a2.62,2.62,0,0,0,.14.75,45.55,45.55,0,0,1,3.78,11.3,10.79,10.79,0,0,1-.06,1.49c.1,1.74.25,3.49.37,5.23,0,.51,0,1,0,1.25L407.25,95A38.82,38.82,0,0,0,402,75.44c-.87-1.45-1.7-2.92-2.54-4.37l-.29.15L402.6,80Z" />
        <path class="transparent"
            d="M368.23,105.9a239.74,239.74,0,0,0,13.1,35.3,7.26,7.26,0,0,0-.2-1.41c-3.13-9.34-6.29-18.67-9.41-28-.69-2.08-1.28-4.19-1.91-6.28,3.49-2.21,29.16-8.41,36.36-8.73.08,1.68.2,3.36.24,5,0,2.07.08,4.14,0,6.2a37.56,37.56,0,0,1-.55,3.93c.34,0,.33,0,1.69-2.29.6-1,1.23-2,1.8-3s1-2,1.7-3.26a12.36,12.36,0,0,1,0,1.76c-.28,1.56-.65,3.1-.9,4.67a3.67,3.67,0,0,0,.28,1.3c.32-.33.79-.6.94-1a60.42,60.42,0,0,1,2.1-5.84A32.36,32.36,0,0,1,417,98.85c1-1.22,2-1,3.06.24,3,3.39,4.12,7.57,5.34,11.74.16.53.31,1.07.43,1.61a6.48,6.48,0,0,1-1.24,5.63c-2,2.72-3.89,5.56-5.88,8.31a1.46,1.46,0,0,1-1.23.43c-.63-.14-1.38-.41-1.21-1.34q.46-2.64,1-5.27a.72.72,0,0,1,.45-.45,5.92,5.92,0,0,0,4.57-6.09,15.26,15.26,0,0,0-3.22-9c-.5-.67-.52-.65.12-1.72l3,3.27a8.61,8.61,0,0,0-1.84-3.87c-.18-.25-.31-.53-.47-.8l1.09-.06c-.23-.31-.38-.73-.65-.82a1.09,1.09,0,0,0-.92.31,11.38,11.38,0,0,0-2.74,7c0,1,.94,2.08,1.67,2.94A2.73,2.73,0,0,1,419,114a36.21,36.21,0,0,0-2.06,4c-1,3.15-1.79,6.35-2.58,9.55a24.51,24.51,0,0,0-.23,2.86,1.93,1.93,0,0,1-.35,1,92.74,92.74,0,0,1-17.95,17.89c-2.85,2.2-5.76,4.31-8.63,6.49a2,2,0,0,1-2.2.23,78.8,78.8,0,0,1-16.33-9,20.77,20.77,0,0,1-4.81-5.58c-3.73-5.58-7.29-11.27-10.89-16.93a23.32,23.32,0,0,1-3.53-8.43c-.06-.38,0-1,.29-1.18A92.14,92.14,0,0,1,368.23,105.9Z" />
        <path class="transparent"
            d="M415.53,131.55c.37,6.69.55,13.39,1.17,20.06.57,6.16,2.86,11.92,5.09,17.64a9.86,9.86,0,0,0,1.27,2.45l-3.6-12.48.19-.2a4.59,4.59,0,0,1,.77.61c.87,1,1.74,2.08,2.57,3.15,2.54,3.28,6.29,4.49,10,5.85l2.49.89a31.82,31.82,0,0,1-3.43,2.87c-3.32,2.07-6.65,4.15-10.12,5.94-3.31,1.71-6.6,3.68-10.46,3.92q-6.06.38-12.13.4a29.45,29.45,0,0,1-6.06-.67,24.06,24.06,0,0,1-10.61-4.76c-2.78-2.33-5.4-4.85-8.07-7.3-.65-.59-1.2-1.31-1.9-1.83a4.62,4.62,0,0,1-2-4c-.18-4.55-.87-9.08-1.36-13.62,0-.23,0-.47,0-.85.37.18.64.3.9.44,3.21,1.79,6.38,3.66,9.66,5.32a30.66,30.66,0,0,0,5.61,2.07,3.11,3.11,0,0,0,2.2-.49c2.23-1.41,4.36-3,6.54-4.45a78.21,78.21,0,0,0,19.21-18.77c.56-.77,1.16-1.51,1.75-2.27Zm-17.34,37.81c.14-3.12.27-6.24.43-9.36a2,2,0,0,1,.25-1.1,4.74,4.74,0,0,0,.37-5C397.45,158.94,397.48,164.13,398.19,169.36ZM377.4,155.71l-.31.15c.77,3.72,2.78,6.84,4.73,10l.32-.15Z" />
        <path class="color-base"
            d="M368.93,191.73a13.23,13.23,0,0,0-2.16-1.15c-2.81-.89-5.69-1.57-8.46-2.55a30.12,30.12,0,0,1-5-2.5c-1.69-1-3.28-2.12-4.89-3.22-.19-.13-.26-.44-.39-.66.4-1.2.81-2.4,1.19-3.6,1.65-5.24,3.31-10.48,4.92-15.73.54-1.75.95-3.55,1.47-5.53.28.36.4.51.5.66a23.74,23.74,0,0,0,2.78,4c4.1,3.89,8.25,7.75,12.57,11.38a96,96,0,0,0,14.18,9.7,28.94,28.94,0,0,0,11.28,3.2,10.88,10.88,0,0,0,2.68-.37h2.16a7.33,7.33,0,0,1-.08,1.45c-.5,2-1,3.93-1.62,5.85-.33,1-.11,1.53.81,1.84A1.6,1.6,0,0,1,402,196a39.83,39.83,0,0,1-.29,11c-.14,1-.08,2.4-.69,2.9s-2,.13-3,.12a66.63,66.63,0,0,1-18.46-2.68c-.23-.07-.45-.16-.68-.25-.25-.27-.46-.64-.77-.8a57.6,57.6,0,0,1-12.61-8.14c-1.09-1-2.23-1.86-3.35-2.79l.14-.27,17.5,4c-.27-.23-.42-.4-.61-.54-2.1-1.5-4.18-3-6.33-4.47C371.63,193.18,370.25,192.49,368.93,191.73Z" />
        <path class="color-base"
            d="M412.5,208.47l-5.32,1.33c.92-4.39.66-8.45.47-12.49s-.63-8.09-1-12.25l4.64-.94c.32.07.67.27.95.19a29.31,29.31,0,0,0,3.29-1.06c3.17-1.3,6.36-2.57,9.48-4,5.08-2.29,9.91-5,13.85-9s7.67-8.09,11.48-12.17c.81-.87,1.58-1.79,2.32-2.72s1.63-2.19,2.63-3.54a6.34,6.34,0,0,1,.36,1.08,37.65,37.65,0,0,0,.23,4.12c.69,4,2.71,7.34,5,10.59,1.46,2,3.37,3.84,3.59,6.62a1.57,1.57,0,0,1-.95,1.86c-2.64,1.39-5.27,2.82-7.81,4.39-2.06,1.27-4,2.79-6,4.15-1.69,1.16-3.42,2.25-5.13,3.37l.18.36,1.84-.54.14.28-5.54,3.9-2.87,2.08-3.36,2a7.51,7.51,0,0,0-1.59.36c-1.51.69-3,1.47-4.46,2.18-2.28,1.09-5,1.23-7,3a20.5,20.5,0,0,1-1.9,1.43l-7.48,5.11C412.58,208.22,412.56,208.37,412.5,208.47Z" />
        <path class="color-shadow"
            d="M441.07,135.87c2.35.12,4.72.1,7,.41a5.93,5.93,0,0,1,5.1,5.17c.14,2.2.07,4.55-1.28,6.47q-3.75,5.34-7.7,10.54c-2.43,3.18-5,6.25-7.49,9.38a1.87,1.87,0,0,1-2.68.53c-2.11-1-4.34-1.75-6.49-2.67a4.62,4.62,0,0,1-1.59-1.18c-1.31-1.54-2.52-3.17-3.81-4.73a19.73,19.73,0,0,1-4.7-13.1c0-2.27-.1-4.55-.2-6.82a.93.93,0,0,1,.88-1.14C426.49,137.2,432.13,135.84,441.07,135.87Z" />
        <path class="transparent"
            d="M369.27,103.75c-.65-2.65-1.32-5.23-1.88-7.82-.07-.34.3-.87.6-1.17A110.26,110.26,0,0,0,382.6,77.18c1.54-2.32,2.91-4.76,4.24-7A96.07,96.07,0,0,0,394,76.67c2.64,2,5.63,3.47,8.46,5.2.37.23.85.57.92.94.86,4.17,1.66,8.35,2.48,12.6A165.89,165.89,0,0,0,369.27,103.75Z" />
        <path class="color-shadow"
            d="M438.42,194.08l2.87-2.08,5.54-3.9-.14-.28-1.84.54-.18-.36c1.71-1.12,3.44-2.21,5.13-3.37,2-1.36,3.91-2.88,6-4.15,2.54-1.57,5.17-3,7.81-4.39a1.57,1.57,0,0,0,.95-1.86c-.22-2.78-2.13-4.59-3.59-6.62-2.33-3.25-4.35-6.61-5-10.59a37.65,37.65,0,0,1-.23-4.12,6.34,6.34,0,0,0-.36-1.08c-1,1.35-1.79,2.47-2.63,3.54s-1.51,1.85-2.32,2.72c-3.81,4.08-7.56,8.21-11.48,12.17s-8.77,6.73-13.85,9c-3.12,1.41-6.31,2.68-9.48,4a29.31,29.31,0,0,1-3.29,1.06c-.28.08-.63-.12-.95-.19,5.27-1.49,10-4.2,14.82-6.68A39.55,39.55,0,0,0,440.6,165.5c3.36-4.65,7-9.09,10.29-13.81a74.44,74.44,0,0,0,4.22-7.94,34.68,34.68,0,0,1,3.36,4,7,7,0,0,1,.91,3.39c.13,3-.08,6,.59,8.94a18.75,18.75,0,0,0,2.57,6q2.88,4.55,5.63,9.19a3,3,0,0,1-1.3,4.12,27.87,27.87,0,0,1-2.61,1.19c-4.16,1.59-7.65,4.28-11.34,6.66-4.35,2.82-8.73,5.66-13.92,6.77A5.4,5.4,0,0,1,438.42,194.08Z" />
        <path class="transparent"
            d="M348.77,113.51l-4.18-8.58a38.91,38.91,0,0,1,3.89-3A92,92,0,0,0,364.21,91.1c.11-.09.25-.16.4-.26a2.12,2.12,0,0,1-.23,2.35c-1.09,1.58-2.05,3.24-3.12,4.83-.64,1-1.4,1.83-2.08,2.76a3.62,3.62,0,0,0-.68,1.57,32.43,32.43,0,0,0,7.34-5.54c.63,2.42,1.25,4.7,1.77,7,.05.21-.43.66-.76.81-4.77,2.23-9.56,4.39-14.32,6.64C351.24,111.88,350.07,112.73,348.77,113.51Z" />
        <path class="color-shadow"
            d="M399.58,185.34a10.88,10.88,0,0,1-2.68.37,28.94,28.94,0,0,1-11.28-3.2,96,96,0,0,1-14.18-9.7c-4.32-3.63-8.47-7.49-12.57-11.38a23.74,23.74,0,0,1-2.78-4c-.1-.15-.22-.3-.5-.66-.52,2-.93,3.78-1.47,5.53-1.61,5.25-3.27,10.49-4.92,15.73-.38,1.2-.79,2.4-1.19,3.6L343,182.89l0,0c1.27-2.75,2.43-5.56,3.83-8.24a57.17,57.17,0,0,0,5.54-15.36c.93-4.72,1.93-9.43,2.91-14.15a3,3,0,0,1,.17-.41,56.68,56.68,0,0,0,1,6.28,24.46,24.46,0,0,0,7.95,12.41c4.16,3.55,8.09,7.37,12.35,10.79,3.26,2.61,6.84,4.84,10.34,7.14,3.34,2.19,7.22,2.89,11,3.72C398.56,185.15,399.07,185.24,399.58,185.34Z" />
        <path class="color-shadow"
            d="M368.93,191.73c1.32.76,2.7,1.45,4,2.3,2.15,1.44,4.23,3,6.33,4.47.19.14.34.31.61.54l-17.5-4-.14.27c1.12.93,2.26,1.83,3.35,2.79a57.6,57.6,0,0,0,12.61,8.14c.31.16.52.53.77.8a48,48,0,0,1-13.76-5.89,37.36,37.36,0,0,1-9.69-8.6c-1.19-1.49-2.51-2.88-3.75-4.34A8.64,8.64,0,0,1,351,187l.15-.15c4.94,2.5,10.39,3.33,15.7,4.61A15.76,15.76,0,0,0,368.93,191.73Z" />
        <path class="color-shadow"
            d="M357.92,140.51c1.82.87,3.38,1.55,4.87,2.37.45.24.7.83,1,1.28a10,10,0,0,0,1.4,1.93,5.78,5.78,0,0,1,1.82,4c.65,4.65,1.32,9.3,2,14a.8.8,0,0,1-.08.33c-.1,0-.2.05-.24,0-3.55-3.06-7-6.22-9.19-10.45a24.78,24.78,0,0,1-2.42-10.75A9.51,9.51,0,0,1,357.92,140.51Z" />
        <path class="transparent"
            d="M407.73,106.44c-.19-3.29-.38-6.57-.57-9.92,6.83-1.07,13.47-2,20.34-1.78a47,47,0,0,1-1.23,15.59c-.54-1.6-1-3-1.47-4.42a19.43,19.43,0,0,0-4.18-7.68c-1.42-1.57-3.26-1.4-5-.41-2.05,1.16-2.08,3.33-3.38,5.06.1-1.5.22-2.79.24-4.08a3.62,3.62,0,0,0-.37-1.14c-.32.29-.79.53-.95.89-1,2.31-1.91,4.65-2.86,7l-.39,1Z" />
        <path class="color-shadow"
            d="M412.5,208.47c.06-.1.08-.25.17-.31l7.48-5.11a20.5,20.5,0,0,0,1.9-1.43c2-1.78,4.68-1.92,7-3,1.49-.71,2.95-1.49,4.46-2.18a7.51,7.51,0,0,1,1.59-.36l3.54-.56.12.11a37.4,37.4,0,0,1-4.55,4,133.39,133.39,0,0,1-11.81,6.82A23.12,23.12,0,0,1,412.5,208.47Z" />
        <path class="transparent"
            d="M417.94,118.28c.62-1.36,1.29-2.62,1.76-4a4,4,0,0,0-.79-4c-1.68-2.2-1.73-2.82-.65-5.41,2.19,2.37,4.49,8.32,2.95,11.31C420.25,118.12,420.09,118.33,417.94,118.28Z" />
        <path class="transparent"
            d="M352.65,97.93a72.16,72.16,0,0,0,10.92-13.16c.25,1.21.51,2.2.62,3.22a1.44,1.44,0,0,1-.54,1q-5.22,4.47-10.47,8.87C353.06,97.93,352.83,97.9,352.65,97.93Z" />
        <path class="transparent"
            d="M354.75,133.74c2.55,1.89,5.31,3.57,6.55,6.9-.81-.21-1.58-.39-2.33-.62a4,4,0,0,1-2.81-2.49c-.46-1.22-1.1-2.38-1.65-3.56Z" />
        <path class="transparent" d="M344.26,118.62l3.87-2.84,1,3.55c-1.69.63-1.93,1-1.67,3Z" />
        <path class="color-shadow"
            d="M405.07,217.93l-2.29-.48c-.25-.65-.13-1,.9-1,2.28,0,2.32.1,2,2.34-.26,1.72-.4,3.47-.65,5.19a.92.92,0,0,1-.59.66,17.56,17.56,0,0,1-2.19,0,8.58,8.58,0,0,1,0-.9c.13-1.68.13-1.68,1.81-1.82a2.72,2.72,0,0,0,.54-.15l.24-1.92c-.11-.13-.21-.27-.31-.41Z" />
        <path class="color-base"
            d="M402,193.53c-.22-.26-.67-.57-.63-.78.37-2,.82-4,1.26-6,0-.1.14-.19.11-.14l.83,1,1-.93v4.68l-2.13-.53c-.13.75-.27,1.54-.41,2.33Z" />
        <path class="transparent"
            d="M340.19,120.46a11.78,11.78,0,0,1-2.12-8.37c.58,1.45,1.11,2.83,1.68,4.2a12.56,12.56,0,0,0,1,2.16C341.39,119.38,341.15,120,340.19,120.46Z" />
        <path class="color-base"
            d="M397,259.66v-.49c.07-.23.13-.45.19-.67h3c-.1.39-.17.7-.24,1H398l0,.41,1.73-.25.29,1.88H397c.08-.6.15-1.14.22-1.68Z" />
        <path class="color-shadow" d="M401.27,240h1.52c-.31,3.54.11,3.24-2.91,3-.21-1.92.05-2.53,1.35-3.07Z" />
        <path class="color-base" d="M402.77,210h1.49c1.87,0,1.87,0,1.67,1.93C403.22,213,402.42,212.53,402.77,210Z" />
        <path class="color-shadow"
            d="M403.38,235.73l-.22,1.88-2.45-.24c-.39-1.65.3-2.86,1.83-3.13.27,0,.61.31.91.48-.23.24-.42.59-.7.69s-.78,0-1.19.17Z" />
        <path class="transparent"
            d="M354.6,129.17a36.7,36.7,0,0,1,3.09,5.4l-.41.2c-.45-.37-.88-.76-1.34-1.11a2.77,2.77,0,0,1-1.31-2.63,6,6,0,0,0-.27-1.6Z" />
        <path class="color-base" d="M403.75,203.12v-2.39c2.26-.22,2.6.19,2.2,2.69Z" />
        <path class="transparent"
            d="M352.88,127.14l-4.16-5.57.46-.51c.31.21.72.35.9.64,1.07,1.69,2.08,3.41,3.12,5.12Z" />
        <path class="color-base"
            d="M398.86,256.3c-.64.06-1.43.66-1.48-.59s.58-1.36,1.49-1.33a1.93,1.93,0,0,1,.59,0c.42.14,1.13.29,1.17.52.11.74-.18,1.39-1.13,1.39Z" />
        <path class="transparent" d="M353.63,132.45l-2.76-5.67C352.37,126.82,353.84,129.61,353.63,132.45Z" />
        <path class="color-base" d="M403.45,207.33l1.59-.76-1.33-.26V205H406l-.23,2.56h-1.44Z" />
        <path class="color-shadow"
            d="M398.31,252.17c.07-1.93.85-2.35,3.06-1.71C401.42,252,400.73,252.4,398.31,252.17Z" />
        <path class="color-base"
            d="M401.27,240l0,0-.73-.13c-.08-.09-.15-.19-.23-.29v-1.62H403C403.42,239.45,402.45,239.79,401.27,240Z" />
        <path class="color-base" d="M401.16,248.67h-2c-.29-2-.1-2.16,2.76-1.88-.1.61-.19,1.21-.29,1.82Z" />
        <path class="color-base" d="M397.88,254.08c.07-1.36.91-1.8,3.19-1.74C401,254.25,401,254.25,397.88,254.08Z" />
        <path class="color-base"
            d="M400.59,256.41c-.29.83-.41,1.69-.64,1.72a5.18,5.18,0,0,1-2.66-.14c-.63-.25-.27-.92.35-1.07C398.47,256.71,399.33,256.62,400.59,256.41Z" />
        <path class="color-shadow" d="M403.45,207.33l.9.24c.23.12.45.33.69.35,1,.09,1.15.64.94,1.53h-2.53Z" />
        <path class="color-shadow" d="M405.78,213.16v1.33h-3l-.1-1.33Z" />
        <path class="color-shadow" d="M404.27,229c-.22,1.2-.22,1.2-2.65,1.51C401.14,228.42,401.73,228.36,404.27,229Z" />
        <path class="color-shadow" d="M404,197.73l2.09.38.05,1.21-1.62-.13,1.2.64-.05.26-2.14-.39.42-.45-.23-1.52Z" />
        <path class="color-base" d="M404.84,219.84l-.24,1.92h-1.92v-1.92Z" />
        <path class="color-base" d="M401.45,245l-1.64,0-.26-.21c.09-1.34.77-1.69,2.66-1.23l-.52,1.41Z" />
        <path class="color-base" d="M405.07,217.93l-.54,1.5-1.74.11v-1.61Z" />
        <path class="color-shadow"
            d="M405.59,216.27c-.75,0-1.5,0-2.24,0a.81.81,0,0,1-.51-.59c0-.22.26-.63.43-.65a6.44,6.44,0,0,1,2,0c.26.06.41.61.62.94Z" />
        <path class="color-shadow" d="M401.16,248.67l.49-.06c-.15,1.68-.27,1.73-3,1.37l.14-.86Z" />
        <path class="color-base" d="M401.24,231.83c-.08-1.51,1-.77,1.66-.87v1.77l-1.17.07h-.52c0-.16,0-.31,0-.47Z" />
        <path class="color-base" d="M403.38,228.37H401.7l.24-1.56,1.7-.1Z" />
        <path class="color-shadow" d="M401.22,232.79h.52l1.79.37c.07.92-.5,1.11-2.57.73Z" />
        <path class="color-shadow"
            d="M401.45,245h.24a2.59,2.59,0,0,1,.25,1c0,.15-.58.25-.9.27-.54.05-1.09,0-1.64,0l-.19-.39a4.67,4.67,0,0,1,.9-.65A8.39,8.39,0,0,1,401.45,245Z" />
        <path class="color-base" d="M404,197.73h-.28l-.06-.7c.33-.41.66-.81,1-1.22l.95-.06c0,.64,0,1.29,0,1.93Z" />
        <path class="color-base" d="M403.88,226.29h-1.76c-.07-1.08-.07-1.08,1.75-1.38Z" />
        <path class="color-shadow" d="M402.91,232.73V231l1.3-.12C403.84,231.69,404.55,233,402.91,232.73Z" />
        <path class="transparent" d="M363.77,95.65l1.28-2.1C365.6,94.7,365.11,95.53,363.77,95.65Z" />
        <path class="color-shadow" d="M403.38,228.37l.26-1.66.86-.23C404.81,228.21,404.64,228.47,403.38,228.37Z" />
        <path class="color-shadow" d="M403.53,204.34c.19-.31.34-.74.46-.74.7.05,1.39.19,2.08.3l-.05.44Z" />
        <path class="color-base" d="M404.22,193.05c-1.48-.14-1.73-.74-1.34-2.09Z" />
        <path class="color-shadow" d="M402,193.53l0-.37c.79.05,1.65,0,1.7,1.33Z" />
        <path class="color-shadow" d="M404.6,195.81c-.32.41-.65.81-1,1.22l-.54-1.53Z" />
        <path class="color-shadow"
            d="M405.57,197.68c0-.64,0-1.29,0-1.93l.36-1.68.2,0c0,1,0,2,0,3.06C406.07,197.33,405.75,197.5,405.57,197.68Z" />
        <path class="color-shadow" d="M403.88,226.29v-1.38c.56-.12,1-.16,1,.68S404.47,226.43,403.88,226.29Z" />
        <path class="color-base" d="M354.21,129.31l-1-1.6.37-.32.86,1.45Z" />
        <path class="color-shadow" d="M399.79,259.67l-1.73.25,0-.41h1.89A.26.26,0,0,1,399.79,259.67Z" />
        <path class="color-base" d="M415.53,131.55l-.39-.09.2-1.19.37,0Z" />
        <path class="color-shadow" d="M397.17,258.5c-.06.22-.12.44-.19.67C396.6,258.82,396.54,258.56,397.17,258.5Z" />
        <path class="color-shadow" d="M401.24,231.83l-.06.49Z" />
        <path class="transparent" d="M345.23,122.53l-.41.16,0-.26.41.11Z" />
        <path class="transparent" d="M354.21,129.31l.24-.47.15.33-.24.26A.18.18,0,0,1,354.21,129.31Z" />
        <path class="transparent" d="M332.31,81l-.09.08s-.07-.06-.07-.09.05,0,.08-.08Z" />
        <path class="transparent" d="M345.21,122.54l0,.34-.11,0c.05-.11.11-.21.17-.32Z" />
        <path class="color-shadow" d="M351,187l-.09-.24.24.09Z" />
        <path class="color-shadow" d="M343,182.89l-.12.11.08-.14Z" />
        <path class="color-shadow" d="M438.6,195.51l.25,0a.86.86,0,0,0-.13.14Z" />
        <path class="color-shadow" d="M399.55,244.79l.26.21Z" />
        <path class="transparent" d="M402.6,80l0,.29-.22-.14Z" />
        <path class="transparent" d="M353.59,127.39l-.37.32c0-.12,0-.24,0-.36Z" />
        <path class="transparent" d="M353.2,126.82l0,.44-.34-.12Z" />
        <path class="color-shadow" d="M397,259.66l.19.21Z" />
        <path class="color-shadow" d="M400.27,239.51c.08.1.15.2.23.29C400.42,239.71,400.35,239.61,400.27,239.51Z" />
        <path class="outline"
            d="M398.19,169.36c-.71-5.23-.74-10.42,1.05-15.46a4.74,4.74,0,0,1-.37,5,2,2,0,0,0-.25,1.1C398.46,163.12,398.33,166.24,398.19,169.36Z" />
        <path class="outline" d="M377.4,155.71l4.74,10-.32.15c-1.95-3.15-4-6.27-4.73-10Z" />
    </g>
</svg>
