<svg id="Karmany" xmlns="http://www.w3.org/2000/svg" viewBox="0 0 672 960">
    <g id="img_46_img" data-name="img 46 img">
        <path class="outline"
            d="M477.46,332.32c-20.48.51-40.9.11-61.6-.09-.07-.94-.16-1.7-.17-2.46q-.07-14.86-.14-29.73-.07-13.67-.17-27.34c0-.64,0-1.28,0-1.92.11-2.35.49-2.74,2.86-2.77q28.31-.35,56.61-.66c.63,0,1.25.06,2.12.11,0,1.43.09,2.75.12,4.08.16,7.43.35,14.86.44,22.29,0,1.3-.6,2.62-.58,3.93.17,11,.42,22,.63,33.06A14.57,14.57,0,0,1,477.46,332.32ZM418,299.51q-.65-6.17-1.28-12.32c0,6.76.16,13.52.23,20.28s0,13.64,0,20.75c1.34-.83,1-1.79,1-2.59,0-8.07,0-16.14,0-24.21a2.43,2.43,0,0,0,.38,0c.08.63.17,1.26.26,1.88l.13,3.47v21.13h6a8.89,8.89,0,0,0,1.8.38q22.35,0,44.69,0a8.28,8.28,0,0,0,2-.49v-7.2h.56v7c.74.89,1.07.89,1.79,0-.12-6.59-.26-13.19-.35-19.78,0-3.34,0-6.68,0-10,0-.7.35-1.73-1-1.71l-.57,0c-.39,0-.79-.08-1.19-.08q-26.2,0-52.42,0a10.19,10.19,0,0,0-1.43.2c-.07,1.13-.13,2.16-.19,3.18A2.34,2.34,0,0,0,418,299.51Zm0-28.25v.34a11,11,0,0,0-.37,2.31c.25,6.38.56,12.75.88,19.13a10,10,0,0,0,.32,1.52h57.44c-.13-7.64-.25-15.11-.38-22.88H463.16l-12.45-.14v-.25c1,0,1.91-.11,2.86-.12,6.23,0,12.46,0,18.69,0a13,13,0,0,0,2.84-.38c.24-.06.48-.56.53-.89,0-.17-.35-.54-.59-.58a7.15,7.15,0,0,0-1.67-.07c-2.47.08-4.94.26-7.42.27q-23.35.08-46.72.11a16.26,16.26,0,0,0-1.78.27Zm1.09,59h15.24l36.4-.09a8.68,8.68,0,0,0,1.91-.1c.23-.05.38-.53.76-1.1-1-.06-1.69-.14-2.37-.14H421.23c-.48,0-1,0-1.44,0C418.85,329,418.9,329.56,419.11,330.26Zm55.22-1.6-.48.67,1,.8.61-.78Zm-57,1.85.6,0-.15-1.5-.45,0Z" />
        <path class="outline"
            d="M329.78,267.35c.9,0,1.68,0,2.46,0l55.86.65c2.79,0,3.1.3,3.09,3q0,18.81-.12,37.64c0,7-.14,14.05-.21,21.08,0,2.28-.17,2.5-2.39,2.51l-57.54.16c-1.71,0-2-.28-1.95-1.64.12-6.23.21-12.46.34-18.68.1-4.47.52-8.95.27-13.4-.19-3.3-.65-6.6-.56-9.93q.25-10.17.52-20.35A8.93,8.93,0,0,1,329.78,267.35Zm2.29,61.53,0-1.1.11-2.34.48-.06.3.56v1.94a4.77,4.77,0,0,0,1.33.42q22.33,0,44.68,0a13.57,13.57,0,0,0,2.06-.33l5.92-.29c.15-2.48.28-4.76.41-7h.73c.06,2.49.13,5,.2,7.7,1.72-.65,1.35-1.81,1.35-2.74.06-8.45.08-16.89.11-25.34,0-2.69,0-5.38,0-8.06-.44,1.07-.18,2.42-.73,3.19-1,1.34-.74,2.7-.8,4.09s-.05,2.86-.08,4.3h-.67c0-1.57.06-3.14.1-4.72v-3H366.37l-33.78,0-.54.05c-1,.09-.78.84-.79,1.44q0,15.09-.08,30.17l0,1.06.2,1.18h.37Zm23.07-57.33-12,.13h-2.41l-8.68.25a.18.18,0,0,0-.3-.05c-1.48,0-1.08,1.11-1.1,1.88-.17,5.82-.29,11.65-.42,17.48,0,1.08,0,2.16,0,3.3h57.56a70.13,70.13,0,0,0,.49-10.87l.09-2.86c.06-.66.11-1.32.17-2,.09-2.07.19-4.14.28-6.22l-.06-1c0-.12,0-.23,0-.35l.44-1.43c-.1-.13-.2-.36-.29-.36-4.53,0-9.06.12-13.59.18H363.79a16.64,16.64,0,0,0-2.3-.36c-3-.05-5.91-.05-8.87,0-2.79,0-5.58.1-8.37.15-.8,0-1.59.11-2.38.08-3.18-.09-6.36-.24-9.54-.31-1.56,0-1.58,0-1.22,1.94h2.79l21.25.09C355.15,271.33,355.14,271.44,355.14,271.55ZM387.22,329a12.92,12.92,0,0,0-1.35-.16l-52.49.14a.28.28,0,0,0-.2.12c-.05,0-.05.14-.14.42.18.16.4.52.69.58a8.43,8.43,0,0,0,1.67.07l36.45.1c1,0,1.92.05,2.87.06,3.6,0,7.2,0,10.79,0C386.29,330.37,387.14,330.45,387.22,329Zm1.61-.44c-.37.56-.78.91-.76,1.24s.5.56.78.83c.23-.33.59-.65.66-1S389.18,329.07,388.83,328.56Zm.48-39.92.73,0v-2.59l-.42,0C389.51,286.9,389.41,287.77,389.31,288.64Zm.55-5.92h.21V280.3h-.21Z" />
        <path class="color-base"
            d="M418.8,306.8c0-1.16-.09-2.31-.13-3.47,1.5-.15,3-.41,4.5-.45,8-.2,15.95-.35,23.92-.51.24,0,.48,0,.72,0,4-.31,7.92-.72,11.88-.9,3.27-.15,6.56-.05,9.83,0a9.36,9.36,0,0,1,1.54.23,95.11,95.11,0,0,1,0,24c-3.16.25-6.17.54-9.18.7-4.21.22-8.43.44-12.65.48-8.48.07-17,0-25.43,0a9.34,9.34,0,0,1-1.91-.1,1.6,1.6,0,0,1-1.45-1.62c-.12-2.94-.37-5.88-.46-8.82-.08-2.63,0-5.27,0-7.91C419.94,307.63,420.07,306.71,418.8,306.8Z" />
        <path class="color-base"
            d="M463.16,271.68h1.93a17.9,17.9,0,0,0,2.5.43c1.8.07,3.61,0,5.68.05,0,1.92,0,3.5,0,5.08.13,4,.34,7.95.43,11.92,0,1.62-2,3.59-3.62,3.63s-3.36-.06-5,0c-4,.26-7.9.76-11.86.86-3.33.09-6.67-.27-10-.41-4.05-.17-8.11-.43-12.16-.45-2.77,0-5.55.28-8.33.48a22.06,22.06,0,0,0-2.26.38c-.17-2.39-.46-4.49-.45-6.58a107.55,107.55,0,0,0-1-13.78,5.06,5.06,0,0,1,.25-1.2h2.57q19.29,0,38.58,0A17.51,17.51,0,0,0,463.16,271.68Z" />
        <path class="color-shadow"
            d="M418.8,306.8c1.27-.09,1.14.83,1.14,1.62,0,2.64-.05,5.28,0,7.91.09,2.94.34,5.88.46,8.82a1.6,1.6,0,0,0,1.45,1.62,9.34,9.34,0,0,0,1.91.1c8.48,0,16.95.05,25.43,0,4.22,0,8.44-.26,12.65-.48,3-.16,6-.45,9.18-.7a95.11,95.11,0,0,0,0-24,9.36,9.36,0,0,0-1.54-.23c-3.27,0-6.56-.12-9.83,0-4,.18-7.92.59-11.88.9-.24,0-.48,0-.72,0-8,.16-15.95.31-23.92.51-1.51,0-3,.3-4.5.45-.09-.62-.18-1.25-.26-1.88s0-1.31,0-2c.06-1,.12-2.05.19-3.18a10.19,10.19,0,0,1,1.43-.2q26.22,0,52.42,0c.4,0,.8,0,1.19.08-.11,1.51-.32,3-.33,4.52,0,4.71,0,9.42,0,14.12a20,20,0,0,0,.36,2.66l.52-.06V296.15c1.34,0,1,1,1,1.71,0,3.34,0,6.68,0,10,.09,6.59.23,13.19.35,19.78h-1.79v-7h-.56v7.2c-1,0-2.07.09-3.11.09l-45.34,0h-6Z" />
        <path class="color-shadow"
            d="M463.16,271.68a17.51,17.51,0,0,1-2.74.43q-19.29,0-38.58,0h-2.57a5.06,5.06,0,0,0-.25,1.2,107.55,107.55,0,0,1,1,13.78c0,2.09.28,4.19.45,6.58a22.06,22.06,0,0,1,2.26-.38c2.78-.2,5.56-.5,8.33-.48,4.05,0,8.11.28,12.16.45,3.34.14,6.68.5,10,.41,4-.1,7.9-.6,11.86-.86,1.67-.11,3.36,0,5,0s3.66-2,3.62-3.63c-.09-4-.3-8-.43-11.92,0-1.58,0-3.16,0-5.08-2.07,0-3.88,0-5.68-.05a17.9,17.9,0,0,1-2.5-.43h10.82c.13,7.77.25,15.24.38,22.88H418.85a10,10,0,0,1-.32-1.52c-.32-6.38-.63-12.75-.88-19.13a11,11,0,0,1,.37-2.31c4.45,0,8.91,0,13.36,0l19.33-.09Z" />
        <path class="color-shadow"
            d="M418,271.26l-.57-1.39a16.26,16.26,0,0,1,1.78-.27q23.37-.06,46.72-.11c2.48,0,4.95-.19,7.42-.27a7.15,7.15,0,0,1,1.67.07c.24,0,.61.41.59.58-.05.33-.29.83-.53.89a13,13,0,0,1-2.84.38c-6.23,0-12.46,0-18.69,0-.95,0-1.91.08-2.86.12Z" />
        <path class="color-shadow"
            d="M419.11,330.26c-.21-.7-.26-1.31.68-1.4.48,0,1,0,1.44,0h49.82c.68,0,1.37.08,2.37.14-.38.57-.53,1-.76,1.1a8.68,8.68,0,0,1-1.91.1l-36.4.09Z" />
        <path class="color-shadow"
            d="M418,301.42c0,8.07,0,16.14,0,24.21,0,.8.37,1.76-1,2.59,0-7.11.05-13.93,0-20.75s-.26-13.52-.23-20.28q.63,6.17,1.28,12.32C418,300.15,418,300.78,418,301.42Z" />
        <path class="outline"
            d="M424.78,327.93l45.34,0c1,0,2.08-.06,3.11-.09a8.28,8.28,0,0,1-2,.49q-22.35,0-44.69,0A8.89,8.89,0,0,1,424.78,327.93Z" />
        <path class="outline"
            d="M474.22,296.15v21.27l-.52.06a20,20,0,0,1-.36-2.66c0-4.7-.06-9.41,0-14.12,0-1.5.22-3,.33-4.52Z" />
        <path class="outline" d="M418,271.26l32.69,0v.25l-19.33.09c-4.45,0-8.91,0-13.36,0Z" />
        <path class="color-shadow" d="M474.33,328.66l1.15.69-.61.78-1-.8Z" />
        <path class="color-shadow" d="M417.32,330.51V329l.45,0,.15,1.5Z" />
        <path class="outline"
            d="M418,301.42c0-.64,0-1.27,0-1.91a2.34,2.34,0,0,1,.38,0c0,.66,0,1.31,0,2A2.43,2.43,0,0,1,418,301.42Z" />
        <path class="outline" d="M473.79,327.65h1.79C474.86,328.54,474.53,328.54,473.79,327.65Z" />
        <path class="color-base"
            d="M333,325.94l-.3-.56.15-4.73c1.07-.39.71-1.32.71-2.06,0-5.11,0-10.22,0-15.33,0-.85.08-1.7.12-2.56,2.91-.25,5.59-.62,8.27-.69,8.2-.23,16.41-.35,24.62-.51l21-.43c0,1.58-.07,3.15-.1,4.72-.08,1.77-.17,3.53-.25,5.29-.27.25-.76.48-.79.75-.24,2.05-.39,4.11-.55,6.16-.19,2.37-.32,4.75-.53,7.12a10.71,10.71,0,0,1-.44,1.61,1.51,1.51,0,0,1-1.57,1.19c-2.29.14-4.59.49-6.88.45-6.44-.11-12.88.05-19.33-.33C349.12,325.57,341,325.94,333,325.94Z" />
        <path class="color-base"
            d="M388.85,272.61c-.09,2.08-.19,4.15-.28,6.22-1.1.58-.94,1.26-.17,2l-.09,2.86c-.32.38-.86.71-.93,1.13-.44,2.72-.79,5.47-1.2,8.41a18.8,18.8,0,0,1-3.29.51c-3-.06-6-.35-9-.42-8.21-.21-16.42-.32-24.63-.52-3.73-.09-7.47-.27-11.2-.5-1.56-.1-3.11-.45-4.67-.68a2.94,2.94,0,0,1-.24-.73c-.18-4.37-.29-8.75-.55-13.11-.11-2-.51-3.92-.78-5.88a.18.18,0,0,1,.3.05c2.62.06,5.24.13,7.86.16.27,0,.54-.27.82-.41h2.41a17.21,17.21,0,0,0,2.73.43c13.23,0,26.46,0,39.69,0A24.35,24.35,0,0,1,388.85,272.61Z" />
        <path class="color-shadow"
            d="M387.59,299.07l-21,.43c-8.21.16-16.42.28-24.62.51-2.68.07-5.36.44-8.27.69,0,.86-.12,1.71-.12,2.56,0,5.11,0,10.22,0,15.33,0,.74.36,1.67-.71,2.06-.07-.95-.2-1.89-.2-2.83,0-7.23,0-14.45,0-21.68l33.78,0h21.22Z" />
        <path class="color-shadow"
            d="M331.78,271.88c.27,2,.67,3.91.78,5.88.26,4.36.37,8.74.55,13.11a2.94,2.94,0,0,0,.24.73c1.56.23,3.11.58,4.67.68,3.73.23,7.47.41,11.2.5,8.21.2,16.42.31,24.63.52,3,.07,6,.36,9,.42a18.8,18.8,0,0,0,3.29-.51c.41-2.94.76-5.69,1.2-8.41.07-.42.61-.75.93-1.13a70.13,70.13,0,0,1-.49,10.87H330.26c0-1.14,0-2.22,0-3.3.13-5.83.25-11.66.42-17.48C330.7,273,330.3,271.85,331.78,271.88Z" />
        <path class="color-shadow"
            d="M333,325.94c8.06,0,16.14-.37,24.17.09,6.45.38,12.89.22,19.33.33,2.29,0,4.59-.31,6.88-.45a1.51,1.51,0,0,0,1.57-1.19,10.71,10.71,0,0,0,.44-1.61c.21-2.37.34-4.75.53-7.12.16-2.05.31-4.11.55-6.16,0-.27.52-.5.79-.75.05,3.86.09,7.71.14,11.57-.13,2.28-.26,4.56-.41,7l-5.92.29c-.4,0-.79-.07-1.19-.07l-46.88,0Z" />
        <path class="color-shadow"
            d="M363.79,269.66h11.55l6,.09,7.9.09c-.15.47-.29.95-.44,1.43l-33.63,0-21.25-.09h-2.79c-.36-1.9-.34-2,1.22-1.94,3.18.07,6.36.22,9.54.31.79,0,1.58-.05,2.38-.08a5.79,5.79,0,0,0,1.16.22Q354.59,269.67,363.79,269.66Z" />
        <path class="color-shadow"
            d="M387.22,329c-.08,1.45-.93,1.37-1.71,1.37-3.59,0-7.19,0-10.79,0-1,0-1.91-.06-2.87-.06l-36.45-.1a8.43,8.43,0,0,1-1.67-.07c-.29-.06-.51-.42-.69-.58.09-.28.09-.37.14-.42a.28.28,0,0,1,.2-.12l52.49-.14A12.92,12.92,0,0,1,387.22,329Z" />
        <path class="color-shadow"
            d="M388.16,303.8c0-1.44,0-2.87.08-4.3s-.15-2.75.8-4.09c.55-.77.29-2.12.73-3.19,0,2.68,0,5.37,0,8.06,0,8.45,0,16.89-.11,25.34,0,.93.37,2.09-1.35,2.74-.07-2.72-.14-5.21-.2-7.7Q388.14,312.23,388.16,303.8Z" />
        <path class="color-shadow"
            d="M332.2,325.44c0,.78-.07,1.56-.11,2.34l-.91,0q0-15.09.08-30.17c0-.6-.18-1.35.79-1.44Z" />
        <path class="outline"
            d="M333,327.88l46.88,0c.4,0,.79,0,1.19.07a13.57,13.57,0,0,1-2.06.33q-22.35,0-44.68,0A4.77,4.77,0,0,1,333,327.88Z" />
        <path class="color-shadow"
            d="M388.85,272.61a24.35,24.35,0,0,0-3.26-.46c-13.23,0-26.46,0-39.69,0a17.21,17.21,0,0,1-2.73-.43l12-.13,33.65.06Z" />
        <path class="outline"
            d="M388.16,303.8q0,8.43-.05,16.86h-.73c-.05-3.86-.09-7.71-.14-11.57.08-1.76.17-3.52.25-5.29Z" />
        <path class="outline"
            d="M388.79,271.61l-33.65-.06c0-.11,0-.22,0-.33l33.63,0C388.78,271.38,388.78,271.49,388.79,271.61Z" />
        <path class="outline"
            d="M332.2,325.44l-.15-29.25.54-.05c0,7.23,0,14.45,0,21.68,0,.94.13,1.88.2,2.83l-.15,4.73Z" />
        <path class="outline"
            d="M363.79,269.66q-9.19,0-18.38,0a5.79,5.79,0,0,1-1.16-.22c2.79-.05,5.58-.12,8.37-.15,3,0,5.91,0,8.87,0A16.64,16.64,0,0,1,363.79,269.66Z" />
        <path class="outline"
            d="M389.22,269.83l-7.9-.09-6-.09c4.53-.06,9.06-.13,13.59-.18C389,269.47,389.12,269.7,389.22,269.83Z" />
        <path class="color-shadow" d="M340.76,271.68c-.28.14-.55.41-.82.41-2.62,0-5.24-.1-7.86-.16Z" />
        <path class="color-shadow"
            d="M388.83,328.56c.35.51.72.82.68,1.06s-.43.68-.66,1c-.28-.27-.78-.54-.78-.83S388.46,329.12,388.83,328.56Z" />
        <path class="outline" d="M389.31,288.64c.1-.87.2-1.74.31-2.61l.42,0v2.59Z" />
        <path class="color-shadow" d="M388.4,280.81c-.77-.72-.93-1.4.17-2C388.51,279.49,388.46,280.15,388.4,280.81Z" />
        <path class="outline" d="M389.86,282.72v-2.41h.21v2.41Z" />
        <path class="color-shadow" d="M332.07,328.88l-.3,1.17h-.37c-.06-.39-.13-.79-.2-1.18Z" />
        <path class="outline"
            d="M332.07,328.88l-.87,0c0-.35,0-.71,0-1.06l.91,0C332.09,328.14,332.08,328.51,332.07,328.88Z" />
    </g>
</svg>
