<svg id="Karmany" xmlns="http://www.w3.org/2000/svg" viewBox="0 0 672 960">
    <g id="img_47_img" data-name="img 47 img">
        <path class="outline"
            d="M474,369.32l-4.18.2c0,2.86-.05,5.56,0,8.26q.43,19.43.9,38.84c.05,2.24.16,4.48.23,6.71.06,2.05-.19,2.33-2.29,2.39-8.31.22-16.62.44-24.94.61-9.43.18-18.86.41-28.29.42-14.56,0-29.09-.79-43.6-1.77-11.57-.78-23.12-1.62-34.68-2.43-2.28-.16-2.35-.21-2.36-2.58-.1-11.91-.16-23.83-.26-35.74,0-5-.12-10.07-.2-15.11,0-.62-.09-1.23-.16-2.05-1.05,0-2,0-2.93,0-1.73-.07-1.95-.25-1.84-2s.35-3.33.58-5q1.61-11.52,3.24-23c.38-2.68.66-2.95,3.34-2.89,16.71.35,33.41.78,50.12,1.08q21.23.38,42.45.52c12.16.07,24.31-.06,36.46-.08,1.1,0,2.21.11,3.62.18.65,3.8,1.3,7.47,1.89,11.15s1.23,7.41,1.68,11.13S474.37,365.41,474,369.32ZM338.61,419c-.28-.12-.62-.38-.85-.31s-.9.39-1,.69c-.19.7.29,1,1,1h.72l1.2,0c6.76.48,13.52,1,20.29,1.44,9.79.66,19.58,1.43,29.39,1.85s19.63.67,29.45.65c12.77,0,25.55-.36,38.32-.56,2.62,0,5.25,0,7.87,0a4.59,4.59,0,0,0,1.3-.42l.38-.84-.21-1.33c0-2,0-4,0-6.06l.74.05c.09,2.66.19,5.32.28,8.11l1.3-.15c0-1.65,0-3.19,0-4.73q-.21-10.55-.44-21.08-.29-12.93-.6-25.87c0-.61-.13-1.23-.2-1.93h-1.78l-.63-.05c-7.19,0-14.37-.05-21.56-.12q-23.25-.19-46.5-.44l-.72,0c-8.7-.4-17.39-.9-26.09-1.18-9.58-.3-19.17-.39-28.76-.58-.48,0-1,0-1.43-.08l-.49.07,0,0-.95.06h-2.33c0,.92,0,1.7,0,2.48.1,4.94.25,9.87.3,14.81.11,9.89.18,19.77.27,29.66,0,.8,0,1.59.1,2.39.09,1.09.79,1.25,1.7,1l4.6.72-3.63.71h-1Zm107.47-79.56c-2.55,0-5.11-.07-7.66-.08-11.67-.07-23.33-.11-35-.22-7.83-.07-15.65-.23-23.48-.36l-10.12-.29-13.94-.13a22.41,22.41,0,0,0-2.56-.33c-4.7-.08-9.39-.11-14.08-.15a15.74,15.74,0,0,0-2.38,0c-1.06.14-1.53.76-1.13,1.86l-.47,1c-1.15,7.62-2.29,15.24-3.47,23.06,2.1.14,3.84.31,5.58.35q16,.36,32.11.68l1.2,0c9.65.42,19.3,1.09,28.95,1.2,19,.24,38.05.17,57.07.24,1.75,0,3.51.17,5.26.18,3.18,0,6.35,0,9.89,0-.59-4.33-1-8.45-1.75-12.5s-.71-8.3-2.16-12.46h-5.4c1.16-.09,2.33-.14,3.49-.3a20.66,20.66,0,0,0,2.16-.54l-.2-1.49c-4.53,0-8.81,0-13.1,0C452,339.31,449,339.41,446.08,339.47Z" />
        <path class="color-shadow"
            d="M340,367.07c.48,0,.95.07,1.43.08,9.59.19,19.18.28,28.76.58,8.7.28,17.39.78,26.09,1.18l.72,0q23.25.22,46.5.44c7.19.07,14.37.08,21.56.12,0,1-.14,2.07-.11,3.11.24,7.57.51,15.13.77,22.7q.35,9.92.68,19.84c0,2,0,4,0,6.05-3.71-.09-7.41-.17-11.12-.28-1.33,0-2.65-.17-4-.26,2-1.55,4.32-1.15,6.59-1,1.72.14,3.43.23,5.24.34a14.79,14.79,0,0,0,.22-1.48c.17-3.9.36-7.8.47-11.7q.28-9.45.48-18.89c.07-3.68,0-7.36,0-11,0-.62-.1-1.23-.17-2-1.35-.23-2.61-.35-3.83-.67-7.15-1.84-14.5-1.85-21.79-2.17a92.29,92.29,0,0,0-14.58.29c-3.05.34-6.19-.31-9.29-.35-11.34-.14-22.68.24-34-.46-1.41-.09-2.85.4-4.27.39-2.06,0-4.12-.42-6.18-.39-6.06.08-12.12.26-18.17.48-1.66.06-3.32.37-5,.55l-7.57.84,0-6.25,0,0Z" />
        <path class="color-shadow"
            d="M462.54,341.6h5.4c1.45,4.16,1.39,8.39,2.16,12.46s1.16,8.17,1.75,12.5c-3.54,0-6.71,0-9.89,0-1.75,0-3.51-.18-5.26-.18-19-.07-38.05,0-57.07-.24-9.65-.11-19.3-.78-28.95-1.2l-1.2,0q-16.07-.33-32.11-.68c-1.74,0-3.48-.21-5.58-.35,1.18-7.82,2.32-15.44,3.47-23.06l2.43.13c-1.12,6.39-2.23,12.79-3.37,19.33l6.51.7c2.36.26,4.73.51,7.09.8,2.76.35,5.5,1,8.26,1.07,8.3.27,16.6-.09,24.9.46,4.27.29,8.59-.37,12.89-.38q24.7-.09,49.41,0c5.26,0,10.52.3,15.78.47.47,0,.94.23,1.41.23,2.76,0,5.53,0,8.47,0-.12-1.48-.2-2.87-.34-4.26a36.9,36.9,0,0,0-.6-4.72c-.86-3.63-1.88-7.23-2.81-10.85a1.82,1.82,0,0,0-2-1.61c-3,.06-6.07.05-9.11,0a13.9,13.9,0,0,1-2.29-.4Z" />
        <path class="color-shadow"
            d="M457.11,423.79c-12.77.2-25.55.55-38.32.56-9.82,0-19.65-.22-29.45-.65s-19.6-1.19-29.39-1.85c-6.77-.45-13.53-1-20.29-1.44,0-.46-.07-.92-.1-1.38h0l9.23.17c2.83.26,5.66.65,8.49.76,6,.25,11.93.29,17.89.55,4,.18,7.9.82,11.85.87,9.65.13,19.31.05,29,0a7.55,7.55,0,0,0,1.78-.42c1.44,0,2.87-.07,4.3,0,9.72.28,19.44.6,29.16.85,4.22.12,8.45.09,12.68.2a15.72,15.72,0,0,1,2.75.54l-.38.84Z" />
        <path class="outline"
            d="M466.66,422.54a15.72,15.72,0,0,0-2.75-.54c-4.23-.11-8.46-.08-12.68-.2-9.72-.25-19.44-.57-29.16-.85-1.43,0-2.86,0-4.3,0-1.83-.12-3.66-.3-5.49-.35-6.39-.2-12.78-.36-19.16-.52q-11.62-.28-23.24-.54c-7-.15-14.05-.26-21.08-.38l-9.23-.17,3.63-.71-4.6-.72q0-25.18,0-50.37l.95-.06,0,6.25c0,10.71-.07,21.42.08,32.12.06,4,.68,7.91,1.06,12.11,2.95.14,5.64.31,8.33.39q22.51.63,45,1.22l30.42.78,6.76.27,2.63.08,17.49.28c1.33.09,2.65.22,4,.26,3.71.11,7.41.19,11.12.28Z" />
        <path class="outline"
            d="M337.69,340.93l-2.43-.13.47-1c1.11,0,2.22,0,3.33,0l16.85,0c5.59.12,11.18.32,16.77.37,13.75.11,27.5.15,41.24.21a3.09,3.09,0,0,0,.9.27q9.89,0,19.78,0l11.49.06c5.47.06,10.94.14,16.4.17,1.9,0,3.8-.07,5.7-.11a20.66,20.66,0,0,1-2.16.54c-1.16.16-2.33.21-3.49.3l-10.66.18-18.23-.14-51.81-.42a18.66,18.66,0,0,0-2.34-.28q-18.17-.12-36.35-.19c-1,0-2.07.08-3.1.12Z" />
        <path class="color-base"
            d="M413.92,340.34c-13.74-.06-27.49-.1-41.24-.21-5.59-.05-11.18-.25-16.77-.37l0-1.37,13.94.13a2.54,2.54,0,0,0,.86.33c3.09,0,6.17,0,9.26,0,7.83.13,15.65.29,23.48.36,11.67.11,23.33.15,35,.22,2.55,0,5.11.05,7.67.08v1.23l-11.49-.06a4.41,4.41,0,0,0-1.12-.32C427,340.31,420.44,340.33,413.92,340.34Z" />
        <path class="color-shadow"
            d="M338.56,367.22q0,25.18,0,50.37c-.91.22-1.61.06-1.7-1-.06-.8-.1-1.59-.1-2.39-.09-9.89-.16-19.77-.27-29.66,0-4.94-.2-9.87-.3-14.81,0-.78,0-1.56,0-2.48Z" />
        <path class="color-shadow"
            d="M465.73,369.55h1.78c.07.7.18,1.32.2,1.93q.32,12.93.6,25.87.24,10.53.44,21.08c0,1.54,0,3.08,0,4.73l-1.3.15c-.09-2.79-.19-5.45-.28-8.11,0-2.31,0-4.62,0-6.93-.27-7.89-.58-15.77-.87-23.66Z" />
        <path class="outline"
            d="M465.73,369.55l.54,15.06c.29,7.89.6,15.77.87,23.66.07,2.31,0,4.62,0,6.93l-.74-.05q-.35-9.91-.68-19.84c-.26-7.57-.53-15.13-.77-22.7,0-1,.07-2.07.11-3.11Z" />
        <path class="color-shadow"
            d="M355.88,338.39l0,1.37-16.85,0c-1.11,0-2.22,0-3.33,0-.4-1.1.07-1.72,1.13-1.86a15.74,15.74,0,0,1,2.38,0c4.69,0,9.38.07,14.08.15A22.41,22.41,0,0,1,355.88,338.39Z" />
        <path class="color-shadow"
            d="M446.09,340.7v-1.23c2.93-.06,5.87-.16,8.8-.19,4.29,0,8.57,0,13.1,0l.2,1.49c-1.9,0-3.8.12-5.7.11C457,340.84,451.56,340.76,446.09,340.7Z" />
        <path class="color-shadow" d="M379.94,338.81c-3.09,0-6.17.05-9.26,0a2.54,2.54,0,0,1-.86-.33Z" />
        <path class="outline"
            d="M457.11,423.79l9.17-.41a4.59,4.59,0,0,1-1.3.42C462.36,423.83,459.73,423.8,457.11,423.79Z" />
        <path class="color-shadow" d="M338.46,420.38h-.72c-.68,0-1.16-.27-1-1,.09-.3.61-.58,1-.69s.57.19.85.31Z" />
        <path class="outline" d="M338.46,420.38l.15-1.35h.95c0,.46.06.92.1,1.38Z" />
        <path class="outline" d="M340,367.07l-.49.07Z" />
        <path class="color-base"
            d="M451.35,420.66l-17.49-.28-2.63-.08-6.76-.27-30.42-.78q-22.51-.6-45-1.22c-2.69-.08-5.38-.25-8.33-.39-.38-4.2-1-8.15-1.06-12.11-.15-10.7-.07-21.41-.08-32.12l7.57-.84c1.65-.18,3.31-.49,5-.55,6.05-.22,12.11-.4,18.17-.48,2.06,0,4.12.36,6.18.39,1.42,0,2.86-.48,4.27-.39,11.33.7,22.67.32,34,.46,3.1,0,6.24.69,9.29.35a92.29,92.29,0,0,1,14.58-.29c7.29.32,14.64.33,21.79,2.17,1.22.32,2.48.44,3.83.67.07.8.17,1.41.17,2,0,3.68.05,7.36,0,11q-.18,9.45-.48,18.89c-.11,3.9-.3,7.8-.47,11.7a14.79,14.79,0,0,1-.22,1.48c-1.81-.11-3.52-.2-5.24-.34C455.67,419.51,453.37,419.11,451.35,420.66Z" />
        <path class="color-base"
            d="M381.84,341.22l51.81.42,18.23.14a13.9,13.9,0,0,0,2.29.4c3,.05,6.07.06,9.11,0a1.82,1.82,0,0,1,2,1.61c.93,3.62,1.95,7.22,2.81,10.85a36.9,36.9,0,0,1,.6,4.72c.14,1.39.22,2.78.34,4.26-2.94,0-5.71,0-8.47,0-.47,0-.94-.21-1.41-.23-5.26-.17-10.52-.45-15.78-.47q-24.7-.09-49.41,0c-4.3,0-8.62.67-12.89.38-8.3-.55-16.6-.19-24.9-.46-2.76-.08-5.5-.72-8.26-1.07-2.36-.29-4.73-.54-7.09-.8l-6.51-.7c1.14-6.54,2.25-12.94,3.37-19.33l2.36-.06a18.34,18.34,0,0,0,2.53.36q15.45.06,30.89.06C376.26,341.29,379.05,341.25,381.84,341.22Z" />
        <path class="color-base"
            d="M348.8,419.19c7,.12,14.06.23,21.08.38q11.63.24,23.24.54c6.38.16,12.77.32,19.16.52,1.83.05,3.66.23,5.49.35a7.55,7.55,0,0,1-1.78.42c-9.65,0-19.31.1-29,0-3.95-.05-7.89-.69-11.85-.87-6-.26-11.93-.3-17.89-.55C354.46,419.84,351.63,419.45,348.8,419.19Z" />
        <path class="color-shadow" d="M424.47,420l6.76.27Z" />
        <path class="color-shadow"
            d="M381.84,341.22c-2.79,0-5.58.07-8.37.07q-15.45,0-30.89-.06a18.34,18.34,0,0,1-2.53-.36c1,0,2.06-.12,3.1-.12q18.18.08,36.35.19A18.66,18.66,0,0,1,381.84,341.22Z" />
        <path class="color-shadow"
            d="M413.92,340.34c6.52,0,13,0,19.56,0a4.41,4.41,0,0,1,1.12.32q-9.9,0-19.78,0A3.09,3.09,0,0,1,413.92,340.34Z" />
    </g>
</svg>
