<svg id="legs_img" data-name="legs img" xmlns="http://www.w3.org/2000/svg" viewBox="0 0 672 960">
    <defs>
        <style>
            .cls-1 {
                fill: #080808;
            }

            .cls-2 {
                fill: #cdcecd;
            }

            .cls-3 {
                fill: #5c5c5c;
            }

            .cls-4 {
                fill: #4a4a4a;
            }

            .cls-5 {
                fill: #878787;
            }

            .cls-6 {
                fill: #fefefe;
            }
        </style>
    </defs>

    <path class="cls-1"
        d="M315.08,900.7a7.69,7.69,0,0,0,1.69-4.31c.38-2.43.79-4.87,1.33-7.27.67-3.06,2.92-5.1,5.1-7.09,3.47-3.18,7.08-6.21,10.63-9.31l.19,1.65c-1,.24-1.88.58-1.73,1.84-.08,0-.18,0-.23,0-3.46,3.19-7,6.29-10.31,9.65-1,1.06-1.48,2.77-2,4.25-.41,1.11-.49,2.34-.84,3.48a1.34,1.34,0,0,0,.42,1.45c1.57,1.85,3.81,1.76,5.89,2.16a34.64,34.64,0,0,1,6.8,1.54,24.2,24.2,0,0,0,13.66,1.91,39.42,39.42,0,0,0,19.59-9.1c1.85-1.59,3.66-3.23,5.46-4.87,5.43-4.93,12-8,18.35-11.49,2.81-1.55,5.67-3,7.56-5.72a3.77,3.77,0,0,0,.59-1.52c.22-1.49.23-3,.52-4.51,1.08-5.52-.36-10.52-3.05-15.28a11.8,11.8,0,0,0-.73-1c-1,3.05-2.57,4.21-5.62,4.22a4.46,4.46,0,0,0-1.32,0,1.54,1.54,0,0,0-.93.73c-.9,2.43-3,3.7-4.88,5.17a3.38,3.38,0,0,1,.41-1,39.87,39.87,0,0,0,2-4.19,4.65,4.65,0,0,0-1.5-4.87c-.3-.22-.95-.41-1.14-.25-1.51,1.21-2.95,2.51-4.41,3.78l-2.21-1,6.68-5.65c-.05-.13-.15-.44-.28-.73a5.21,5.21,0,0,0-.43-.85,23.3,23.3,0,0,0-11-8.21,4.9,4.9,0,0,0-3.24.21c-2.16.9-4.19,2.11-6.29,3.15a2.31,2.31,0,0,0-1.38,2.31,14.84,14.84,0,0,1-1,6.19l-.72.31-.72-.11.22-2.28a5,5,0,0,0-2.94,2.67c-.59.39-1.53.56-1.26,1.57.22.82-.12,1.06-.82,1.17a9,9,0,0,0-1,.27c1.24-2.43,2.14-5.09,4.77-6.53.44-.24.7-.83,1-1.29a1.85,1.85,0,0,0,.23-.8c.26-3.18,2.27-5.15,4.84-6.51a3.85,3.85,0,0,0,2.17-3.92c0-2.09-.07-4.13-1.54-5.87a2.17,2.17,0,0,1,.19-3c.22-.27.38-.92.23-1.12-1.3-1.6-.91-3.31-.17-4.87a2.9,2.9,0,0,0-.54-3.39,4.35,4.35,0,0,1-1-4.08c1.09-4.81-.2-9.44-1.25-14q-3.9-17-7.93-34c-2-8.4-4.12-16.76-6-25.18a80.53,80.53,0,0,1-1.9-15.56c-.12-4.79-.51-9.58-.5-14.36,0-5.79.38-11.57.47-17.36,0-2.39-.27-4.78-.36-7.17,0-1,.19-2,.16-3a5.85,5.85,0,0,0-.42-2.25c-.81-1.74-.54-3.21,1.09-4.28a1.3,1.3,0,0,0,.63-1.46c-.33-3.9-.69-7.8-.82-11.71-.19-5.35-.2-10.71-.24-16.06,0-2.71.07-5.42.05-8.12a1.58,1.58,0,0,0-.57-1c-1.92-1.62-1.81-1.84-1.29-4.31a10.48,10.48,0,0,0-.27-4.58c-1.31-5.27-2.88-10.48-4.19-15.75-2.48-9.88-5.11-19.73-7.17-29.7-1.66-8.08-2.65-16.31-3.82-24.49-.74-5.22-1.39-10.45-1.85-15.7a216.31,216.31,0,0,1-.71-27.3c.12-3,.11-6.08.24-9.11.28-6.42.56-12.84.92-19.25.26-4.58.65-9.15,1-13.73.11-1.63.21-3.27.18-4.9a72.3,72.3,0,0,1,1.13-14.3c.79-4.38,1-8.86,1.81-13.25,1.28-7.23,2.79-14.41,4.21-21.61.09-.44.25-.85.32-1.28a3.39,3.39,0,0,1,3.23-3.11c.47-.06,1-.59,1.42.26.1.2,1.1,0,1.68-.09,4.47-.43,8.93-.93,13.41-1.28,3.25-.25,6.52-.29,9.78-.44l15.15-.75c1.55-.08,3.1-.17,4.65-.2,6.35-.13,12.7-.23,19-.37,3.95-.09,7.89-.18,11.83-.41,3.45-.21,6.88-.63,10.33-.91,2.69-.23,5.39-.54,8.09-.56,5,0,10.07.08,15.1.13,1.89,0,3.78,0,5.67,0a2,2,0,0,1,1,.35c2.22,1.56,3.34,3.89,4.44,6.27,3.57,7.68,7.15,15.35,10.82,23,3.18,6.62,6.57,13.14,9.72,19.77a46.77,46.77,0,0,1,4.24,14.29,18.45,18.45,0,0,0,1,3.69c2.93,8.51,4.75,17.31,6.51,26.11,1.28,6.41,2.62,12.81,3.69,19.25.92,5.53,1.45,11.12,2.23,16.68.89,6.33,1.93,12.64,2.78,19q1.15,8.57,2,17.16c.49,4.91.85,9.83,1.16,14.75.32,5.2.55,10.42.77,15.63.08,2.1,0,4.21,0,6.32.1,4.26.25,8.53.39,12.79.05,1.59.11,3.19.22,4.77a4.6,4.6,0,0,0,.42,2.09,6.24,6.24,0,0,1,.86,4.25c-.25,2.26.49,4.3,1,6.43,1,4.14,1.73,8.34,2.47,12.52.39,2.15.56,4.34.82,6.52a3,3,0,0,1,.12,1,3.24,3.24,0,0,0,1.3,3.57c1.06.9,1.84,1.92,1.19,3.44-.07.16-.07.48,0,.56,1,.79.65,1.9.84,2.92.55,2.93,1.29,5.83,2.07,8.71,1.06,3.95,2.51,7.83,3.27,11.84,1,5.42,1.52,10.94,2.27,16.41.31,2.33.72,4.64,1,7,.25,2.12.4,4.27.55,6.41q.49,7.08.95,14.17c.2,3,.42,6,.55,8.94.18,4,.48,8,.38,11.93-.14,5.93-.54,11.86-.92,17.78-.24,4-.6,7.94-1,11.9-.15,1.58-.51,3.14-.68,4.73a2.45,2.45,0,0,0,.33,1.61c1,1.35,1.47,2.63.52,4.26-1.67,2.88-1,6-.47,9,.22,1.3.41,2.6.68,3.88.32,1.55-.53,2.82-.88,4.21a6.73,6.73,0,0,0,0,1.49c0,.51.15,1.14-.09,1.5a2.61,2.61,0,0,0,0,2.57A40.32,40.32,0,0,1,523,828.45c.06,1.44.06,2.88,0,4.32a2.59,2.59,0,0,0,.94,2.28c1.43,1.29,1.22,3.08,1.23,4.81a48.82,48.82,0,0,0,.35,6.29,3.56,3.56,0,0,0,1.38,2c2.52,2,3.07,3.78,2.13,6.89a4.79,4.79,0,0,0,0,2.29c.55,2.47,1.09,5,1.88,7.37a33.15,33.15,0,0,0,4.71,9.42c2.51,3.44,4.58,7.11,5.24,11.42a30.28,30.28,0,0,1,.39,8.66,2,2,0,0,0,.32,1.33c3.93,5.63,2.39,12.49-.85,17.14-3,4.31-7.41,6.52-12.23,7.92a81.68,81.68,0,0,1-17.91,3.27c-9,.54-17.49-1.16-25.24-6-4-2.48-5.5-6-5-10.56.42-3.88.8-7.82-.78-11.56-1.27-3-.37-5.89.5-8.73a47.77,47.77,0,0,1,2.44-6.49c1.78-3.72,2.06-7.66,2.12-11.67,0-1.67.24-3.35.13-5a10.6,10.6,0,0,0-.89-3.54c-1.88-4.27-.69-11.25,2.49-14.7a2.23,2.23,0,0,0,.28-1.95c-1.45-3.38.11-6,2.09-8.44a6.17,6.17,0,0,0,1.51-3.28,72.72,72.72,0,0,1,1.67-7.83c.94-3.71,2-7.38,3-11.07a1.9,1.9,0,0,0-.07-1,13.06,13.06,0,0,0-1-2.19c-1.25-2.11-.88-3.16,1-4.92a1,1,0,0,0,.34-1.39,5.68,5.68,0,0,1,.39-5.5c.87-1.41.56-3,.18-4.43a19.56,19.56,0,0,0-1.62-4.32,4.32,4.32,0,0,1,.11-4.35,9.26,9.26,0,0,0,.49-7c-1.44-5.6-3-11.19-4.66-16.72-2.3-7.57-4.68-15.12-7.21-22.61a45.35,45.35,0,0,0-3.36-6.86,33,33,0,0,1-3.67-10.34,10,10,0,0,1-.14-1.55c0-4,.17-8.09,0-12.11-.23-4.58-.81-9.14-1.2-13.71-.09-1.06,0-2.14,0-3.21a2.16,2.16,0,0,0-.3-1.27,6.63,6.63,0,0,1-1.81-4,8.49,8.49,0,0,0-1-3.29c-2.64-4.62-3.62-9.72-4.28-14.86-.53-4.15-.68-8.34-1.77-12.43-.31-1.18-.27-2.41-1.06-3.48a1.76,1.76,0,0,1-.12-1.58c.63-1.16.2-2.13-.19-3.2-2.87-7.71-5.77-15.41-8.51-23.16a71,71,0,0,1-1.9-7.67,58.55,58.55,0,0,0-4.47-11.6c-3-6.32-5.84-12.72-8.23-19.27-3-8.24-6.65-16.17-10.36-24.1a204.18,204.18,0,0,0-9.7-18,102.26,102.26,0,0,1-5.46-11.06A63.32,63.32,0,0,0,408.37,520a5.89,5.89,0,0,1-.33-.6c-.72,2.24-1.27,4.23-2,6.16-3.44,9.35-5.06,19.16-7.24,28.82-1.11,4.93-2.22,9.86-3.13,14.82-.72,3.9-1.23,7.85-1.65,11.8-.56,5.41-1,10.84-1.38,16.27-.23,3.06-.32,6.14-.36,9.21q-.15,11.8-.19,23.62c0,2.15.2,4.31.13,6.46a5,5,0,0,1-.91,2.33c-.57.87-1,1.61-.54,2.73a8.27,8.27,0,0,1,0,5.92c-1.13,3.81-1.86,7.75-2.79,11.63a8.78,8.78,0,0,1-.82,2.49,3.35,3.35,0,0,0-.12,3.31,16.6,16.6,0,0,1,1.14,8.77c-.2,1.82.52,3.75.87,5.63,1,5.24,2.09,10.45,2.92,15.71.7,4.44,1.15,8.92,1.56,13.39s.75,9,.94,13.57c.18,4.26-1,8.36-1.68,12.53-.93,5.82-1.67,11.67-2.29,17.53-.58,5.51-1,11-1.29,16.56-.25,5.31-.31,10.63-.22,15.94.07,4.57.44,9.15.72,13.72a3.63,3.63,0,0,0,1.14,3c.38.3.33,1.32.24,2-.18,1.23,0,1.59,1.28,1.66,1.44.07,1.75.58,1.3,1.89a27.53,27.53,0,0,0-1.25,4.19,5.64,5.64,0,0,0,.39,2.67c.69,1.94.27,3.85,0,5.77a33,33,0,0,0,.32,9.26,75.89,75.89,0,0,1,.8,7.95,32.61,32.61,0,0,1-.73,4.93c-.05.37,0,.95.23,1.12,3.78,2.82,4.87,7,5.55,11.29.49,3.12.5,6.32.74,9.71,1.9.49,1.84,2.57,2.1,4.23a107.6,107.6,0,0,1,1.21,10.89c.2,3.32-1.08,5.12-4.21,6.34-3.45,1.36-6.94,2.59-10.43,3.84s-6.68,2.36-10,3.54l-.21.09c-2,1-3.67,2-4.31,4.51-.82,3.17-2.92,5.75-5.09,8.17a16.94,16.94,0,0,1-10.3,5.18,124,124,0,0,1-13,1.38,122.08,122.08,0,0,1-12.69,0,43.38,43.38,0,0,1-14.49-3.27,4.68,4.68,0,0,1-2.87-4.23,5.13,5.13,0,0,0-.31-1Zm209.14-53.81-.31-1.89c-.1-1.91-.27-3.82-.27-5.74a2.73,2.73,0,0,0-1.31-2.4,30.43,30.43,0,0,0-4.41-2.64,29.37,29.37,0,0,0-17.38-2.57c-3.49.62-7,1.39-9.53,4.28-1.95,2.21-3.07,4.59-2.2,7.54,1,3.51,2.05,7,3.31,10.48s2.72,6.53,4.1,9.8l-.9,1.69a1.7,1.7,0,0,0-.08-.45c-1.81-3.87-3.65-7.73-5.43-11.62-.94-2-1.78-4.16-2.67-6.27-.13.08-.26.12-.31.2a18.94,18.94,0,0,0-2.72,7.61,8.13,8.13,0,0,0,.62,3.69,12.4,12.4,0,0,1,1.09,5.76c-.26,3.17-.09,6.37,0,9.56,0,1,.29,2,.31,3a69.2,69.2,0,0,1,0,7.89c-.31,3.31.05,6.32,2.06,9.07a19.8,19.8,0,0,0,14.4,8.28c1.91.21,3.94.77,5.9-.15a18.9,18.9,0,0,1,9.32-1.69,15.68,15.68,0,0,1,7.48,2.21,5.54,5.54,0,0,0,3.14.67c4.16-.32,7.34-2.69,10.35-5.32a1.6,1.6,0,0,0,.54-.89,37.36,37.36,0,0,0,.46-4.71c0-1.79-.22-3.58-.39-5.36-.59-6-3.79-10.82-7.18-15.78l-.32,1.31c-.58,2.32-1,4.68-2.4,6.73-1.95,2.92-5,4.17-8.13,5.17a10.81,10.81,0,0,1-5.52.34,18.58,18.58,0,0,1-8.28-3.9c-2-1.73-3.76-3.65-5.64-5.49a1.48,1.48,0,0,1,0-.21l.09-.32.59-.79a18.77,18.77,0,0,0,1.74,2.37c4.35,4.49,9.23,7.72,15.92,6.42a8.72,8.72,0,0,0,6.82-5.37h1.46l-.51,1.55c2.14-2.66,3.19-5.6,2.43-9-.89-4-1.68-8-2.71-12a7.49,7.49,0,0,1-.29-4.06,4.24,4.24,0,0,0-1.9-4.16c-.3-.36-.59-.73-.88-1.09C524.46,848.05,524.34,847.47,524.22,846.89ZM379.88,881.51c-1.11.68-2.27,1.31-3.35,2-5.28,3.59-9.73,8.14-14.38,12.46a53.53,53.53,0,0,1-9.94,7.66,14.11,14.11,0,0,1-15-.06c-1.48-.86-2.87-1.88-4.33-2.79-2.59-1.62-5.37-2.88-8.46-2a65.18,65.18,0,0,0-6.83,2.84.76.76,0,0,0-.32.34c-.64,1.3.08,4.05,1.32,4.79a22.11,22.11,0,0,0,2.88,1.44,40.76,40.76,0,0,0,14.11,2.56c3.11.09,6.22-.08,9.34-.14a53.85,53.85,0,0,0,12.24-1.54,19.88,19.88,0,0,0,14.24-12.23,60.4,60.4,0,0,1,8.24-14.68,2,2,0,0,0,.2-.76l.19,0,0-.16Zm120.24-73.46a17.55,17.55,0,0,0-2.37-1.37,1.82,1.82,0,0,0-1.42.25c-.43.29-.91.64-.47,1.46a22.24,22.24,0,0,1,1.5,3.88,2.32,2.32,0,0,1-.12,1.37c-.68,1.86-1.58,3.65-2.09,5.56-.79,2.91-1.33,5.89-1.95,8.85-.26,1.22-.47,2.44-.67,3.54,2.6-.7,5.11-1.45,7.65-2a20.85,20.85,0,0,1,8.51-.17l6.32,1.19,2.9.86,2.58,1.16a27.61,27.61,0,0,0,.22-3.73A46.8,46.8,0,0,0,518.08,816a1.48,1.48,0,0,0-1-.75c-1.08-.24-2.19-.35-3.29-.52l-.9-.91a18.88,18.88,0,0,0,2.26,0,10.54,10.54,0,0,0,2.87-.67c.3-.13.21-1,.38-1.57.4-1.23.2-1.46-1.12-1.34-1.88.18-3.78.32-5.67.48l-1.36-.12,0-.27,1-.52c2.14-.39,4.31-.67,6.42-1.19s2.47-1.25,2-3.39c-.09-.39-.23-.76-.31-1.15-.48-2.63-1.45-5.22-.61-7.94.3-1,.81-1.9,1.11-2.89a1.75,1.75,0,0,0-.08-1.38c-.25-.27-.9-.28-1.37-.25-1.1.06-2.2.21-3.3.33l-1.63-.31,0-.24,2.54-.63c1-.2,2.2-.44,2.38-1.65.71-4.64,1.39-9.28,1.93-13.93.39-3.25.58-6.52.79-9.78.26-4.13.4-8.26.66-12.39.41-6.37-.9-12.63-1.22-18.95-.25-4.88-.6-9.77-.94-14.65-.21-2.86-.4-5.72-.78-8.56-.79-6-1.61-12-2.58-18-.54-3.33-1.31-6.63-2.15-9.9-1.18-4.66-2.51-9.29-3.8-13.92-.2-.72-.51-1.41-.79-2.18-1.5.89-2.52,2.21-4.29,1.77a7.46,7.46,0,0,0,3-3.86A1.48,1.48,0,0,0,508,663a5.1,5.1,0,0,1-1.08-2.35c-.49-3.67-.87-7.35-1.24-11a56.24,56.24,0,0,0-3.38-14.22,1.66,1.66,0,0,1-.36.45c-.41.25-.85.46-1.28.69a3.88,3.88,0,0,1,0-1.4c.43-1.12,1.1-2.14,1.48-3.27a2.9,2.9,0,0,0,0-2.09,10.89,10.89,0,0,1-1.28-5.52c0-3.2.1-6.41,0-9.6s-.5-6.66.19-10A6.21,6.21,0,0,0,501,603c-.09-.79-.26-1.57-.29-2.36-.19-4.93-.28-9.87-.55-14.79-.19-3.49-.62-7-.92-10.45-.21-2.38-.29-4.77-.57-7.14-.47-3.87-1.06-7.72-1.58-11.58-.75-5.56-1.43-11.12-2.25-16.67-.89-5.93-1.81-11.87-2.89-17.78-1.33-7.2-2.81-14.36-4.27-21.54-1-4.9-2-9.8-3.13-14.68-.86-3.76-1.94-7.47-2.83-11.23a115.9,115.9,0,0,0-5.15-17.53c-2.19-5.31-4.31-10.64-6.63-15.89-1.87-4.23-4-8.35-6-12.52a19.69,19.69,0,0,0-.75-1.84q-3.63-7-7.29-13.88c-.54-1-1.1-2-1.66-3-.37-.69-.72-.59-1,.11-.17-.25-.4-.45-.41-.65-.07-1.61-1.18-1.67-2.36-1.65s-2.61.06-3.92.06c-3.5,0-7-.05-10.51,0-2.27,0-4.54,0-6.79.15-3.48.27-6.95.78-10.43,1.07-3.14.26-6.29.36-9.44.53-5.45.29-10.9.65-16.36.85-4,.14-7.92,0-11.87.11-5.58.21-11.15.62-16.73.9-2.75.15-5.51.08-8.25.32-4.53.39-9,.92-13.56,1.43-1.58.17-3.15.4-4.72.68a1.56,1.56,0,0,0-1,.73c-.8,1.64-1.52,3.33-2.26,5a.38.38,0,0,0-.44.19c-.76,2.59-1.5,5.18-2.25,7.76-.47,2.13-.89,4.27-1.44,6.37a63.65,63.65,0,0,0-2,16.19c0,1.89-.08,3.79-.25,5.67-.42,4.63-1,9.24-1.34,13.87-.31,4.14-.41,8.29-.52,12.43-.21,7.87-.42,15.75-.52,23.62-.08,6.72,0,13.44,0,20.16,0,1.35,0,2.7.08,4,.18,2.56.44,5.12.65,7.67.13,1.61.16,3.24.35,4.84.22,1.87.61,3.73.84,5.6.47,3.75.84,7.51,1.33,11.25.39,3,.82,6,1.35,9,1,5.9,2.05,11.82,3.29,17.69,1,4.66,2.31,9.26,3.49,13.88s2.42,9.49,3.68,14.22c.82,3.12,1.82,6.19,2.56,9.33.49,2.1,1.08,4.26.06,6.44-.28.6.78,1.52,1.5,1.37a19.21,19.21,0,0,1,2.67-.56c1.5-.09,3,0,4.52,0l.12.35a2.77,2.77,0,0,1-.76.5c-1.7.46-3.4.85-5.09,1.32-.34.09-.81.37-.87.63a19.75,19.75,0,0,0-.49,3.66c0,1.85.22,3.7.26,5.55.08,4.43,0,8.87.21,13.29.24,4.78.75,9.56,1.15,14.34a2.43,2.43,0,0,1-1.47,2.83,1.3,1.3,0,0,0-.51,1.19c.69,1.51.35,3,.24,4.54-.08,1-.18,2.07-.16,3.09.1,4.34.32,8.68.34,13,0,3.39-.27,6.77-.35,10.15a106.37,106.37,0,0,0,.72,16c.59,4.65.89,9.35,1.79,13.94,1.37,6.9,3.13,13.73,4.79,20.57,1.43,5.84,3,11.64,4.43,17.48,1.53,6.43,2.69,13,4.43,19.32,1.28,4.66,1.22,9.39,1.66,14.1a25.56,25.56,0,0,0,.49,3.51c.2.86.8,1.63.94,2.49a3.53,3.53,0,0,0,1.23,2.22,15.77,15.77,0,0,1,1.37,1.34,5.14,5.14,0,0,1,.52,1.05l-.27.4-3.59-1c-1,1.26-.91,1.88.18,3.11.44.5.73,1.14,1.14,1.67a2.82,2.82,0,0,0,1,.92c1.1.4,2.24.67,3.56,1-1.67,1.27-3.5.81-5,1v7.76a2,2,0,0,0,.3.11,2.52,2.52,0,0,0,.46-.1,8.53,8.53,0,0,1,6.65.11,22.9,22.9,0,0,1,9.45,6.75c1.7,2,3,4.34,1.38,7a8.31,8.31,0,0,1,1.63,2.09c.56,1.58,1.74,1.79,3.1,1.83a13.59,13.59,0,0,0,1.54-.15,2.69,2.69,0,0,0,2.32-3.48,11.62,11.62,0,0,1-.24-7.68c.57-2.1.34-4.43.34-6.66s-.17-4.38-.23-6.58a25,25,0,0,1,.72-8.53,4.16,4.16,0,0,0-1.55-4.56c-.85.63-1.69,1.29-2.57,1.91s-1.75,1.17-2.63,1.75l-.24-.31c3.08-2.11,4.77-5.24,6.45-8L388,805l-1.78.6a1.2,1.2,0,0,1,.36-1,3.93,3.93,0,0,0,1.19-4.33,18.06,18.06,0,0,1-.43-3.3c-.1-1.39-.08-2.79-.2-4.18-.22-2.66-.67-5.3-.73-8-.12-4.92-.05-9.84,0-14.76,0-1.31.14-2.63.25-3.94.3-3.57.63-7.13.92-10.7.27-3.29.31-6.62.8-9.88.82-5.42,1.9-10.81,2.92-16.2a35.59,35.59,0,0,0,.88-10.19c-.4-4.24-.63-8.49-1-12.73-.29-3.41-.51-6.84-1.07-10.21-.87-5.29-2.05-10.54-3-15.82-.57-3.16-1.55-6.25-1.49-9.54a16.11,16.11,0,0,0-.75-4.07c-.86-3.5-1.78-7-2.67-10.49l.4-.12,1.83,5.2c1.38-.79,1.61-2,1.9-3.23,1-4.25,2.08-8.5,3-12.78a4.1,4.1,0,0,0-.45-2.82c-1.33-2-2.93-3.84-4.39-5.77-.16-.21-.12-.57-.18-.86.32,0,.73-.07.95.1,1.14.85,2.22,1.77,3.59,2.88a28,28,0,0,0,.83-3.13,15.44,15.44,0,0,0-.14-2.13q.09-9.23.22-18.46c0-1.39.14-2.78.21-4.17.25-5,.47-10,.75-15,.14-2.53.26-5.07.57-7.58.43-3.55,1-7.07,1.57-10.6s1.06-7.29,1.75-10.9,1.6-7.23,2.4-10.84c1.65-7.41,3.27-14.84,5-22.24.55-2.36,1.4-4.66,1.93-7,.74-3.25,1.26-6.56,2-9.82a2.74,2.74,0,0,1,1.2-1.61,1.52,1.52,0,0,1,2,.66c.43.57.84,1.16,1.23,1.76s.67,1.14,1,1.69a92.3,92.3,0,0,1,5,8.11c1.67,3.43,2.74,7.15,4.33,10.62a87.76,87.76,0,0,0,4.37,7.95c1.17,2,2.69,3.8,3.7,5.86,2.09,4.26,4,8.61,5.88,13,2.11,4.82,4.15,9.67,6.18,14.52,1.56,3.75,3,7.55,4.6,11.28,1.47,3.41,3.08,6.74,4.63,10.11,1.37,3,2.92,5.86,4,8.92a55.41,55.41,0,0,1,1.63,7.07c.47,2.06.86,4.14,1.44,6.16.65,2.21,1.4,4.4,2.23,6.56,2,5.24,4.11,10.46,6.13,15.7.51,1.31,1.26,2.74,1.14,4s.35,1.72,1.45,2a28.5,28.5,0,0,1,2.93,1.06,6.71,6.71,0,0,1,.95.66c-1.53.89-2.82-.05-4.31,0,.09,1.06.13,2.08.29,3.08.62,4,1.12,8.06,2,12a46.38,46.38,0,0,0,4.28,12.52,10.56,10.56,0,0,1,.95,3.5c.32,2.13.68,4.1,2.78,5.38a11.89,11.89,0,0,1,2.45,2.59,2.83,2.83,0,0,1,.3,1l-.29.23-4.32-2.31a16.62,16.62,0,0,0,.17,2.22c.54,2.61,1.25,5.19,1.68,7.82a66,66,0,0,1,.79,7.81c.15,4-.21,8.12.26,12.12a39,39,0,0,0,2.56,8.93c1.54,4.19,3.48,8.23,5,12.43,1.78,4.9,3.32,9.89,4.92,14.86,1.09,3.37,2.09,6.78,3.16,10.16,1.45,4.56,2.88,9.13,2.84,14a4.83,4.83,0,0,0,1.33,3.35c.69.79,1.36,1.6,2.19,2.57-1.94.24-2.77-1.32-4.38-2-.08.93-.48,2-.14,2.46,1.37,2.07,1.61,4.41,1.93,6.72a8.21,8.21,0,0,1-.84,5.11,4,4,0,0,0-.16,2.59c.48,2,2.28,3.06,3.71,4.35l1.45.89-.08.45Zm-15.57,85.06c0-.06-.05.07-.11.21a40.23,40.23,0,0,0-2.83,14.06,14.73,14.73,0,0,0,.82,5c1.27,3.26,4.19,5,7.1,6.47a41.29,41.29,0,0,0,16.94,3.89,51.31,51.31,0,0,0,6.3-.37c6.12-.48,12.15-1.49,17.78-4a31.15,31.15,0,0,0,6.89-4c3.32-2.72,4.72-6.54,4.72-10.82a7.9,7.9,0,0,0-1.61-5.09c-.42,1-.81,2.07-1.27,3.07a14.65,14.65,0,0,1-1.54,3,15.64,15.64,0,0,1-3.27,3.23A4.11,4.11,0,0,1,529,907a14.16,14.16,0,0,0-8.47-4.74,20.08,20.08,0,0,0-9.68.86c-3.5,1.19-7,2.35-10.58,3.39-3.17.93-6.32.69-9-1.43-2.26-1.82-4.5-3.76-5.34-6.75C485.43,896.57,485,894.78,484.55,893.11Zm-84.78-24.4h-.38c-.27.42-.53.86-.81,1.28a16.92,16.92,0,0,1-8.59,6.22,21.78,21.78,0,0,0-10.93,8.55,69.91,69.91,0,0,0-3.75,7.25l.32.2a35.56,35.56,0,0,1,3.31-1.56c5.7-2,11.41-4,17.11-6.06a19.81,19.81,0,0,0,3-1.38,3.39,3.39,0,0,0,2-3.52Zm86.33,24.84c-.09,4.93,2.32,8.29,5.91,11,2.78,2.06,8.75,1.49,12-1.1C496.34,903.26,490.48,899.83,486.1,893.55ZM358.2,897.9c-6.8,3.18-13.7,5.61-21.38,4.31,4.48,2.93,9.11,3.78,14,1.09A29.39,29.39,0,0,0,358.2,897.9Zm126.63-19.42-.38-.07c-1.15,3.34-2.38,6.65-3.39,10a12,12,0,0,0-.51,4.45,26.64,26.64,0,0,0,1.22,4.65A56,56,0,0,0,484.83,878.48Zm54,21c-3.37,2.68-6.53,5.26-11.3,4.85a17.64,17.64,0,0,1,1.89,1.74c1.27,1.59,2.85,1.51,4.57.47,2.24-1.36,3.48-3.55,4.59-5.82A5.4,5.4,0,0,0,538.84,899.49Zm-218.22-1.08-2.45-1.27.12,2.12Z" />
    <path class="cls-2"
        d="M332.29,876.21c-.15-1.26.73-1.6,1.73-1.84l-.19-1.65.43-.33,3.28-.59c3.48,0,6.95.17,10.2,1.67-.53.68-1.05,1.37-1.57,2-1.64-1.28-3.65-1.22-5.55-1.44a35,35,0,0,0-3.83,0l0,.41c.71.16,1.44.28,2.13.49,2.35.73,4.69,1.49,7,2.24l1.16.38,1,.58.6.6.52,1.11a1.67,1.67,0,0,1-2.48.66c-.63-.31-1.24-.65-1.87-1-.09-.12-.15-.31-.28-.36-3.26-1.34-6.52-2.65-10.15-2.51l-1.84-.16Z" />
    <path class="cls-2"
        d="M350.08,849.84a9,9,0,0,1,1-.27c.7-.11,1-.35.82-1.17-.27-1,.67-1.18,1.26-1.57l2.72-.39.72.11a3.44,3.44,0,0,1-.44.68c-1.59,1.69-3.11,3.46-4.81,5-2,1.88-2.94,4.39-4.24,6.69l-1,0-.82-1.43.61-.94c1.76.35,2.54-.42,2.33-2.08-.06-.42.43-1,.8-1.36a8.34,8.34,0,0,1,1.47-1l-1.12-1.3Z" />
    <path class="cls-1"
        d="M345.32,857.48l.82,1.43-.66,1.35c-.33.13-.66.28-1,.39-1.39.49-1.6,1-.89,2.31l-.77,1.16c-1.71.44-1.91.76-1.37,2.2l-1,1.44-1.13.35c-1.28.4-1.54,1.08-.9,2.36l-.88,1.33-3.28.59c2.1-2.5,4.32-4.92,6.27-7.53C342.28,862.51,343.73,860,345.32,857.48Z" />
    <path class="cls-1"
        d="M349.41,850.81l1.12,1.3a8.34,8.34,0,0,0-1.47,1c-.37.38-.86.94-.8,1.36.21,1.66-.57,2.43-2.33,2.08Z" />
    <path class="cls-3"
        d="M516,790.78l-2.54.63,0,.24L515,792c-1.53,1.41-3.27,2.77-2.39,5.23a27.36,27.36,0,0,0,1.51,2.95,3.94,3.94,0,0,1,.59,1.46,28.21,28.21,0,0,1-.23,3.55,1.11,1.11,0,0,1-.49.71,6.46,6.46,0,0,0-2.8,4l-1,.52,0,.27,1.36.12c.43,1,.86,2.09,1.28,3.13l.9.91c.07.31.15.62.22.92.57,2.38,1.06,4.78,1.71,7.13.79,2.85,2.15,5.56,2.17,8.61l-2.9-.86a22.67,22.67,0,0,0-3.57-1.34c-2.21-.45-4.46-.68-6.7-1-1.86-.26-3.67-1.14-5.63-.55-.13,0-.65-.54-.63-.81.09-1.66.32-3.31.43-5,.19-2.78.31-5.56.51-8.33.08-1.18.31-2.35.46-3.53.09-.67.16-1.33.24-2l2.34-.1.08-.45-1.45-.89a9.27,9.27,0,0,1,.12-.94,15.9,15.9,0,0,0,.77-3.82,32.39,32.39,0,0,0-1-5.84c-.27-1.14-.58-2.08.53-3,.44-.37.53-1.19.74-1.82a7.78,7.78,0,0,1,.23-1,5.14,5.14,0,0,0-.18-4.82,4.8,4.8,0,0,1-.5-1.45c-.51-4.61-.63-9.31-1.57-13.83a143.09,143.09,0,0,0-4.49-15.95c-1.52-4.57-3.47-9-5.27-13.45-1.21-3-2.47-6-3.74-9a20.84,20.84,0,0,1-1.25-2.56,22.75,22.75,0,0,1-.94-5c-.13-3.79-.08-7.6,0-11.4a61.37,61.37,0,0,0-1.15-12.09c-.07-.37-.12-.93.09-1.15,1.23-1.24,1.58-2.81,2.09-4.41.77-2.41.39-5.76-2.56-7.14a9.24,9.24,0,0,1-4.93-4.64c-.44-1-1.2-1.89-1.7-2.88s-1-2.24-1.45-3.37l.34-.17c.26.34.5.68.76,1a45.47,45.47,0,0,0,3.49,4.08,24.09,24.09,0,0,0,8,4.74c1.78.68,3.58,1.43,5.56,1.19,1.08-.14,2.2-.28,2.77-1.44l.06-.09-.06.1a3,3,0,0,1-4-.86c-1-1.42-1.8-3-2.67-4.52-1.26-2.21-2.42-4.49-3.78-6.64-1.7-2.69-3.58-5.27-5.35-7.92-1.21-1.82-2.22-3.79-3.56-5.51a3.57,3.57,0,0,1-.62-4,3.34,3.34,0,0,0,.11-2.16,9.74,9.74,0,0,0-1.47-2.41c-.84-1.2-2.14-2.25-2.52-3.56-1.25-4.4-2-8.94-3.26-13.31-2-6.67-4.25-13.26-6.52-19.84-1.19-3.42-2.68-6.74-4-10.11-2.31-5.91-4.58-11.82-6.88-17.72-2.88-7.38-5.74-14.78-8.68-22.13-1.79-4.48-3.59-9-5.62-13.33-2.88-6.22-5.92-12.36-9-18.48-1.48-3-3.14-5.84-4.81-8.69s-3.51-5.52-5.09-8.38c-1.81-3.26-4.66-5.15-8-6.52s-7-.93-10.49-1.32c-1.69-.18-3.41-.19-5.09-.47a6.89,6.89,0,0,0-5.5,1.77c-1.56,1.22-.79,5.32,1.19,6.31a3.45,3.45,0,0,1,1.95,2.73c.52,3.13,1.05,6.26,1.4,9.41.42,3.7.69,7.43.95,11.16a15.73,15.73,0,0,1-.18,3.56c-.33,2-.88,4-1.22,6-.71,4.15-1.32,8.31-2,12.45-.83,5-1.77,10-2.54,15-1,6.36-1.91,12.72-2.65,19.1-.51,4.42-.76,8.87-.94,13.32-.11,2.82.16,5.65.19,8.48,0,3.32.05,6.64,0,10a5.66,5.66,0,0,1-1.33,3.87c-.54.58-1.28,1-1.78,1.59-.91,1.1-2,2.18-1.4,3.85.3.8.64,1.59.94,2.39.74,2,1.4,4,2.21,5.93.61,1.49.56,1.9-.45,3.12-1.16,1.4-2.41,2.76-2.3,4.83a6.92,6.92,0,0,1-.53,2l-1.56-1.18-.48-1.13-1.92-3.55-.3.09a9.66,9.66,0,0,1-1.82,6.67,9.7,9.7,0,0,0-1.25,2.41c-.4,1.4-.58,2.86-.91,4.28-.76,3.33-1.67,6.62-2.3,10a28.41,28.41,0,0,0-.35,5.76c0,.91.67,1.5,1.81,1.45a7,7,0,0,0,4.32-1.77c2.84-2.35,4.25-5.51,5.1-9a6.1,6.1,0,0,1,.4-1,69.55,69.55,0,0,1,1.28,7.13c.47,3.22,1,6.43,1.4,9.65.45,3.43,1,6.85,1.19,10.29.21,4.41.11,8.84,0,13.25-.1,5.54-.25,11.09-.49,16.62a54.52,54.52,0,0,1-.77,7.34,125.53,125.53,0,0,0-2.33,18.42c-.14,4.22-.38,8.43-.45,12.66-.05,2.82.11,5.66.21,8.48.23,6.09.45,12.18.74,18.27.1,2,.43,3.94.64,5.91.27,2.37.64,4.73.75,7.11.13,2.69,0,5.4,0,8.1a1.36,1.36,0,0,1-.22.77c-1.06,1.43-2.12,2.85-3.24,4.23a3.82,3.82,0,0,0-.57,4.59c.32.62.56,1.6,1,1.74,1.51.47,3,1.4,4.75.32a8.64,8.64,0,0,1,2.59-.65c1.73,6.1,0,14.21-2.62,16.86a3.42,3.42,0,0,0-.23-.42,28.53,28.53,0,0,0-10.15-8.36c-1.2-.64-2.52-1.33-3.83-.06a.67.67,0,0,1-.63,0,1.14,1.14,0,0,1-.12-.72c.12-1.4.25-2.81.4-4.21a21.84,21.84,0,0,1,.36-2.68,33.23,33.23,0,0,0,.93-3.41c.22-2-1.21-3.24-2.58-4.45a2.21,2.21,0,0,1-.69-1.36c-.1-1.86.11-3.74-.13-5.57-.6-4.44-1.33-8.87-2.12-13.28-1-5.35-2-10.7-3.07-16-.95-4.55-2.21-9-3.11-13.6C359,759.34,358,753.23,356,747.33c-1-3.1-2.06-6.2-3-9.33-1.48-5-1.65-10.28-1.89-15.46-.39-8.65.52-17.33-.77-25.95-.55-3.64-1.22-7.27-1.78-10.91-.26-1.72-.47-3.46-.58-5.2a1.52,1.52,0,0,1,.78-1.08,3.69,3.69,0,0,0,2.05-2.64,39.7,39.7,0,0,0,.75-4.81c.16-3,.29-6,.16-9-.17-4-.75-8-.86-12-.11-4.3.12-8.62.2-12.93,0-1.3.47-1.72,1.79-1.84a27.66,27.66,0,0,0,3-.52.59.59,0,0,0,.39-.39,9.18,9.18,0,0,0,.29-2.78,13.21,13.21,0,0,0-1.17-3.72,52.09,52.09,0,0,1-4.09-11.95c-1.35-6.09-2.62-12.2-4.11-18.25-1.35-5.48-3-10.88-4.44-16.35-1.6-6.15-3.12-12.32-4.6-18.51-.88-3.67-1.73-7.35-2.38-11.06-1.08-6.14-2-12.29-2.94-18.46-.65-4.47-1.24-9-1.61-13.47-.29-3.53-.27-7.09-.27-10.64s.13-7.34.22-11c.07-3.11.13-6.22.25-9.33.12-3.38.32-6.76.46-10.14.17-3.94.28-7.88.51-11.82.17-3,.34-5.95.77-8.9.67-4.63,1.58-9.23,2.32-13.85.4-2.51.59-5,1-7.55.31-2,.84-3.93,1.16-5.91s.55-4.09.67-6.15a2.14,2.14,0,0,0-.85-1.54c-.42-.31-1.36-.52-1.66-.28a38.32,38.32,0,0,0-2.92,3.05c-.3.33-.62.65-.93,1,.75-2.58,1.49-5.17,2.25-7.76a.38.38,0,0,1,.44-.19c.74-1.67,1.46-3.36,2.26-5a1.56,1.56,0,0,1,1-.73c1.57-.28,3.14-.51,4.72-.68,4.52-.51,9-1,13.56-1.43,2.74-.24,5.5-.17,8.25-.32,5.58-.28,11.15-.69,16.73-.9,3.95-.15,7.91,0,11.87-.11,5.46-.2,10.91-.56,16.36-.85,3.15-.17,6.3-.27,9.44-.53,3.48-.29,7-.8,10.43-1.07,2.25-.18,4.52-.14,6.79-.15,3.5,0,7,0,10.51,0,1.31,0,2.61,0,3.92-.06s2.29,0,2.36,1.65c0,.2.24.4.41.65.28-.7.63-.8,1-.11.56,1,1.12,2,1.66,3q3.64,6.93,7.29,13.88a19.69,19.69,0,0,1,.75,1.84,22.51,22.51,0,0,0-2.66,3.32,6.08,6.08,0,0,0-.6,3.21,13.36,13.36,0,0,0,1,3.79c1.07,2.75,2.38,5.4,3.4,8.17,1.91,5.22,3.65,10.51,5.52,15.76s3.77,10.22,5.63,15.33c1.65,4.53,3.39,9,4.83,13.62a61.81,61.81,0,0,1,1.58,7.93c.92,5.32,1.83,10.64,2.68,16,1,6.11,1.89,12.23,2.85,18.35.74,4.7,1.54,9.39,2.28,14.09.47,3,.93,6,1.31,9,.32,2.52.51,5.06.77,7.58.46,4.46,1.1,8.91,1.35,13.38.28,5,.18,10,.3,15,.11,4.3.24,8.6.49,12.89s.65,8.32.93,12.48.33,8.36.79,12.5c.33,3,.81,6.1,3.29,8.36a1.69,1.69,0,0,1,.32,1.35,17.18,17.18,0,0,0,.15,8.72c1,3.15,2,6.3,2.77,9.51.88,3.7,1.62,7.47.16,10.83.1.82.15,1.3.23,1.77a4.1,4.1,0,0,0,.27,1.11,11,11,0,0,0,.83,1.34l-.28.3c1.14.39,2.3.74,3.4,1.21a1.5,1.5,0,0,1,.78,1c.29,2.24.41,4.51.75,6.74.64,4.19,1.27,8.4,2.13,12.55.92,4.39,2.24,8.7,3.15,13.09a88.68,88.68,0,0,1,1.42,9.88c.3,3.25.32,6.52.43,9.78.06,2.1,0,4.21.1,6.3.25,4.16.81,8.32.87,12.48.07,4.86-.31,9.72-.41,14.58,0,1.9.2,3.82.2,5.73,0,1.75-.18,3.49-.21,5.25,0,2.67.07,5.36-.05,8C516.5,784.28,516.19,787.53,516,790.78ZM358.28,675.58h0l0-.72c.08-.13.23-.26.24-.39a68.89,68.89,0,0,0,.44-7,9.47,9.47,0,0,0-1.16-4.19,3.58,3.58,0,0,0-2.59-1.71c-1.94.1-3.44,2.51-3.13,4.49a21.78,21.78,0,0,0,6.42,12,2.29,2.29,0,0,0,.67.37c-.09-.87-.16-1.63-.25-2.39,0-.08-.18-.13-.27-.19Z" />
    <path class="cls-4"
        d="M378.94,654.22l1.56,1.18a6.92,6.92,0,0,0,.53-2c-.11-2.07,1.14-3.43,2.3-4.83,1-1.22,1.06-1.63.45-3.12-.81-1.95-1.47-3.95-2.21-5.93-.3-.8-.64-1.59-.94-2.39-.61-1.67.49-2.75,1.4-3.85.5-.61,1.24-1,1.78-1.59a5.66,5.66,0,0,0,1.33-3.87c.06-3.32.05-6.64,0-10,0-2.83-.3-5.66-.19-8.48.18-4.45.43-8.9.94-13.32.74-6.38,1.69-12.74,2.65-19.1.77-5,1.71-10,2.54-15,.69-4.14,1.3-8.3,2-12.45.34-2,.89-4,1.22-6a15.73,15.73,0,0,0,.18-3.56c-.26-3.73-.53-7.46-.95-11.16-.35-3.15-.88-6.28-1.4-9.41a3.45,3.45,0,0,0-1.95-2.73c-2-1-2.75-5.09-1.19-6.31a6.89,6.89,0,0,1,5.5-1.77c1.68.28,3.4.29,5.09.47,3.51.39,7.13-.09,10.49,1.32s6.15,3.26,8,6.52c1.58,2.86,3.45,5.56,5.09,8.38s3.33,5.73,4.81,8.69c3.07,6.12,6.11,12.26,9,18.48,2,4.37,3.83,8.85,5.62,13.33,2.94,7.35,5.8,14.75,8.68,22.13,2.3,5.9,4.57,11.81,6.88,17.72,1.32,3.37,2.81,6.69,4,10.11,2.27,6.58,4.52,13.17,6.52,19.84,1.3,4.37,2,8.91,3.26,13.31.38,1.31,1.68,2.36,2.52,3.56a9.74,9.74,0,0,1,1.47,2.41,3.34,3.34,0,0,1-.11,2.16,3.57,3.57,0,0,0,.62,4c1.34,1.72,2.35,3.69,3.56,5.51,1.77,2.65,3.65,5.23,5.35,7.92,1.36,2.15,2.52,4.43,3.78,6.64.87,1.52,1.66,3.1,2.67,4.52a3,3,0,0,0,4,.86h0c-.57,1.16-1.69,1.3-2.77,1.44-2,.24-3.78-.51-5.56-1.19a24.09,24.09,0,0,1-8-4.74,45.47,45.47,0,0,1-3.49-4.08c-.26-.32-.5-.66-.76-1l-.34.17c.48,1.13.9,2.28,1.45,3.37s1.26,1.86,1.7,2.88a9.24,9.24,0,0,0,4.93,4.64c2.95,1.38,3.33,4.73,2.56,7.14-.51,1.6-.86,3.17-2.09,4.41-.21.22-.16.78-.09,1.15a61.37,61.37,0,0,1,1.15,12.09c0,3.8-.1,7.61,0,11.4a22.75,22.75,0,0,0,.94,5,20.84,20.84,0,0,0,1.25,2.56c1.27,3,2.53,6,3.74,9,1.8,4.47,3.75,8.88,5.27,13.45a143.09,143.09,0,0,1,4.49,15.95c.94,4.52,1.06,9.22,1.57,13.83a4.8,4.8,0,0,0,.5,1.45,5.14,5.14,0,0,1,.18,4.82,7.78,7.78,0,0,0-.23,1c-.21.63-.3,1.45-.74,1.82-1.11.92-.8,1.86-.53,3a32.39,32.39,0,0,1,1,5.84,15.9,15.9,0,0,1-.77,3.82,9.27,9.27,0,0,0-.12.94c-1.43-1.29-3.23-2.31-3.71-4.35a4,4,0,0,1,.16-2.59,8.21,8.21,0,0,0,.84-5.11c-.32-2.31-.56-4.65-1.93-6.72-.34-.51.06-1.53.14-2.46,1.61.66,2.44,2.22,4.38,2-.83-1-1.5-1.78-2.19-2.57a4.83,4.83,0,0,1-1.33-3.35c0-4.85-1.39-9.42-2.84-14-1.07-3.38-2.07-6.79-3.16-10.16-1.6-5-3.14-10-4.92-14.86-1.53-4.2-3.47-8.24-5-12.43a39,39,0,0,1-2.56-8.93c-.47-4-.11-8.08-.26-12.12a66,66,0,0,0-.79-7.81c-.43-2.63-1.14-5.21-1.68-7.82a16.62,16.62,0,0,1-.17-2.22l4.32,2.31.29-.23a2.83,2.83,0,0,0-.3-1,11.89,11.89,0,0,0-2.45-2.59c-2.1-1.28-2.46-3.25-2.78-5.38a10.56,10.56,0,0,0-.95-3.5,46.38,46.38,0,0,1-4.28-12.52c-.85-4-1.35-8-2-12-.16-1-.2-2-.29-3.08,1.49-.1,2.78.84,4.31,0a6.71,6.71,0,0,0-.95-.66,28.5,28.5,0,0,0-2.93-1.06c-1.1-.29-1.58-.58-1.45-2s-.63-2.73-1.14-4c-2-5.24-4.12-10.46-6.13-15.7-.83-2.16-1.58-4.35-2.23-6.56-.58-2-1-4.1-1.44-6.16a55.41,55.41,0,0,0-1.63-7.07c-1.12-3.06-2.67-6-4-8.92-1.55-3.37-3.16-6.7-4.63-10.11-1.6-3.73-3-7.53-4.6-11.28-2-4.85-4.07-9.7-6.18-14.52-1.9-4.35-3.79-8.7-5.88-13-1-2.06-2.53-3.87-3.7-5.86a87.76,87.76,0,0,1-4.37-7.95c-1.59-3.47-2.66-7.19-4.33-10.62a92.3,92.3,0,0,0-5-8.11c-.35-.55-.66-1.14-1-1.69s-.8-1.19-1.23-1.76a1.52,1.52,0,0,0-2-.66,2.74,2.74,0,0,0-1.2,1.61c-.73,3.26-1.25,6.57-2,9.82-.53,2.37-1.38,4.67-1.93,7-1.69,7.4-3.31,14.83-5,22.24-.8,3.61-1.7,7.2-2.4,10.84s-1.18,7.26-1.75,10.9-1.14,7.05-1.57,10.6c-.31,2.51-.43,5.05-.57,7.58-.28,5-.5,10-.75,15-.07,1.39-.19,2.78-.21,4.17q-.13,9.24-.22,18.46a15.44,15.44,0,0,1,.14,2.13,28,28,0,0,1-.83,3.13c-1.37-1.11-2.45-2-3.59-2.88-.22-.17-.63-.08-.95-.1.06.29,0,.65.18.86,1.46,1.93,3.06,3.76,4.39,5.77a4.1,4.1,0,0,1,.45,2.82c-.9,4.28-1.95,8.53-3,12.78-.29,1.19-.52,2.44-1.9,3.23l-1.83-5.2-.4.12c.89,3.5,1.81,7,2.67,10.49a16.11,16.11,0,0,1,.75,4.07c-.06,3.29.92,6.38,1.49,9.54.95,5.28,2.13,10.53,3,15.82.56,3.37.78,6.8,1.07,10.21.37,4.24.6,8.49,1,12.73a35.59,35.59,0,0,1-.88,10.19c-1,5.39-2.1,10.78-2.92,16.2-.49,3.26-.53,6.59-.8,9.88-.29,3.57-.62,7.13-.92,10.7-.11,1.31-.24,2.63-.25,3.94,0,4.92-.1,9.84,0,14.76.06,2.66.51,5.3.73,8,.12,1.39.1,2.79.2,4.18a18.06,18.06,0,0,0,.43,3.3,3.93,3.93,0,0,1-1.19,4.33,1.2,1.2,0,0,0-.36,1L388,805l3.11,2.69c-1.68,2.8-3.37,5.93-6.45,8l.24.31c.88-.58,1.77-1.15,2.63-1.75s1.72-1.28,2.57-1.91a4.16,4.16,0,0,1,1.55,4.56,25,25,0,0,0-.72,8.53c.06,2.2.23,4.39.23,6.58s.23,4.56-.34,6.66a11.62,11.62,0,0,0,.24,7.68,2.69,2.69,0,0,1-2.32,3.48,13.59,13.59,0,0,1-1.54.15c-1.36,0-2.54-.25-3.1-1.83a8.31,8.31,0,0,0-1.63-2.09c1.58-2.7.32-5-1.38-7a22.9,22.9,0,0,0-9.45-6.75,8.53,8.53,0,0,0-6.65-.11,2.52,2.52,0,0,1-.46.1,2,2,0,0,1-.3-.11v-7.76c1.47-.23,3.3.23,5-1-1.32-.38-2.46-.65-3.56-1a2.82,2.82,0,0,1-1-.92c-.41-.53-.7-1.17-1.14-1.67-1.09-1.23-1.14-1.85-.18-3.11l3.59,1,.27-.4a5.14,5.14,0,0,0-.52-1.05,15.77,15.77,0,0,0-1.37-1.34,3.53,3.53,0,0,1-1.23-2.22c-.14-.86-.74-1.63-.94-2.49a25.56,25.56,0,0,1-.49-3.51c-.44-4.71-.38-9.44-1.66-14.1-1.74-6.37-2.9-12.89-4.43-19.32-1.39-5.84-3-11.64-4.43-17.48-1.66-6.84-3.42-13.67-4.79-20.57-.9-4.59-1.2-9.29-1.79-13.94a106.37,106.37,0,0,1-.72-16c.08-3.38.35-6.76.35-10.15,0-4.33-.24-8.67-.34-13,0-1,.08-2.06.16-3.09.11-1.52.45-3-.24-4.54a1.3,1.3,0,0,1,.51-1.19,2.43,2.43,0,0,0,1.47-2.83c-.4-4.78-.91-9.56-1.15-14.34-.22-4.42-.13-8.86-.21-13.29,0-1.85-.27-3.7-.26-5.55a19.75,19.75,0,0,1,.49-3.66c.06-.26.53-.54.87-.63,1.69-.47,3.39-.86,5.09-1.32a2.77,2.77,0,0,0,.76-.5l-.12-.35c-1.51,0-3-.07-4.52,0a19.21,19.21,0,0,0-2.67.56c-.72.15-1.78-.77-1.5-1.37,1-2.18.43-4.34-.06-6.44-.74-3.14-1.74-6.21-2.56-9.33-1.26-4.73-2.46-9.48-3.68-14.22s-2.5-9.22-3.49-13.88c-1.24-5.87-2.25-11.79-3.29-17.69-.53-3-1-6-1.35-9-.49-3.74-.86-7.5-1.33-11.25-.23-1.87-.62-3.73-.84-5.6-.19-1.6-.22-3.23-.35-4.84-.21-2.55-.47-5.11-.65-7.67-.1-1.34-.08-2.69-.08-4,0-6.72-.07-13.44,0-20.16.1-7.87.31-15.75.52-23.62.11-4.14.21-8.29.52-12.43.33-4.63.92-9.24,1.34-13.87.17-1.88.26-3.78.25-5.67a63.65,63.65,0,0,1,2-16.19c.55-2.1,1-4.24,1.44-6.37.31-.32.63-.64.93-1a38.32,38.32,0,0,1,2.92-3.05c.3-.24,1.24,0,1.66.28a2.14,2.14,0,0,1,.85,1.54c-.12,2.06-.35,4.12-.67,6.15s-.85,3.93-1.16,5.91c-.39,2.51-.58,5-1,7.55-.74,4.62-1.65,9.22-2.32,13.85-.43,2.95-.6,5.93-.77,8.9-.23,3.94-.34,7.88-.51,11.82-.14,3.38-.34,6.76-.46,10.14-.12,3.11-.18,6.22-.25,9.33-.09,3.67-.22,7.34-.22,11s0,7.11.27,10.64c.37,4.51,1,9,1.61,13.47.9,6.17,1.86,12.32,2.94,18.46.65,3.71,1.5,7.39,2.38,11.06,1.48,6.19,3,12.36,4.6,18.51,1.42,5.47,3.09,10.87,4.44,16.35,1.49,6,2.76,12.16,4.11,18.25a52.09,52.09,0,0,0,4.09,11.95,13.21,13.21,0,0,1,1.17,3.72,9.18,9.18,0,0,1-.29,2.78.59.59,0,0,1-.39.39,27.66,27.66,0,0,1-3,.52c-1.32.12-1.77.54-1.79,1.84-.08,4.31-.31,8.63-.2,12.93.11,4,.69,8,.86,12,.13,3,0,6-.16,9a39.7,39.7,0,0,1-.75,4.81,3.69,3.69,0,0,1-2.05,2.64,1.52,1.52,0,0,0-.78,1.08c.11,1.74.32,3.48.58,5.2.56,3.64,1.23,7.27,1.78,10.91,1.29,8.62.38,17.3.77,25.95.24,5.18.41,10.42,1.89,15.46.92,3.13,2,6.23,3,9.33,2,5.9,3,12,4.23,18.09.9,4.56,2.16,9.05,3.11,13.6,1.11,5.32,2.11,10.67,3.07,16,.79,4.41,1.52,8.84,2.12,13.28.24,1.83,0,3.71.13,5.57a2.21,2.21,0,0,0,.69,1.36c1.37,1.21,2.8,2.41,2.58,4.45a33.23,33.23,0,0,1-.93,3.41,21.84,21.84,0,0,0-.36,2.68c-.15,1.4-.28,2.81-.4,4.21a1.14,1.14,0,0,0,.12.72.67.67,0,0,0,.63,0c1.31-1.27,2.63-.58,3.83.06A28.53,28.53,0,0,1,385,839.12a3.42,3.42,0,0,1,.23.42c2.64-2.65,4.35-10.76,2.62-16.86a8.64,8.64,0,0,0-2.59.65c-1.72,1.08-3.24.15-4.75-.32-.48-.14-.72-1.12-1-1.74a3.82,3.82,0,0,1,.57-4.59c1.12-1.38,2.18-2.8,3.24-4.23a1.36,1.36,0,0,0,.22-.77c0-2.7.11-5.41,0-8.1-.11-2.38-.48-4.74-.75-7.11-.21-2-.54-3.93-.64-5.91-.29-6.09-.51-12.18-.74-18.27-.1-2.82-.26-5.66-.21-8.48.07-4.23.31-8.44.45-12.66a125.53,125.53,0,0,1,2.33-18.42,54.52,54.52,0,0,0,.77-7.34c.24-5.53.39-11.08.49-16.62.07-4.41.17-8.84,0-13.25-.16-3.44-.74-6.86-1.19-10.29-.43-3.22-.93-6.43-1.4-9.65a69.55,69.55,0,0,0-1.28-7.13,6.1,6.1,0,0,0-.4,1c-.85,3.48-2.26,6.64-5.1,9a7,7,0,0,1-4.32,1.77c-1.14.05-1.8-.54-1.81-1.45A28.41,28.41,0,0,1,370,673c.63-3.35,1.54-6.64,2.3-10,.33-1.42.51-2.88.91-4.28a9.7,9.7,0,0,1,1.25-2.41,9.66,9.66,0,0,0,1.82-6.67l.3-.09,1.92,3.55c-.6,2.52-1.17,5-1.81,7.54-1.16,4.55-2.36,9.08-3.54,13.62-.09.37-.15.74-.25,1.27a11.17,11.17,0,0,0,3.62-6.63C377.41,664,378.13,659.11,378.94,654.22Zm95,14.54-.26.14c.72,1.58,1.38,3.18,2.17,4.72,1.74,3.41,3.52,6.81,6.42,9.44a8.27,8.27,0,0,0,4.39,2.14C480.78,681,477,675.12,473.94,668.76Z" />
    <path class="cls-4"
        d="M516,790.78c.23-3.25.54-6.5.68-9.75.12-2.67,0-5.36.05-8,0-1.76.22-3.5.21-5.25,0-1.91-.24-3.83-.2-5.73.1-4.86.48-9.72.41-14.58-.06-4.16-.62-8.32-.87-12.48-.13-2.09,0-4.2-.1-6.3-.11-3.26-.13-6.53-.43-9.78a88.68,88.68,0,0,0-1.42-9.88c-.91-4.39-2.23-8.7-3.15-13.09-.86-4.15-1.49-8.36-2.13-12.55-.34-2.23-.46-4.5-.75-6.74a1.5,1.5,0,0,0-.78-1c-1.1-.47-2.26-.82-3.4-1.21l.28-.3a11,11,0,0,1-.83-1.34,4.1,4.1,0,0,1-.27-1.11c-.08-.47-.13-.95-.23-1.77,1.46-3.36.72-7.13-.16-10.83-.77-3.21-1.78-6.36-2.77-9.51a17.18,17.18,0,0,1-.15-8.72,1.69,1.69,0,0,0-.32-1.35c-2.48-2.26-3-5.34-3.29-8.36-.46-4.14-.51-8.33-.79-12.5s-.7-8.31-.93-12.48-.38-8.59-.49-12.89c-.12-5,0-10-.3-15-.25-4.47-.89-8.92-1.35-13.38-.26-2.52-.45-5.06-.77-7.58-.38-3-.84-6-1.31-9-.74-4.7-1.54-9.39-2.28-14.09-1-6.12-1.87-12.24-2.85-18.35-.85-5.32-1.76-10.64-2.68-16a61.81,61.81,0,0,0-1.58-7.93c-1.44-4.59-3.18-9.09-4.83-13.62-1.86-5.11-3.79-10.21-5.63-15.33s-3.61-10.54-5.52-15.76c-1-2.77-2.33-5.42-3.4-8.17a13.36,13.36,0,0,1-1-3.79,6.08,6.08,0,0,1,.6-3.21,22.51,22.51,0,0,1,2.66-3.32c2,4.17,4.13,8.29,6,12.52,2.32,5.25,4.44,10.58,6.63,15.89a115.9,115.9,0,0,1,5.15,17.53c.89,3.76,2,7.47,2.83,11.23,1.12,4.88,2.13,9.78,3.13,14.68,1.46,7.18,2.94,14.34,4.27,21.54,1.08,5.91,2,11.85,2.89,17.78.82,5.55,1.5,11.11,2.25,16.67.52,3.86,1.11,7.71,1.58,11.58.28,2.37.36,4.76.57,7.14.3,3.48.73,7,.92,10.45.27,4.92.36,9.86.55,14.79,0,.79.2,1.57.29,2.36a6.21,6.21,0,0,1,.08,1.66c-.69,3.33-.34,6.65-.19,10s.05,6.4,0,9.6a10.89,10.89,0,0,0,1.28,5.52,2.9,2.9,0,0,1,0,2.09c-.38,1.13-1.05,2.15-1.48,3.27a3.88,3.88,0,0,0,0,1.4c.43-.23.87-.44,1.28-.69a1.66,1.66,0,0,0,.36-.45,56.24,56.24,0,0,1,3.38,14.22c.37,3.68.75,7.36,1.24,11A5.1,5.1,0,0,0,508,663a1.48,1.48,0,0,1,.22,1.72,7.46,7.46,0,0,1-3,3.86c1.77.44,2.79-.88,4.29-1.77.28.77.59,1.46.79,2.18,1.29,4.63,2.62,9.26,3.8,13.92.84,3.27,1.61,6.57,2.15,9.9,1,6,1.79,12,2.58,18,.38,2.84.57,5.7.78,8.56.34,4.88.69,9.77.94,14.65.32,6.32,1.63,12.58,1.22,18.95-.26,4.13-.4,8.26-.66,12.39-.21,3.26-.4,6.53-.79,9.78-.54,4.65-1.22,9.29-1.93,13.93C518.16,790.34,517,790.58,516,790.78Z" />
    <path class="cls-5"
        d="M332.29,876.21l.28.31c-.07.78-.17,1.57-.21,2.35a1.63,1.63,0,0,0,1.25,1.68c3.79,1.51,7.8,1.16,11.7,1,2.59-.07,5.16-1.23,7.73-1.94.32-.09.56-.44.85-.66l.77-.37a5.47,5.47,0,0,0,3.76-2.51l1.2-.84a4.9,4.9,0,0,0,1-.46c1.08-.81,2.12-1.67,3.17-2.51.07.47.18.93.21,1.41a38.87,38.87,0,0,0,2.12,10.88c.28.73.7,1.25,1.51.93s.94-.95.63-1.77A38.93,38.93,0,0,1,366.19,870a11.44,11.44,0,0,0,.95-.67c1.51-1.37,3-2.76,4.51-4.14a2.79,2.79,0,0,1,.35.42c.89,1.73,1.71,3.51,2.68,5.2a4.54,4.54,0,0,0,1.57,1.57c2.1,1.25,3.95.21,4.06-2.22a13.64,13.64,0,0,0-1.91-7.78c-.52-.87-.93-1.81-1.4-2.72l2.25-2.53a3.07,3.07,0,0,0,.26-.25l.2-.28.17-.29.24-.25.24-.24.24-.24.24-.24.18-.05-.08-.11-.09.17-.25.24-.24.24-.24.24-.24.23-.26.23-.25.23-.24.23-2.57,2c-.2-.4-.42-.78-.6-1.18a10.2,10.2,0,0,0-.64-1.47c-.62-1-1.32-1.87-2-2.8l1.16-.83a13.53,13.53,0,0,1,2.19,1.6c.62.66,1.27.82,1.88.12a1.54,1.54,0,0,0-.43-2.28l-1.61-1.28c1.46-1.27,2.9-2.57,4.41-3.78.19-.16.84,0,1.14.25a4.65,4.65,0,0,1,1.5,4.87,39.87,39.87,0,0,1-2,4.19,3.38,3.38,0,0,0-.41,1c1.9-1.47,4-2.74,4.88-5.17a1.54,1.54,0,0,1,.93-.73,4.46,4.46,0,0,1,1.32,0c3.05,0,4.63-1.17,5.62-4.22a11.8,11.8,0,0,1,.73,1c2.69,4.76,4.13,9.76,3.05,15.28-.29,1.48-.3,3-.52,4.51a3.77,3.77,0,0,1-.59,1.52c-1.89,2.74-4.75,4.17-7.56,5.72-6.32,3.5-12.92,6.56-18.35,11.49-1.8,1.64-3.61,3.28-5.46,4.87a39.42,39.42,0,0,1-19.59,9.1A24.2,24.2,0,0,1,332,898.76a34.64,34.64,0,0,0-6.8-1.54c-2.08-.4-4.32-.31-5.89-2.16a1.34,1.34,0,0,1-.42-1.45c.35-1.14.43-2.37.84-3.48.55-1.48,1-3.19,2-4.25,3.3-3.36,6.85-6.46,10.31-9.65C332.11,876.19,332.21,876.22,332.29,876.21Zm-7.78,11.22c3.49,5,23,5.61,25.54.79a15.3,15.3,0,0,1-2.2.73,54.05,54.05,0,0,1-7.83,1.33,26.61,26.61,0,0,1-12.29-2.5C326.74,887.32,325.72,886.77,324.51,887.43Z" />
    <path class="cls-5"
        d="M501.84,875.26c1.88,1.84,3.67,3.76,5.64,5.49a18.58,18.58,0,0,0,8.28,3.9,10.81,10.81,0,0,0,5.52-.34c3.09-1,6.18-2.25,8.13-5.17,1.36-2,1.82-4.41,2.4-6.73l.32-1.31c3.39,5,6.59,9.77,7.18,15.78.17,1.78.39,3.57.39,5.36a37.36,37.36,0,0,1-.46,4.71,1.6,1.6,0,0,1-.54.89c-3,2.63-6.19,5-10.35,5.32a5.54,5.54,0,0,1-3.14-.67,15.68,15.68,0,0,0-7.48-2.21,18.9,18.9,0,0,0-9.32,1.69c-2,.92-4,.36-5.9.15a19.8,19.8,0,0,1-14.4-8.28c-2-2.75-2.37-5.76-2.06-9.07a69.2,69.2,0,0,0,0-7.89c0-1-.3-2-.31-3,0-3.19-.22-6.39,0-9.56a12.4,12.4,0,0,0-1.09-5.76,8.13,8.13,0,0,1-.62-3.69,18.94,18.94,0,0,1,2.72-7.61c.05-.08.18-.12.31-.2.89,2.11,1.73,4.22,2.67,6.27,1.78,3.89,3.62,7.75,5.43,11.62a1.7,1.7,0,0,1,.08.45,2.48,2.48,0,0,1-.1.68,12.7,12.7,0,0,0-.83,8c.7,3.43.81,6.81-.73,10.09-.06.14-.16.34-.1.45.22.47.41,1.06.79,1.29.22.12,1.06-.3,1.18-.63a16.16,16.16,0,0,0,1.39-4.79,73,73,0,0,0-.52-8.08c-.11-1.42-.26-2.84.6-4.11l3.12,4.66c-.13.4-.22.82-.39,1.21a14.6,14.6,0,0,0-1.2,6.77c0,.78.34,1.58,1.35,1.47s1-.84.93-1.63A9.26,9.26,0,0,1,501.84,875.26Zm-13.86-15,.25.49.16-.08-.25-.53-2-9.63C484.67,853.31,485.59,856.73,488,860.25Zm43.19,31.22c-.86,0-1.72,0-2.58,0-3,.17-6,.56-8.92.53s-6.11-.38-9.15-.7c-4-.43-7.75-1.6-10.1-5.3a.49.49,0,0,0-.16-.19l-1.29-.71a4.21,4.21,0,0,0-.21,1.53,5.86,5.86,0,0,0,4.8,4.66,112.06,112.06,0,0,0,11.38,1.47A57.39,57.39,0,0,0,531.17,891.47Z" />
    <path class="cls-6"
        d="M484.55,893.11c.44,1.67.88,3.46,1.38,5.23.84,3,3.08,4.93,5.34,6.75,2.64,2.12,5.79,2.36,9,1.43,3.56-1,7.08-2.2,10.58-3.39a20.08,20.08,0,0,1,9.68-.86A14.16,14.16,0,0,1,529,907a4.11,4.11,0,0,0,5.51.66,15.64,15.64,0,0,0,3.27-3.23,14.65,14.65,0,0,0,1.54-3c.46-1,.85-2,1.27-3.07a7.9,7.9,0,0,1,1.61,5.09c0,4.28-1.4,8.1-4.72,10.82a31.15,31.15,0,0,1-6.89,4c-5.63,2.55-11.66,3.56-17.78,4a51.31,51.31,0,0,1-6.3.37,41.29,41.29,0,0,1-16.94-3.89c-2.91-1.45-5.83-3.21-7.1-6.47a14.73,14.73,0,0,1-.82-5,40.23,40.23,0,0,1,2.83-14.06C484.5,893.18,484.57,893.05,484.55,893.11Z" />
    <path class="cls-6"
        d="M379.86,881.48a2,2,0,0,1-.2.76,60.4,60.4,0,0,0-8.24,14.68,19.88,19.88,0,0,1-14.24,12.23,53.85,53.85,0,0,1-12.24,1.54c-3.12.06-6.23.23-9.34.14a40.76,40.76,0,0,1-14.11-2.56,22.11,22.11,0,0,1-2.88-1.44c-1.24-.74-2-3.49-1.32-4.79a.76.76,0,0,1,.32-.34,65.18,65.18,0,0,1,6.83-2.84c3.09-.92,5.87.34,8.46,2,1.46.91,2.85,1.93,4.33,2.79a14.11,14.11,0,0,0,15,.06,53.53,53.53,0,0,0,9.94-7.66c4.65-4.32,9.1-8.87,14.38-12.46,1.08-.73,2.24-1.36,3.35-2Z" />
    <path class="cls-6"
        d="M501.84,875.26a9.26,9.26,0,0,0-1,5.53c0,.79,0,1.52-.93,1.63s-1.32-.69-1.35-1.47a14.6,14.6,0,0,1,1.2-6.77c.17-.39.26-.81.39-1.21l.71-1,2.26-3.17,2.1-3.33,2.17-2.94,1.16-2.4,1.38-3.54.33-4.82-.24,0-1.47,4.79a7.06,7.06,0,0,0-.67.67,8.18,8.18,0,0,1-6.63,3.41c-1,0-1.24.65-1.36,1.45-.39.83-.79,1.67-1.18,2.51l-1.26,2.18-.42,1.55c-.86,1.27-.71,2.69-.6,4.11a73,73,0,0,1,.52,8.08,16.16,16.16,0,0,1-1.39,4.79c-.12.33-1,.75-1.18.63-.38-.23-.57-.82-.79-1.29-.06-.11,0-.31.1-.45,1.54-3.28,1.43-6.66.73-10.09a12.7,12.7,0,0,1,.83-8,2.48,2.48,0,0,0,.1-.68l.9-1.69.8-1.55.71-1.26c.66-.71,1.16-1.44.26-2.33l-.93-2.07c0-.55-.05-1.1-.08-1.65.08-.82.16-1.64.23-2.46.15-.44.29-.89.43-1.34.36-.79.72-1.58,1.07-2.37l.82-.82,2.62-2.53c1-1,2-1.92,3.06-2.88a15.93,15.93,0,0,1,2.21-1.14,11.14,11.14,0,0,1,3.81-1.05,7.58,7.58,0,0,1,5.94,2.79c.33.8.65,1.61,1,2.42l.68,1.22q1,2.64,2,5.26c.14.25.28.5.41.75l.54,2.41.43,1.17v2.36l-.15,1.64-.6,2.15-.67.67a3.21,3.21,0,0,1-5.07-.39l-.66-1c-.21-.73-.43-1.46-.64-2.19l-.58-2.81-.05-2.17-.21-1.17-.56-4.08-.42,0v4l-.15,1.19c0,.73-.07,1.45-.1,2.17l-.85,2.87-.8,2.22-2.07,3L507,867.25l-2.72,3.69-1.14,1.82-.66,1.18-.59.79-.09.32A1.48,1.48,0,0,0,501.84,875.26Zm-1-19.92.93-1.43,1.26-2.3,1.06-1.29c.7-.92,1.43-1.81,2.07-2.77a25.27,25.27,0,0,0,1.18-2.25l1.17-1.32-.31-.31L506,845.24a26.33,26.33,0,0,0-3.14,2.33,15.34,15.34,0,0,0-1.81,2.7,1.56,1.56,0,0,0-1.12,1.71c-.19.71-.38,1.42-.56,2.12v1.52l.33,1.34H500Zm6.35-1.82c0-.68.08-1.36.11-2,.28-.45.55-.9.91-1.5-1.34,0-1.47.14-2,1.43l-1.07,2-1,1.22c-.36.73-.73,1.46-1.1,2.19l-1.13,1.35.37.45,2.89-1.84,1.44-2.15Zm10.94-1.77-.27-.7c-.55-1.29-1.08-2.6-1.67-3.88s-.47-2.81-2.18-3.61c.16.9.27,1.6.42,2.3.35,1.65.72,3.3,1.08,5l.2.7.3,2.19.24,1.35.15,2.16.51,2.46a18.48,18.48,0,0,0,.72,1.84c.4.8,1,.73,1.47.09a8.4,8.4,0,0,0,.7-1.71c0-.71,0-1.42,0-2.14l-.39-2.41-.53-1.26C518.62,853.31,518.37,852.53,518.13,851.75Z" />
    <path class="cls-6"
        d="M366.19,870a38.93,38.93,0,0,0,2.11,13.75c.31.82.18,1.46-.63,1.77s-1.23-.2-1.51-.93A38.87,38.87,0,0,1,364,873.71c0-.48-.14-.94-.21-1.41l.15-.78c0-.52,0-1,0-1.58s-.09-.75-.14-1.13l.1-1,0-.43,0-2.94.23-2.12c-.08-.24-.15-.48-.23-.72,0-.82,0-1.64,0-2.45l-.68-3.15-.37-2.76L361.7,853l-.3,2.54-.37,2.55-.41,2.12-1.15,2.54-1.19,1.64c-1,.16-1.21,1-1.55,1.71L355.38,868l-1.68,2-1.2,1.86-2.19,2.71-1.42,1.61-1.79,1.41-1.16-.38c.07-.56.15-1.11.23-1.67.52-.68,1-1.37,1.57-2l2.18-2.53,1.42-1.79,1.65-2,1.47-1.8,1.21-1.57c.49-.6,1-1.21,1.46-1.82l1.26-2.28.39-2.09.42-2.4.3-2.17c.09-.33.17-.66.25-1l.48-2.08.68-1.27-.3-1.17c-.42.15-.86.28-1.26.47-.15.08-.23.3-.35.46l-1.3,1.16c-.45.62-.91,1.23-1.37,1.85l-.79,1.05-.88,2.13-.67,1.95-.82,2-.85,2.05-.78,2.07-1,1.81-1.71,1.77a3.15,3.15,0,0,1-2.79-.15l-.5-2.1c.1-.4.21-.8.32-1.21l.44-2.31.8-1.52c1.3-2.3,2.22-4.81,4.24-6.69,1.7-1.57,3.22-3.34,4.81-5a3.44,3.44,0,0,0,.44-.68l.72-.31,1.74-.64c1.2-.44,2.64-.86,3.48.17s1.71.68,2.65.36a9.85,9.85,0,0,1,1.14-.34c2.42-.49,3.76.22,4.77,2.47a8.38,8.38,0,0,0,.57.89l.95,2.59.69,1.76c.67.93,1.37,1.84,2,2.8a10.2,10.2,0,0,1,.64,1.47c.18.4.4.78.6,1.18l.44.71c.47.91.88,1.85,1.4,2.72a13.64,13.64,0,0,1,1.91,7.78c-.11,2.43-2,3.47-4.06,2.22a4.54,4.54,0,0,1-1.57-1.57c-1-1.69-1.79-3.47-2.68-5.2a2.79,2.79,0,0,0-.35-.42l0-.94-1.23-5.48c0-.77,0-1.54-.13-2.3a12.11,12.11,0,0,0-.45-1.67l-.54-2.57-1-2.18a3.07,3.07,0,0,0-4.37-1c-.86.74-.09,1.25.26,1.82l.73,2.59.24,1c.16.8.32,1.61.49,2.42s.33,1.57.5,2.36l.24,1.62,0,2.92-.13,5.12Zm-16.06-9.83.63-1.61c.59-1.25,1.17-2.5,1.79-3.83-1.24,0-2,1.17-2.69,3.65l-1,2a21.52,21.52,0,0,0-.89,2,2.67,2.67,0,0,0,.07,1c.3-.17.75-.28.88-.54C349.4,862,349.75,861.08,350.13,860.17Zm24.51.35c-.59-1.26-1.18-2.51-1.76-3.76l-.28.14c.26,1.62.51,3.24.78,4.85,0,0,.13.07.2.1.18,3.49,2.06,6.23,3.89,9a2.68,2.68,0,0,0,.4-1.26,12.28,12.28,0,0,0-1.36-6C376,862.55,375.27,861.55,374.64,860.52Z" />
    <path class="cls-5"
        d="M497,862.2l-.8,1.55c-1.38-3.27-2.89-6.48-4.1-9.8s-2.28-7-3.31-10.48c-.87-3,.25-5.33,2.2-7.54,2.55-2.89,6-3.66,9.53-4.28a29.37,29.37,0,0,1,17.38,2.57,30.43,30.43,0,0,1,4.41,2.64,2.73,2.73,0,0,1,1.31,2.4c0,1.92.17,3.83.27,5.74-.3-.09-.6-.19-.9-.27l-5.84-1.64a7.58,7.58,0,0,0-5.94-2.79,11.14,11.14,0,0,0-3.81,1.05,15.93,15.93,0,0,0-2.21,1.14,24.44,24.44,0,0,0-3.76.35c-2.93.72-5.81,1.62-8.71,2.45-.25-2-.51-4-.77-6.18a2.51,2.51,0,0,0-.26.52c-.68,2.55-1.18,5.14-.39,7.74s1.71,5.16,2.58,7.74l0,0a4.2,4.2,0,0,0,.22,1C495.05,858.15,496,860.17,497,862.2Z" />
    <path class="cls-6"
        d="M399.77,868.71l1.32,11a3.39,3.39,0,0,1-2,3.52,19.81,19.81,0,0,1-3,1.38c-5.7,2-11.41,4-17.11,6.06a35.56,35.56,0,0,0-3.31,1.56l-.32-.2a69.91,69.91,0,0,1,3.75-7.25A21.78,21.78,0,0,1,390,876.21a16.92,16.92,0,0,0,8.59-6.22c.28-.42.54-.86.81-1.28Z" />
    <path class="cls-5"
        d="M371.69,849.15a8.38,8.38,0,0,1-.57-.89c-1-2.25-2.35-3-4.77-2.47a9.85,9.85,0,0,0-1.14.34c-.94.32-1.7.81-2.65-.36s-2.28-.61-3.48-.17l-1.74.64a14.84,14.84,0,0,0,1-6.19,2.31,2.31,0,0,1,1.38-2.31c2.1-1,4.13-2.25,6.29-3.15a4.9,4.9,0,0,1,3.24-.21,23.3,23.3,0,0,1,11,8.21,5.21,5.21,0,0,1,.43.85c.13.29.23.6.28.73l-6.68,5.65Z" />
    <path class="cls-4"
        d="M500.12,808.05c-.08.67-.15,1.33-.24,2-.15,1.18-.38,2.35-.46,3.53-.2,2.77-.32,5.55-.51,8.33-.11,1.66-.34,3.31-.43,5,0,.27.5.85.63.81,2-.59,3.77.29,5.63.55,2.24.31,4.49.54,6.7,1a22.67,22.67,0,0,1,3.57,1.34l-6.32-1.19a20.85,20.85,0,0,0-8.51.17c-2.54.59-5.05,1.34-7.65,2,.2-1.1.41-2.32.67-3.54.62-3,1.16-5.94,1.95-8.85.51-1.91,1.41-3.7,2.09-5.56a2.32,2.32,0,0,0,.12-1.37,22.24,22.24,0,0,0-1.5-3.88c-.44-.82,0-1.17.47-1.46a1.82,1.82,0,0,1,1.42-.25A17.55,17.55,0,0,1,500.12,808.05Z" />
    <path class="cls-5"
        d="M502.51,873.94l.66-1.18,1.32.63,3.07,3.55c.11,1.22.58,1.67,1.52,1.34a29.48,29.48,0,0,1,13.74-1.58c1.4.19,2.78.44,4.17.66a8.72,8.72,0,0,1-6.82,5.37c-6.69,1.3-11.57-1.93-15.92-6.42A18.77,18.77,0,0,1,502.51,873.94Z" />
    <path class="cls-4"
        d="M511.21,809.82a6.46,6.46,0,0,1,2.8-4,1.11,1.11,0,0,0,.49-.71,28.21,28.21,0,0,0,.23-3.55,3.94,3.94,0,0,0-.59-1.46,27.36,27.36,0,0,1-1.51-2.95c-.88-2.46.86-3.82,2.39-5.23,1.1-.12,2.2-.27,3.3-.33.47,0,1.12,0,1.37.25a1.75,1.75,0,0,1,.08,1.38c-.3,1-.81,1.91-1.11,2.89-.84,2.72.13,5.31.61,7.94.08.39.22.76.31,1.15.52,2.14.19,2.86-2,3.39S513.35,809.43,511.21,809.82Z" />
    <path class="cls-4"
        d="M517.91,831.43c0-3-1.38-5.76-2.17-8.61-.65-2.35-1.14-4.75-1.71-7.13-.07-.3-.15-.61-.22-.92,1.1.17,2.21.28,3.29.52a1.48,1.48,0,0,1,1,.75,46.8,46.8,0,0,1,2.63,12.82,27.61,27.61,0,0,1-.22,3.73Z" />
    <path class="cls-2"
        d="M486.1,893.55c4.38,6.28,10.24,9.71,17.91,9.86-3.25,2.59-9.22,3.16-12,1.1C488.42,901.84,486,898.48,486.1,893.55Z" />
    <path class="cls-2"
        d="M527,877.36c-1.39-.22-2.77-.47-4.17-.66a29.48,29.48,0,0,0-13.74,1.58c-.94.33-1.41-.12-1.52-1.34l.13-.43a72.54,72.54,0,0,1,7-1.91c4.28-.75,8.56-.06,12.83.39l.91.55,0,1.83Z" />
    <path class="cls-2"
        d="M358.2,897.9a29.39,29.39,0,0,1-7.38,5.4c-4.89,2.69-9.52,1.84-14-1.09C344.5,903.51,351.4,901.08,358.2,897.9Z" />
    <path class="cls-5"
        d="M528.45,877.37l0-1.83c.08-.75.17-1.49.25-2.24v-1.81l-.5-2.36a1.4,1.4,0,0,0,0-1.89l-.25-2.19a1.87,1.87,0,0,0-.74-2.4l0-2.32a1.74,1.74,0,0,0-.49-2.07l-.49-2.08c.27-1.39-1-1.75-1.67-2.52.45-.28,1.32-.63,1.29-.82a8.24,8.24,0,0,0-.89-2l.47-1.16a4.24,4.24,0,0,1,1.9,4.16,7.49,7.49,0,0,0,.29,4.06c1,4,1.82,8,2.71,12,.76,3.4-.29,6.34-2.43,9Z" />
    <path class="cls-6"
        d="M484.83,878.48a56,56,0,0,1-3.06,19.06,26.64,26.64,0,0,1-1.22-4.65,12,12,0,0,1,.51-4.45c1-3.38,2.24-6.69,3.39-10Z" />
    <path class="cls-2"
        d="M538.84,899.49a5.4,5.4,0,0,1-.25,1.24c-1.11,2.27-2.35,4.46-4.59,5.82-1.72,1-3.3,1.12-4.57-.47a17.64,17.64,0,0,0-1.89-1.74C532.31,904.75,535.47,902.17,538.84,899.49Z" />
    <path class="cls-2"
        d="M525.47,849.72l-.47,1.16a8.24,8.24,0,0,1,.89,2c0,.19-.84.54-1.29.82h0l-3.8-1.68q-1-2.62-2-5.26a3.19,3.19,0,0,1,.7.08l5.07,1.82C524.88,849,525.17,849.36,525.47,849.72Z" />
    <path class="cls-4"
        d="M512.91,813.86c-.42-1-.85-2.09-1.28-3.13,1.89-.16,3.79-.3,5.67-.48,1.32-.12,1.52.11,1.12,1.34-.17.53-.08,1.44-.38,1.57a10.54,10.54,0,0,1-2.87.67A18.88,18.88,0,0,1,512.91,813.86Z" />
    <path class="cls-2"
        d="M371.69,849.15l2.62.67,2.21,1,1.61,1.28a1.54,1.54,0,0,1,.43,2.28c-.61.7-1.26.54-1.88-.12a13.53,13.53,0,0,0-2.19-1.6l-1.85-.93Z" />
    <path class="cls-2"
        d="M517.17,843.09l5.84,1.64c.3.08.6.18.9.27.11.63.21,1.26.31,1.89a10,10,0,0,1-1.9-.11c-1.41-.37-2.79-.84-4.18-1.27C517.82,844.7,517.5,843.89,517.17,843.09Z" />
    <path class="cls-5"
        d="M518.14,845.51c1.39.43,2.77.9,4.18,1.27a10,10,0,0,0,1.9.11c.12.58.24,1.16.37,1.74l-5.07-1.82a3.19,3.19,0,0,0-.7-.08C518.6,846.32,518.37,845.92,518.14,845.51Z" />
    <path class="cls-3" d="M355.9,846.44l-2.72.39a5,5,0,0,1,2.94-2.67Z" />
    <path class="cls-2" d="M320.62,898.41l-2.33.85-.12-2.12Z" />
    <path class="cls-6" d="M379.88,881.51l.15-.14,0,.16-.19,0Z" />
    <path class="cls-5" d="M501.83,875.05l.09-.32Z" />
    <path class="cls-5"
        d="M334.41,876.68c3.63-.14,6.89,1.17,10.15,2.51.13,0,.19.24.28.36a10.69,10.69,0,0,1-9.31.48C333.41,879.24,333.25,878.61,334.41,876.68Z" />
    <path class="cls-1"
        d="M334.41,876.68c-1.16,1.93-1,2.56,1.12,3.35a10.69,10.69,0,0,0,9.31-.48c.63.32,1.24.66,1.87,1a1.67,1.67,0,0,0,2.48-.66l3.62-1.19,1.08.32c-.29.22-.53.57-.85.66-2.57.71-5.14,1.87-7.73,1.94-3.9.12-7.91.47-11.7-1a1.63,1.63,0,0,1-1.25-1.68c0-.78.14-1.57.21-2.35Z" />
    <path class="cls-5"
        d="M349.92,870.94l-2.18,2.53c-3.25-1.5-6.72-1.63-10.2-1.67l.88-1.33a11.19,11.19,0,0,1,1.28-.16c2.16,0,4.33-.17,6.49-.07A24.46,24.46,0,0,1,349.92,870.94Z" />
    <path class="cls-5"
        d="M346.17,875.52c-.08.56-.16,1.11-.23,1.67-2.35-.75-4.69-1.51-7-2.24-.69-.21-1.42-.33-2.13-.49l0-.41a35,35,0,0,1,3.83,0C342.52,874.3,344.53,874.24,346.17,875.52Z" />
    <path class="cls-5" d="M352.81,878.67l-3.62,1.19-.52-1.11,2.21-1.58Z" />
    <path class="cls-5" d="M347.1,877.57l1.79-1.41,1,.73-1.81,1.26Z" />
    <path class="cls-1" d="M348.07,878.15l1.81-1.26,1,.28-2.21,1.58Z" />
    <path class="cls-5" d="M347.13,859c-.27.5-.53,1-.8,1.52l-.85-.21.66-1.35Z" />
    <path class="cls-2"
        d="M349.92,870.94a24.46,24.46,0,0,0-3.73-.7c-2.16-.1-4.33,0-6.49.07a11.19,11.19,0,0,0-1.28.16c-.64-1.28-.38-2,.9-2.36l1.13-.35a32.37,32.37,0,0,1,10.89,1.39Z" />
    <path class="cls-5"
        d="M351.34,869.15a32.37,32.37,0,0,0-10.89-1.39l1-1.44,4.62-.23a3.15,3.15,0,0,0,2.79.15l4.13.87Z" />
    <path class="cls-2" d="M346.07,866.09l-4.62.23c-.54-1.44-.34-1.76,1.37-2.2l2.75-.13Z" />
    <path class="cls-2"
        d="M345.48,860.26l.85.21c-.15.77-.29,1.54-.44,2.31l-2.3.18c-.71-1.28-.5-1.82.89-2.31C344.82,860.54,345.15,860.39,345.48,860.26Z" />
    <path class="cls-5"
        d="M343.59,863l2.3-.18c-.11.41-.22.81-.32,1.21l-2.75.13C343.08,863.74,343.34,863.35,343.59,863Z" />
    <path class="cls-4"
        d="M358.63,675.83c.09.06.26.11.27.19.09.76.16,1.52.25,2.39a2.29,2.29,0,0,1-.67-.37,21.78,21.78,0,0,1-6.42-12c-.31-2,1.19-4.39,3.13-4.49a3.58,3.58,0,0,1,2.59,1.71,9.47,9.47,0,0,1,1.16,4.19,68.89,68.89,0,0,1-.44,7c0,.13-.16.26-.24.39-.49-1.66-1-3.33-1.47-5a15.18,15.18,0,0,0-.66-1.56l-.54.22a12.58,12.58,0,0,0,2.7,7h0Z" />
    <path class="cls-1"
        d="M378.94,654.22c-.81,4.89-1.53,9.8-2.46,14.67a11.17,11.17,0,0,1-3.62,6.63c.1-.53.16-.9.25-1.27,1.18-4.54,2.38-9.07,3.54-13.62.64-2.5,1.21-5,1.81-7.54Z" />
    <path class="cls-1"
        d="M358.29,675.59a12.58,12.58,0,0,1-2.7-7l.54-.22a15.18,15.18,0,0,1,.66,1.56c.51,1.65,1,3.32,1.47,5Z" />
    <path class="cls-4" d="M495.8,686.39l.06-.1-.06.09Z" />
    <path class="cls-1" d="M358.63,675.83l-.35-.25Z" />
    <path class="cls-1"
        d="M473.94,668.76c3.09,6.36,6.84,12.21,12.72,16.44a8.27,8.27,0,0,1-4.39-2.14c-2.9-2.63-4.68-6-6.42-9.44-.79-1.54-1.45-3.14-2.17-4.72Z" />
    <path class="cls-1"
        d="M324.51,887.43c1.21-.66,2.23-.11,3.22.35a26.61,26.61,0,0,0,12.29,2.5,54.05,54.05,0,0,0,7.83-1.33,15.3,15.3,0,0,0,2.2-.73C347.47,893,328,892.42,324.51,887.43Z" />
    <path class="cls-2" d="M352.5,871.84l1.2-1.86,2.82,1.47,1,.53,2.12,2.32-.06,1-1.2.84-.82-.24-1.92-2-1-.62Z" />
    <path class="cls-2" d="M350.88,877.17l-1-.28-1-.73,1.42-1.61,2.15,1,.77.35,1.84,1.58-.41,1.16-.77.37-1.08-.32Z" />
    <path class="cls-1"
        d="M371.69,864.25l0,.94c-1.5,1.38-3,2.77-4.51,4.14a11.44,11.44,0,0,1-.95.67l.11-1.15c1.41-1.32,2.8-2.66,4.24-4A6.41,6.41,0,0,1,371.69,864.25Z" />
    <path class="cls-1"
        d="M359.62,875.27l.06-1,2.68-2.14,1.62-.64-.15.78c-1.05.84-2.09,1.7-3.17,2.51A4.9,4.9,0,0,1,359.62,875.27Z" />
    <path class="cls-1" d="M354.66,878.62c.14-.39.27-.78.41-1.16l2.53-1.59.82.24A5.47,5.47,0,0,1,354.66,878.62Z" />
    <path class="cls-1" d="M377,859.66l-.44-.71,2.57-2,.12.14Z" />
    <path class="cls-4" d="M372.64,851.74l1.85.93-1.16.83Z" />
    <path class="cls-1" d="M379.62,856.53l.26-.23h0l-.17.29Z" />
    <path class="cls-1" d="M380.6,855.59l.25-.24h0l-.24.24Z" />
    <path class="cls-1" d="M380.36,855.82l-.24.24h0l.24-.24Z" />
    <path class="cls-1" d="M379.37,856.76l.25-.23.09.07-.2.28Z" />
    <path class="cls-1" d="M380.85,855.35l.09-.17.08.11-.18.05Z" />
    <path class="cls-1" d="M380.36,855.83l.24-.24h0l-.24.24Z" />
    <path class="cls-1" d="M379.13,857l.24-.23.14.12a3.07,3.07,0,0,1-.26.25Z" />
    <path class="cls-1" d="M379.88,856.3l.24-.23h0l-.24.25Z" />
    <path class="cls-1"
        d="M531.17,891.47a57.39,57.39,0,0,1-16.23,1.3,112.06,112.06,0,0,1-11.38-1.47,5.86,5.86,0,0,1-4.8-4.66,4.21,4.21,0,0,1,.21-1.53l1.29.71a.49.49,0,0,1,.16.19c2.35,3.7,6.05,4.87,10.1,5.3,3,.32,6.09.67,9.15.7s6-.36,8.92-.53C529.45,891.43,530.31,891.47,531.17,891.47Z" />
    <path class="cls-1" d="M488,860.25c-2.39-3.52-3.31-6.94-1.83-9.75l2,9.63Z" />
    <path class="cls-1" d="M497,868.31l.42-1.55,3.41,5.22-.71,1Z" />
    <path class="cls-1" d="M488.14,860.13l.25.53-.16.08-.25-.49Z" />
    <path class="cls-2"
        d="M528.69,871.49v1.81l-1,.26A34.81,34.81,0,0,0,509.44,872a43.71,43.71,0,0,0-4.28,1.28l-.67.07-1.32-.63,1.14-1.82a11.3,11.3,0,0,0,1.16-.22,36.9,36.9,0,0,1,17.16-.78c1.56.29,3.1.64,4.65,1Z" />
    <path class="cls-5"
        d="M527.28,870.91c-1.55-.33-3.09-.68-4.65-1a36.9,36.9,0,0,0-17.16.78,11.3,11.3,0,0,1-1.16.22l2.72-3.69c3.21,0,6.42-.23,9.62-.12a26.47,26.47,0,0,1,10.66,2.2Z" />
    <path class="cls-2"
        d="M527.31,869.33a26.47,26.47,0,0,0-10.66-2.2c-3.2-.11-6.41.07-9.62.12l1.58-2.38a54.38,54.38,0,0,1,18.18,1.73l1.42.64a1.4,1.4,0,0,1,0,1.89Z" />
    <path class="cls-2"
        d="M492.74,845.29c2.9-.83,5.78-1.73,8.71-2.45a24.44,24.44,0,0,1,3.76-.35c-1,1-2,1.91-3.06,2.88l-2.62,2.53-6.25,1.61-.62-.13-.46-1.24c0-.19.07-.45,0-.56C491.3,846.54,491.79,845.86,492.74,845.29Z" />
    <path class="cls-5"
        d="M526.79,866.6a54.38,54.38,0,0,0-18.18-1.73l2.07-3,4.36-.06.66,1a3.21,3.21,0,0,0,5.07.39l.67-.67,5.4,2.79Z" />
    <path class="cls-2"
        d="M508.52,860.14l-1.16,2.4a12.48,12.48,0,0,0-2.22.28c-1.85.59-3.67,1.29-5.51,1.94h-.93a.31.31,0,0,0,0-.19c.39-.84.79-1.68,1.18-2.51a13.26,13.26,0,0,1,1.36-.41C503.65,861.14,506.09,860.65,508.52,860.14Z" />
    <path class="cls-5"
        d="M499.63,864.76c1.84-.65,3.66-1.35,5.51-1.94a12.48,12.48,0,0,1,2.22-.28l-2.17,2.94c-.56.11-1.14.19-1.7.34-.93.25-1.84.54-2.77.82Z" />
    <path class="cls-5"
        d="M508.52,860.14c-2.43.51-4.87,1-7.3,1.52a13.26,13.26,0,0,0-1.36.41c.12-.8.4-1.44,1.36-1.45a8.18,8.18,0,0,0,6.63-3.41,7.06,7.06,0,0,1,.67-.67l1.38.06Z" />
    <path class="cls-2" d="M526.84,865.26l-5.4-2.79.6-2.15,4.23,1.75,1,.58a1.87,1.87,0,0,1,.74,2.4Z" />
    <path class="cls-2"
        d="M501.06,850.27a15.34,15.34,0,0,1,1.81-2.7,27,27,0,0,1,3.13-2.33l1.34.06a25.27,25.27,0,0,1-1.18,2.25c-.64,1-1.37,1.85-2.07,2.77Z" />
    <path class="cls-2" d="M526.76,858.26a1.74,1.74,0,0,1,.49,2.07l-1.2.33-3.86-2v-2.36l3.43,1.14Z" />
    <path class="cls-5"
        d="M500.83,872l-3.41-5.22,1.26-2.18a.31.31,0,0,1,0,.19l1.18,2.62c.12.53.08,1.35.39,1.52s1.1-.07,1.67-.11c.38,0,.76,0,1.15,0Z" />
    <path class="cls-2"
        d="M515.51,850.82c-.36-1.66-.73-3.31-1.08-5-.15-.7-.26-1.4-.42-2.3,1.71.8,1.63,2.39,2.18,3.61s1.12,2.59,1.67,3.88Z" />
    <path class="cls-2"
        d="M503.09,868.81c-.39,0-.77,0-1.15,0-.57,0-1.26.34-1.67.11s-.27-1-.39-1.52l.84-.75c.93-.28,1.84-.57,2.77-.82.56-.15,1.14-.23,1.7-.34Z" />
    <path class="cls-2" d="M524.6,853.66c.66.77,1.94,1.13,1.67,2.52l-.68.63-3.83-1.66-.54-2.41,3.39.93Z" />
    <path class="cls-2" d="M498.71,848.72c-.35.79-.71,1.58-1.07,2.37l-3.63.83c-1.25-.52-1.37-1-.54-2.07Z" />
    <path class="cls-1"
        d="M497,862.2c-1-2-2-4.05-2.92-6.09a4.2,4.2,0,0,1-.22-1l1.45.42.77,1.52c-.46.86-.34,1.54.63,1.94l1,2Z" />
    <path class="cls-5" d="M519.79,857.76c0,.72,0,1.43,0,2.14l-2.89-.22-.51-2.46Z" />
    <path class="cls-2" d="M515,861.76l-4.36.06.8-2.22,2.92,0C514.61,860.3,514.83,861,515,861.76Z" />
    <path class="cls-2" d="M519.79,857.76l-3.39-.54-.15-2.16,3.15.29Z" />
    <path class="cls-5" d="M522.19,858.68l3.86,2,.22,1.41L522,860.32Z" />
    <path class="cls-2" d="M495.33,855.51l-1.45-.42,0,0,.48-1.67,2.83-1c-.07.82-.15,1.64-.23,2.46Z" />
    <path class="cls-5" d="M514.4,859.57l-2.92,0c.28-1,.57-1.91.85-2.87l1.49,0Z" />
    <path class="cls-2" d="M499.38,854.1c.18-.7.37-1.41.56-2.12l3.09-.37-1.26,2.3Z" />
    <path class="cls-2" d="M516,853.71l-.3-2.19,2.42.23c.24.78.49,1.56.74,2.34Z" />
    <path class="cls-2" d="M506.61,854.63l-1.44,2.15-2.13,0,1.11-2.19Z" />
    <path class="cls-5" d="M503,851.61l-3.09.37a1.56,1.56,0,0,1,1.12-1.71l3,.05Z" />
    <path class="cls-2"
        d="M516.91,859.68l2.89.22a8.4,8.4,0,0,1-.7,1.71c-.45.64-1.07.71-1.47-.09A18.48,18.48,0,0,1,516.91,859.68Z" />
    <path class="cls-5" d="M497.21,852.43l-2.83,1-.37-1.52,3.63-.83C497.5,851.54,497.36,852,497.21,852.43Z" />
    <path class="cls-5" d="M516,853.71l2.86.38.53,1.26-3.15-.29Z" />
    <path class="cls-2" d="M509.9,856.6l-1.38-.06,1.47-4.79.24,0Z" />
    <path class="cls-5" d="M498.71,848.72l-5.24,1.13-.19-.34,6.25-1.61C499.26,848.18,499,848.45,498.71,848.72Z" />
    <path class="cls-5" d="M521.76,855.15l3.83,1.66,0,.65-3.43-1.14C522.05,855.93,521.91,855.54,521.76,855.15Z" />
    <path class="cls-2" d="M505.16,853.41l1.07-2,1.07.06c0,.68-.07,1.36-.11,2Z" />
    <path class="cls-5" d="M499.38,854.1l2.39-.19-.93,1.43-1.46.28Z" />
    <path class="cls-2" d="M496.73,859c-1-.4-1.09-1.08-.63-1.94l1-.49.93,2.07Z" />
    <path class="cls-2" d="M512.58,853.37v-4l.42,0,.56,4.08Z" />
    <path class="cls-5"
        d="M505.16,853.41l2,.11c-.2.37-.39.74-.58,1.11h-2.46C504.48,854.22,504.82,853.82,505.16,853.41Z" />
    <path class="cls-5" d="M503,856.82l2.13,0-2.89,1.84-.37-.45Z" />
    <path class="cls-2" d="M513.82,856.76l-1.49,0c0-.72.07-1.44.1-2.17l1.34,0Z" />
    <path class="cls-5" d="M497.06,856.54l-1,.49-.77-1.52,1.65-.62C497,855.44,497,856,497.06,856.54Z" />
    <path class="cls-5" d="M496.73,859l1.26-.36c.9.89.4,1.62-.26,2.33Z" />
    <path class="cls-5" d="M507.34,845.3l-1.34-.06,2.2-1.57.31.31Z" />
    <path class="cls-5" d="M507.3,851.48l-1.07-.06c.51-1.3.64-1.41,2-1.44C507.85,850.58,507.58,851,507.3,851.48Z" />
    <path class="cls-5" d="M524.61,853.67l-3.39-.93c-.13-.25-.27-.5-.41-.75Z" />
    <path class="cls-5" d="M518.13,851.75l-2.42-.23c-.07-.23-.13-.47-.2-.7l2.35.23Z" />
    <path class="cls-5" d="M513.77,854.59l-1.34,0,.15-1.19,1,0Z" />
    <path class="cls-2" d="M499.38,855.62l1.46-.28L500,857h-.31Z" />
    <path class="cls-5"
        d="M371.69,864.25a6.41,6.41,0,0,0-1.15.64c-1.44,1.3-2.83,2.64-4.24,4,0-1.7.09-3.41.13-5.12a3.56,3.56,0,0,1,1,.48c.6.55,1.2.7,1.77.07s.24-1.2-.26-1.67c-.66-.62-1.36-1.2-2-1.8l2.24-2.34,1.3.3Z" />
    <path class="cls-5"
        d="M374.64,860.52c.63,1,1.31,2,1.87,3.09a12.28,12.28,0,0,1,1.36,6,2.68,2.68,0,0,1-.4,1.26c-1.83-2.8-3.71-5.54-3.89-9Z" />
    <path class="cls-2"
        d="M364,871.52l-1.62.64L359.11,870l-1.27-.54L355.38,868l1.35-1.81,2.93,1.2c.14.74.68.76,1.26.69l3.07,1.91Z" />
    <path class="cls-2"
        d="M370.46,858.77l-1.3-.3c-1.33-1.11-1.51-1.1-2.49.19-.14.19-.3.35-.45.53-.17-.79-.34-1.58-.5-2.36s-.33-1.62-.49-2.42l4.57,1.51v-1l.08-.07a12.11,12.11,0,0,1,.45,1.67C370.43,857.23,370.42,858,370.46,858.77Z" />
    <path class="cls-2" d="M358.28,864.43l1.19-1.64,3.12,1,1.42.72,0,2.94-1.81-1-1.25-.55Z" />
    <path class="cls-5" d="M352.32,860.59c.28-.68.56-1.37.85-2.05l5.22,1.1-1.26,2.28Z" />
    <path class="cls-2" d="M358.39,859.64l-5.22-1.1c.27-.67.54-1.33.82-2l4.79,1Z" />
    <path class="cls-2" d="M369.34,852.23l.54,2.57-.08.07L365,853.41c-.24-.86-.49-1.72-.73-2.59Z" />
    <path class="cls-5" d="M358.78,857.55l-4.79-1,.67-1.95,4.54.56Z" />
    <path class="cls-2" d="M352.32,860.59l4.81,1.33c-.49.61-1,1.22-1.46,1.82l-4.13-1.08Z" />
    <path class="cls-5" d="M362.59,863.74l-3.12-1c.39-.85.77-1.69,1.15-2.54l3.39,1.37.23.72Z" />
    <path class="cls-5" d="M369.34,852.23l-5.08-1.41c-.35-.57-1.12-1.08-.26-1.82l4.37,1Z" />
    <path class="cls-2" d="M353,867.11l-4.13-.87,1.71-1.77,3.89.84Z" />
    <path class="cls-2" d="M359.2,855.15l-4.54-.56c.3-.71.59-1.42.88-2.13l4,.52Z" />
    <path class="cls-5" d="M352.46,875.53l-2.15-1,2.19-2.71,2.19,1.37Z" />
    <path class="cls-5" d="M355.38,868l2.46,1.48-1.32,2L353.7,870Z" />
    <path class="cls-5"
        d="M354.46,865.31l-3.89-.84c.32-.6.65-1.2,1-1.81l4.13,1.08C355.27,864.27,354.86,864.79,354.46,865.31Z" />
    <path class="cls-2"
        d="M366.92,860.81c.68.6,1.38,1.18,2,1.8.5.47.81,1.07.26,1.67s-1.17.48-1.77-.07a3.56,3.56,0,0,0-1-.48l0-2.92Z" />
    <path class="cls-5" d="M363.35,856c.23,1.05.45,2.1.68,3.15l-3-1c.12-.85.24-1.7.37-2.55Z" />
    <path class="cls-5" d="M358.28,864.43l2.64,1.39-1.26,1.52-2.93-1.2C357.07,865.41,357.31,864.59,358.28,864.43Z" />
    <path class="cls-2" d="M361,858.13l3,1c0,.81,0,1.63,0,2.45l-3.39-1.37C360.76,859.55,360.89,858.84,361,858.13Z" />
    <path class="cls-2" d="M356.33,851.41c.46-.62.92-1.23,1.37-1.85l2.53.35-.48,2.08Z" />
    <path class="cls-5" d="M362.17,866.37l1.81,1,0,.43c0,.33-.06.65-.1,1s.09.75.14,1.13L360.92,868Z" />
    <path class="cls-1" d="M366.92,860.81h-.46l-.24-1.62c.15-.18.31-.34.45-.53,1-1.29,1.16-1.3,2.49-.19Z" />
    <path class="cls-5" d="M365,853.41l4.81,1.46v1l-4.57-1.51Z" />
    <path class="cls-5" d="M356.33,851.41l3.42.58c-.08.33-.16.66-.25,1l-4-.52Z" />
    <path class="cls-2" d="M363.35,856l-2-.44c.09-.82.19-1.64.3-2.54l1.28.22Z" />
    <path class="cls-2"
        d="M374.64,860.52l-1.06,1.33c-.07,0-.2-.05-.2-.1-.27-1.61-.52-3.23-.78-4.85l.28-.14C373.46,858,374.05,859.26,374.64,860.52Z" />
    <path class="cls-2" d="M349.86,858.38c.66-2.48,1.45-3.65,2.69-3.65-.62,1.33-1.2,2.58-1.79,3.83Z" />
    <path class="cls-2"
        d="M350.13,860.17c-.38.91-.73,1.84-1.18,2.71-.13.26-.58.37-.88.54a2.67,2.67,0,0,1-.07-1,21.52,21.52,0,0,1,.89-2Z" />
    <path class="cls-2" d="M368.37,850.05,364,849A3.07,3.07,0,0,1,368.37,850.05Z" />
    <path class="cls-5" d="M360.23,849.91l-2.53-.35,1.3-1.16,1.91.24Z" />
    <path class="cls-4" d="M350.13,860.17l-1.24.22c.33-.67.65-1.34,1-2l.9.18Z" />
    <path class="cls-1" d="M362.59,863.74l1.65-1.4-.23,2.12Z" />
    <path class="cls-2" d="M360.91,848.64,359,848.4c.12-.16.2-.38.35-.46.4-.19.84-.32,1.26-.47Z" />
    <path class="cls-2" d="M363.85,868.81c0-.33.07-.65.1-1C363.92,868.16,363.89,868.48,363.85,868.81Z" />
    <path class="cls-1"
        d="M493.28,849.51l.19.34c-.83,1.1-.71,1.55.54,2.07l.37,1.52-.48,1.67c-.87-2.58-1.8-5.14-2.58-7.74s-.29-5.19.39-7.74a2.51,2.51,0,0,1,.26-.52c.26,2.13.52,4.16.77,6.18-.95.57-1.44,1.25-.57,2.29.1.11,0,.37,0,.56-.44.63-.19,1,.46,1.24Z" />
    <path class="cls-1" d="M504.49,873.39l.67-.07c.85,1.06,1.69,2.13,2.53,3.19l-.13.43Z" />
    <path class="cls-5"
        d="M507.69,876.51c-.84-1.06-1.68-2.13-2.53-3.19a43.71,43.71,0,0,1,4.28-1.28,34.81,34.81,0,0,1,18.28,1.52l-.2,1.43c-4.27-.45-8.55-1.14-12.83-.39A72.54,72.54,0,0,0,507.69,876.51Z" />
    <path class="cls-1" d="M527.52,875l.2-1.43,1-.26c-.08.75-.17,1.49-.25,2.24Z" />
    <path class="cls-1" d="M527.31,869.33l.88-.2c.17.79.33,1.57.5,2.36l-1.41-.58Z" />
    <path class="cls-1" d="M526.27,862.07l-.22-1.41,1.2-.33,0,2.32Z" />
    <path class="cls-1" d="M526.84,865.26l1.12-.21c.08.73.16,1.46.25,2.19l-1.42-.64Z" />
    <path class="cls-1" d="M525.62,857.46l0-.65.68-.63c.16.69.33,1.39.49,2.08Z" />
    <path class="cls-5" d="M359.11,870l3.25,2.19-2.68,2.14L357.56,872Z" />
    <path class="cls-5" d="M357.6,875.87l-2.53,1.59-1.84-1.58,2.45-2Z" />
    <path class="cls-1" d="M355.68,873.83l-2.45,2-.77-.35c.74-.77,1.49-1.54,2.23-2.32Z" />
    <path class="cls-1" d="M359.11,870l-1.55,2-1-.53,1.32-2Z" />
    <path class="cls-5" d="M492.66,849.38c-.65-.23-.9-.61-.46-1.24Z" />
    <path class="cls-1" d="M500.72,866.64l-.84.75-1.18-2.62h.93Z" />
    <path class="cls-1" d="M362.17,866.37,360.92,868c-.58.07-1.12.05-1.26-.69l1.26-1.52Z" />
</svg>
