<svg id="kapyushony_s_golovoy" data-name="kapyushony s golovoy" xmlns="http://www.w3.org/2000/svg"
    viewBox="0 0 672 960">
    <g id="img_52_img" data-name="img 52 img">
        <path class="outline"
            d="M462.41,172.08l.81,1.14.27.58c0,.54,0,1.09,0,1.63l-.49,1.49-4.06,2.26-1.09.46-1.09.45-.59.27L452.9,182l-.79.37q-5.14,5.22-10.29,10.44a9.35,9.35,0,0,1-.92.71c-.42-1.58-1.55-1.17-2.54-1l-.85,4.29a26.91,26.91,0,0,1-8.94,6.73c-4,2-7.94,4-12.33,4.87-2.65.53-5.36.85-8.05,1.2-3.08.4-6.17.73-9.27,1.08-4.39.5-8.66-.38-13-1-10-1.49-18.51-6.09-26.47-11.95a29.14,29.14,0,0,1-3.53-3.58c-2.48-2.6-5-5.2-7.42-7.83a5.92,5.92,0,0,1-1.25-1.75c-.46-1.15-1.25-1.12-2.21-.9a15.12,15.12,0,0,1-3.29.61,2.5,2.5,0,0,1-1.82-1c-.26-.37,0-1.27.3-1.79,1.75-3.09,3.84-6,3.95-9.78a4.67,4.67,0,0,1,1.17-2.54,23,23,0,0,0,3.78-7,128.15,128.15,0,0,0,3.69-13.32c.72-3.06,2.26-5.94,3.43-8.9-1.66-3.49-3.41-7.2-5.17-10.91-.1-.21-.19-.44-.27-.66a6,6,0,0,0-3.08-3.73,12,12,0,0,1-2.35-1.77l-.27.17,1.83,3.49-.37.24-4.77-6.17c-1.37,1.58-2.81,3.06-4,4.7s-2.1,3.39-3.29,5c.43-3.86,3.13-6.47,5.1-9.18-1.61-3-3.26-5.89-4.67-8.87a17.59,17.59,0,0,1-1.65-7.8c0-3.69.21-7.39.3-11.08a34.07,34.07,0,0,0-.22-5.14c-2.55,5.33-2.24,11-2.61,16.69a39.45,39.45,0,0,1-.85-16.09A13.47,13.47,0,0,0,329,95.4l-.72-.37V90.71a11.82,11.82,0,0,0,.51-1.87c.63-6.9,3.29-13.06,6.46-19.14a48.41,48.41,0,0,1,23.84-22.49,3.06,3.06,0,0,0,.43-.28l-7.1-1.48.05-.46c3.69.57,7.2-.41,10.74-1.06L373.74,42l0-.6c-1.93-.11-3.87-.17-5.8-.33s-3.83-.42-6-.67c6-2.56,18.78-1.56,24.47,1.75.48-1.19-3.09-4.89-5.84-6.13,4.39.29,7.36,2.88,9.95,6.4,1.53-3.29,4.09-5.22,6.93-6.79l-4.11,6.91.17.32c5.75-2.34,11-1,16.11,1.79-3.66-.43-7.4-1.57-10.79,1.59,9.86.27,16.66,6,23.34,12a21.35,21.35,0,0,0-9.34-2.39c1.94,1.72,3.87,3.25,5.58,5a49.36,49.36,0,0,1,10,15.93c1.73,4.14,3.27,8.36,4.87,12.56a13.17,13.17,0,0,1,.42,1.78l-.34.08c-.07-.29-.12-.58-.21-.86-1.37-4.34-2.88-8.62-5.78-12.23A5.59,5.59,0,0,0,425.9,77c4.32,9,4.91,18.52,5.06,28.13l-.31.06-.71-7.58-.37,0c0,1.16.08,2.32,0,3.47-.25,3.33-.66,6.64-.81,10a32.94,32.94,0,0,0,.45,5.32c.23,1.88.56,3.76.88,5.63a7.08,7.08,0,0,0,.45,1.19l-2.93-4.6a39.61,39.61,0,0,0-1.46,6.59v-7l-.33-.11c-.27.44-.54.87-.8,1.32-1.56,2.65-3.1,5.31-4.66,8-.54.92-1.17,1.76-2.48,1.58v2.35c1.68,0,3.34,0,5,0,4.89-.12,9.75-.21,14.5,1.29a13.32,13.32,0,0,1,7.82,6.45,24.91,24.91,0,0,0,2.86,3.66,11.59,11.59,0,0,0,1.61,1.43,4.88,4.88,0,0,1,1.62,5.26,7.16,7.16,0,0,0,1,5.24,6.38,6.38,0,0,1,.86,4.9c-.62,2.92,1.09,4.93,3.25,6.4a30.32,30.32,0,0,1,5.64,5.62ZM345.23,122.54l-.17.31.11,0,0-.34-.59-.16c.2.23.29.37.33.36A1,1,0,0,0,345.23,122.54Zm8,5.17,1.18,1.89a4.82,4.82,0,0,1,.24,1.37,2.77,2.77,0,0,0,1.35,2.72c.45.34.87.72,1.31,1.1.29-.84-.56-2.59-2.6-5.48l-1.11-1.92-.36,0Zm-.34-.58.34.13,0-.44c-1-1.71-2.05-3.43-3.11-5.11-.18-.29-.59-.43-.9-.64l-.47.51Zm87.72,55.26.46.38v-2.49c-2.14.15-2.14.15-2.21,3l.86.12a3.42,3.42,0,0,0-.58,1c-.12.86-.13,1.73-.18,2.6l.37,1.91,1.45-.52c.17-.29.48-.57.49-.87a24.25,24.25,0,0,0-.11-2.95,5.4,5.4,0,0,0-.36-1.21l-.29.08.12-1Zm-.39-2.76c.67.09,1-.2.89-.88-.16-1.06-.29-2.13-.49-3.18-.5-2.53-.88-5.09-1.58-7.57a27,27,0,0,1-1.15-8.51c.05-1.06,0-2.12,0-3.17-1.81-.3-2.08-.1-2.12,1.12a17.32,17.32,0,0,1-.45,5c-.56,1.6.2,2.78.52,4.09.49,2.07,1.22,4.08,1.86,6.11a13.6,13.6,0,0,1,.6,1.91c.19,1.32.28,2.66.42,4C438.6,180.11,438.66,180.15,440.21,179.63Zm.35-27.31-1,3.7-.08.47-.15,1.44-.11,1.19-.18,1.93-.13,2.38.09.45.11.47.11.5.13.46.19.62.22.83.49,1.35a7.91,7.91,0,0,0,.16.82,56.15,56.15,0,0,1,2.22,19.46l-.2,2.28.34.17c.87-.84,1.76-1.67,2.63-2.52,2.61-2.57,5.06-5.31,7.85-7.66a49.87,49.87,0,0,1,6.51-4c1.3-.78,1.94-2.3,1.2-3.29a80.16,80.16,0,0,0-6-7.46,9.89,9.89,0,0,1-3.16-7.22,9.12,9.12,0,0,0-.29-3,21.11,21.11,0,0,1-.92-6.6,5.79,5.79,0,0,0-.89-3.26,46.87,46.87,0,0,0-4.25-4.32c-.67,1.41-1.27,2.65-1.84,3.91-.73,1.58-1.43,3.17-2.15,4.76Zm-25.36-21c-.61.83-1.23,1.65-1.84,2.49a78,78,0,0,1-19.11,18.68c-2.22,1.51-4.38,3.09-6.64,4.52a3.06,3.06,0,0,1-2.21.46,32.62,32.62,0,0,1-5.71-2.13c-3.21-1.62-6.31-3.46-9.46-5.2-.28-.16-.57-.3-1-.49,0,.34,0,.5,0,.66.43,4.18,1,8.37,1.25,12.56a4.28,4.28,0,0,0,2.77,4.1c2.83,1.2,5.62,2.5,8.47,3.66,1.47.59,3,1,4.54,1.47,3.34,1.13,6.55,0,9.78-.57,1.68-.29,1.8-.56,1.76-2.3a50.37,50.37,0,0,0-.2-5.5c-.31-2.4.47-4.62.85-6.91.16-1,.41-1.94.61-2.9h.34c.12.92.28,1.84.32,2.76a2.22,2.22,0,0,1-.85,2.22c-.21.14-.27.62-.29,1-.15,2.45-.3,4.91-.4,7.37-.05,1.26,0,2.53,0,3.87a3.56,3.56,0,0,0,.85,0c1.92-.54,3.84-1.07,5.73-1.68a24.81,24.81,0,0,0,3.57-1.37c2.14-1.06,4.21-2.27,6.33-3.39,1.48-.78,3-1.51,4.46-2.26-.6-2.22-1.33-4.38-1.75-6.6a123.38,123.38,0,0,1-1.86-24.42l.18-1-.38-.05Zm19.65,24.94.23-2c-.24.07-.37.07-.45.14a8.55,8.55,0,0,0-.74.61,35.74,35.74,0,0,1-11.46,7.22,127.73,127.73,0,0,0-17.11,8.47c-3.33,1.61-6.95,2.11-10.54,2.7a7.66,7.66,0,0,0-.83,0c-4.21.33-8.42.44-12.42-1.13-2.66-1-5.23-2.37-7.8-3.64a29.2,29.2,0,0,1-4.36-2.48c-2.94-2.14-5.78-4.41-8.62-6.67a11.78,11.78,0,0,1-4.78-7.49c-.31-2-.48-4-.7-5.95-.23.57-.58,1.31-.82,2.09-1.16,3.73-2.23,7.49-3.45,11.2-1.1,3.33-2.07,6.73-4.11,9.66a6.49,6.49,0,0,0-1,3.63,17.18,17.18,0,0,1-.64,4.1,43.43,43.43,0,0,1-1.8,4.3c-.26.6-.52,1.19-.87,2,1.4-.33,2.54-.69,3.71-.84a5.66,5.66,0,0,1,1.84.36c1.36.79,2.7,1.64,4.09,2.36,2.61,1.36,5.2,2.78,7.91,3.92,3.13,1.32,6.39,2.36,9.59,3.52-1-.16-1.93-.25-2.86-.49-4.84-1.2-9.74-2.22-14.21-4.58a10.92,10.92,0,0,0-1.28-.49,1.29,1.29,0,0,0,.34.9c1.48,1.63,2.94,3.27,4.45,4.86s3,3.55,4.81,4.82A126,126,0,0,0,372.15,204a53.91,53.91,0,0,0,6.54,2.59,51.6,51.6,0,0,0,14.86,2.64,94.22,94.22,0,0,0,10.47-.51c2.92-.21,5.92.25,8.74-.93a15.07,15.07,0,0,0,1.65-.07,33.18,33.18,0,0,0,10.42-3.34c3.11-1.63,6.16-3.37,9.21-5.1a2.84,2.84,0,0,0,1.51-3.08l-1.17-.15c1.61-.56,1.95-1.86,2-3.35l.1-.51.12-.94.07-.51.16-1.41.1-1,.16-3.56v-1.23l-.12-2.61-.12-1.23-.12-1.41-.13-1-.11-1.18-.15-1-.14-.93-.1-.51-.15-.93-.33-1.47-.1-.45-.15-.51-.1-.45-.6-2.19-.09-.46-.66-3.13v-1l.15-1.94.12-.93.13-.75.1-.69.13-.51.09-.7.13-.5ZM399.46,44.76l-.17-.3c-2.52.32-5,.52-7.09,2.4-1.31,1.2-1.49,1-2.86-.15-3.6-3-7.52-4.76-12.42-3.38-4.3,1.21-8.67,2.21-13.05,3.07A14.25,14.25,0,0,0,359,48.27,89.64,89.64,0,0,0,344.31,59.2,23,23,0,0,0,339,65.82c-1.12,2.35-2.28,4.67-3.4,7-1.22,2.55-2.42,5.11-3.62,7.67l.31.23a6.25,6.25,0,0,0,.88-.65c.8-.83,1.55-1.72,2.37-2.54a5.43,5.43,0,0,1,1.22-.66c-1.27,2-2.49,3.72-3.46,5.56a12.08,12.08,0,0,0-1.13,6.17l1.71-2.55.46.18c.24,3.07.59,6.14.69,9.22.13,3.9-.15,7.81.65,11.67.33,1.6.74,3.18,1.11,4.77l.46-.08-.43-6.36,6,12.42c1.44-1.1,2.69-2.09,4-3a1,1,0,0,0,.37-1.49c-.93-1.95-1.79-3.92-2.69-5.88-.28-.59-.59-1.16-1-2a19.64,19.64,0,0,0-2.36,6.55,2.88,2.88,0,0,1-.6-1.18,19.71,19.71,0,0,1,0-7c1.65-8.28,5.71-15.44,10.36-22.33a6.76,6.76,0,0,1,.94-.91c-.88,2.17-2,4.16-2.91,6.2a68.15,68.15,0,0,0-5.48,15.28,7.94,7.94,0,0,0,0,1.54c2.38-2.4,4.54-4.81,6.93-7a97.22,97.22,0,0,0,12.32-13.57,2.23,2.23,0,0,0,.32-1.4c-.4-4.56-.86-9.12-1.27-13.68-.07-.83,0-1.68,0-2.51l.45,0q1,7.65,2,15.28l.44.09,4.6-6.3.29.18a10.38,10.38,0,0,1-.6,1.36c-1.21,2.07-2.45,4.11-3.66,6.17a2.26,2.26,0,0,0-.45,1.19c.16,1.15.45,2.29.73,3.6,4.39-4.29,8.85-8.28,10.82-14.22a1.48,1.48,0,0,1,.16.75,4.41,4.41,0,0,1-.11.7A20.59,20.59,0,0,1,373,81.71c-2,2.82-4.58,5.19-6,8.42a3.33,3.33,0,0,0,0,3.09c10.43-11.43,19.84-23.27,24-38.47a7.58,7.58,0,0,1,0,2.52c-.93,3.38-1.89,6.74-2.95,10.08a1.46,1.46,0,0,0,.5,1.91c4.46,3.5,8.9,7,13.35,10.54a4.2,4.2,0,0,0,.7.36l.33-.19-3.6-8.64A37.69,37.69,0,0,1,407.22,95l20.07-.91c0-2.42.46-5.23-.1-7.82-.83-3.82-2.38-7.49-3.61-11.23-.11-.34-.15-.7-.23-1a3.73,3.73,0,0,1,1,.38c.85.66,1.65,1.39,2.47,2.09l.25-.21C423.22,68.38,418.61,61,411,55.83c1.69-1.1,3.36-.5,5.07-.73l-.65-.4a61,61,0,0,0-16.33-7.09,21.8,21.8,0,0,1-2.23-.83ZM419.31,103l-.63.33a4.92,4.92,0,0,0,.41,1.28c2.26,3.53,4.13,7.09,2.66,11.53-.67,2-1.74,3.34-3.9,3.67a.88.88,0,0,0-.57.56c-.35,1.63-.64,3.28-1,4.91-.17.86.31,1.19,1,1.54a1,1,0,0,0,1.49-.39c1.94-2.79,3.82-5.62,5.85-8.34a6.52,6.52,0,0,0,1.23-5.63c-.12-.54-.27-1.08-.43-1.61-1.24-4.17-2.4-8.35-5.35-11.74-1-1.19-2.09-1.44-3.06-.2a31.56,31.56,0,0,0-3.59,5.46,65,65,0,0,0-2.22,6.19c-.11.27-.55.42-.84.62-.11-.32-.36-.66-.32-1,.11-.87.36-1.72.51-2.58.21-1.27.39-2.54.59-3.81a17.41,17.41,0,0,0-1.84,2.91c-.57,1-1.2,2-1.79,3-1.35,2.25-1.35,2.25-2,2.3,1.75-2.36.61-5,.75-7.45s.6-5.17-.32-7.79a186.1,186.1,0,0,0-36.13,8.62c.64,2.14,1.21,4.21,1.88,6.24q4.73,14.13,9.49,28.24a8.36,8.36,0,0,1,.22,1.43,240.6,240.6,0,0,1-13.15-35.4c-2,.81-3.93,1.45-5.74,2.34-4.16,2-8.26,4.2-12.35,6.35-.34.18-.79.74-.72,1,.49,1.84.78,3.85,1.74,5.44q6.3,10.45,13,20.69a18.65,18.65,0,0,0,4.52,5.21A80.75,80.75,0,0,0,385,155.93a2.18,2.18,0,0,0,2.41-.31c4.09-3.14,8.32-6.12,12.26-9.44a83.76,83.76,0,0,0,14.21-14.87,2.24,2.24,0,0,0,.33-1,19.25,19.25,0,0,1,.22-2.86c.82-3.23,1.67-6.46,2.66-9.65a22.87,22.87,0,0,1,1.61-2.77c.73-1.56,1.09-3-.48-4.49a4.17,4.17,0,0,1-1.47-2.76,11.75,11.75,0,0,1,2.72-6.85,1.09,1.09,0,0,1,.91-.35c.27.08.46.49.73.81l-1.17.15c.16.23.33.46.47.71.69,1.19,1.37,2.39,2.06,3.6l-.3.17ZM387,70c-1.5,2.47-2.86,4.91-4.41,7.23A109.6,109.6,0,0,1,368,94.76c-.31.3-.67.84-.59,1.18.56,2.59,1.22,5.16,1.87,7.81a165.45,165.45,0,0,1,36.58-8.34c-.83-4.26-1.62-8.44-2.48-12.61a1.58,1.58,0,0,0-.83-.88A43.43,43.43,0,0,1,387,70Zm47.78,82.77c-1.5-.69-.86-1.29-.37-1.9a22.44,22.44,0,0,1,1.42-1.77c1.14-1.15,2.14-2.65,3.91-2.73a3.07,3.07,0,0,0,2.47-1.34,9.43,9.43,0,0,0,1.33-1.68,4.33,4.33,0,0,0,.45-2.22c-.54-4-3.27-6-6.8-7.24-6.11-2.1-12.48-1.39-18.77-1.59a1.11,1.11,0,0,0-.78.72c-.17,2.26-.33,4.53-.34,6.8,0,2.55.13,5.1.18,7.65a19.77,19.77,0,0,0,4.45,12.11,1.53,1.53,0,0,0,2.33.47c1.69-1.06,3.45-2,5.09-3.14S432.82,154.23,434.78,152.73ZM365,91.08l-.44-.19a1.09,1.09,0,0,0-.31.14,91.19,91.19,0,0,1-15.91,11,33.49,33.49,0,0,0-3.77,2.89l4.2,8.6a88.25,88.25,0,0,1,16.73-8.41c2.2-.86,2.2-.84,1.64-3.07-.43-1.71-.85-3.42-1.31-5.27a32.24,32.24,0,0,1-7.37,5.56,3.68,3.68,0,0,1,.7-1.58c.7-1,1.48-1.87,2.15-2.86,1-1.49,2-3,2.87-4.55A14.35,14.35,0,0,0,365,91.08Zm3.75,72.09a16.21,16.21,0,0,0,0-2.22c-.51-3.39-1.07-6.77-1.6-10.15-.28-1.76-.47-3.51-2-4.79a10.14,10.14,0,0,1-1.51-2.14,7,7,0,0,0-4.19-2.52,1.08,1.08,0,0,0-.94.35,5.69,5.69,0,0,0-1.19,2.17c-.61,4.92-.12,9.56,3.76,13.25A42.09,42.09,0,0,0,368.78,163.17Zm57.49-52.84a47.06,47.06,0,0,0,1.23-15.58c-6.82-.25-13.49.7-20.34,1.77.2,3.37.39,6.65.58,9.92a2.11,2.11,0,0,0,.53-.84c1-2.43,2-4.87,3-7.29.12-.28.55-.43.84-.64a2.72,2.72,0,0,1,.35.93c0,1.35-.15,2.71-.25,4.26.23-.34.38-.54.5-.76.83-1.52,1.1-3.25,2.9-4.31s3.51-1.14,4.92.37a19.58,19.58,0,0,1,4.23,7.66C425.24,107.27,425.74,108.71,426.27,110.33ZM418,118.24c2,.15,2.31,0,3.14-1.84a7.69,7.69,0,0,0,.28-5,17.19,17.19,0,0,0-3.08-6.54c-1.27,2.15-.75,3.93.69,5.64a3.61,3.61,0,0,1,.73,3.66C419.24,115.55,418.57,116.89,418,118.24Zm-54.4-33.49A61.68,61.68,0,0,1,352.3,97.93c.49,0,.74,0,.85-.07q5.34-4.5,10.64-9a1.12,1.12,0,0,0,.41-.8C364.06,87,363.83,86,363.58,84.75Zm-8.84,49-.23.26c.71,1.46,1.4,2.93,2.14,4.38a2,2,0,0,0,.83,1c1.23.53,2.5.93,3.87,1.43C360.05,137.32,357.3,135.63,354.74,133.75Zm-5.55-14.28-1.09-3.68-3.91,2.88,3,3.33C347.29,120.62,347.57,119.57,349.19,119.47Zm-9,1c1.09-.58,1.06-1.2.54-2.1a33.09,33.09,0,0,1-1.62-3.59c-.36-.86-.66-1.75-1-2.7A11.58,11.58,0,0,0,340.19,120.46ZM437.3,152l.11-.44-1.31-.5.53-.67.09.39a3.68,3.68,0,0,0,1.11-.12c.35-.15.6-.52.93-.71.91-.53,1.52-2.08,1.06-2.8a7.11,7.11,0,0,0-4.44,4.37Zm1.52.51a6.79,6.79,0,0,1-1.25.16c-.91-.06-1.36.27-1.26,1.23a6,6,0,0,1,0,1c0,.93.41,1,1.12.7C438.35,155.14,438.86,154.08,438.82,152.49ZM441.06,192a15,15,0,0,0-.49-2.84c-.05-.13-1.54-.07-1.68.23a7.58,7.58,0,0,0-.35,2.42Zm-90.2-65.2,2.74,5.61C353.88,129.71,352.42,126.88,350.86,126.76Zm68.72,31.8-.24.13,1,3.3,1.45-.67ZM363.77,95.62c1.29,0,1.82-.89,1.3-2.09ZM402.6,80.33l.07-.08a.51.51,0,0,0-.15-.07s0,0-.07.07Z" />
        <path class="color-shadow"
            d="M437.51,196.81l.85-4.29c1-.19,2.12-.6,2.54,1-.4.45-.77.93-1.2,1.35C439,195.52,438.24,196.16,437.51,196.81Z" />
        <path class="color-shadow" d="M463,176.92l.49-1.49C463.32,175.92,463.16,176.42,463,176.92Z" />
        <path class="color-shadow" d="M457.84,179.64l1.09-.46Z" />
        <path class="color-shadow" d="M452.11,182.35l.79-.37Z" />
        <path class="color-shadow" d="M462.41,172.08l-.42-.52Z" />
        <path class="color-shadow" d="M463.49,173.8l-.27-.58Z" />
        <polygon class="outline" points="347.92 127.64 347.99 127.63 347.96 127.7 347.92 127.64" />
        <path class="color-shadow" d="M456.16,180.36l.59-.27Z" />
        <path class="transparent"
            d="M399.46,44.76l-2.57,2a21.8,21.8,0,0,0,2.23.83,61,61,0,0,1,16.33,7.09l.65.4c-1.71.23-3.38-.37-5.07.73,7.58,5.21,12.19,12.55,16.09,20.44l-.25.21c-.82-.7-1.62-1.43-2.47-2.09a3.73,3.73,0,0,0-1-.38c.08.35.12.71.23,1,1.23,3.74,2.78,7.41,3.61,11.23.56,2.59.1,5.4.1,7.82L407.22,95a37.69,37.69,0,0,0-8.07-23.69l3.6,8.64-.33.19a4.2,4.2,0,0,1-.7-.36c-4.45-3.51-8.89-7-13.35-10.54a1.46,1.46,0,0,1-.5-1.91c1.06-3.34,2-6.7,2.95-10.08a7.58,7.58,0,0,0,0-2.52c-4.11,15.2-13.52,27-24,38.47a3.33,3.33,0,0,1,0-3.09c1.46-3.23,4.05-5.6,6-8.42a20.59,20.59,0,0,0,3.48-7.43,4.41,4.41,0,0,0,.11-.7,1.48,1.48,0,0,0-.16-.75c-2,5.94-6.43,9.93-10.82,14.22-.28-1.31-.57-2.45-.73-3.6a2.26,2.26,0,0,1,.45-1.19c1.21-2.06,2.45-4.1,3.66-6.17a10.38,10.38,0,0,0,.6-1.36l-.29-.18-4.6,6.3-.44-.09q-1-7.64-2-15.28l-.45,0c0,.83-.06,1.68,0,2.51.41,4.56.87,9.12,1.27,13.68a2.23,2.23,0,0,1-.32,1.4,97.22,97.22,0,0,1-12.32,13.57c-2.39,2.15-4.55,4.56-6.93,7a7.94,7.94,0,0,1,0-1.54A68.15,68.15,0,0,1,349,86.8c.95-2,2-4,2.91-6.2a6.76,6.76,0,0,0-.94.91c-4.65,6.89-8.71,14-10.36,22.33a19.71,19.71,0,0,0,0,7,2.88,2.88,0,0,0,.6,1.18,19.64,19.64,0,0,1,2.36-6.55c.43.85.74,1.42,1,2,.9,2,1.76,3.93,2.69,5.88a1,1,0,0,1-.37,1.49c-1.3.92-2.55,1.91-4,3l-6-12.42.43,6.36-.46.08c-.37-1.59-.78-3.17-1.11-4.77-.8-3.86-.52-7.77-.65-11.67-.1-3.08-.45-6.15-.69-9.22l-.46-.18-1.71,2.55a12.08,12.08,0,0,1,1.13-6.17c1-1.84,2.19-3.55,3.46-5.56a5.43,5.43,0,0,0-1.22.66c-.82.82-1.57,1.71-2.37,2.54a6.25,6.25,0,0,1-.88.65L332,80.5c1.2-2.56,2.4-5.12,3.62-7.67,1.12-2.34,2.28-4.66,3.4-7a23,23,0,0,1,5.27-6.62A89.64,89.64,0,0,1,359,48.27a14.25,14.25,0,0,1,4.87-1.87c4.38-.86,8.75-1.86,13.05-3.07,4.9-1.38,8.82.34,12.42,3.38,1.37,1.17,1.55,1.35,2.86.15,2.05-1.88,4.57-2.08,7.09-2.4Z" />
        <path class="color-base"
            d="M412.76,207.81c-2.82,1.18-5.82.72-8.74.93a94.22,94.22,0,0,1-10.47.51,51.6,51.6,0,0,1-14.86-2.64,3.78,3.78,0,0,0-.62-.64c-1.53-.94-3.13-1.76-4.6-2.77-3.11-2.14-6.16-4.37-9.21-6.59-.63-.46-1.19-1-1.78-1.55l.16-.28L379.53,199a3.26,3.26,0,0,0-1-1.11c-2.11-1.43-4.22-2.85-6.35-4.24-.78-.52-1.61-.95-2.42-1.43-3.2-1.16-6.46-2.2-9.59-3.52-2.71-1.14-5.3-2.56-7.91-3.92-1.39-.72-2.73-1.57-4.09-2.36a27.87,27.87,0,0,1,.49-3.17,14.45,14.45,0,0,0,.55-6.24,8.08,8.08,0,0,1,.2-3.66c1.38-4.53,2.91-9,4.39-13.5.05-.15.12-.3.14-.35,1.59,1.56,2.95,3.06,4.48,4.35,1.92,1.6,4.08,2.93,6,4.56,3.94,3.4,8.52,5.69,13.22,7.8,4.45,2,9.18,2.24,13.95,2a17.12,17.12,0,0,0,3.21-.85c3.59-.59,7.21-1.09,10.54-2.7a2.29,2.29,0,0,0,.83,0c5.3-2.39,10.56-4.86,15.89-7.18a49.24,49.24,0,0,0,11.85-6.83,3.16,3.16,0,0,1,1-.38c-.05.31-.09.63-.13.94s-.09.33-.13.5l-.09.7c-.05.17-.09.34-.13.51s-.06.46-.1.69-.08.5-.13.75l-.12.93-.15,1.94v1a3.3,3.3,0,0,0,.66,3.13l.09.46.6,2.19.1.45.15.51.1.45.33,1.47.15.93.1.51c0,.31.09.62.14.93l.15,1c0,.39.08.78.11,1.18s.09.65.13,1l.12,1.41.12,1.23.12,2.61c0,.41,0,.82,0,1.23-.05,1.19-.11,2.37-.16,3.56,0,.33-.06.66-.1,1s-.1.94-.16,1.41c0,.17-.05.34-.07.51l-.12.94c0,.17-.07.34-.1.51,0,1.49-.36,2.79-2,3.35-.49.21-1,.4-1.48.64a13.67,13.67,0,0,1-1.42.82c-2,.7-4,1.32-6,2a12.36,12.36,0,0,0-2.81,1.21c-3.24,2.14-6.42,4.37-9.62,6.58A1.6,1.6,0,0,0,412.76,207.81Z" />
        <path class="transparent"
            d="M419.31,103l2.81,3.08.3-.17c-.69-1.21-1.37-2.41-2.06-3.6-.14-.25-.31-.48-.47-.71l1.17-.15c-.27-.32-.46-.73-.73-.81a1.09,1.09,0,0,0-.91.35,11.75,11.75,0,0,0-2.72,6.85,4.17,4.17,0,0,0,1.47,2.76c1.57,1.44,1.21,2.93.48,4.49a22.87,22.87,0,0,0-1.61,2.77c-1,3.19-1.84,6.42-2.66,9.65a19.25,19.25,0,0,0-.22,2.86,2.24,2.24,0,0,1-.33,1,83.76,83.76,0,0,1-14.21,14.87c-3.94,3.32-8.17,6.3-12.26,9.44a2.18,2.18,0,0,1-2.41.31,80.75,80.75,0,0,1-16.32-9.05,18.65,18.65,0,0,1-4.52-5.21q-6.64-10.24-13-20.69c-1-1.59-1.25-3.6-1.74-5.44-.07-.25.38-.81.72-1,4.09-2.15,8.19-4.3,12.35-6.35,1.81-.89,3.74-1.53,5.74-2.34a240.6,240.6,0,0,0,13.15,35.4,8.36,8.36,0,0,0-.22-1.43q-4.74-14.13-9.49-28.24c-.67-2-1.24-4.1-1.88-6.24a186.1,186.1,0,0,1,36.13-8.62c.92,2.62.45,5.23.32,7.79s1,5.09-.75,7.45c.7,0,.7,0,2-2.3.59-1,1.22-2,1.79-3a17.41,17.41,0,0,1,1.84-2.91c-.2,1.27-.38,2.54-.59,3.81-.15.86-.4,1.71-.51,2.58,0,.3.21.64.32,1,.29-.2.73-.35.84-.62a65,65,0,0,1,2.22-6.19A31.56,31.56,0,0,1,417,98.87c1-1.24,2-1,3.06.2,2.95,3.39,4.11,7.57,5.35,11.74.16.53.31,1.07.43,1.61a6.52,6.52,0,0,1-1.23,5.63c-2,2.72-3.91,5.55-5.85,8.34a1,1,0,0,1-1.49.39c-.67-.35-1.15-.68-1-1.54.33-1.63.62-3.28,1-4.91a.88.88,0,0,1,.57-.56c2.16-.33,3.23-1.64,3.9-3.67,1.47-4.44-.4-8-2.66-11.53a4.92,4.92,0,0,1-.41-1.28Z" />
        <path class="transparent"
            d="M415.55,131.3a123.38,123.38,0,0,0,1.86,24.42c.42,2.22,1.15,4.38,1.75,6.6-1.48.75-3,1.48-4.46,2.26-2.12,1.12-4.19,2.33-6.33,3.39a24.81,24.81,0,0,1-3.57,1.37c-1.89.61-3.81,1.14-5.73,1.68a3.56,3.56,0,0,1-.85,0c0-1.34-.05-2.61,0-3.87.1-2.46.25-4.92.4-7.37,0-.34.08-.82.29-1a2.22,2.22,0,0,0,.85-2.22c0-.92-.2-1.84-.32-2.76h-.34c-.2,1-.45,1.93-.61,2.9-.38,2.29-1.16,4.51-.85,6.91a50.37,50.37,0,0,1,.2,5.5c0,1.74-.08,2-1.76,2.3-3.23.55-6.44,1.7-9.78.57-1.5-.51-3.07-.88-4.54-1.47-2.85-1.16-5.64-2.46-8.47-3.66a4.28,4.28,0,0,1-2.77-4.1c-.3-4.19-.82-8.38-1.25-12.56,0-.16,0-.32,0-.66.39.19.68.33,1,.49,3.15,1.74,6.25,3.58,9.46,5.2a32.62,32.62,0,0,0,5.71,2.13,3.06,3.06,0,0,0,2.21-.46c2.26-1.43,4.42-3,6.64-4.52a78,78,0,0,0,19.11-18.68c.61-.84,1.23-1.66,1.84-2.49ZM377.4,155.71l-.31.15c.76,3.72,2.79,6.83,4.73,10l.32-.15Z" />
        <path class="transparent"
            d="M387,70a43.43,43.43,0,0,0,15.54,12,1.58,1.58,0,0,1,.83.88c.86,4.17,1.65,8.35,2.48,12.61a165.45,165.45,0,0,0-36.58,8.34c-.65-2.65-1.31-5.22-1.87-7.81-.08-.34.28-.88.59-1.18a109.6,109.6,0,0,0,14.6-17.57C384.14,74.87,385.5,72.43,387,70Z" />
        <path class="color-shadow"
            d="M434.78,152.73c-2,1.5-3.64,2.9-5.43,4.14S426,159,424.26,160a1.53,1.53,0,0,1-2.33-.47,19.77,19.77,0,0,1-4.45-12.11c-.05-2.55-.2-5.1-.18-7.65,0-2.27.17-4.54.34-6.8a1.11,1.11,0,0,1,.78-.72c6.29.2,12.66-.51,18.77,1.59,3.53,1.22,6.26,3.25,6.8,7.24a4.33,4.33,0,0,1-.45,2.22,9.43,9.43,0,0,1-1.33,1.68,3.07,3.07,0,0,1-2.47,1.34c-1.77.08-2.77,1.58-3.91,2.73a22.44,22.44,0,0,0-1.42,1.77C433.92,151.44,433.28,152,434.78,152.73Z" />
        <path class="color-base"
            d="M439.37,165.31c-.05-.15-.09-.31-.13-.46s-.08-.33-.11-.5-.08-.31-.11-.47l-.09-.45c.05-.79.09-1.59.13-2.38l.18-1.93c0-.39.07-.79.11-1.19l.15-1.44c0-.16.05-.32.08-.47.33-1.24.65-2.47,1-3.7l1-2.12,6.07-4.08a1.91,1.91,0,0,1,.41.59,13.82,13.82,0,0,1,.76,2.63c.45,3.26.87,6.52,1.19,9.79a9.79,9.79,0,0,0,3.22,6.7,22.2,22.2,0,0,1,3.15,3.42,11.31,11.31,0,0,1,1.5,3.2,1.56,1.56,0,0,1-.59,1.33c-1.42.95-3,1.72-4.4,2.64a11.58,11.58,0,0,0-2.51,2c-2,2.32-3.86,4.74-5.77,7.12-.29.36-.67.73.13.93h0c-.5.82-.73,1.93-2,1.92a56.15,56.15,0,0,0-2.22-19.46,7.91,7.91,0,0,1-.16-.82c-.17-.45-.33-.9-.49-1.35-.07-.28-.15-.55-.22-.83S439.43,165.52,439.37,165.31Z" />
        <path class="transparent"
            d="M365,91.08a14.35,14.35,0,0,1-.82,2.28c-.89,1.55-1.87,3.06-2.87,4.55-.67,1-1.45,1.9-2.15,2.86a3.68,3.68,0,0,0-.7,1.58,32.24,32.24,0,0,0,7.37-5.56c.46,1.85.88,3.56,1.31,5.27.56,2.23.56,2.21-1.64,3.07a88.25,88.25,0,0,0-16.73,8.41l-4.2-8.6a33.49,33.49,0,0,1,3.77-2.89,91.19,91.19,0,0,0,15.91-11,1.09,1.09,0,0,1,.31-.14Z" />
        <path class="color-shadow"
            d="M394.78,173.33a17.12,17.12,0,0,1-3.21.85c-4.77.29-9.5,0-13.95-2-4.7-2.11-9.28-4.4-13.22-7.8-1.9-1.63-4.06-3-6-4.56-1.53-1.29-2.89-2.79-4.48-4.35,0,0-.09.2-.14.35-1.48,4.5-3,9-4.39,13.5a8.08,8.08,0,0,0-.2,3.66,14.45,14.45,0,0,1-.55,6.24,27.87,27.87,0,0,0-.49,3.17,5.66,5.66,0,0,0-1.84-.36c-1.17.15-2.31.51-3.71.84.35-.78.61-1.37.87-2a43.43,43.43,0,0,0,1.8-4.3,17.18,17.18,0,0,0,.64-4.1,6.49,6.49,0,0,1,1-3.63c2-2.93,3-6.33,4.11-9.66,1.22-3.71,2.29-7.47,3.45-11.2.24-.78.59-1.52.82-2.09.22,1.91.39,3.94.7,5.95a11.78,11.78,0,0,0,4.78,7.49c2.84,2.26,5.68,4.53,8.62,6.67a29.2,29.2,0,0,0,4.36,2.48c2.57,1.27,5.14,2.59,7.8,3.64,4,1.57,8.21,1.46,12.42,1.13A7.66,7.66,0,0,1,394.78,173.33Z" />
        <path class="color-shadow"
            d="M444.68,186.46c-.8-.2-.42-.57-.13-.93,1.91-2.38,3.79-4.8,5.77-7.12a11.58,11.58,0,0,1,2.51-2c1.44-.92,3-1.69,4.4-2.64a1.56,1.56,0,0,0,.59-1.33,11.31,11.31,0,0,0-1.5-3.2,22.2,22.2,0,0,0-3.15-3.42,9.79,9.79,0,0,1-3.22-6.7c-.32-3.27-.74-6.53-1.19-9.79a13.82,13.82,0,0,0-.76-2.63,1.91,1.91,0,0,0-.41-.59l-6.07,4.08c.72-1.59,1.42-3.18,2.15-4.76.57-1.26,1.17-2.5,1.84-3.91a46.87,46.87,0,0,1,4.25,4.32,5.79,5.79,0,0,1,.89,3.26,21.11,21.11,0,0,0,.92,6.6,9.12,9.12,0,0,1,.29,3,9.89,9.89,0,0,0,3.16,7.22,80.16,80.16,0,0,1,6,7.46c.74,1,.1,2.51-1.2,3.29a49.87,49.87,0,0,0-6.51,4c-2.79,2.35-5.24,5.09-7.85,7.66-.87.85-1.76,1.68-2.63,2.52l-.34-.17c.06-.76.13-1.52.2-2.28,1.3,0,1.53-1.1,2-1.92l.08,0s0,0,0-.06Z" />
        <path class="color-shadow"
            d="M368.78,163.17a42.09,42.09,0,0,1-7.68-6c-3.88-3.69-4.37-8.33-3.76-13.25a5.69,5.69,0,0,1,1.19-2.17,1.08,1.08,0,0,1,.94-.35,7,7,0,0,1,4.19,2.52,10.14,10.14,0,0,0,1.51,2.14c1.53,1.28,1.72,3,2,4.79.53,3.38,1.09,6.76,1.6,10.15A16.21,16.21,0,0,1,368.78,163.17Z" />
        <path class="color-shadow"
            d="M369.76,192.24c.81.48,1.64.91,2.42,1.43,2.13,1.39,4.24,2.81,6.35,4.24a3.26,3.26,0,0,1,1,1.11l-16.89-4.24-.16.28c.59.52,1.15,1.09,1.78,1.55,3.05,2.22,6.1,4.45,9.21,6.59,1.47,1,3.07,1.83,4.6,2.77a3.78,3.78,0,0,1,.62.64,53.91,53.91,0,0,1-6.54-2.59A126,126,0,0,1,361,197.26c-1.84-1.27-3.25-3.17-4.81-4.82s-3-3.23-4.45-4.86a1.29,1.29,0,0,1-.34-.9,10.92,10.92,0,0,1,1.28.49c4.47,2.36,9.37,3.38,14.21,4.58C367.83,192,368.8,192.08,369.76,192.24Z" />
        <path class="transparent"
            d="M426.27,110.33c-.53-1.62-1-3.06-1.48-4.51a19.58,19.58,0,0,0-4.23-7.66c-1.41-1.51-3.24-1.34-4.92-.37s-2.07,2.79-2.9,4.31c-.12.22-.27.42-.5.76.1-1.55.21-2.91.25-4.26a2.72,2.72,0,0,0-.35-.93c-.29.21-.72.36-.84.64-1,2.42-2,4.86-3,7.29a2.11,2.11,0,0,1-.53.84c-.19-3.27-.38-6.55-.58-9.92,6.85-1.07,13.52-2,20.34-1.77A47.06,47.06,0,0,1,426.27,110.33Z" />
        <path class="color-shadow"
            d="M412.76,207.81a1.6,1.6,0,0,1,.31-.47c3.2-2.21,6.38-4.44,9.62-6.58a12.36,12.36,0,0,1,2.81-1.21c2-.7,4-1.32,6-2a13.67,13.67,0,0,0,1.42-.82c.48-.24,1-.43,1.48-.64l1.17.15A2.84,2.84,0,0,1,434,199.3c-3.05,1.73-6.1,3.47-9.21,5.1a33.18,33.18,0,0,1-10.42,3.34A15.07,15.07,0,0,1,412.76,207.81Z" />
        <path class="color-shadow"
            d="M438.72,178.56c-.14-1.33-.23-2.67-.42-4a13.6,13.6,0,0,0-.6-1.91c-.64-2-1.37-4-1.86-6.11-.32-1.31-1.08-2.49-.52-4.09a17.32,17.32,0,0,0,.45-5c0-1.22.31-1.42,2.12-1.12,0,1.05,0,2.11,0,3.17A27,27,0,0,0,439,168c.7,2.48,1.08,5,1.58,7.57.2,1.05.33,2.12.49,3.18.1.68-.22,1-.89.88-.08-.34-.15-.68-.24-1.07Z" />
        <path class="color-shadow"
            d="M434.85,156.22a3.16,3.16,0,0,0-1,.38A49.24,49.24,0,0,1,422,163.43c-5.33,2.32-10.59,4.79-15.89,7.18a2.29,2.29,0,0,1-.83,0,127.73,127.73,0,0,1,17.11-8.47,35.74,35.74,0,0,0,11.46-7.22,8.55,8.55,0,0,1,.74-.61c.08-.07.21-.07.45-.14Z" />
        <path class="transparent"
            d="M418,118.24c.59-1.35,1.26-2.69,1.76-4.09a3.61,3.61,0,0,0-.73-3.66c-1.44-1.71-2-3.49-.69-5.64a17.19,17.19,0,0,1,3.08,6.54,7.69,7.69,0,0,1-.28,5C420.29,118.2,420,118.39,418,118.24Z" />
        <path class="transparent"
            d="M363.58,84.75c.25,1.26.48,2.26.62,3.28a1.12,1.12,0,0,1-.41.8q-5.3,4.53-10.64,9c-.11.09-.36,0-.85.07A61.68,61.68,0,0,0,363.58,84.75Z" />
        <path class="transparent"
            d="M354.74,133.75c2.56,1.88,5.31,3.57,6.61,7-1.37-.5-2.64-.9-3.87-1.43a2,2,0,0,1-.83-1c-.74-1.45-1.43-2.92-2.14-4.38Z" />
        <path class="transparent" d="M349.19,119.47c-1.62.1-1.9,1.15-2,2.53l-3-3.33,3.91-2.88Z" />
        <path class="color-shadow"
            d="M439,187c.05-.87.06-1.74.18-2.6a3.42,3.42,0,0,1,.58-1l-.86-.12c.07-2.81.07-2.81,2.21-3v2.49l-.46-.38-.66-.2,0,.12.71.06-.12,1,.29-.08a5.4,5.4,0,0,1,.36,1.21,24.25,24.25,0,0,1,.11,2.95c0,.3-.32.58-.49.87C441,186.86,439.94,186.93,439,187Z" />
        <path class="transparent"
            d="M340.19,120.46a11.58,11.58,0,0,1-2.1-8.39c.36,1,.66,1.84,1,2.7a33.09,33.09,0,0,0,1.62,3.59C341.25,119.26,341.28,119.88,340.19,120.46Z" />
        <path class="color-shadow"
            d="M437.3,152l-1.92-.48a7.11,7.11,0,0,1,4.44-4.37c.46.72-.15,2.27-1.06,2.8-.33.19-.58.56-.93.71a3.68,3.68,0,0,1-1.11.12l-.09-.39-.53.67,1.31.5Z" />
        <path class="color-shadow"
            d="M438.82,152.49c0,1.59-.47,2.65-1.43,3-.71.29-1.17.23-1.12-.7a6,6,0,0,0,0-1c-.1-1,.35-1.29,1.26-1.23A6.79,6.79,0,0,0,438.82,152.49Z" />
        <path class="transparent"
            d="M354.7,129.31c2,2.89,2.89,4.64,2.6,5.48-.44-.38-.86-.76-1.31-1.1a2.77,2.77,0,0,1-1.35-2.72,4.82,4.82,0,0,0-.24-1.37Z" />
        <path class="color-shadow"
            d="M441.06,192l-2.52-.19a7.58,7.58,0,0,1,.35-2.42c.14-.3,1.63-.36,1.68-.23A15,15,0,0,1,441.06,192Z" />
        <path class="transparent"
            d="M352.88,127.13l-4.16-5.55.47-.51c.31.21.72.35.9.64,1.06,1.68,2.08,3.4,3.11,5.11Z" />
        <path class="transparent" d="M350.86,126.76c1.56.12,3,3,2.74,5.61Z" />
        <path class="transparent" d="M419.58,158.56l2.17,2.76-1.45.67-1-3.3Z" />
        <path class="color-base" d="M439,187c1,0,2-.1,1.82,1.39l-1.45.52Z" />
        <path class="transparent" d="M363.77,95.62l1.3-2.09C365.59,94.73,365.06,95.59,363.77,95.62Z" />
        <path class="color-base"
            d="M438.72,178.56H440c.09.39.16.73.24,1.07C438.66,180.15,438.6,180.11,438.72,178.56Z" />
        <path class="color-shadow"
            d="M440.56,152.32c-.33,1.23-.65,2.46-1,3.7C439.91,154.78,440.23,153.55,440.56,152.32Z" />
        <path class="color-shadow" d="M434.54,167.28a3.3,3.3,0,0,1-.66-3.13Z" />
        <path class="color-base" d="M354.7,129.31l-.3.29-1.18-1.89.37-.32Z" />
        <path class="color-shadow" d="M439.24,159.12l-.18,1.93Z" />
        <path class="color-shadow" d="M435.23,169.93l-.6-2.19Z" />
        <path class="color-shadow" d="M433.87,163.18l.15-1.94Z" />
        <path class="color-shadow" d="M439.5,156.49l-.15,1.44Z" />
        <path class="color-shadow" d="M435.91,172.81l-.33-1.47Z" />
        <path class="color-shadow" d="M437.06,184.8c0-.41,0-.82,0-1.23C437.06,184,437.06,184.39,437.06,184.8Z" />
        <path class="color-base" d="M415.55,131.3l-.35,0,.15-1,.38.05Z" />
        <path class="color-shadow" d="M436.93,181l-.12-1.23Z" />
        <path class="color-shadow" d="M439.78,166.76c.16.45.32.9.49,1.35C440.1,167.66,439.94,167.21,439.78,166.76Z" />
        <path class="color-shadow" d="M436.45,176.16l-.15-1Z" />
        <path class="color-shadow" d="M436.8,189.35c0-.33.07-.66.1-1C436.87,188.69,436.84,189,436.8,189.35Z" />
        <path class="color-shadow" d="M436.69,178.32c0-.33-.08-.66-.13-1C436.61,177.66,436.65,178,436.69,178.32Z" />
        <path class="color-shadow" d="M434.14,160.31c.05-.25.09-.5.13-.75C434.23,159.81,434.19,160.06,434.14,160.31Z" />
        <path class="color-shadow" d="M435.48,170.89l-.15-.51Z" />
        <path class="color-shadow" d="M436.16,174.25l-.1-.51Z" />
        <path class="color-shadow" d="M434.59,157.66c0-.17.09-.33.13-.5C434.67,157.33,434.63,157.49,434.59,157.66Z" />
        <path class="color-shadow" d="M438.93,163.43l.09.45Z" />
        <path class="color-shadow" d="M439.13,164.35c0,.17.07.33.11.5C439.2,164.68,439.16,164.52,439.13,164.35Z" />
        <path class="color-shadow" d="M439.37,165.31c.06.21.12.42.19.62C439.49,165.73,439.43,165.52,439.37,165.31Z" />
        <path class="color-shadow" d="M436.57,191.27c0-.17.05-.34.07-.51C436.62,190.93,436.59,191.1,436.57,191.27Z" />
        <path class="color-shadow" d="M434.37,158.87c0-.17.08-.34.13-.51C434.45,158.53,434.41,158.7,434.37,158.87Z" />
        <path class="color-shadow" d="M436.35,192.72c0-.17.06-.34.1-.51C436.41,192.38,436.38,192.55,436.35,192.72Z" />
        <path class="transparent" d="M345.23,122.53a.89.89,0,0,1-.28.21s-.13-.13-.33-.36l.59.16Z" />
        <path class="transparent" d="M402.6,80.33l-.15-.08s.05-.07.07-.07a.51.51,0,0,1,.15.07Z" />
        <path class="transparent" d="M353.59,127.39l-.37.32c0-.12,0-.24,0-.36Z" />
        <path class="transparent" d="M353.2,126.82l0,.44-.34-.13Z" />
        <path class="transparent" d="M345.21,122.54l0,.34-.11,0c.05-.11.11-.21.17-.32Z" />
        <path class="outline" d="M377.4,155.71l4.74,10-.32.15c-1.94-3.16-4-6.27-4.73-10Z" />
        <path class="color-base" d="M444.68,186.46l.1-.09s0,0,0,.06l-.08,0Z" />
        <path class="outline" d="M440.62,182.37l-.71-.06,0-.12.66.2Z" />
    </g>
</svg>
