<svg id="kapyushony_s_golovoy" data-name="kapyushony s golovoy" xmlns="http://www.w3.org/2000/svg"
    viewBox="0 0 672 960">
    <g id="img_57_img" data-name="img 57 img">
        <path class="outline"
            d="M328.28,90.7a10.67,10.67,0,0,0,.54-2c.6-6.87,3.28-13,6.43-19a48.35,48.35,0,0,1,23.84-22.5,3.09,3.09,0,0,0,.44-.28l-7.11-1.48.06-.46c3.68.57,7.19-.41,10.73-1.06L373.74,42l0-.53-11.54-1c5.66-2.67,18.46-1.66,24.17,1.64.49-1.19-3.1-4.9-5.84-6.13,4.39.29,7.36,2.89,10,6.4,1.52-3.29,4.08-5.21,6.92-6.79l-4.11,6.91.17.33c5.75-2.35,11-1,16.12,1.79-3.67-.44-7.4-1.58-10.8,1.58,9.85.26,16.66,6,23.34,12a21.77,21.77,0,0,0-9.55-2.41c1.37,1.1,2.53,2,3.62,2.92a45.8,45.8,0,0,1,11.64,16.8c1.94,4.53,3.63,9.17,5.41,13.77a10.55,10.55,0,0,1,.39,1.59c0,.07-.05.15-.11.32-.14-.16-.32-.27-.36-.42A34,34,0,0,0,427.26,78,4.9,4.9,0,0,0,425.89,77c4.37,9,4.87,18.53,5.1,28.14l-.34.06-.7-7.58h-.38c0,.47,0,.94,0,1.4a76.44,76.44,0,0,1-.89,12.37c-.21,1.64.31,3.38.55,5.08.26,1.9.57,3.8.86,5.7l-.37.16-1.87-3.56-.33,0a42.44,42.44,0,0,0-1.38,6.45v-7l-.35-.08-3.16,5.42c-.72,1.24-1.45,2.48-2.18,3.72-.58,1-1.27,1.86-2.6,1.77v2c1.47-.31,2.9-.64,4.34-.89s2.05.3,2.06,1.81c0,1,0,2.06,0,3.19,2.16-.38,4.26-.76,6.36-1.11a85.84,85.84,0,0,1,16.57-.72,8.85,8.85,0,0,1,6.93,3.74,9.79,9.79,0,0,1,1.41,2.52,12.6,12.6,0,0,0,3.37,4.89,7.52,7.52,0,0,1,2.51,6.33c-.13,1.42-.55,2.81-.67,4.23a14.18,14.18,0,0,0,3.38,11.07,87.9,87.9,0,0,1,6.61,8.95,4.4,4.4,0,0,1-2.32,6.56,31.58,31.58,0,0,1-3.44,1,33,33,0,0,0-9,3.8c-3.23,1.91-6.43,3.87-9.66,5.78a12.93,12.93,0,0,1-2.88,1.44,8.09,8.09,0,0,0-3.25,2.12,57.15,57.15,0,0,1-17.34,11.76,34.6,34.6,0,0,1-7.47,2c-4,.71-8,1.19-12,1.69a53.67,53.67,0,0,1-14.92-.49,70.36,70.36,0,0,1-15.7-4.1c-6.94-2.81-13.19-6.62-18.11-12.41-2.35-2.77-5.08-5.22-6.81-8.49-.37-.7-.71-1.41-1.15-2.27l-4.41,1.26c-.76.22-1.51.37-2.07-.38s-.21-1.44.19-2.2c2.56-5,6.24-9.35,8.05-14.67,1.39-4.1,2.38-8.34,3.36-12.57.76-3.29,1.15-6.68,1.86-10,.41-1.86,1.14-3.65,1.69-5.48a1.78,1.78,0,0,0,0-1.09c-1.75-3.85-3.52-7.7-5.36-11.51a5,5,0,0,0-1.51-1.56,19.43,19.43,0,0,0-3.4-2.18l1.79,3.54-.36.2-4.66-6.07a33.32,33.32,0,0,0-7.32,9.68c.36-3.91,3.06-6.52,5-9.23-1.61-3-3.26-5.89-4.67-8.87a17.73,17.73,0,0,1-1.65-7.8c0-3.69.21-7.39.3-11.08a34.07,34.07,0,0,0-.22-5.14c-2.55,5.33-2.24,11-2.61,16.68a39.58,39.58,0,0,1-.85-16.08A13.47,13.47,0,0,0,329,95.4l-.72-.38Zm17,31.83-.17.32.11,0,0-.34-.6-.16c.21.23.3.37.34.36A.89.89,0,0,0,345.23,122.53Zm8,5.18,1.18,1.89a5.62,5.62,0,0,1,.23,1.49,2.63,2.63,0,0,0,1.17,2.46l1.51,1.23c.28-.83-.57-2.58-2.61-5.47l-1.11-1.92-.36,0Zm-.34-.57.34.12,0-.44c-1-1.71-2.05-3.43-3.12-5.12-.18-.29-.59-.43-.9-.64l-.46.51ZM365,160.79a.3.3,0,0,0,0,.1s0,0,.08,0l-.11-.12c-.17-4.13-.69-8.17-2.65-11.92-1.26-2.43-.94-3.22,1.35-4.28.06,0,.09-.12.23-.36a6.25,6.25,0,0,0-1.26-1.41,19.44,19.44,0,0,0-3-1.48c-1.84-.73-2.24-.47-2.58,1.5a2.89,2.89,0,0,0,0,.83,73,73,0,0,0,1.29,7.38A19.56,19.56,0,0,0,365,160.79Zm73.6,34.71c-4.92,1.2-9.84,2.37-14.75,3.6-4.06,1-7.59,3.17-11.06,5.37a41.67,41.67,0,0,0-4.91,4.24l.2.3a8.81,8.81,0,0,0,.89,0,44.87,44.87,0,0,0,4.5-.5c3.07-.62,6.31-.93,9.1-2.19a95.23,95.23,0,0,0,11.69-6.75,36,36,0,0,0,4.46-3.95l.13-.15Zm-49.39,13.86a11.78,11.78,0,0,0,1.17.17c3.34.18,6.68.35,10,.47.25,0,.76-.41.75-.61-.2-3.6-.85-7.09-3.15-10-3.29-4.17-6.67-8.26-10-12.42a86,86,0,0,0-10.86-11.47c-3.34-2.9-6.67-5.79-9.91-8.79-1.82-1.68-3.49-3.52-5.13-5.37A24.22,24.22,0,0,1,355.65,147c-.06-.76,0-1.54,0-2.3-1.68,6.54-2.65,13.24-4.71,19.59s-5.21,12.42-7.85,18.55l5-1c.06.17.07.41.19.5,1.75,1.17,3.48,2.41,5.3,3.47a26.84,26.84,0,0,0,4.83,2.33c5.81,2,11.64,3.87,17.53,5.57a36.93,36.93,0,0,1,15.39,9.08,8.42,8.42,0,0,1,1,1.51l-1.07-.95c-3.27-2.9-6.69-5.66-10.8-7.22-4.8-1.81-9.74-3.28-14.66-4.76-4.12-1.24-8.3-2.28-12.44-3.44-.83-.24-1.62-.61-2.43-.92l-.18.29c1.55,1.76,3.17,3.47,4.64,5.3a37.71,37.71,0,0,0,9.6,8.56,48.72,48.72,0,0,0,13.9,6Zm-17.72-40.44c1.09.94,2.12,2,3.26,2.81a89.14,89.14,0,0,1,12.85,12.32,5.21,5.21,0,0,0,.56.9,141.63,141.63,0,0,1,11.63,14.54c.92,1.34,1.35,1.31,2.67.29,3.17-2.46,6.34-4.95,9.54-7.38,2-1.48,4.09-2.74,5.93-4.35,2.63-2.3,5.11-4.77,7.57-7.26,2.8-2.83,5.51-5.76,8.26-8.64l1.56-2,1.4-1.58a19.24,19.24,0,0,1-2.24-.79c-4.27-2.18-6.34-6-7.53-10.39-1.08-3.95-1.76-8-2.72-12a42.81,42.81,0,0,1-1.17-11.1,15,15,0,0,0-.14-1.69c-.5.35-.84.55-1.14.8-2.54,2.2-5,4.45-7.61,6.6a67.13,67.13,0,0,1-7.32,5.76,50.27,50.27,0,0,1-29.55,7c-4.17-.28-8.13-1.84-12-3.4-.3-.12-.62-.22-1.1-.4.14.46.24.71.3,1a82.64,82.64,0,0,1,2.12,9.59A13.75,13.75,0,0,0,371.49,168.92Zm30.92-88.74.22.14,0-.3-3.37-8.7a38.2,38.2,0,0,1,8,23.7l20.33-.91c-.12-1.91-.27-4-.39-6.19a11.4,11.4,0,0,0,0-2.19c-.63-2.39-1.32-4.76-2.09-7.1-.51-1.53-1.2-3-1.9-4.71,1.75.32,2.55,1.76,3.84,2.5a53.56,53.56,0,0,0-6.51-11.33A36.61,36.61,0,0,0,411,55.86c1.7-1.15,3.4-.5,5.36-.82-3.38-1.71-6.37-3.42-9.51-4.76s-6.47-2.3-9.94-3.51l2.56-2.06c-2.62.09-5.12.21-7.14,2.06-1.36,1.24-1.64,1.07-3.06-.11-3.58-3-7.47-4.74-12.33-3.35-4.06,1.16-8.2,2.08-12.34,3a14,14,0,0,0-5.37,1.85c-3.76,2.64-7.64,5.12-11.27,7.93-4,3.09-7.6,6.55-9.71,11.35-1.94,4.42-4.18,8.72-6.28,13.06l.32.26a5.51,5.51,0,0,0,.88-.61c.8-.83,1.55-1.72,2.37-2.54a5.3,5.3,0,0,1,1.11-.65l.29.32A15.7,15.7,0,0,0,332,88.87l1.89-2.8.45.15c.25,3,.55,6,.72,9.09.2,3.46.16,6.93.46,10.38a55.82,55.82,0,0,0,1.22,6.21l.52-.07-.4-6.44,6,12.5c1.57-1.18,2.92-2.17,4.23-3.22a1,1,0,0,0,.29-.89c-1.17-2.69-2.4-5.36-3.75-8.34a19.56,19.56,0,0,0-2.51,6.62,4.68,4.68,0,0,1-.59-1.49,20.94,20.94,0,0,1,.61-9.11c1.92-7.3,5.61-13.72,9.76-19.91.26-.39.48-.81.71-1.21l.44.4c-.73,1.43-1.5,2.85-2.2,4.29a72.77,72.77,0,0,0-6.37,17.12,7.71,7.71,0,0,0,0,1.52c2.31-2.35,4.41-4.72,6.74-6.81a98.5,98.5,0,0,0,12.5-13.72,1.85,1.85,0,0,0,.41-1.16c-.35-3.45-.85-6.88-1.13-10.33-.17-2,0-4.09,0-6.14l.28,0,1.95,15.26.44.12,4.62-6.32.29.17a15.57,15.57,0,0,1-.64,1.45c-1.19,2-2.42,4-3.6,6.07a2.33,2.33,0,0,0-.47,1.3c.14,1.12.44,2.22.72,3.52,4.37-4.27,8.83-8.25,10.84-14.2a3.08,3.08,0,0,1,0,1.38A19.89,19.89,0,0,1,373,81.67c-2.09,2.9-4.71,5.41-6.21,8.74a3,3,0,0,0,.16,2.79c10.4-11.43,19.82-23.26,23.92-38.45a7.52,7.52,0,0,1-.07,2.6c-.94,3.45-1.95,6.89-3,10.31a1,1,0,0,0,.3,1.32c1.22,1,2.32,2.22,3.59,3.19C395.22,74.88,398.83,77.51,402.41,80.18Zm-34.2,25.68c-2,.81-3.94,1.45-5.75,2.34-4.15,2-8.25,4.2-12.35,6.35-.33.18-.78.74-.71,1a21.39,21.39,0,0,0,1.68,5.33q4.82,8.34,10,16.46c1.65,2.57,3.74,4.85,5.48,7.37,2.18,3.16,5.57,4.5,8.76,6.19a2.19,2.19,0,0,0,.59.06c5,.79,10,.24,14.9-.6,2-.35,4.18-.45,5.89-1.8a92.28,92.28,0,0,0,17.18-17.3,1.86,1.86,0,0,0,.27-.88,20.81,20.81,0,0,1,.22-2.86c.81-3.23,1.67-6.46,2.64-9.65a20.08,20.08,0,0,1,1.55-2.67c.8-1.62,1.23-3.18-.45-4.69a4,4,0,0,1-1.42-2.66,11.73,11.73,0,0,1,2.77-6.94,1.06,1.06,0,0,1,.93-.28c.26.09.39.52.56.77l-1,.13a5.53,5.53,0,0,0,.42.71,8,8,0,0,1,1.88,3.9l-3-3.25c-.61,1.09-.55,1.05-.09,1.75,2.34,3.55,4.11,7.21,2.6,11.65a4.61,4.61,0,0,1-3.81,3.49.88.88,0,0,0-.61.51c-.36,1.63-.63,3.28-1,4.91-.19.91.32,1.24,1,1.61s1.11.07,1.48-.46c1.94-2.78,3.81-5.62,5.84-8.33a6.61,6.61,0,0,0,1.2-5.64c-.12-.55-.27-1.08-.43-1.62-1.24-4.07-2.37-8.19-5.23-11.54-1.24-1.45-2.16-1.53-3.51-.08a21.52,21.52,0,0,0-3.82,6.69c-.63,1.51-1,3.1-1.63,4.62-.12.31-.6.47-.91.69a4.49,4.49,0,0,1-.27-1,6.54,6.54,0,0,1,.22-1l.9-5.29-.3-.07c-.51,1-1,2-1.52,2.91s-1.21,2-1.81,3c-1.36,2.25-1.36,2.25-2.2,2.49,1.93-2.46.71-5.1.86-7.61s.62-5.16-.31-7.75a185.58,185.58,0,0,0-36.13,8.62c.63,2.12,1.18,4.15,1.84,6.15,3.15,9.41,6.34,18.81,9.5,28.22a9.64,9.64,0,0,1,.25,1.52A238.11,238.11,0,0,1,368.21,105.86ZM455,143.61a55,55,0,0,1-2.33,5.16,162.75,162.75,0,0,1-15.37,21.83,112.71,112.71,0,0,1-14.75,15.2c-2.7,2.25-5.48,4.4-8.25,6.57q-5.69,4.47-11.43,8.89a1.63,1.63,0,0,0-.61,2c.49,1.88.92,3.78,1.4,5.66a1,1,0,0,0,.43.64,2.93,2.93,0,0,0,2.88-.9c4.51-6.73,11-10.39,18.75-12,4.08-.87,8.21-1.54,12.31-2.34,5.57-1.09,10.31-4,15-7.07,3.68-2.41,7.19-5.06,11.34-6.65a28.13,28.13,0,0,0,2.62-1.2,3,3,0,0,0,1.27-4c-1.86-3.12-3.76-6.23-5.7-9.3A18.69,18.69,0,0,1,460,160.1c-.68-3-.46-6-.61-9a7.71,7.71,0,0,0-1.07-3.58A33.58,33.58,0,0,0,455,143.61Zm-85.72-39.86a165.84,165.84,0,0,1,36.58-8.34c-.82-4.26-1.63-8.48-2.49-12.69-.06-.31-.46-.63-.78-.79A43.28,43.28,0,0,1,387,70c-1.45,2.41-2.81,4.85-4.35,7.17A111.34,111.34,0,0,1,368,94.72c-.33.32-.71.9-.63,1.27C368,98.55,368.61,101.09,369.27,103.75Zm55.13,33.74c.36,2.1.62,3.95,1,5.78.63,3.09,1.26,6.18,2,9.24a48.93,48.93,0,0,0,2.32,7.88c1.25,2.88,3.17,5.35,6.43,6.38a1.59,1.59,0,0,0,2.06-.55c3.86-5,7.79-10,11.63-15.08,1.84-2.43,3.32-5,3.36-8.26,0-2.33-.53-4.1-2.47-5.43A8,8,0,0,0,446,136c-4.47.09-8.95.09-13.41.35C429.91,136.5,427.25,137.08,424.4,137.49ZM365,91l-.49-.16c-.12.09-.25.17-.36.27a84.23,84.23,0,0,1-12.84,9.18c-2.35,1.4-4.59,3-6.82,4.44l4.28,8.78a91,91,0,0,1,18.34-9,1,1,0,0,0,.48-.77c-.54-2.27-1.14-4.53-1.72-6.78l-7.1,5.67-.46-.39a14.1,14.1,0,0,1,.81-1.42c.7-1,1.49-1.86,2.16-2.85,1-1.52,2-3.06,2.93-4.66A12.37,12.37,0,0,0,365,91Zm47.24,11.6.16.11a21.14,21.14,0,0,0,1.23-2.76c.49-1.69,2-2.11,3.27-2.89a2.38,2.38,0,0,1,1.61,0c2.14.52,3.28,2.27,4.16,4,1.14,2.26,1.92,4.69,2.84,7.06.26.65.46,1.33.78,2.26,1.22-4.82,1.71-11.93,1.1-15.65-6.76-.23-13.43.71-20.26,1.79l.61,10.29.57-1.36c1-2.36,1.92-4.73,2.93-7.07.13-.31.53-.5.8-.75.15.34.43.67.42,1C412.45,100,412.34,101.3,412.26,102.63Zm-10,43.58.13.3a8.82,8.82,0,0,0,1.55-.73c3.45-2.52,6.88-5,10.28-7.62a3,3,0,0,0,1.19-1.72c.16-1.62.05-3.27.05-4.91l-.32-.06C411.17,136.67,407.17,141.85,402.25,146.21Zm16.09-41.4c-1.27,2.19-.77,4,.67,5.69a3.61,3.61,0,0,1,.73,3.66c-.51,1.4-1.18,2.74-1.89,4.36.89-.26,1.93-.25,2.35-.75a6,6,0,0,0,1.37-3C422.05,111,420.41,107.88,418.34,104.81ZM352.25,98c.56-.08.82,0,1-.15q5.3-4.45,10.55-9c.22-.19.48-.54.44-.78-.14-1-.38-2.06-.63-3.31A61.31,61.31,0,0,1,352.25,98Zm2.46,35.8-.22.22c.72,1.49,1.43,3,2.18,4.46a1.82,1.82,0,0,0,.75.88c1.24.52,2.53.95,3.93,1.46C360,137.3,357.3,135.59,354.71,133.75Zm-6.58-18-4,3,3.07,3.32c.11-1.43.41-2.51,2-2.58Zm-7.92,4.7c1-.57,1.12-1.17.53-2.09a19.54,19.54,0,0,1-1.26-2.7c-.25-.59-.46-1.19-.69-1.79s-.45-1.16-.72-1.86A11.75,11.75,0,0,0,340.21,120.47Zm76.72,12.24v3.41l4.86-4.29-.09-.23Zm-63.38-.42c.4-2.48-1.17-5.56-2.66-5.47Zm10,14.18,0,.35,2.8.93.25-.31L364.57,146l.24-.3Zm.21-50.81c1.36-.16,1.8-.89,1.37-2.21Z" />
        <polygon class="outline" points="347.94 127.71 347.93 127.63 348 127.66 347.94 127.71" />
        <path class="transparent"
            d="M402.41,80.18c-3.58-2.67-7.19-5.3-10.74-8-1.27-1-2.37-2.14-3.59-3.19a1,1,0,0,1-.3-1.32c1.05-3.42,2.06-6.86,3-10.31a7.52,7.52,0,0,0,.07-2.6c-4.1,15.19-13.52,27-23.92,38.45a3,3,0,0,1-.16-2.79c1.5-3.33,4.12-5.84,6.21-8.74a19.89,19.89,0,0,0,3.46-7.44,3.08,3.08,0,0,0,0-1.38c-2,6-6.47,9.93-10.84,14.2-.28-1.3-.58-2.4-.72-3.52a2.33,2.33,0,0,1,.47-1.3c1.18-2,2.41-4,3.6-6.07a15.57,15.57,0,0,0,.64-1.45l-.29-.17-4.62,6.32-.44-.12-1.95-15.26-.28,0c0,2-.14,4.11,0,6.14.28,3.45.78,6.88,1.13,10.33a1.85,1.85,0,0,1-.41,1.16,98.5,98.5,0,0,1-12.5,13.72c-2.33,2.09-4.43,4.46-6.74,6.81a7.71,7.71,0,0,1,0-1.52A72.77,72.77,0,0,1,349.87,85c.7-1.44,1.47-2.86,2.2-4.29l-.44-.4c-.23.4-.45.82-.71,1.21-4.15,6.19-7.84,12.61-9.76,19.91a20.94,20.94,0,0,0-.61,9.11,4.68,4.68,0,0,0,.59,1.49,19.56,19.56,0,0,1,2.51-6.62c1.35,3,2.58,5.65,3.75,8.34a1,1,0,0,1-.29.89c-1.31,1-2.66,2-4.23,3.22l-6-12.5.4,6.44-.52.07a55.82,55.82,0,0,1-1.22-6.21c-.3-3.45-.26-6.92-.46-10.38-.17-3-.47-6.06-.72-9.09l-.45-.15L332,88.87A15.7,15.7,0,0,1,337,77.24l-.29-.32a5.3,5.3,0,0,0-1.11.65c-.82.82-1.57,1.71-2.37,2.54a5.51,5.51,0,0,1-.88.61l-.32-.26c2.1-4.34,4.34-8.64,6.28-13.06,2.11-4.8,5.72-8.26,9.71-11.35,3.63-2.81,7.51-5.29,11.27-7.93a14,14,0,0,1,5.37-1.85c4.14-.88,8.28-1.8,12.34-3,4.86-1.39,8.75.37,12.33,3.35,1.42,1.18,1.7,1.35,3.06.11,2-1.85,4.52-2,7.14-2.06l-2.56,2.06c3.47,1.21,6.78,2.17,9.94,3.51s6.13,3,9.51,4.76c-2,.32-3.66-.33-5.36.82a36.61,36.61,0,0,1,9.46,9.23A53.56,53.56,0,0,1,427,76.42c-1.29-.74-2.09-2.18-3.84-2.5.7,1.71,1.39,3.18,1.9,4.71.77,2.34,1.46,4.71,2.09,7.1a11.4,11.4,0,0,1,0,2.19c.12,2.14.27,4.28.39,6.19L407.22,95a38.2,38.2,0,0,0-8-23.7L402.6,80Z" />
        <path class="transparent"
            d="M368.21,105.86a238.11,238.11,0,0,0,13.15,35.38,9.64,9.64,0,0,0-.25-1.52c-3.16-9.41-6.35-18.81-9.5-28.22-.66-2-1.21-4-1.84-6.15a185.58,185.58,0,0,1,36.13-8.62c.93,2.59.47,5.19.31,7.75s1.07,5.15-.86,7.61c.84-.24.84-.24,2.2-2.49.6-1,1.24-2,1.81-3s1-1.94,1.52-2.91l.3.07-.9,5.29a6.54,6.54,0,0,0-.22,1,4.49,4.49,0,0,0,.27,1c.31-.22.79-.38.91-.69.59-1.52,1-3.11,1.63-4.62a21.52,21.52,0,0,1,3.82-6.69c1.35-1.45,2.27-1.37,3.51.08,2.86,3.35,4,7.47,5.23,11.54.16.54.31,1.07.43,1.62a6.61,6.61,0,0,1-1.2,5.64c-2,2.71-3.9,5.55-5.84,8.33-.37.53-.73.86-1.48.46s-1.21-.7-1-1.61c.34-1.63.61-3.28,1-4.91a.88.88,0,0,1,.61-.51,4.61,4.61,0,0,0,3.81-3.49c1.51-4.44-.26-8.1-2.6-11.65-.46-.7-.52-.66.09-1.75l3,3.25a8,8,0,0,0-1.88-3.9,5.53,5.53,0,0,1-.42-.71l1-.13c-.17-.25-.3-.68-.56-.77a1.06,1.06,0,0,0-.93.28,11.73,11.73,0,0,0-2.77,6.94,4,4,0,0,0,1.42,2.66c1.68,1.51,1.25,3.07.45,4.69a20.08,20.08,0,0,0-1.55,2.67c-1,3.19-1.83,6.42-2.64,9.65a20.81,20.81,0,0,0-.22,2.86,1.86,1.86,0,0,1-.27.88,92.28,92.28,0,0,1-17.18,17.3c-1.71,1.35-3.85,1.45-5.89,1.8-4.94.84-9.89,1.39-14.9.6a2.19,2.19,0,0,1-.59-.06c-3.19-1.69-6.58-3-8.76-6.19-1.74-2.52-3.83-4.8-5.48-7.37q-5.18-8.12-10-16.46a21.39,21.39,0,0,1-1.68-5.33c-.07-.25.38-.81.71-1,4.1-2.15,8.2-4.3,12.35-6.35C364.27,107.31,366.21,106.67,368.21,105.86Z" />
        <path class="color-base"
            d="M387.6,184.05a89.14,89.14,0,0,0-12.85-12.32c-1.14-.86-2.17-1.87-3.26-2.81a9.41,9.41,0,0,0-.09-2.38c-.94-3.2-2-6.37-3-9.55a16.48,16.48,0,0,1-.34-1.79l1.32.36a29.12,29.12,0,0,0,9.17,1.36,73.33,73.33,0,0,0,14.73-2,46.39,46.39,0,0,0,12.29-4.85c1.3-.75,2.41-1.87,3.75-2.52,2.39-1.16,4.89-2.08,7.45-3.14.17,1,.29,2,.54,3,.55,2.19,1.06,4.4,1.81,6.53a2.33,2.33,0,0,0,1.81,1.18c.78,0,1.29-.81,1.4-1.69.07-.6.19-1.2.31-2,.9,2.53,1.7,4.87,2.56,7.17a19.8,19.8,0,0,0,6.78,9.49c1.05.75,2.21,1.35,3.32,2l-1.56,2a8.86,8.86,0,0,0-1.54.77c-2.58,1.93-5,4.07-7.71,5.83-7.78,5.08-15.67,10-23.47,15a1.66,1.66,0,0,1-2.37-.17c-2.68-2.45-5.35-4.91-8.07-7.31C389.67,185.47,388.6,184.8,387.6,184.05Zm15.65-18.7v-.1a34,34,0,0,0-5,.45,133.78,133.78,0,0,1-17.43,3,1.84,1.84,0,0,0-1.24.92,1.52,1.52,0,0,0,.24,1.4,5.4,5.4,0,0,0,2.4,1.64,62,62,0,0,0,8.37,1,44.21,44.21,0,0,0,5.19-.62c4.48-.38,7.67-3,10.72-6a1.31,1.31,0,0,0,.33-1.15,1.49,1.49,0,0,0-1.08-.57A23.32,23.32,0,0,0,403.25,165.35Z" />
        <path class="color-base"
            d="M392.37,204.23a8.42,8.42,0,0,0-1-1.51A36.93,36.93,0,0,0,376,193.64c-5.89-1.7-11.72-3.62-17.53-5.57a26.84,26.84,0,0,1-4.83-2.33c-1.82-1.06-3.55-2.3-5.3-3.47-.12-.09-.13-.33-.19-.5,1.11-3.57,2.27-7.13,3.32-10.72,1.44-4.92,2.8-9.87,4.19-14.8.09-.31.24-.61.45-1.16a8.37,8.37,0,0,1,.38.88c1.82,5.95,5.42,10.77,9.66,15.17a97.14,97.14,0,0,0,14,11.53,23.24,23.24,0,0,1,5.38,4.88,58.19,58.19,0,0,1,8.36,16.57,5.74,5.74,0,0,1,0,1.66l-1.53-1.57Z" />
        <path class="color-shadow"
            d="M455,143.61a33.58,33.58,0,0,1,3.31,3.86,7.71,7.71,0,0,1,1.07,3.58c.15,3-.07,6,.61,9A18.69,18.69,0,0,0,462.5,166c1.94,3.07,3.84,6.18,5.7,9.3a3,3,0,0,1-1.27,4,28.13,28.13,0,0,1-2.62,1.2c-4.15,1.59-7.66,4.24-11.34,6.65-4.64,3.05-9.38,6-15,7.07-4.1.8-8.23,1.47-12.31,2.34-7.75,1.63-14.24,5.29-18.75,12a2.93,2.93,0,0,1-2.88.9,1,1,0,0,1-.43-.64c-.48-1.88-.91-3.78-1.4-5.66a1.63,1.63,0,0,1,.61-2q5.75-4.41,11.43-8.89c2.77-2.17,5.55-4.32,8.25-6.57a112.71,112.71,0,0,0,14.75-15.2,162.75,162.75,0,0,0,15.37-21.83A55,55,0,0,0,455,143.61Zm.26,9.18c-.1.15-.22.3-.31.46a86.45,86.45,0,0,1-12.6,17.65q-6,6.39-12.2,12.68-3.06,3.12-6.3,6.06c-2.06,1.87-4.25,3.59-6.35,5.42-1.65,1.44-3.26,2.93-4.87,4.41-.72.66-1.38,1.37-2.06,2.05l.25.22c3.17-2,6.41-3.83,9.48-5.92a40,40,0,0,1,14.91-6.69c3.7-.72,7.3-1.88,10.94-2.9a1.85,1.85,0,0,0,1.06-.82,19.27,19.27,0,0,0,.84-2.23c.47-1.26.95-2.51,1.42-3.76l.27.09-1.52,5.88a17.49,17.49,0,0,0,2-1c4.34-3.12,8.65-6.28,13.59-8.41.74-.33.83-.8.76-1.52a10.29,10.29,0,0,0-2.51-5.31C458.39,164.32,455.29,159.24,455.25,152.79Z" />
        <path class="transparent"
            d="M369.27,103.75c-.66-2.66-1.32-5.2-1.86-7.76-.08-.37.3-.95.63-1.27a111.34,111.34,0,0,0,14.6-17.6c1.54-2.32,2.9-4.76,4.35-7.17a43.28,43.28,0,0,0,15.59,12c.32.16.72.48.78.79.86,4.21,1.67,8.43,2.49,12.69A165.84,165.84,0,0,0,369.27,103.75Z" />
        <path class="color-shadow"
            d="M424.4,137.49c2.85-.41,5.51-1,8.2-1.14,4.46-.26,8.94-.26,13.41-.35a8,8,0,0,1,4.73,1.45c1.94,1.33,2.5,3.1,2.47,5.43,0,3.27-1.52,5.83-3.36,8.26-3.84,5.05-7.77,10-11.63,15.08a1.59,1.59,0,0,1-2.06.55c-3.26-1-5.18-3.5-6.43-6.38a48.93,48.93,0,0,1-2.32-7.88c-.76-3.06-1.39-6.15-2-9.24C425,141.44,424.76,139.59,424.4,137.49Z" />
        <path class="color-shadow"
            d="M393.89,205.78a5.74,5.74,0,0,0,0-1.66,58.19,58.19,0,0,0-8.36-16.57,23.24,23.24,0,0,0-5.38-4.88,97.14,97.14,0,0,1-14-11.53c-4.24-4.4-7.84-9.22-9.66-15.17a8.37,8.37,0,0,0-.38-.88c-.21.55-.36.85-.45,1.16-1.39,4.93-2.75,9.88-4.19,14.8-1.05,3.59-2.21,7.15-3.32,10.72l-5,1c2.64-6.13,5.79-12.17,7.85-18.55s3-13,4.71-19.59c0,.76-.06,1.54,0,2.3a24.22,24.22,0,0,0,6.47,14.37c1.64,1.85,3.31,3.69,5.13,5.37,3.24,3,6.57,5.89,9.91,8.79A86,86,0,0,1,388,187c3.31,4.16,6.69,8.25,10,12.42,2.3,2.91,2.95,6.4,3.15,10,0,.2-.5.62-.75.61-3.34-.12-6.68-.29-10-.47a11.78,11.78,0,0,1-1.17-.17c.16-.11.32-.3.48-.3,1.59,0,3.18.1,4.77.15.22,0,.44,0,.75-.06l-.3-1-.26.31a7.46,7.46,0,0,1-1.91-1.23,18.48,18.48,0,0,0-6.25-5.11,51.67,51.67,0,0,0-13.73-4.72c-3.51-.57-6.95-1.56-10.57-2.39a3.27,3.27,0,0,0,.24.48,4.91,4.91,0,0,0,.51.51,70.27,70.27,0,0,0,15.41,10.38c.25.12.39.44.58.67a48.72,48.72,0,0,1-13.9-6,37.71,37.71,0,0,1-9.6-8.56c-1.47-1.83-3.09-3.54-4.64-5.3l.18-.29c.81.31,1.6.68,2.43.92,4.14,1.16,8.32,2.2,12.44,3.44,4.92,1.48,9.86,2.95,14.66,4.76,4.11,1.56,7.53,4.32,10.8,7.22l1.07.95v0l1.35,2.07.21-.09Z" />
        <path class="color-shadow"
            d="M435.32,170.15c-1.11-.68-2.27-1.28-3.32-2a19.8,19.8,0,0,1-6.78-9.49c-.86-2.3-1.66-4.64-2.56-7.17-.12.79-.24,1.39-.31,2-.11.88-.62,1.69-1.4,1.69a2.33,2.33,0,0,1-1.81-1.18c-.75-2.13-1.26-4.34-1.81-6.53-.25-1-.37-2.07-.54-3-2.56,1.06-5.06,2-7.45,3.14-1.34.65-2.45,1.77-3.75,2.52a46.39,46.39,0,0,1-12.29,4.85,73.33,73.33,0,0,1-14.73,2,29.12,29.12,0,0,1-9.17-1.36l-1.32-.36a16.48,16.48,0,0,0,.34,1.79c1,3.18,2,6.35,3,9.55a9.41,9.41,0,0,1,.09,2.38,13.75,13.75,0,0,1-4.89-9.37,82.64,82.64,0,0,0-2.12-9.59c-.06-.26-.16-.51-.3-1,.48.18.8.28,1.1.4,3.89,1.56,7.85,3.12,12,3.4a50.27,50.27,0,0,0,29.55-7,67.13,67.13,0,0,0,7.32-5.76c2.58-2.15,5.07-4.4,7.61-6.6.3-.25.64-.45,1.14-.8a15,15,0,0,1,.14,1.69,42.81,42.81,0,0,0,1.17,11.1c1,4,1.64,8.05,2.72,12,1.19,4.35,3.26,8.21,7.53,10.39a19.24,19.24,0,0,0,2.24.79Z" />
        <path class="transparent"
            d="M365,91a12.37,12.37,0,0,1-.79,2.29c-.91,1.6-1.91,3.14-2.93,4.66-.67,1-1.46,1.89-2.16,2.85a14.1,14.1,0,0,0-.81,1.42l.46.39,7.1-5.67c.58,2.25,1.18,4.51,1.72,6.78a1,1,0,0,1-.48.77,91,91,0,0,0-18.34,9l-4.28-8.78c2.23-1.46,4.47-3,6.82-4.44a84.23,84.23,0,0,0,12.84-9.18c.11-.1.24-.18.36-.27Z" />
        <path class="color-shadow"
            d="M387.6,184.05c1,.75,2.07,1.42,3,2.25,2.72,2.4,5.39,4.86,8.07,7.31a1.66,1.66,0,0,0,2.37.17c7.8-5,15.69-9.95,23.47-15,2.69-1.76,5.13-3.9,7.71-5.83a8.86,8.86,0,0,1,1.54-.77C431,175,428.3,178,425.5,180.79c-2.46,2.49-4.94,5-7.57,7.26-1.84,1.61-4,2.87-5.93,4.35-3.2,2.43-6.37,4.92-9.54,7.38-1.32,1-1.75,1.05-2.67-.29A141.63,141.63,0,0,0,388.16,185,5.21,5.21,0,0,1,387.6,184.05Z" />
        <path class="color-base"
            d="M378.93,207.08c-.19-.23-.33-.55-.58-.67A70.27,70.27,0,0,1,362.94,196a4.91,4.91,0,0,1-.51-.51,3.27,3.27,0,0,1-.24-.48c3.62.83,7.06,1.82,10.57,2.39a51.67,51.67,0,0,1,13.73,4.72,18.48,18.48,0,0,1,6.25,5.11,7.46,7.46,0,0,0,1.91,1.23l.26-.31.3,1c-.31,0-.53.06-.75.06-1.59-.05-3.18-.12-4.77-.15-.16,0-.32.19-.48.3Z" />
        <path class="color-shadow"
            d="M438.72,195.62a36,36,0,0,1-4.46,3.95,95.23,95.23,0,0,1-11.69,6.75c-2.79,1.26-6,1.57-9.1,2.19a44.87,44.87,0,0,1-4.5.5,8.81,8.81,0,0,1-.89,0l-.2-.3a41.67,41.67,0,0,1,4.91-4.24c3.47-2.2,7-4.36,11.06-5.37,4.91-1.23,9.83-2.4,14.75-3.6Z" />
        <path class="transparent"
            d="M412.26,102.63c.08-1.33.19-2.66.22-4,0-.33-.27-.66-.42-1-.27.25-.67.44-.8.75-1,2.34-2,4.71-2.93,7.07l-.57,1.36-.61-10.29c6.83-1.08,13.5-2,20.26-1.79.61,3.72.12,10.83-1.1,15.65-.32-.93-.52-1.61-.78-2.26-.92-2.37-1.7-4.8-2.84-7.06-.88-1.74-2-3.49-4.16-4a2.38,2.38,0,0,0-1.61,0c-1.23.78-2.78,1.2-3.27,2.89a21.14,21.14,0,0,1-1.23,2.76Z" />
        <path class="color-shadow"
            d="M365,160.79a19.56,19.56,0,0,1-6.61-9.75,73,73,0,0,1-1.29-7.38,2.89,2.89,0,0,1,0-.83c.34-2,.74-2.23,2.58-1.5a19.44,19.44,0,0,1,3,1.48,6.25,6.25,0,0,1,1.26,1.41c-.14.24-.17.34-.23.36-2.29,1.06-2.61,1.85-1.35,4.28,2,3.75,2.48,7.79,2.65,11.92Z" />
        <path class="transparent"
            d="M402.25,146.21c4.92-4.36,8.92-9.54,12.88-14.74l.32.06c0,1.64.11,3.29-.05,4.91a3,3,0,0,1-1.19,1.72c-3.4,2.58-6.83,5.1-10.28,7.62a8.82,8.82,0,0,1-1.55.73Z" />
        <path class="transparent"
            d="M418.34,104.81c2.07,3.07,3.71,6.23,3.23,10a6,6,0,0,1-1.37,3c-.42.5-1.46.49-2.35.75.71-1.62,1.38-3,1.89-4.36a3.61,3.61,0,0,0-.73-3.66C417.57,108.79,417.07,107,418.34,104.81Z" />
        <path class="transparent"
            d="M352.25,98a61.31,61.31,0,0,0,11.32-13.19c.25,1.25.49,2.27.63,3.31,0,.24-.22.59-.44.78q-5.25,4.5-10.55,9C353.07,97.92,352.81,97.87,352.25,98Z" />
        <path class="transparent"
            d="M354.71,133.75c2.59,1.84,5.32,3.55,6.64,7-1.4-.51-2.69-.94-3.93-1.46a1.82,1.82,0,0,1-.75-.88c-.75-1.48-1.46-3-2.18-4.46Z" />
        <path class="transparent" d="M348.13,115.77l1,3.7c-1.57.07-1.87,1.15-2,2.58l-3.07-3.32Z" />
        <path class="transparent"
            d="M340.21,120.47a11.75,11.75,0,0,1-2.14-8.44c.27.7.5,1.28.72,1.86s.44,1.2.69,1.79a19.54,19.54,0,0,0,1.26,2.7C341.33,119.3,341.2,119.9,340.21,120.47Z" />
        <path class="color-shadow" d="M416.93,132.71l4.77-1.11.09.23-4.86,4.29Z" />
        <path class="transparent"
            d="M354.7,129.31c2,2.89,2.89,4.64,2.61,5.47l-1.51-1.23a2.63,2.63,0,0,1-1.17-2.46,5.62,5.62,0,0,0-.23-1.49Z" />
        <path class="transparent"
            d="M352.88,127.14l-4.16-5.57.46-.51c.31.21.72.35.9.64,1.07,1.69,2.09,3.41,3.12,5.12Z" />
        <path class="transparent" d="M353.55,132.29l-2.66-5.47C352.38,126.73,354,129.81,353.55,132.29Z" />
        <path class="color-shadow" d="M363.54,146.47l1.27-.74-.24.3,2.07,1.41-.25.31-2.8-.93Z" />
        <path class="transparent" d="M363.75,95.66l1.37-2.21C365.55,94.77,365.11,95.5,363.75,95.66Z" />
        <path class="color-base" d="M354.7,129.31l-.3.29-1.18-1.89.37-.32Z" />
        <path class="transparent" d="M345.23,122.53a.89.89,0,0,1-.28.21s-.13-.13-.34-.36l.6.16Z" />
        <path class="transparent" d="M402.6,80l0,.3-.22-.14Z" />
        <path class="transparent" d="M353.59,127.39l-.37.32c0-.12,0-.24,0-.36Z" />
        <path class="transparent" d="M353.2,126.82l0,.44-.34-.12Z" />
        <path class="transparent" d="M345.21,122.54l0,.34-.11,0c.05-.11.11-.21.17-.32Z" />
        <path class="color-shadow" d="M365,160.78l.11.12s-.07,0-.08,0a.3.3,0,0,1,0-.1Z" />
        <path class="color-shadow" d="M438.6,195.5l.25,0-.13.15Z" />
        <path class="color-shadow"
            d="M403.25,165.35a23.32,23.32,0,0,1,2.51,0,1.49,1.49,0,0,1,1.08.57,1.31,1.31,0,0,1-.33,1.15c-3.05,2.91-6.24,5.57-10.72,6a44.21,44.21,0,0,1-5.19.62,62,62,0,0,1-8.37-1,5.4,5.4,0,0,1-2.4-1.64,1.52,1.52,0,0,1-.24-1.4,1.84,1.84,0,0,1,1.24-.92,133.78,133.78,0,0,0,17.43-3,34,34,0,0,1,5-.45Z" />
        <path class="outline" d="M393.89,205.78l0,.41-.21.09-1.35-2.07Z" />
        <path class="color-base"
            d="M455.25,152.79c0,6.45,3.14,11.53,6.81,16.34a10.29,10.29,0,0,1,2.51,5.31c.07.72,0,1.19-.76,1.52-4.94,2.13-9.25,5.29-13.59,8.41a17.49,17.49,0,0,1-2,1l1.52-5.88-.27-.09c-.47,1.25-.95,2.5-1.42,3.76a19.27,19.27,0,0,1-.84,2.23,1.85,1.85,0,0,1-1.06.82c-3.64,1-7.24,2.18-10.94,2.9a40,40,0,0,0-14.91,6.69c-3.07,2.09-6.31,4-9.48,5.92l-.25-.22c.68-.68,1.34-1.39,2.06-2.05,1.61-1.48,3.22-3,4.87-4.41,2.1-1.83,4.29-3.55,6.35-5.42s4.26-4,6.3-6.06q6.15-6.29,12.2-12.68a86.45,86.45,0,0,0,12.6-17.65C455,153.09,455.15,152.94,455.25,152.79Z" />
    </g>
</svg>
